<?xml version="1.0"?>
<VTKFile type="UnstructuredGrid" version="0.1" byte_order="LittleEndian">
   <UnstructuredGrid>
      <Piece NumberOfPoints="200" NumberOfCells="0" > 
         <Points> 
            <DataArray type="Float64" Name="Position" NumberOfComponents="3" format="ascii"> 
               50  150  0  
               150  150  0  
               50  250  0  
               250  150  0  
               150  250  0  
               50  350  0  
               350  150  0  
               250  250  0  
               150  350  0  
               50  450  0  
               450  150  0  
               350  250  0  
               250  350  0  
               150  450  0  
               50  550  0  
               550  150  0  
               450  250  0  
               350  350  0  
               250  450  0  
               150  550  0  
               50  650  0  
               650  150  0  
               550  250  0  
               450  350  0  
               350  450  0  
               250  550  0  
               150  650  0  
               50  750  0  
               750  150  0  
               650  250  0  
               550  350  0  
               450  450  0  
               350  550  0  
               250  650  0  
               150  750  0  
               50  850  0  
               850  150  0  
               750  250  0  
               650  350  0  
               550  450  0  
               450  550  0  
               350  650  0  
               250  750  0  
               150  850  0  
               50  950  0  
               950  150  0  
               850  250  0  
               750  350  0  
               650  450  0  
               550  550  0  
               450  650  0  
               350  750  0  
               250  850  0  
               150  950  0  
               50  1050  0  
               1050  150  0  
               950  250  0  
               850  350  0  
               750  450  0  
               650  550  0  
               550  650  0  
               450  750  0  
               350  850  0  
               250  950  0  
               150  1050  0  
               1150  150  0  
               1050  250  0  
               950  350  0  
               850  450  0  
               750  550  0  
               650  650  0  
               550  750  0  
               450  850  0  
               350  950  0  
               250  1050  0  
               1250  150  0  
               1150  250  0  
               1050  350  0  
               950  450  0  
               850  550  0  
               750  650  0  
               650  750  0  
               550  850  0  
               450  950  0  
               350  1050  0  
               1350  150  0  
               1250  250  0  
               1150  350  0  
               1050  450  0  
               950  550  0  
               850  650  0  
               750  750  0  
               650  850  0  
               550  950  0  
               450  1050  0  
               1450  150  0  
               1350  250  0  
               1250  350  0  
               1150  450  0  
               1050  550  0  
               950  650  0  
               850  750  0  
               750  850  0  
               650  950  0  
               550  1050  0  
               1550  150  0  
               1450  250  0  
               1350  350  0  
               1250  450  0  
               1150  550  0  
               1050  650  0  
               950  750  0  
               850  850  0  
               750  950  0  
               650  1050  0  
               1650  150  0  
               1550  250  0  
               1450  350  0  
               1350  450  0  
               1250  550  0  
               1150  650  0  
               1050  750  0  
               950  850  0  
               850  950  0  
               750  1050  0  
               1750  150  0  
               1650  250  0  
               1550  350  0  
               1450  450  0  
               1350  550  0  
               1250  650  0  
               1150  750  0  
               1050  850  0  
               950  950  0  
               850  1050  0  
               1850  150  0  
               1750  250  0  
               1650  350  0  
               1550  450  0  
               1450  550  0  
               1350  650  0  
               1250  750  0  
               1150  850  0  
               1050  950  0  
               950  1050  0  
               1950  150  0  
               1850  250  0  
               1750  350  0  
               1650  450  0  
               1550  550  0  
               1450  650  0  
               1350  750  0  
               1250  850  0  
               1150  950  0  
               1050  1050  0  
               1950  250  0  
               1850  350  0  
               1750  450  0  
               1650  550  0  
               1550  650  0  
               1450  750  0  
               1350  850  0  
               1250  950  0  
               1150  1050  0  
               1950  350  0  
               1850  450  0  
               1750  550  0  
               1650  650  0  
               1550  750  0  
               1450  850  0  
               1350  950  0  
               1250  1050  0  
               1950  450  0  
               1850  550  0  
               1750  650  0  
               1650  750  0  
               1550  850  0  
               1450  950  0  
               1350  1050  0  
               1950  550  0  
               1850  650  0  
               1750  750  0  
               1650  850  0  
               1550  950  0  
               1450  1050  0  
               1950  650  0  
               1850  750  0  
               1750  850  0  
               1650  950  0  
               1550  1050  0  
               1950  750  0  
               1850  850  0  
               1750  950  0  
               1650  1050  0  
               1950  850  0  
               1850  950  0  
               1750  1050  0  
               1950  950  0  
               1850  1050  0  
               1950  1050  0  
            </DataArray>
         </Points> 

         <Cells>
            <DataArray type="Int32" Name="connectivity" NumberOfComponents="1" format="ascii">
               
            </DataArray> 
            <DataArray type="Int32" Name="offsets" NumberOfComponents="1" format="ascii">
               
            </DataArray>
            <DataArray type="UInt8"  Name="types" NumberOfComponents="1" format="ascii">
               
            </DataArray>
         </Cells>
         <PointData Scalars="Rank sea_floor_depth_below_sea_surface sea_surface_height sea_floor_depth_below_geoid " Vectors="">
            <DataArray type="UInt32" Name="Rank" NumberOfComponents="1" format="ascii">
               0 0 0 0 0 0 0 0 0 0 0 0 0 0 0 0 0 0 0 0 0 0 0 0 0 0 0 0 0 0 0 0 0 0 0 0 0 0 0 0 0 0 0 0 0 0 0 0 0 0 0 0 0 0 0 0 0 0 0 0 0 0 0 0 0 0 0 0 0 0 0 0 0 0 0 0 0 0 0 0 0 0 0 0 0 0 0 0 0 0 0 0 0 0 0 0 0 0 0 0 0 0 0 0 0 0 0 0 0 0 0 0 0 0 0 0 0 0 0 0 0 0 0 0 0 0 0 0 0 0 0 0 0 0 0 0 0 0 0 0 0 0 0 0 0 0 0 0 0 0 0 0 0 0 0 0 0 0 0 0 0 0 0 0 0 0 0 0 0 0 0 0 0 0 0 0 0 0 0 0 0 0 0 0 0 0 0 0 0 0 0 0 0 0 0 0 0 0 0 0 
            </DataArray>
            <DataArray type="Float64" Name="sea_floor_depth_below_sea_surface" NumberOfComponents="1" format="ascii">
               0 0 0 0 0 0 0 0 0 0 0 0 0 0 0 0 0 0 0 0 0 0 0 0 0 0 0 0 0 0 0 0 0 0 0 0 0 0 0 0 0 0 0 0 0 0 0 0 0 0 0 0 0 0 0 0 0 0 0 0 0 0 0 0 0 0 0 0 0 0 0 0 0 0 0 0 0 0 0 0 0 0 0 0 0 0 0 0 0 0 0 0 0 0 0 0 0 0 0 0 0 0 0 0 0 0 0 0 0 0 0 0 0 0 0 0 0 0 0 0 0 0 0 0 0 0 0 0 0 0 0 0 0 0 0 0 0 0 0 0 0 0 0 0 0 0 0 0 0 0 0 0 0 0 0 0 0 0 0 0 0 0 0 0 0 0 0 0 0 0 0 0 0 0 0 0 0 0 0 0 0 0 0 0 0 0 0 0 0 0 0 0 0 0 0 0 0 0 0 0 
            </DataArray>
            <DataArray type="Float64" Name="sea_surface_height" NumberOfComponents="1" format="ascii">
               1.74016e-07 1.9781e-07 1.50137e-07 2.29487e-07 -3.40003 1.18376e-07 2.4525e-07 -3.40001 -3.40001 7.31073e-08 2.79643e-07 -3.39999 -3.4 -3.39999 7.21415e-08 2.49796e-07 -3.39999 -3.39999 -3.4 -5.22256e-08 1.82295e-07 2.78804e-07 3.17388e-07 -3.39999 -3.4 1.44356e-08 2.93328e-07 2.15623e-07 3.20821e-07 2.32548e-07 2.5017e-07 -3.4 2.4621e-07 2.47182e-07 1.93048e-07 1.87275e-07 -3.37523e-08 1.57901e-07 4.50202e-07 3.0687e-07 3.94414e-07 7.53367e-08 1.78211e-07 1.88053e-07 1.75957e-07 -2.26505e-07 9.83634e-08 -2.75945e-07 1.91813e-07 2.20759e-07 -8.88309e-09 1.35492e-07 1.67069e-07 1.77189e-07 1.78044e-07 -1.7547e-07 1.70053 4.05622e-07 2.08391e-07 1.71114e-07 1.2208e-07 1.19589e-07 1.5498e-07 1.70231e-07 1.81111e-07 -1.73473e-07 1.70007 1.70111 1.95022e-07 1.3337e-07 1.20273e-07 9.72601e-08 1.36267e-07 1.58474e-07 1.71178e-07 -1.67523e-07 1.69954 1.69982 1.70053 -1.29934e-07 2.09317e-08 1.08506e-07 1.3726e-07 1.55162e-07 1.61757e-07 -1.91347e-07 1.69976 1.69952 1.70007 6.58641e-08 -4.21107e-07 3.89375e-08 1.27058e-07 1.5247e-07 1.54397e-07 -2.3458e-07 -2.09687e-07 1.69975 1.69954 -5.05988e-07 -1.24006e-06 8.45301e-08 1.46404e-07 1.63875e-07 1.5625e-07 -2.28642e-07 -2.20359e-07 -2.26765e-07 1.69975 -1.1241e-06 -4.97085e-07 5.74098e-07 2.53085e-07 2.06179e-07 1.70253e-07 -2.24685e-07 -2.15287e-07 -1.83211e-07 -2.82652e-07 -9.33405e-07 -5.83862e-08 2.38077e-07 1.50988e-07 2.17123e-07 1.90529e-07 -2.28028e-07 -2.3273e-07 -2.45649e-07 -2.9584e-07 -5.29324e-07 -4.01962e-07 3.08092e-07 3.65104e-07 3.41901e-07 2.42516e-07 -2.26715e-07 -2.26194e-07 -2.2632e-07 -2.32602e-07 -2.99165e-07 -2.01773e-07 5.84001e-07 3.37604e-07 2.96919e-07 2.69793e-07 -2.28107e-07 -2.28652e-07 -2.32043e-07 -2.40799e-07 -2.48596e-07 -1.53678e-07 7.97532e-08 2.51693e-07 4.51983e-07 3.57916e-07 -2.28864e-07 -2.26202e-07 -2.28877e-07 -2.41323e-07 -2.78402e-07 -1.52721e-07 -1.7 3.68535e-07 3.44174e-07 -2.29068e-07 -2.27883e-07 -2.38746e-07 -2.78813e-07 -7.36457e-08 -1.7 -1.7 4.16746e-07 -2.25687e-07 -2.19992e-07 -2.17197e-07 -8.13112e-08 -1.7 -1.7 -1.7 -2.19464e-07 -2.06831e-07 -1.69456e-07 -1.7 -1.7 -1.7 -2.11508e-07 -2.06179e-07 -1.90035e-07 -1.7 -1.7 -2.01819e-07 -1.99759e-07 -2.13233e-07 -1.7 -2.00152e-07 -1.99889e-07 -2.0841e-07 -2.00294e-07 -2.03956e-07 -2.01049e-07 
            </DataArray>
            <DataArray type="Float64" Name="sea_floor_depth_below_geoid" NumberOfComponents="1" format="ascii">
               10 10 10 10 10 10 10 10 10 10 10 10 10 10 10 10 10 10 10 10 10 10 10 10 10 10 10 10 10 10 10 10 10 10 10 10 10 10 10 10 10 10 10 10 10 10 10 10 10 10 10 10 10 10 10 10 10 10 10 10 10 10 10 10 10 10 10 10 10 10 10 10 10 10 10 10 10 10 10 10 10 10 10 10 10 10 10 10 10 10 10 10 10 10 10 10 10 10 10 10 10 10 10 10 10 10 10 10 10 10 10 10 10 10 10 10 10 10 10 10 10 10 10 10 10 10 10 10 10 10 10 10 10 10 10 10 10 10 10 10 10 10 10 10 10 10 10 10 10 10 10 10 10 10 10 10 10 10 10 10 10 10 10 10 10 10 10 10 10 10 10 10 10 10 10 10 10 10 10 10 10 10 10 10 10 10 10 10 10 10 10 10 10 10 10 10 10 10 10 10 
            </DataArray>
         </PointData> 
      </Piece>
   </UnstructuredGrid> 
</VTKFile>
