<?xml version="1.0"?>
<VTKFile type="UnstructuredGrid" version="0.1" byte_order="LittleEndian">
   <UnstructuredGrid>
      <Piece NumberOfPoints="200" NumberOfCells="0" > 
         <Points> 
            <DataArray type="Float64" Name="Position" NumberOfComponents="3" format="ascii"> 
               50  150  0  
               150  150  0  
               50  250  0  
               250  150  0  
               150  250  0  
               50  350  0  
               350  150  0  
               250  250  0  
               150  350  0  
               50  450  0  
               450  150  0  
               350  250  0  
               250  350  0  
               150  450  0  
               50  550  0  
               550  150  0  
               450  250  0  
               350  350  0  
               250  450  0  
               150  550  0  
               50  650  0  
               650  150  0  
               550  250  0  
               450  350  0  
               350  450  0  
               250  550  0  
               150  650  0  
               50  750  0  
               750  150  0  
               650  250  0  
               550  350  0  
               450  450  0  
               350  550  0  
               250  650  0  
               150  750  0  
               50  850  0  
               850  150  0  
               750  250  0  
               650  350  0  
               550  450  0  
               450  550  0  
               350  650  0  
               250  750  0  
               150  850  0  
               50  950  0  
               950  150  0  
               850  250  0  
               750  350  0  
               650  450  0  
               550  550  0  
               450  650  0  
               350  750  0  
               250  850  0  
               150  950  0  
               50  1050  0  
               1050  150  0  
               950  250  0  
               850  350  0  
               750  450  0  
               650  550  0  
               550  650  0  
               450  750  0  
               350  850  0  
               250  950  0  
               150  1050  0  
               1150  150  0  
               1050  250  0  
               950  350  0  
               850  450  0  
               750  550  0  
               650  650  0  
               550  750  0  
               450  850  0  
               350  950  0  
               250  1050  0  
               1250  150  0  
               1150  250  0  
               1050  350  0  
               950  450  0  
               850  550  0  
               750  650  0  
               650  750  0  
               550  850  0  
               450  950  0  
               350  1050  0  
               1350  150  0  
               1250  250  0  
               1150  350  0  
               1050  450  0  
               950  550  0  
               850  650  0  
               750  750  0  
               650  850  0  
               550  950  0  
               450  1050  0  
               1450  150  0  
               1350  250  0  
               1250  350  0  
               1150  450  0  
               1050  550  0  
               950  650  0  
               850  750  0  
               750  850  0  
               650  950  0  
               550  1050  0  
               1550  150  0  
               1450  250  0  
               1350  350  0  
               1250  450  0  
               1150  550  0  
               1050  650  0  
               950  750  0  
               850  850  0  
               750  950  0  
               650  1050  0  
               1650  150  0  
               1550  250  0  
               1450  350  0  
               1350  450  0  
               1250  550  0  
               1150  650  0  
               1050  750  0  
               950  850  0  
               850  950  0  
               750  1050  0  
               1750  150  0  
               1650  250  0  
               1550  350  0  
               1450  450  0  
               1350  550  0  
               1250  650  0  
               1150  750  0  
               1050  850  0  
               950  950  0  
               850  1050  0  
               1850  150  0  
               1750  250  0  
               1650  350  0  
               1550  450  0  
               1450  550  0  
               1350  650  0  
               1250  750  0  
               1150  850  0  
               1050  950  0  
               950  1050  0  
               1950  150  0  
               1850  250  0  
               1750  350  0  
               1650  450  0  
               1550  550  0  
               1450  650  0  
               1350  750  0  
               1250  850  0  
               1150  950  0  
               1050  1050  0  
               1950  250  0  
               1850  350  0  
               1750  450  0  
               1650  550  0  
               1550  650  0  
               1450  750  0  
               1350  850  0  
               1250  950  0  
               1150  1050  0  
               1950  350  0  
               1850  450  0  
               1750  550  0  
               1650  650  0  
               1550  750  0  
               1450  850  0  
               1350  950  0  
               1250  1050  0  
               1950  450  0  
               1850  550  0  
               1750  650  0  
               1650  750  0  
               1550  850  0  
               1450  950  0  
               1350  1050  0  
               1950  550  0  
               1850  650  0  
               1750  750  0  
               1650  850  0  
               1550  950  0  
               1450  1050  0  
               1950  650  0  
               1850  750  0  
               1750  850  0  
               1650  950  0  
               1550  1050  0  
               1950  750  0  
               1850  850  0  
               1750  950  0  
               1650  1050  0  
               1950  850  0  
               1850  950  0  
               1750  1050  0  
               1950  950  0  
               1850  1050  0  
               1950  1050  0  
            </DataArray>
         </Points> 

         <Cells>
            <DataArray type="Int32" Name="connectivity" NumberOfComponents="1" format="ascii">
               
            </DataArray> 
            <DataArray type="Int32" Name="offsets" NumberOfComponents="1" format="ascii">
               
            </DataArray>
            <DataArray type="UInt8"  Name="types" NumberOfComponents="1" format="ascii">
               
            </DataArray>
         </Cells>
         <PointData Scalars="Rank sea_floor_depth_below_sea_surface sea_surface_height sea_floor_depth_below_geoid " Vectors="">
            <DataArray type="UInt32" Name="Rank" NumberOfComponents="1" format="ascii">
               0 0 0 0 0 0 0 0 0 0 0 0 0 0 0 0 0 0 0 0 0 0 0 0 0 0 0 0 0 0 0 0 0 0 0 0 0 0 0 0 0 0 0 0 0 0 0 0 0 0 0 0 0 0 0 0 0 0 0 0 0 0 0 0 0 0 0 0 0 0 0 0 0 0 0 0 0 0 0 0 0 0 0 0 0 0 0 0 0 0 0 0 0 0 0 0 0 0 0 0 0 0 0 0 0 0 0 0 0 0 0 0 0 0 0 0 0 0 0 0 0 0 0 0 0 0 0 0 0 0 0 0 0 0 0 0 0 0 0 0 0 0 0 0 0 0 0 0 0 0 0 0 0 0 0 0 0 0 0 0 0 0 0 0 0 0 0 0 0 0 0 0 0 0 0 0 0 0 0 0 0 0 0 0 0 0 0 0 0 0 0 0 0 0 0 0 0 0 0 0 
            </DataArray>
            <DataArray type="Float64" Name="sea_floor_depth_below_sea_surface" NumberOfComponents="1" format="ascii">
               0 0 0 0 0 0 0 0 0 0 0 0 0 0 0 0 0 0 0 0 0 0 0 0 0 0 0 0 0 0 0 0 0 0 0 0 0 0 0 0 0 0 0 0 0 0 0 0 0 0 0 0 0 0 0 0 0 0 0 0 0 0 0 0 0 0 0 0 0 0 0 0 0 0 0 0 0 0 0 0 0 0 0 0 0 0 0 0 0 0 0 0 0 0 0 0 0 0 0 0 0 0 0 0 0 0 0 0 0 0 0 0 0 0 0 0 0 0 0 0 0 0 0 0 0 0 0 0 0 0 0 0 0 0 0 0 0 0 0 0 0 0 0 0 0 0 0 0 0 0 0 0 0 0 0 0 0 0 0 0 0 0 0 0 0 0 0 0 0 0 0 0 0 0 0 0 0 0 0 0 0 0 0 0 0 0 0 0 0 0 0 0 0 0 0 0 0 0 0 0 
            </DataArray>
            <DataArray type="Float64" Name="sea_surface_height" NumberOfComponents="1" format="ascii">
               1.6528e-07 1.88036e-07 1.42469e-07 2.17233e-07 -2.80002 1.13226e-07 2.33478e-07 -2.80001 -2.8 7.07773e-08 2.63848e-07 -2.79999 -2.8 -2.79999 6.88905e-08 2.42694e-07 -2.8 -2.79999 -2.8 -4.24638e-08 1.68862e-07 2.74317e-07 3.05208e-07 -2.8 -2.8 1.81945e-08 2.69074e-07 1.98262e-07 3.13108e-07 2.26926e-07 2.40717e-07 -2.8 2.28909e-07 2.27708e-07 1.77702e-07 1.72363e-07 -3.22434e-08 1.74243e-07 4.33992e-07 3.00176e-07 3.59932e-07 7.13551e-08 1.6394e-07 1.7222e-07 1.61862e-07 -2.09278e-07 8.70177e-08 -2.94864e-07 1.87282e-07 2.12432e-07 -1.60586e-09 1.25893e-07 1.53354e-07 1.62196e-07 1.63023e-07 -1.64802e-07 1.40063 4.39196e-07 2.28039e-07 1.75132e-07 1.16311e-07 1.09951e-07 1.41124e-07 1.55041e-07 1.64957e-07 -1.64486e-07 1.40013 1.40132 1.97208e-07 1.53278e-07 1.18961e-07 9.16006e-08 1.24059e-07 1.43738e-07 1.5587e-07 -1.61206e-07 1.39957 1.39989 1.40063 -5.94301e-08 2.93192e-08 9.91533e-08 1.22588e-07 1.38677e-07 1.46669e-07 -1.83095e-07 1.39954 1.39953 1.40013 2.03219e-07 -3.93228e-07 3.09214e-08 1.11164e-07 1.34341e-07 1.39068e-07 -2.26426e-07 -1.9377e-07 1.39951 1.39957 -3.98811e-07 -1.20439e-06 4.86327e-08 1.19924e-07 1.40356e-07 1.38514e-07 -2.1965e-07 -2.21438e-07 -2.49051e-07 1.39954 -1.07176e-06 -4.44293e-07 4.89009e-07 2.1236e-07 1.73235e-07 1.47712e-07 -2.14445e-07 -2.08219e-07 -1.59576e-07 -2.60411e-07 -9.16265e-07 3.24892e-08 1.91989e-07 1.28572e-07 1.81876e-07 1.62316e-07 -2.15917e-07 -2.20459e-07 -2.26953e-07 -2.83682e-07 -4.80621e-07 -2.5166e-07 2.86575e-07 3.15184e-07 2.82873e-07 2.03321e-07 -2.14191e-07 -2.14147e-07 -2.13158e-07 -2.20159e-07 -2.71965e-07 -1.47175e-07 5.13832e-07 2.93574e-07 2.48893e-07 2.29004e-07 -2.15043e-07 -2.15427e-07 -2.17999e-07 -2.25902e-07 -2.32062e-07 -1.35529e-07 5.97819e-08 2.35755e-07 3.95531e-07 3.03071e-07 -2.15464e-07 -2.12902e-07 -2.15029e-07 -2.25824e-07 -2.57779e-07 -1.38969e-07 -1.4 3.06108e-07 2.86079e-07 -2.14928e-07 -2.13455e-07 -2.23235e-07 -2.61265e-07 -6.06411e-08 -1.4 -1.4 3.59611e-07 -2.11258e-07 -2.05507e-07 -2.01945e-07 -6.83023e-08 -1.4 -1.4 -1.4 -2.04542e-07 -1.91679e-07 -1.54746e-07 -1.4 -1.4 -1.4 -1.96375e-07 -1.90021e-07 -1.73265e-07 -1.4 -1.4 -1.86426e-07 -1.83175e-07 -1.94929e-07 -1.4 -1.84224e-07 -1.83214e-07 -1.90711e-07 -1.83731e-07 -1.868e-07 -1.84365e-07 
            </DataArray>
            <DataArray type="Float64" Name="sea_floor_depth_below_geoid" NumberOfComponents="1" format="ascii">
               10 10 10 10 10 10 10 10 10 10 10 10 10 10 10 10 10 10 10 10 10 10 10 10 10 10 10 10 10 10 10 10 10 10 10 10 10 10 10 10 10 10 10 10 10 10 10 10 10 10 10 10 10 10 10 10 10 10 10 10 10 10 10 10 10 10 10 10 10 10 10 10 10 10 10 10 10 10 10 10 10 10 10 10 10 10 10 10 10 10 10 10 10 10 10 10 10 10 10 10 10 10 10 10 10 10 10 10 10 10 10 10 10 10 10 10 10 10 10 10 10 10 10 10 10 10 10 10 10 10 10 10 10 10 10 10 10 10 10 10 10 10 10 10 10 10 10 10 10 10 10 10 10 10 10 10 10 10 10 10 10 10 10 10 10 10 10 10 10 10 10 10 10 10 10 10 10 10 10 10 10 10 10 10 10 10 10 10 10 10 10 10 10 10 10 10 10 10 10 10 
            </DataArray>
         </PointData> 
      </Piece>
   </UnstructuredGrid> 
</VTKFile>
