<?xml version="1.0"?>
<VTKFile type="UnstructuredGrid" version="0.1" byte_order="LittleEndian">
   <UnstructuredGrid>
      <Piece NumberOfPoints="200" NumberOfCells="0" > 
         <Points> 
            <DataArray type="Float64" Name="Position" NumberOfComponents="3" format="ascii"> 
               50  150  0  
               150  150  0  
               50  250  0  
               250  150  0  
               150  250  0  
               50  350  0  
               350  150  0  
               250  250  0  
               150  350  0  
               50  450  0  
               450  150  0  
               350  250  0  
               250  350  0  
               150  450  0  
               50  550  0  
               550  150  0  
               450  250  0  
               350  350  0  
               250  450  0  
               150  550  0  
               50  650  0  
               650  150  0  
               550  250  0  
               450  350  0  
               350  450  0  
               250  550  0  
               150  650  0  
               50  750  0  
               750  150  0  
               650  250  0  
               550  350  0  
               450  450  0  
               350  550  0  
               250  650  0  
               150  750  0  
               50  850  0  
               850  150  0  
               750  250  0  
               650  350  0  
               550  450  0  
               450  550  0  
               350  650  0  
               250  750  0  
               150  850  0  
               50  950  0  
               950  150  0  
               850  250  0  
               750  350  0  
               650  450  0  
               550  550  0  
               450  650  0  
               350  750  0  
               250  850  0  
               150  950  0  
               50  1050  0  
               1050  150  0  
               950  250  0  
               850  350  0  
               750  450  0  
               650  550  0  
               550  650  0  
               450  750  0  
               350  850  0  
               250  950  0  
               150  1050  0  
               1150  150  0  
               1050  250  0  
               950  350  0  
               850  450  0  
               750  550  0  
               650  650  0  
               550  750  0  
               450  850  0  
               350  950  0  
               250  1050  0  
               1250  150  0  
               1150  250  0  
               1050  350  0  
               950  450  0  
               850  550  0  
               750  650  0  
               650  750  0  
               550  850  0  
               450  950  0  
               350  1050  0  
               1350  150  0  
               1250  250  0  
               1150  350  0  
               1050  450  0  
               950  550  0  
               850  650  0  
               750  750  0  
               650  850  0  
               550  950  0  
               450  1050  0  
               1450  150  0  
               1350  250  0  
               1250  350  0  
               1150  450  0  
               1050  550  0  
               950  650  0  
               850  750  0  
               750  850  0  
               650  950  0  
               550  1050  0  
               1550  150  0  
               1450  250  0  
               1350  350  0  
               1250  450  0  
               1150  550  0  
               1050  650  0  
               950  750  0  
               850  850  0  
               750  950  0  
               650  1050  0  
               1650  150  0  
               1550  250  0  
               1450  350  0  
               1350  450  0  
               1250  550  0  
               1150  650  0  
               1050  750  0  
               950  850  0  
               850  950  0  
               750  1050  0  
               1750  150  0  
               1650  250  0  
               1550  350  0  
               1450  450  0  
               1350  550  0  
               1250  650  0  
               1150  750  0  
               1050  850  0  
               950  950  0  
               850  1050  0  
               1850  150  0  
               1750  250  0  
               1650  350  0  
               1550  450  0  
               1450  550  0  
               1350  650  0  
               1250  750  0  
               1150  850  0  
               1050  950  0  
               950  1050  0  
               1950  150  0  
               1850  250  0  
               1750  350  0  
               1650  450  0  
               1550  550  0  
               1450  650  0  
               1350  750  0  
               1250  850  0  
               1150  950  0  
               1050  1050  0  
               1950  250  0  
               1850  350  0  
               1750  450  0  
               1650  550  0  
               1550  650  0  
               1450  750  0  
               1350  850  0  
               1250  950  0  
               1150  1050  0  
               1950  350  0  
               1850  450  0  
               1750  550  0  
               1650  650  0  
               1550  750  0  
               1450  850  0  
               1350  950  0  
               1250  1050  0  
               1950  450  0  
               1850  550  0  
               1750  650  0  
               1650  750  0  
               1550  850  0  
               1450  950  0  
               1350  1050  0  
               1950  550  0  
               1850  650  0  
               1750  750  0  
               1650  850  0  
               1550  950  0  
               1450  1050  0  
               1950  650  0  
               1850  750  0  
               1750  850  0  
               1650  950  0  
               1550  1050  0  
               1950  750  0  
               1850  850  0  
               1750  950  0  
               1650  1050  0  
               1950  850  0  
               1850  950  0  
               1750  1050  0  
               1950  950  0  
               1850  1050  0  
               1950  1050  0  
            </DataArray>
         </Points> 

         <Cells>
            <DataArray type="Int32" Name="connectivity" NumberOfComponents="1" format="ascii">
               
            </DataArray> 
            <DataArray type="Int32" Name="offsets" NumberOfComponents="1" format="ascii">
               
            </DataArray>
            <DataArray type="UInt8"  Name="types" NumberOfComponents="1" format="ascii">
               
            </DataArray>
         </Cells>
         <PointData Scalars="Rank sea_floor_depth_below_sea_surface sea_surface_height sea_floor_depth_below_geoid " Vectors="">
            <DataArray type="UInt32" Name="Rank" NumberOfComponents="1" format="ascii">
               0 0 0 0 0 0 0 0 0 0 0 0 0 0 0 0 0 0 0 0 0 0 0 0 0 0 0 0 0 0 0 0 0 0 0 0 0 0 0 0 0 0 0 0 0 0 0 0 0 0 0 0 0 0 0 0 0 0 0 0 0 0 0 0 0 0 0 0 0 0 0 0 0 0 0 0 0 0 0 0 0 0 0 0 0 0 0 0 0 0 0 0 0 0 0 0 0 0 0 0 0 0 0 0 0 0 0 0 0 0 0 0 0 0 0 0 0 0 0 0 0 0 0 0 0 0 0 0 0 0 0 0 0 0 0 0 0 0 0 0 0 0 0 0 0 0 0 0 0 0 0 0 0 0 0 0 0 0 0 0 0 0 0 0 0 0 0 0 0 0 0 0 0 0 0 0 0 0 0 0 0 0 0 0 0 0 0 0 0 0 0 0 0 0 0 0 0 0 0 0 
            </DataArray>
            <DataArray type="Float64" Name="sea_floor_depth_below_sea_surface" NumberOfComponents="1" format="ascii">
               0 0 0 0 0 0 0 0 0 0 0 0 0 0 0 0 0 0 0 0 0 0 0 0 0 0 0 0 0 0 0 0 0 0 0 0 0 0 0 0 0 0 0 0 0 0 0 0 0 0 0 0 0 0 0 0 0 0 0 0 0 0 0 0 0 0 0 0 0 0 0 0 0 0 0 0 0 0 0 0 0 0 0 0 0 0 0 0 0 0 0 0 0 0 0 0 0 0 0 0 0 0 0 0 0 0 0 0 0 0 0 0 0 0 0 0 0 0 0 0 0 0 0 0 0 0 0 0 0 0 0 0 0 0 0 0 0 0 0 0 0 0 0 0 0 0 0 0 0 0 0 0 0 0 0 0 0 0 0 0 0 0 0 0 0 0 0 0 0 0 0 0 0 0 0 0 0 0 0 0 0 0 0 0 0 0 0 0 0 0 0 0 0 0 0 0 0 0 0 0 
            </DataArray>
            <DataArray type="Float64" Name="sea_surface_height" NumberOfComponents="1" format="ascii">
               1.11429e-07 1.31792e-07 9.1063e-08 1.53334e-07 -0.600016 6.9516e-08 1.72516e-07 -0.600004 -0.600003 4.02124e-08 1.89714e-07 -0.599995 -0.600002 -0.599996 2.9843e-08 2.09635e-07 -0.599997 -0.599997 -0.599998 -4.47381e-08 9.96586e-08 2.62556e-07 2.08974e-07 -0.599997 -0.599998 1.87552e-08 1.67114e-07 1.08847e-07 2.9106e-07 2.16515e-07 1.9187e-07 -0.599998 1.60177e-07 1.25104e-07 1.01648e-07 9.22224e-08 3.63396e-08 3.47697e-07 2.41562e-07 2.30905e-07 2.315e-07 3.43259e-08 8.95543e-08 8.89264e-08 8.29777e-08 -5.19381e-08 5.14636e-08 -3.32937e-07 1.72344e-07 1.79969e-07 5.28152e-09 6.07904e-08 7.62895e-08 7.95601e-08 7.96933e-08 -5.36282e-08 0.301124 7.60616e-07 3.85265e-07 1.86793e-07 7.97822e-08 4.59844e-08 6.05131e-08 7.01552e-08 7.65127e-08 -6.71496e-08 0.300456 0.301538 1.84145e-07 2.45505e-07 9.62391e-08 4.22658e-08 4.50902e-08 5.71087e-08 6.76709e-08 -8.0269e-08 0.299681 0.299796 0.301124 3.09775e-07 6.03509e-08 3.40198e-08 3.31098e-08 4.30809e-08 5.55574e-08 -1.05766e-07 0.299015 0.299266 0.300456 1.01548e-06 -1.90262e-07 -2.25984e-08 1.23725e-08 2.79781e-08 4.16817e-08 -1.56815e-07 -1.04031e-07 0.298848 0.299681 8.66121e-08 -9.05236e-07 -1.56162e-07 -2.4252e-08 9.59879e-09 2.66216e-08 -1.50356e-07 -1.85562e-07 -2.88524e-07 0.299015 -8.07776e-07 -1.2374e-07 -1.402e-07 -5.82783e-08 -1.10648e-08 1.00274e-08 -1.42202e-07 -1.4181e-07 -4.06986e-08 -1.62959e-07 -7.97527e-07 4.60417e-07 -6.74325e-08 -7.3957e-08 -2.77722e-08 -6.24128e-09 -1.38176e-07 -1.40475e-07 -1.3142e-07 -2.09136e-07 -2.57524e-07 4.04262e-07 1.2245e-07 -3.94016e-09 -2.4248e-08 -1.6445e-08 -1.35565e-07 -1.36855e-07 -1.34509e-07 -1.44643e-07 -1.53118e-07 9.2115e-08 1.5756e-07 3.81772e-08 -1.72586e-09 -1.35036e-08 -1.34508e-07 -1.34445e-07 -1.34156e-07 -1.40356e-07 -1.47804e-07 -5.99091e-08 -3.00004e-08 9.80022e-08 1.01317e-07 1.12644e-08 -1.33453e-07 -1.31874e-07 -1.33565e-07 -1.41552e-07 -1.48736e-07 -5.56051e-08 -0.3 -3.08908e-10 1.37821e-09 -1.30856e-07 -1.28863e-07 -1.3314e-07 -1.62592e-07 3.96028e-09 -0.300001 -0.300004 7.24793e-08 -1.26688e-07 -1.22215e-07 -1.17806e-07 -6.65318e-10 -0.299999 -0.3 -0.300001 -1.19709e-07 -1.08537e-07 -7.41159e-08 -0.299999 -0.299998 -0.300001 -1.10661e-07 -9.94664e-08 -8.52253e-08 -0.299999 -0.299999 -1.00878e-07 -9.32253e-08 -9.51498e-08 -0.299999 -9.63513e-08 -9.32979e-08 -9.47609e-08 -9.43642e-08 -9.39989e-08 -9.40219e-08 
            </DataArray>
            <DataArray type="Float64" Name="sea_floor_depth_below_geoid" NumberOfComponents="1" format="ascii">
               10 10 10 10 10 10 10 10 10 10 10 10 10 10 10 10 10 10 10 10 10 10 10 10 10 10 10 10 10 10 10 10 10 10 10 10 10 10 10 10 10 10 10 10 10 10 10 10 10 10 10 10 10 10 10 10 10 10 10 10 10 10 10 10 10 10 10 10 10 10 10 10 10 10 10 10 10 10 10 10 10 10 10 10 10 10 10 10 10 10 10 10 10 10 10 10 10 10 10 10 10 10 10 10 10 10 10 10 10 10 10 10 10 10 10 10 10 10 10 10 10 10 10 10 10 10 10 10 10 10 10 10 10 10 10 10 10 10 10 10 10 10 10 10 10 10 10 10 10 10 10 10 10 10 10 10 10 10 10 10 10 10 10 10 10 10 10 10 10 10 10 10 10 10 10 10 10 10 10 10 10 10 10 10 10 10 10 10 10 10 10 10 10 10 10 10 10 10 10 10 
            </DataArray>
         </PointData> 
      </Piece>
   </UnstructuredGrid> 
</VTKFile>
