<?xml version="1.0"?>
<VTKFile type="UnstructuredGrid" version="0.1" byte_order="LittleEndian">
   <UnstructuredGrid>
      <Piece NumberOfPoints="200" NumberOfCells="0" > 
         <Points> 
            <DataArray type="Float64" Name="Position" NumberOfComponents="3" format="ascii"> 
               50  150  0  
               150  150  0  
               50  250  0  
               250  150  0  
               150  250  0  
               50  350  0  
               350  150  0  
               250  250  0  
               150  350  0  
               50  450  0  
               450  150  0  
               350  250  0  
               250  350  0  
               150  450  0  
               50  550  0  
               550  150  0  
               450  250  0  
               350  350  0  
               250  450  0  
               150  550  0  
               50  650  0  
               650  150  0  
               550  250  0  
               450  350  0  
               350  450  0  
               250  550  0  
               150  650  0  
               50  750  0  
               750  150  0  
               650  250  0  
               550  350  0  
               450  450  0  
               350  550  0  
               250  650  0  
               150  750  0  
               50  850  0  
               850  150  0  
               750  250  0  
               650  350  0  
               550  450  0  
               450  550  0  
               350  650  0  
               250  750  0  
               150  850  0  
               50  950  0  
               950  150  0  
               850  250  0  
               750  350  0  
               650  450  0  
               550  550  0  
               450  650  0  
               350  750  0  
               250  850  0  
               150  950  0  
               50  1050  0  
               1050  150  0  
               950  250  0  
               850  350  0  
               750  450  0  
               650  550  0  
               550  650  0  
               450  750  0  
               350  850  0  
               250  950  0  
               150  1050  0  
               1150  150  0  
               1050  250  0  
               950  350  0  
               850  450  0  
               750  550  0  
               650  650  0  
               550  750  0  
               450  850  0  
               350  950  0  
               250  1050  0  
               1250  150  0  
               1150  250  0  
               1050  350  0  
               950  450  0  
               850  550  0  
               750  650  0  
               650  750  0  
               550  850  0  
               450  950  0  
               350  1050  0  
               1350  150  0  
               1250  250  0  
               1150  350  0  
               1050  450  0  
               950  550  0  
               850  650  0  
               750  750  0  
               650  850  0  
               550  950  0  
               450  1050  0  
               1450  150  0  
               1350  250  0  
               1250  350  0  
               1150  450  0  
               1050  550  0  
               950  650  0  
               850  750  0  
               750  850  0  
               650  950  0  
               550  1050  0  
               1550  150  0  
               1450  250  0  
               1350  350  0  
               1250  450  0  
               1150  550  0  
               1050  650  0  
               950  750  0  
               850  850  0  
               750  950  0  
               650  1050  0  
               1650  150  0  
               1550  250  0  
               1450  350  0  
               1350  450  0  
               1250  550  0  
               1150  650  0  
               1050  750  0  
               950  850  0  
               850  950  0  
               750  1050  0  
               1750  150  0  
               1650  250  0  
               1550  350  0  
               1450  450  0  
               1350  550  0  
               1250  650  0  
               1150  750  0  
               1050  850  0  
               950  950  0  
               850  1050  0  
               1850  150  0  
               1750  250  0  
               1650  350  0  
               1550  450  0  
               1450  550  0  
               1350  650  0  
               1250  750  0  
               1150  850  0  
               1050  950  0  
               950  1050  0  
               1950  150  0  
               1850  250  0  
               1750  350  0  
               1650  450  0  
               1550  550  0  
               1450  650  0  
               1350  750  0  
               1250  850  0  
               1150  950  0  
               1050  1050  0  
               1950  250  0  
               1850  350  0  
               1750  450  0  
               1650  550  0  
               1550  650  0  
               1450  750  0  
               1350  850  0  
               1250  950  0  
               1150  1050  0  
               1950  350  0  
               1850  450  0  
               1750  550  0  
               1650  650  0  
               1550  750  0  
               1450  850  0  
               1350  950  0  
               1250  1050  0  
               1950  450  0  
               1850  550  0  
               1750  650  0  
               1650  750  0  
               1550  850  0  
               1450  950  0  
               1350  1050  0  
               1950  550  0  
               1850  650  0  
               1750  750  0  
               1650  850  0  
               1550  950  0  
               1450  1050  0  
               1950  650  0  
               1850  750  0  
               1750  850  0  
               1650  950  0  
               1550  1050  0  
               1950  750  0  
               1850  850  0  
               1750  950  0  
               1650  1050  0  
               1950  850  0  
               1850  950  0  
               1750  1050  0  
               1950  950  0  
               1850  1050  0  
               1950  1050  0  
            </DataArray>
         </Points> 

         <Cells>
            <DataArray type="Int32" Name="connectivity" NumberOfComponents="1" format="ascii">
               
            </DataArray> 
            <DataArray type="Int32" Name="offsets" NumberOfComponents="1" format="ascii">
               
            </DataArray>
            <DataArray type="UInt8"  Name="types" NumberOfComponents="1" format="ascii">
               
            </DataArray>
         </Cells>
         <PointData Scalars="Rank sea_floor_depth_below_sea_surface sea_surface_height sea_floor_depth_below_geoid " Vectors="">
            <DataArray type="UInt32" Name="Rank" NumberOfComponents="1" format="ascii">
               0 0 0 0 0 0 0 0 0 0 0 0 0 0 0 0 0 0 0 0 0 0 0 0 0 0 0 0 0 0 0 0 0 0 0 0 0 0 0 0 0 0 0 0 0 0 0 0 0 0 0 0 0 0 0 0 0 0 0 0 0 0 0 0 0 0 0 0 0 0 0 0 0 0 0 0 0 0 0 0 0 0 0 0 0 0 0 0 0 0 0 0 0 0 0 0 0 0 0 0 0 0 0 0 0 0 0 0 0 0 0 0 0 0 0 0 0 0 0 0 0 0 0 0 0 0 0 0 0 0 0 0 0 0 0 0 0 0 0 0 0 0 0 0 0 0 0 0 0 0 0 0 0 0 0 0 0 0 0 0 0 0 0 0 0 0 0 0 0 0 0 0 0 0 0 0 0 0 0 0 0 0 0 0 0 0 0 0 0 0 0 0 0 0 0 0 0 0 0 0 
            </DataArray>
            <DataArray type="Float64" Name="sea_floor_depth_below_sea_surface" NumberOfComponents="1" format="ascii">
               0 0 0 0 0 0 0 0 0 0 0 0 0 0 0 0 0 0 0 0 0 0 0 0 0 0 0 0 0 0 0 0 0 0 0 0 0 0 0 0 0 0 0 0 0 0 0 0 0 0 0 0 0 0 0 0 0 0 0 0 0 0 0 0 0 0 0 0 0 0 0 0 0 0 0 0 0 0 0 0 0 0 0 0 0 0 0 0 0 0 0 0 0 0 0 0 0 0 0 0 0 0 0 0 0 0 0 0 0 0 0 0 0 0 0 0 0 0 0 0 0 0 0 0 0 0 0 0 0 0 0 0 0 0 0 0 0 0 0 0 0 0 0 0 0 0 0 0 0 0 0 0 0 0 0 0 0 0 0 0 0 0 0 0 0 0 0 0 0 0 0 0 0 0 0 0 0 0 0 0 0 0 0 0 0 0 0 0 0 0 0 0 0 0 0 0 0 0 0 0 
            </DataArray>
            <DataArray type="Float64" Name="sea_surface_height" NumberOfComponents="1" format="ascii">
               1.71094e-07 1.94453e-07 1.47671e-07 2.24742e-07 -3.00002 1.17327e-07 2.4108e-07 -3.00001 -3 7.36893e-08 2.73115e-07 -2.99999 -3 -2.99999 7.1829e-08 2.49181e-07 -3 -2.99999 -3 -4.38613e-08 1.74853e-07 2.80326e-07 3.13421e-07 -3 -3 1.85783e-08 2.78499e-07 2.05434e-07 3.20625e-07 2.32418e-07 2.47322e-07 -3 2.36095e-07 2.3568e-07 1.84201e-07 1.7865e-07 -3.16067e-08 1.74762e-07 4.4358e-07 3.05905e-07 3.73089e-07 7.43297e-08 1.70044e-07 1.78789e-07 1.6782e-07 -2.15122e-07 9.21325e-08 -2.92632e-07 1.92263e-07 2.1767e-07 -2.24368e-09 1.305e-07 1.59193e-07 1.6843e-07 1.69264e-07 -1.68336e-07 1.50067 4.40033e-07 2.28398e-07 1.77164e-07 1.2005e-07 1.1454e-07 1.46944e-07 1.61281e-07 1.71552e-07 -1.67633e-07 1.50018 1.50129 2.0015e-07 1.50939e-07 1.2124e-07 9.4738e-08 1.29237e-07 1.49739e-07 1.62129e-07 -1.63522e-07 1.49955 1.49991 1.50067 -7.67393e-08 2.80244e-08 1.03117e-07 1.28329e-07 1.45088e-07 1.52755e-07 -1.87127e-07 1.49953 1.49949 1.50018 1.7994e-07 -4.05359e-07 3.33546e-08 1.16881e-07 1.41048e-07 1.45075e-07 -2.33679e-07 -2.00577e-07 1.49947 1.49955 -4.23135e-07 -1.23347e-06 5.84215e-08 1.28554e-07 1.48483e-07 1.4507e-07 -2.2657e-07 -2.26897e-07 -2.5331e-07 1.49953 -1.10019e-06 -4.68827e-07 5.14945e-07 2.25173e-07 1.84184e-07 1.55555e-07 -2.2116e-07 -2.13443e-07 -1.63995e-07 -2.71127e-07 -9.42578e-07 1.1556e-08 2.0497e-07 1.34243e-07 1.92989e-07 1.71641e-07 -2.23002e-07 -2.27616e-07 -2.3604e-07 -2.94162e-07 -5.02274e-07 -2.8171e-07 2.95934e-07 3.31307e-07 3.01888e-07 2.16078e-07 -2.213e-07 -2.2114e-07 -2.20275e-07 -2.27001e-07 -2.84636e-07 -1.61572e-07 5.3726e-07 3.08591e-07 2.64312e-07 2.42134e-07 -2.22294e-07 -2.22723e-07 -2.25438e-07 -2.33624e-07 -2.40521e-07 -1.42751e-07 6.80257e-08 2.42457e-07 4.14536e-07 3.21083e-07 -2.2279e-07 -2.20104e-07 -2.2236e-07 -2.33594e-07 -2.66541e-07 -1.43688e-07 -1.5 3.27407e-07 3.05421e-07 -2.22412e-07 -2.20947e-07 -2.30958e-07 -2.69279e-07 -6.63595e-08 -1.5 -1.5 3.7897e-07 -2.18741e-07 -2.12886e-07 -2.09361e-07 -7.4596e-08 -1.5 -1.5 -1.5 -2.1208e-07 -1.99156e-07 -1.61896e-07 -1.5 -1.5 -1.5 -2.03881e-07 -1.97777e-07 -1.81182e-07 -1.5 -1.5 -1.93947e-07 -1.9106e-07 -2.03415e-07 -1.5 -1.91896e-07 -1.9112e-07 -1.98981e-07 -1.91605e-07 -1.94881e-07 -1.92278e-07 
            </DataArray>
            <DataArray type="Float64" Name="sea_floor_depth_below_geoid" NumberOfComponents="1" format="ascii">
               10 10 10 10 10 10 10 10 10 10 10 10 10 10 10 10 10 10 10 10 10 10 10 10 10 10 10 10 10 10 10 10 10 10 10 10 10 10 10 10 10 10 10 10 10 10 10 10 10 10 10 10 10 10 10 10 10 10 10 10 10 10 10 10 10 10 10 10 10 10 10 10 10 10 10 10 10 10 10 10 10 10 10 10 10 10 10 10 10 10 10 10 10 10 10 10 10 10 10 10 10 10 10 10 10 10 10 10 10 10 10 10 10 10 10 10 10 10 10 10 10 10 10 10 10 10 10 10 10 10 10 10 10 10 10 10 10 10 10 10 10 10 10 10 10 10 10 10 10 10 10 10 10 10 10 10 10 10 10 10 10 10 10 10 10 10 10 10 10 10 10 10 10 10 10 10 10 10 10 10 10 10 10 10 10 10 10 10 10 10 10 10 10 10 10 10 10 10 10 10 
            </DataArray>
         </PointData> 
      </Piece>
   </UnstructuredGrid> 
</VTKFile>
