<?xml version="1.0"?>
<VTKFile type="UnstructuredGrid" version="0.1" byte_order="LittleEndian">
   <UnstructuredGrid>
      <Piece NumberOfPoints="200" NumberOfCells="0" > 
         <Points> 
            <DataArray type="Float64" Name="Position" NumberOfComponents="3" format="ascii"> 
               50  150  0  
               150  150  0  
               50  250  0  
               250  150  0  
               150  250  0  
               50  350  0  
               350  150  0  
               250  250  0  
               150  350  0  
               50  450  0  
               450  150  0  
               350  250  0  
               250  350  0  
               150  450  0  
               50  550  0  
               550  150  0  
               450  250  0  
               350  350  0  
               250  450  0  
               150  550  0  
               50  650  0  
               650  150  0  
               550  250  0  
               450  350  0  
               350  450  0  
               250  550  0  
               150  650  0  
               50  750  0  
               750  150  0  
               650  250  0  
               550  350  0  
               450  450  0  
               350  550  0  
               250  650  0  
               150  750  0  
               50  850  0  
               850  150  0  
               750  250  0  
               650  350  0  
               550  450  0  
               450  550  0  
               350  650  0  
               250  750  0  
               150  850  0  
               50  950  0  
               950  150  0  
               850  250  0  
               750  350  0  
               650  450  0  
               550  550  0  
               450  650  0  
               350  750  0  
               250  850  0  
               150  950  0  
               50  1050  0  
               1050  150  0  
               950  250  0  
               850  350  0  
               750  450  0  
               650  550  0  
               550  650  0  
               450  750  0  
               350  850  0  
               250  950  0  
               150  1050  0  
               1150  150  0  
               1050  250  0  
               950  350  0  
               850  450  0  
               750  550  0  
               650  650  0  
               550  750  0  
               450  850  0  
               350  950  0  
               250  1050  0  
               1250  150  0  
               1150  250  0  
               1050  350  0  
               950  450  0  
               850  550  0  
               750  650  0  
               650  750  0  
               550  850  0  
               450  950  0  
               350  1050  0  
               1350  150  0  
               1250  250  0  
               1150  350  0  
               1050  450  0  
               950  550  0  
               850  650  0  
               750  750  0  
               650  850  0  
               550  950  0  
               450  1050  0  
               1450  150  0  
               1350  250  0  
               1250  350  0  
               1150  450  0  
               1050  550  0  
               950  650  0  
               850  750  0  
               750  850  0  
               650  950  0  
               550  1050  0  
               1550  150  0  
               1450  250  0  
               1350  350  0  
               1250  450  0  
               1150  550  0  
               1050  650  0  
               950  750  0  
               850  850  0  
               750  950  0  
               650  1050  0  
               1650  150  0  
               1550  250  0  
               1450  350  0  
               1350  450  0  
               1250  550  0  
               1150  650  0  
               1050  750  0  
               950  850  0  
               850  950  0  
               750  1050  0  
               1750  150  0  
               1650  250  0  
               1550  350  0  
               1450  450  0  
               1350  550  0  
               1250  650  0  
               1150  750  0  
               1050  850  0  
               950  950  0  
               850  1050  0  
               1850  150  0  
               1750  250  0  
               1650  350  0  
               1550  450  0  
               1450  550  0  
               1350  650  0  
               1250  750  0  
               1150  850  0  
               1050  950  0  
               950  1050  0  
               1950  150  0  
               1850  250  0  
               1750  350  0  
               1650  450  0  
               1550  550  0  
               1450  650  0  
               1350  750  0  
               1250  850  0  
               1150  950  0  
               1050  1050  0  
               1950  250  0  
               1850  350  0  
               1750  450  0  
               1650  550  0  
               1550  650  0  
               1450  750  0  
               1350  850  0  
               1250  950  0  
               1150  1050  0  
               1950  350  0  
               1850  450  0  
               1750  550  0  
               1650  650  0  
               1550  750  0  
               1450  850  0  
               1350  950  0  
               1250  1050  0  
               1950  450  0  
               1850  550  0  
               1750  650  0  
               1650  750  0  
               1550  850  0  
               1450  950  0  
               1350  1050  0  
               1950  550  0  
               1850  650  0  
               1750  750  0  
               1650  850  0  
               1550  950  0  
               1450  1050  0  
               1950  650  0  
               1850  750  0  
               1750  850  0  
               1650  950  0  
               1550  1050  0  
               1950  750  0  
               1850  850  0  
               1750  950  0  
               1650  1050  0  
               1950  850  0  
               1850  950  0  
               1750  1050  0  
               1950  950  0  
               1850  1050  0  
               1950  1050  0  
            </DataArray>
         </Points> 

         <Cells>
            <DataArray type="Int32" Name="connectivity" NumberOfComponents="1" format="ascii">
               
            </DataArray> 
            <DataArray type="Int32" Name="offsets" NumberOfComponents="1" format="ascii">
               
            </DataArray>
            <DataArray type="UInt8"  Name="types" NumberOfComponents="1" format="ascii">
               
            </DataArray>
         </Cells>
         <PointData Scalars="Rank sea_floor_depth_below_sea_surface sea_surface_height sea_floor_depth_below_geoid " Vectors="">
            <DataArray type="UInt32" Name="Rank" NumberOfComponents="1" format="ascii">
               0 0 0 0 0 0 0 0 0 0 0 0 0 0 0 0 0 0 0 0 0 0 0 0 0 0 0 0 0 0 0 0 0 0 0 0 0 0 0 0 0 0 0 0 0 0 0 0 0 0 0 0 0 0 0 0 0 0 0 0 0 0 0 0 0 0 0 0 0 0 0 0 0 0 0 0 0 0 0 0 0 0 0 0 0 0 0 0 0 0 0 0 0 0 0 0 0 0 0 0 0 0 0 0 0 0 0 0 0 0 0 0 0 0 0 0 0 0 0 0 0 0 0 0 0 0 0 0 0 0 0 0 0 0 0 0 0 0 0 0 0 0 0 0 0 0 0 0 0 0 0 0 0 0 0 0 0 0 0 0 0 0 0 0 0 0 0 0 0 0 0 0 0 0 0 0 0 0 0 0 0 0 0 0 0 0 0 0 0 0 0 0 0 0 0 0 0 0 0 0 
            </DataArray>
            <DataArray type="Float64" Name="sea_floor_depth_below_sea_surface" NumberOfComponents="1" format="ascii">
               0 0 0 0 0 0 0 0 0 0 0 0 0 0 0 0 0 0 0 0 0 0 0 0 0 0 0 0 0 0 0 0 0 0 0 0 0 0 0 0 0 0 0 0 0 0 0 0 0 0 0 0 0 0 0 0 0 0 0 0 0 0 0 0 0 0 0 0 0 0 0 0 0 0 0 0 0 0 0 0 0 0 0 0 0 0 0 0 0 0 0 0 0 0 0 0 0 0 0 0 0 0 0 0 0 0 0 0 0 0 0 0 0 0 0 0 0 0 0 0 0 0 0 0 0 0 0 0 0 0 0 0 0 0 0 0 0 0 0 0 0 0 0 0 0 0 0 0 0 0 0 0 0 0 0 0 0 0 0 0 0 0 0 0 0 0 0 0 0 0 0 0 0 0 0 0 0 0 0 0 0 0 0 0 0 0 0 0 0 0 0 0 0 0 0 0 0 0 0 0 
            </DataArray>
            <DataArray type="Float64" Name="sea_surface_height" NumberOfComponents="1" format="ascii">
               1.38647e-07 1.59549e-07 1.17721e-07 1.84567e-07 -1.80002 9.26859e-08 2.01343e-07 -1.80001 -1.8 5.53615e-08 2.23359e-07 -1.79999 -1.8 -1.8 5.18644e-08 2.19756e-07 -1.8 -1.8 -1.8 -3.98823e-08 1.37663e-07 2.5742e-07 2.70545e-07 -1.8 -1.8 1.51734e-08 2.22204e-07 1.60119e-07 2.87417e-07 2.06419e-07 2.215e-07 -1.8 1.94909e-07 1.85313e-07 1.43095e-07 1.37952e-07 -2.9878e-08 1.8054e-07 4.04051e-07 2.77679e-07 2.97275e-07 5.44024e-08 1.31407e-07 1.36329e-07 1.28478e-07 -1.74969e-07 7.61586e-08 -3.08859e-07 1.66873e-07 1.92969e-07 6.9872e-10 9.93934e-08 1.20616e-07 1.27244e-07 1.27956e-07 -1.40532e-07 0.90083 4.39925e-07 2.35644e-07 1.72776e-07 9.88605e-08 8.36693e-08 1.07762e-07 1.19494e-07 1.27852e-07 -1.38865e-07 0.900279 0.901431 2.01218e-07 1.74342e-07 1.10162e-07 7.24083e-08 9.25546e-08 1.08285e-07 1.19597e-07 -1.3511e-07 0.899543 0.899997 0.90083 6.18893e-08 4.64559e-08 7.58746e-08 8.72545e-08 9.99314e-08 1.09996e-07 -1.53441e-07 0.899293 0.899458 0.900279 3.8225e-07 -3.04114e-07 1.46098e-08 7.35277e-08 9.20601e-08 1.00937e-07 -1.90732e-07 -1.66925e-07 0.899223 0.899543 -2.36351e-07 -1.01603e-06 -3.0901e-08 6.19806e-08 8.82571e-08 9.52751e-08 -1.82696e-07 -1.84705e-07 -2.09048e-07 0.899293 -8.84979e-07 -2.86289e-07 2.89776e-07 1.15532e-07 1.00046e-07 9.44693e-08 -1.76127e-07 -1.69853e-07 -1.33425e-07 -2.18232e-07 -7.40971e-07 1.79423e-07 9.51781e-08 7.21514e-08 1.03175e-07 9.75345e-08 -1.75914e-07 -1.79963e-07 -1.87741e-07 -2.23109e-07 -3.43097e-07 -5.53908e-08 2.01753e-07 1.96499e-07 1.57814e-07 1.15702e-07 -1.742e-07 -1.74829e-07 -1.73892e-07 -1.7373e-07 -1.99691e-07 -5.95055e-08 3.37213e-07 1.76826e-07 1.42838e-07 1.34004e-07 -1.74334e-07 -1.74489e-07 -1.76295e-07 -1.82468e-07 -1.86698e-07 -1.04788e-07 -2.3784e-09 1.77796e-07 2.66391e-07 1.81381e-07 -1.74344e-07 -1.72533e-07 -1.74131e-07 -1.82414e-07 -2.10856e-07 -1.12229e-07 -0.900001 1.6601e-07 1.59359e-07 -1.7305e-07 -1.71549e-07 -1.79865e-07 -2.17242e-07 -3.11146e-08 -0.900001 -0.900004 2.29543e-07 -1.6949e-07 -1.64537e-07 -1.6126e-07 -3.45552e-08 -0.899999 -0.900001 -0.900001 -1.62744e-07 -1.50525e-07 -1.15587e-07 -0.899999 -0.899998 -0.900001 -1.54803e-07 -1.47295e-07 -1.30386e-07 -0.899999 -0.899999 -1.45067e-07 -1.40011e-07 -1.48353e-07 -0.899999 -1.42166e-07 -1.40202e-07 -1.45499e-07 -1.40812e-07 -1.42664e-07 -1.41212e-07 
            </DataArray>
            <DataArray type="Float64" Name="sea_floor_depth_below_geoid" NumberOfComponents="1" format="ascii">
               10 10 10 10 10 10 10 10 10 10 10 10 10 10 10 10 10 10 10 10 10 10 10 10 10 10 10 10 10 10 10 10 10 10 10 10 10 10 10 10 10 10 10 10 10 10 10 10 10 10 10 10 10 10 10 10 10 10 10 10 10 10 10 10 10 10 10 10 10 10 10 10 10 10 10 10 10 10 10 10 10 10 10 10 10 10 10 10 10 10 10 10 10 10 10 10 10 10 10 10 10 10 10 10 10 10 10 10 10 10 10 10 10 10 10 10 10 10 10 10 10 10 10 10 10 10 10 10 10 10 10 10 10 10 10 10 10 10 10 10 10 10 10 10 10 10 10 10 10 10 10 10 10 10 10 10 10 10 10 10 10 10 10 10 10 10 10 10 10 10 10 10 10 10 10 10 10 10 10 10 10 10 10 10 10 10 10 10 10 10 10 10 10 10 10 10 10 10 10 10 
            </DataArray>
         </PointData> 
      </Piece>
   </UnstructuredGrid> 
</VTKFile>
