<?xml version="1.0"?>
<VTKFile type="UnstructuredGrid" version="0.1" byte_order="LittleEndian">
   <UnstructuredGrid>
      <Piece NumberOfPoints="200" NumberOfCells="0" > 
         <Points> 
            <DataArray type="Float64" Name="Position" NumberOfComponents="3" format="ascii"> 
               50  150  0  
               150  150  0  
               50  250  0  
               250  150  0  
               150  250  0  
               50  350  0  
               350  150  0  
               250  250  0  
               150  350  0  
               50  450  0  
               450  150  0  
               350  250  0  
               250  350  0  
               150  450  0  
               50  550  0  
               550  150  0  
               450  250  0  
               350  350  0  
               250  450  0  
               150  550  0  
               50  650  0  
               650  150  0  
               550  250  0  
               450  350  0  
               350  450  0  
               250  550  0  
               150  650  0  
               50  750  0  
               750  150  0  
               650  250  0  
               550  350  0  
               450  450  0  
               350  550  0  
               250  650  0  
               150  750  0  
               50  850  0  
               850  150  0  
               750  250  0  
               650  350  0  
               550  450  0  
               450  550  0  
               350  650  0  
               250  750  0  
               150  850  0  
               50  950  0  
               950  150  0  
               850  250  0  
               750  350  0  
               650  450  0  
               550  550  0  
               450  650  0  
               350  750  0  
               250  850  0  
               150  950  0  
               50  1050  0  
               1050  150  0  
               950  250  0  
               850  350  0  
               750  450  0  
               650  550  0  
               550  650  0  
               450  750  0  
               350  850  0  
               250  950  0  
               150  1050  0  
               1150  150  0  
               1050  250  0  
               950  350  0  
               850  450  0  
               750  550  0  
               650  650  0  
               550  750  0  
               450  850  0  
               350  950  0  
               250  1050  0  
               1250  150  0  
               1150  250  0  
               1050  350  0  
               950  450  0  
               850  550  0  
               750  650  0  
               650  750  0  
               550  850  0  
               450  950  0  
               350  1050  0  
               1350  150  0  
               1250  250  0  
               1150  350  0  
               1050  450  0  
               950  550  0  
               850  650  0  
               750  750  0  
               650  850  0  
               550  950  0  
               450  1050  0  
               1450  150  0  
               1350  250  0  
               1250  350  0  
               1150  450  0  
               1050  550  0  
               950  650  0  
               850  750  0  
               750  850  0  
               650  950  0  
               550  1050  0  
               1550  150  0  
               1450  250  0  
               1350  350  0  
               1250  450  0  
               1150  550  0  
               1050  650  0  
               950  750  0  
               850  850  0  
               750  950  0  
               650  1050  0  
               1650  150  0  
               1550  250  0  
               1450  350  0  
               1350  450  0  
               1250  550  0  
               1150  650  0  
               1050  750  0  
               950  850  0  
               850  950  0  
               750  1050  0  
               1750  150  0  
               1650  250  0  
               1550  350  0  
               1450  450  0  
               1350  550  0  
               1250  650  0  
               1150  750  0  
               1050  850  0  
               950  950  0  
               850  1050  0  
               1850  150  0  
               1750  250  0  
               1650  350  0  
               1550  450  0  
               1450  550  0  
               1350  650  0  
               1250  750  0  
               1150  850  0  
               1050  950  0  
               950  1050  0  
               1950  150  0  
               1850  250  0  
               1750  350  0  
               1650  450  0  
               1550  550  0  
               1450  650  0  
               1350  750  0  
               1250  850  0  
               1150  950  0  
               1050  1050  0  
               1950  250  0  
               1850  350  0  
               1750  450  0  
               1650  550  0  
               1550  650  0  
               1450  750  0  
               1350  850  0  
               1250  950  0  
               1150  1050  0  
               1950  350  0  
               1850  450  0  
               1750  550  0  
               1650  650  0  
               1550  750  0  
               1450  850  0  
               1350  950  0  
               1250  1050  0  
               1950  450  0  
               1850  550  0  
               1750  650  0  
               1650  750  0  
               1550  850  0  
               1450  950  0  
               1350  1050  0  
               1950  550  0  
               1850  650  0  
               1750  750  0  
               1650  850  0  
               1550  950  0  
               1450  1050  0  
               1950  650  0  
               1850  750  0  
               1750  850  0  
               1650  950  0  
               1550  1050  0  
               1950  750  0  
               1850  850  0  
               1750  950  0  
               1650  1050  0  
               1950  850  0  
               1850  950  0  
               1750  1050  0  
               1950  950  0  
               1850  1050  0  
               1950  1050  0  
            </DataArray>
         </Points> 

         <Cells>
            <DataArray type="Int32" Name="connectivity" NumberOfComponents="1" format="ascii">
               
            </DataArray> 
            <DataArray type="Int32" Name="offsets" NumberOfComponents="1" format="ascii">
               
            </DataArray>
            <DataArray type="UInt8"  Name="types" NumberOfComponents="1" format="ascii">
               
            </DataArray>
         </Cells>
         <PointData Scalars="Rank sea_floor_depth_below_sea_surface sea_surface_height sea_floor_depth_below_geoid " Vectors="">
            <DataArray type="UInt32" Name="Rank" NumberOfComponents="1" format="ascii">
               0 0 0 0 0 0 0 0 0 0 0 0 0 0 0 0 0 0 0 0 0 0 0 0 0 0 0 0 0 0 0 0 0 0 0 0 0 0 0 0 0 0 0 0 0 0 0 0 0 0 0 0 0 0 0 0 0 0 0 0 0 0 0 0 0 0 0 0 0 0 0 0 0 0 0 0 0 0 0 0 0 0 0 0 0 0 0 0 0 0 0 0 0 0 0 0 0 0 0 0 0 0 0 0 0 0 0 0 0 0 0 0 0 0 0 0 0 0 0 0 0 0 0 0 0 0 0 0 0 0 0 0 0 0 0 0 0 0 0 0 0 0 0 0 0 0 0 0 0 0 0 0 0 0 0 0 0 0 0 0 0 0 0 0 0 0 0 0 0 0 0 0 0 0 0 0 0 0 0 0 0 0 0 0 0 0 0 0 0 0 0 0 0 0 0 0 0 0 0 0 
            </DataArray>
            <DataArray type="Float64" Name="sea_floor_depth_below_sea_surface" NumberOfComponents="1" format="ascii">
               0 0 0 0 0 0 0 0 0 0 0 0 0 0 0 0 0 0 0 0 0 0 0 0 0 0 0 0 0 0 0 0 0 0 0 0 0 0 0 0 0 0 0 0 0 0 0 0 0 0 0 0 0 0 0 0 0 0 0 0 0 0 0 0 0 0 0 0 0 0 0 0 0 0 0 0 0 0 0 0 0 0 0 0 0 0 0 0 0 0 0 0 0 0 0 0 0 0 0 0 0 0 0 0 0 0 0 0 0 0 0 0 0 0 0 0 0 0 0 0 0 0 0 0 0 0 0 0 0 0 0 0 0 0 0 0 0 0 0 0 0 0 0 0 0 0 0 0 0 0 0 0 0 0 0 0 0 0 0 0 0 0 0 0 0 0 0 0 0 0 0 0 0 0 0 0 0 0 0 0 0 0 0 0 0 0 0 0 0 0 0 0 0 0 0 0 0 0 0 0 
            </DataArray>
            <DataArray type="Float64" Name="sea_surface_height" NumberOfComponents="1" format="ascii">
               -5.5928e-09 4.84214e-09 -1.57007e-08 1.47488e-08 -0.200055 -2.06979e-08 2.62694e-08 -0.200022 -0.200057 -3.10912e-08 3.60974e-08 -0.199955 -0.200036 -0.200047 -3.70673e-08 4.37598e-08 -0.199894 -0.199977 -0.200044 -1.11186e-07 3.15852e-08 6.57373e-08 2.19416e-08 -0.199935 -0.2 -3.46303e-08 9.3687e-08 3.09147e-08 7.29353e-08 7.77333e-08 2.94439e-08 -0.199977 7.49033e-08 4.19597e-08 3.26233e-08 1.05181e-08 4.89003e-09 1.25919e-07 1.36179e-08 6.8891e-08 1.17666e-07 -3.73584e-08 1.66704e-08 1.44011e-08 8.03865e-09 -6.81624e-09 -3.61961e-08 -1.50812e-07 2.4747e-08 4.95213e-08 -7.34203e-08 -9.19384e-09 8.8929e-09 1.06612e-08 1.7807e-08 -6.93032e-09 0.100827 3.01019e-07 1.22028e-07 3.10959e-08 -1.25775e-08 -2.04926e-08 4.19488e-10 7.04375e-09 1.46271e-08 -8.32287e-09 0.0996063 0.102208 -1.16646e-08 5.68344e-08 4.45909e-09 -9.47028e-09 -1.98519e-09 1.15417e-09 6.03662e-09 -1.53064e-08 0.0994213 0.100435 0.100827 6.74485e-08 -3.16848e-09 -7.57074e-09 -1.44565e-09 -1.31265e-09 -2.17343e-09 -1.84898e-08 0.099404 0.0994401 0.0996063 2.86427e-07 -5.60078e-08 -2.12335e-08 -8.90251e-09 -3.99406e-09 -5.80094e-09 -1.83391e-08 -2.03829e-08 0.0993991 0.0994213 -8.50616e-08 -2.31357e-07 -5.06804e-08 -2.00642e-08 -9.26141e-09 -7.45182e-09 -1.6906e-08 -1.58733e-08 -1.54408e-08 0.099404 -2.1266e-07 5.14431e-08 -7.24859e-08 -3.1633e-08 -1.51673e-08 -9.29331e-09 -1.76829e-08 -1.78866e-08 -2.12898e-08 -1.82885e-08 -1.00552e-07 1.3062e-07 -6.68669e-09 -3.59804e-08 -1.99997e-08 -1.31188e-08 -1.94089e-08 -1.93767e-08 -1.98162e-08 -1.75051e-08 -1.63843e-08 6.96312e-08 2.50354e-08 -1.14687e-08 -1.90415e-08 -1.79996e-08 -1.74429e-08 -1.95353e-08 -2.14657e-08 -2.57434e-08 -1.50213e-08 7.89974e-08 8.03617e-09 -1.92334e-08 -7.04577e-09 -1.93452e-08 -1.34561e-08 -1.75426e-08 -1.92153e-08 -2.71566e-08 -3.25275e-08 4.27058e-09 -8.58743e-08 2.10931e-08 5.22385e-08 -1.55123e-08 -1.50169e-08 -1.60271e-08 -2.09187e-08 -3.29146e-08 -5.44359e-08 -2.10313e-08 -0.100025 -7.46748e-08 -3.88489e-08 -1.46428e-08 -1.40884e-08 -2.23461e-08 -5.71991e-08 6.13796e-08 -0.100017 -0.100019 2.04155e-08 -1.14062e-08 -1.2077e-08 -1.38958e-08 7.46925e-08 -0.0999905 -0.100014 -0.100025 -8.46825e-09 -3.98191e-09 2.02771e-08 -0.0999711 -0.0999896 -0.100017 -4.03278e-09 6.11087e-09 1.64094e-08 -0.0999699 -0.0999904 4.05483e-09 9.33398e-09 1.36958e-08 -0.0999709 6.94716e-09 9.34992e-09 9.24944e-09 4.28286e-09 8.13951e-09 7.55916e-09 
            </DataArray>
            <DataArray type="Float64" Name="sea_floor_depth_below_geoid" NumberOfComponents="1" format="ascii">
               10 10 10 10 10 10 10 10 10 10 10 10 10 10 10 10 10 10 10 10 10 10 10 10 10 10 10 10 10 10 10 10 10 10 10 10 10 10 10 10 10 10 10 10 10 10 10 10 10 10 10 10 10 10 10 10 10 10 10 10 10 10 10 10 10 10 10 10 10 10 10 10 10 10 10 10 10 10 10 10 10 10 10 10 10 10 10 10 10 10 10 10 10 10 10 10 10 10 10 10 10 10 10 10 10 10 10 10 10 10 10 10 10 10 10 10 10 10 10 10 10 10 10 10 10 10 10 10 10 10 10 10 10 10 10 10 10 10 10 10 10 10 10 10 10 10 10 10 10 10 10 10 10 10 10 10 10 10 10 10 10 10 10 10 10 10 10 10 10 10 10 10 10 10 10 10 10 10 10 10 10 10 10 10 10 10 10 10 10 10 10 10 10 10 10 10 10 10 10 10 
            </DataArray>
         </PointData> 
      </Piece>
   </UnstructuredGrid> 
</VTKFile>
