<?xml version="1.0"?>
<VTKFile type="UnstructuredGrid" version="0.1" byte_order="LittleEndian">
   <UnstructuredGrid>
      <Piece NumberOfPoints="200" NumberOfCells="0" > 
         <Points> 
            <DataArray type="Float64" Name="Position" NumberOfComponents="3" format="ascii"> 
               50  150  0  
               150  150  0  
               50  250  0  
               250  150  0  
               150  250  0  
               50  350  0  
               350  150  0  
               250  250  0  
               150  350  0  
               50  450  0  
               450  150  0  
               350  250  0  
               250  350  0  
               150  450  0  
               50  550  0  
               550  150  0  
               450  250  0  
               350  350  0  
               250  450  0  
               150  550  0  
               50  650  0  
               650  150  0  
               550  250  0  
               450  350  0  
               350  450  0  
               250  550  0  
               150  650  0  
               50  750  0  
               750  150  0  
               650  250  0  
               550  350  0  
               450  450  0  
               350  550  0  
               250  650  0  
               150  750  0  
               50  850  0  
               850  150  0  
               750  250  0  
               650  350  0  
               550  450  0  
               450  550  0  
               350  650  0  
               250  750  0  
               150  850  0  
               50  950  0  
               950  150  0  
               850  250  0  
               750  350  0  
               650  450  0  
               550  550  0  
               450  650  0  
               350  750  0  
               250  850  0  
               150  950  0  
               50  1050  0  
               1050  150  0  
               950  250  0  
               850  350  0  
               750  450  0  
               650  550  0  
               550  650  0  
               450  750  0  
               350  850  0  
               250  950  0  
               150  1050  0  
               1150  150  0  
               1050  250  0  
               950  350  0  
               850  450  0  
               750  550  0  
               650  650  0  
               550  750  0  
               450  850  0  
               350  950  0  
               250  1050  0  
               1250  150  0  
               1150  250  0  
               1050  350  0  
               950  450  0  
               850  550  0  
               750  650  0  
               650  750  0  
               550  850  0  
               450  950  0  
               350  1050  0  
               1350  150  0  
               1250  250  0  
               1150  350  0  
               1050  450  0  
               950  550  0  
               850  650  0  
               750  750  0  
               650  850  0  
               550  950  0  
               450  1050  0  
               1450  150  0  
               1350  250  0  
               1250  350  0  
               1150  450  0  
               1050  550  0  
               950  650  0  
               850  750  0  
               750  850  0  
               650  950  0  
               550  1050  0  
               1550  150  0  
               1450  250  0  
               1350  350  0  
               1250  450  0  
               1150  550  0  
               1050  650  0  
               950  750  0  
               850  850  0  
               750  950  0  
               650  1050  0  
               1650  150  0  
               1550  250  0  
               1450  350  0  
               1350  450  0  
               1250  550  0  
               1150  650  0  
               1050  750  0  
               950  850  0  
               850  950  0  
               750  1050  0  
               1750  150  0  
               1650  250  0  
               1550  350  0  
               1450  450  0  
               1350  550  0  
               1250  650  0  
               1150  750  0  
               1050  850  0  
               950  950  0  
               850  1050  0  
               1850  150  0  
               1750  250  0  
               1650  350  0  
               1550  450  0  
               1450  550  0  
               1350  650  0  
               1250  750  0  
               1150  850  0  
               1050  950  0  
               950  1050  0  
               1950  150  0  
               1850  250  0  
               1750  350  0  
               1650  450  0  
               1550  550  0  
               1450  650  0  
               1350  750  0  
               1250  850  0  
               1150  950  0  
               1050  1050  0  
               1950  250  0  
               1850  350  0  
               1750  450  0  
               1650  550  0  
               1550  650  0  
               1450  750  0  
               1350  850  0  
               1250  950  0  
               1150  1050  0  
               1950  350  0  
               1850  450  0  
               1750  550  0  
               1650  650  0  
               1550  750  0  
               1450  850  0  
               1350  950  0  
               1250  1050  0  
               1950  450  0  
               1850  550  0  
               1750  650  0  
               1650  750  0  
               1550  850  0  
               1450  950  0  
               1350  1050  0  
               1950  550  0  
               1850  650  0  
               1750  750  0  
               1650  850  0  
               1550  950  0  
               1450  1050  0  
               1950  650  0  
               1850  750  0  
               1750  850  0  
               1650  950  0  
               1550  1050  0  
               1950  750  0  
               1850  850  0  
               1750  950  0  
               1650  1050  0  
               1950  850  0  
               1850  950  0  
               1750  1050  0  
               1950  950  0  
               1850  1050  0  
               1950  1050  0  
            </DataArray>
         </Points> 

         <Cells>
            <DataArray type="Int32" Name="connectivity" NumberOfComponents="1" format="ascii">
               
            </DataArray> 
            <DataArray type="Int32" Name="offsets" NumberOfComponents="1" format="ascii">
               
            </DataArray>
            <DataArray type="UInt8"  Name="types" NumberOfComponents="1" format="ascii">
               
            </DataArray>
         </Cells>
         <PointData Scalars="Rank sea_floor_depth_below_sea_surface sea_surface_height sea_floor_depth_below_geoid " Vectors="">
            <DataArray type="UInt32" Name="Rank" NumberOfComponents="1" format="ascii">
               0 0 0 0 0 0 0 0 0 0 0 0 0 0 0 0 0 0 0 0 0 0 0 0 0 0 0 0 0 0 0 0 0 0 0 0 0 0 0 0 0 0 0 0 0 0 0 0 0 0 0 0 0 0 0 0 0 0 0 0 0 0 0 0 0 0 0 0 0 0 0 0 0 0 0 0 0 0 0 0 0 0 0 0 0 0 0 0 0 0 0 0 0 0 0 0 0 0 0 0 0 0 0 0 0 0 0 0 0 0 0 0 0 0 0 0 0 0 0 0 0 0 0 0 0 0 0 0 0 0 0 0 0 0 0 0 0 0 0 0 0 0 0 0 0 0 0 0 0 0 0 0 0 0 0 0 0 0 0 0 0 0 0 0 0 0 0 0 0 0 0 0 0 0 0 0 0 0 0 0 0 0 0 0 0 0 0 0 0 0 0 0 0 0 0 0 0 0 0 0 
            </DataArray>
            <DataArray type="Float64" Name="sea_floor_depth_below_sea_surface" NumberOfComponents="1" format="ascii">
               0 0 0 0 0 0 0 0 0 0 0 0 0 0 0 0 0 0 0 0 0 0 0 0 0 0 0 0 0 0 0 0 0 0 0 0 0 0 0 0 0 0 0 0 0 0 0 0 0 0 0 0 0 0 0 0 0 0 0 0 0 0 0 0 0 0 0 0 0 0 0 0 0 0 0 0 0 0 0 0 0 0 0 0 0 0 0 0 0 0 0 0 0 0 0 0 0 0 0 0 0 0 0 0 0 0 0 0 0 0 0 0 0 0 0 0 0 0 0 0 0 0 0 0 0 0 0 0 0 0 0 0 0 0 0 0 0 0 0 0 0 0 0 0 0 0 0 0 0 0 0 0 0 0 0 0 0 0 0 0 0 0 0 0 0 0 0 0 0 0 0 0 0 0 0 0 0 0 0 0 0 0 0 0 0 0 0 0 0 0 0 0 0 0 0 0 0 0 0 0 
            </DataArray>
            <DataArray type="Float64" Name="sea_surface_height" NumberOfComponents="1" format="ascii">
               0 0 0 0 0 0 0 0 0 0 0 0 0 0 0 0 0 0 0 0 0 0 0 0 0 0 0 0 0 0 0 0 0 0 0 0 0 0 0 0 0 0 0 0 0 0 0 0 0 0 0 0 0 0 0 0 0 0 0 0 0 0 0 0 0 0 0 0 0 0 0 0 0 0 0 0 0 0 0 0 0 0 0 0 0 0 0 0 0 0 0 0 0 0 0 0 0 0 0 0 0 0 0 0 0 0 0 0 0 0 0 0 0 0 0 0 0 0 0 0 0 0 0 0 0 0 0 0 0 0 0 0 0 0 0 0 0 0 0 0 0 0 0 0 0 0 0 0 0 0 0 0 0 0 0 0 0 0 0 0 0 0 0 0 0 0 0 0 0 0 0 0 0 0 0 0 0 0 0 0 0 0 0 0 0 0 0 0 0 0 0 0 0 0 0 0 0 0 0 0 
            </DataArray>
            <DataArray type="Float64" Name="sea_floor_depth_below_geoid" NumberOfComponents="1" format="ascii">
               10 10 10 10 10 10 10 10 10 10 10 10 10 10 10 10 10 10 10 10 10 10 10 10 10 10 10 10 10 10 10 10 10 10 10 10 10 10 10 10 10 10 10 10 10 10 10 10 10 10 10 10 10 10 10 10 10 10 10 10 10 10 10 10 10 10 10 10 10 10 10 10 10 10 10 10 10 10 10 10 10 10 10 10 10 10 10 10 10 10 10 10 10 10 10 10 10 10 10 10 10 10 10 10 10 10 10 10 10 10 10 10 10 10 10 10 10 10 10 10 10 10 10 10 10 10 10 10 10 10 10 10 10 10 10 10 10 10 10 10 10 10 10 10 10 10 10 10 10 10 10 10 10 10 10 10 10 10 10 10 10 10 10 10 10 10 10 10 10 10 10 10 10 10 10 10 10 10 10 10 10 10 10 10 10 10 10 10 10 10 10 10 10 10 10 10 10 10 10 10 
            </DataArray>
         </PointData> 
      </Piece>
   </UnstructuredGrid> 
</VTKFile>
