<?xml version="1.0"?>
<VTKFile type="UnstructuredGrid" version="0.1" byte_order="LittleEndian">
   <UnstructuredGrid>
      <Piece NumberOfPoints="200" NumberOfCells="0" > 
         <Points> 
            <DataArray type="Float64" Name="Position" NumberOfComponents="3" format="ascii"> 
               50  150  0  
               150  150  0  
               50  250  0  
               250  150  0  
               150  250  0  
               50  350  0  
               350  150  0  
               250  250  0  
               150  350  0  
               50  450  0  
               450  150  0  
               350  250  0  
               250  350  0  
               150  450  0  
               50  550  0  
               550  150  0  
               450  250  0  
               350  350  0  
               250  450  0  
               150  550  0  
               50  650  0  
               650  150  0  
               550  250  0  
               450  350  0  
               350  450  0  
               250  550  0  
               150  650  0  
               50  750  0  
               750  150  0  
               650  250  0  
               550  350  0  
               450  450  0  
               350  550  0  
               250  650  0  
               150  750  0  
               50  850  0  
               850  150  0  
               750  250  0  
               650  350  0  
               550  450  0  
               450  550  0  
               350  650  0  
               250  750  0  
               150  850  0  
               50  950  0  
               950  150  0  
               850  250  0  
               750  350  0  
               650  450  0  
               550  550  0  
               450  650  0  
               350  750  0  
               250  850  0  
               150  950  0  
               50  1050  0  
               1050  150  0  
               950  250  0  
               850  350  0  
               750  450  0  
               650  550  0  
               550  650  0  
               450  750  0  
               350  850  0  
               250  950  0  
               150  1050  0  
               1150  150  0  
               1050  250  0  
               950  350  0  
               850  450  0  
               750  550  0  
               650  650  0  
               550  750  0  
               450  850  0  
               350  950  0  
               250  1050  0  
               1250  150  0  
               1150  250  0  
               1050  350  0  
               950  450  0  
               850  550  0  
               750  650  0  
               650  750  0  
               550  850  0  
               450  950  0  
               350  1050  0  
               1350  150  0  
               1250  250  0  
               1150  350  0  
               1050  450  0  
               950  550  0  
               850  650  0  
               750  750  0  
               650  850  0  
               550  950  0  
               450  1050  0  
               1450  150  0  
               1350  250  0  
               1250  350  0  
               1150  450  0  
               1050  550  0  
               950  650  0  
               850  750  0  
               750  850  0  
               650  950  0  
               550  1050  0  
               1550  150  0  
               1450  250  0  
               1350  350  0  
               1250  450  0  
               1150  550  0  
               1050  650  0  
               950  750  0  
               850  850  0  
               750  950  0  
               650  1050  0  
               1650  150  0  
               1550  250  0  
               1450  350  0  
               1350  450  0  
               1250  550  0  
               1150  650  0  
               1050  750  0  
               950  850  0  
               850  950  0  
               750  1050  0  
               1750  150  0  
               1650  250  0  
               1550  350  0  
               1450  450  0  
               1350  550  0  
               1250  650  0  
               1150  750  0  
               1050  850  0  
               950  950  0  
               850  1050  0  
               1850  150  0  
               1750  250  0  
               1650  350  0  
               1550  450  0  
               1450  550  0  
               1350  650  0  
               1250  750  0  
               1150  850  0  
               1050  950  0  
               950  1050  0  
               1950  150  0  
               1850  250  0  
               1750  350  0  
               1650  450  0  
               1550  550  0  
               1450  650  0  
               1350  750  0  
               1250  850  0  
               1150  950  0  
               1050  1050  0  
               1950  250  0  
               1850  350  0  
               1750  450  0  
               1650  550  0  
               1550  650  0  
               1450  750  0  
               1350  850  0  
               1250  950  0  
               1150  1050  0  
               1950  350  0  
               1850  450  0  
               1750  550  0  
               1650  650  0  
               1550  750  0  
               1450  850  0  
               1350  950  0  
               1250  1050  0  
               1950  450  0  
               1850  550  0  
               1750  650  0  
               1650  750  0  
               1550  850  0  
               1450  950  0  
               1350  1050  0  
               1950  550  0  
               1850  650  0  
               1750  750  0  
               1650  850  0  
               1550  950  0  
               1450  1050  0  
               1950  650  0  
               1850  750  0  
               1750  850  0  
               1650  950  0  
               1550  1050  0  
               1950  750  0  
               1850  850  0  
               1750  950  0  
               1650  1050  0  
               1950  850  0  
               1850  950  0  
               1750  1050  0  
               1950  950  0  
               1850  1050  0  
               1950  1050  0  
            </DataArray>
         </Points> 

         <Cells>
            <DataArray type="Int32" Name="connectivity" NumberOfComponents="1" format="ascii">
               
            </DataArray> 
            <DataArray type="Int32" Name="offsets" NumberOfComponents="1" format="ascii">
               
            </DataArray>
            <DataArray type="UInt8"  Name="types" NumberOfComponents="1" format="ascii">
               
            </DataArray>
         </Cells>
         <PointData Scalars="Rank sea_floor_depth_below_sea_surface sea_surface_height sea_floor_depth_below_geoid " Vectors="">
            <DataArray type="UInt32" Name="Rank" NumberOfComponents="1" format="ascii">
               0 0 0 0 0 0 0 0 0 0 0 0 0 0 0 0 0 0 0 0 0 0 0 0 0 0 0 0 0 0 0 0 0 0 0 0 0 0 0 0 0 0 0 0 0 0 0 0 0 0 0 0 0 0 0 0 0 0 0 0 0 0 0 0 0 0 0 0 0 0 0 0 0 0 0 0 0 0 0 0 0 0 0 0 0 0 0 0 0 0 0 0 0 0 0 0 0 0 0 0 0 0 0 0 0 0 0 0 0 0 0 0 0 0 0 0 0 0 0 0 0 0 0 0 0 0 0 0 0 0 0 0 0 0 0 0 0 0 0 0 0 0 0 0 0 0 0 0 0 0 0 0 0 0 0 0 0 0 0 0 0 0 0 0 0 0 0 0 0 0 0 0 0 0 0 0 0 0 0 0 0 0 0 0 0 0 0 0 0 0 0 0 0 0 0 0 0 0 0 0 
            </DataArray>
            <DataArray type="Float64" Name="sea_floor_depth_below_sea_surface" NumberOfComponents="1" format="ascii">
               0 0 0 0 0 0 0 0 0 0 0 0 0 0 0 0 0 0 0 0 0 0 0 0 0 0 0 0 0 0 0 0 0 0 0 0 0 0 0 0 0 0 0 0 0 0 0 0 0 0 0 0 0 0 0 0 0 0 0 0 0 0 0 0 0 0 0 0 0 0 0 0 0 0 0 0 0 0 0 0 0 0 0 0 0 0 0 0 0 0 0 0 0 0 0 0 0 0 0 0 0 0 0 0 0 0 0 0 0 0 0 0 0 0 0 0 0 0 0 0 0 0 0 0 0 0 0 0 0 0 0 0 0 0 0 0 0 0 0 0 0 0 0 0 0 0 0 0 0 0 0 0 0 0 0 0 0 0 0 0 0 0 0 0 0 0 0 0 0 0 0 0 0 0 0 0 0 0 0 0 0 0 0 0 0 0 0 0 0 0 0 0 0 0 0 0 0 0 0 0 
            </DataArray>
            <DataArray type="Float64" Name="sea_surface_height" NumberOfComponents="1" format="ascii">
               8.69531e-08 1.05152e-07 6.85791e-08 1.238e-07 -0.400017 4.94927e-08 1.41225e-07 -0.400005 -0.400005 2.42874e-08 1.57156e-07 -0.399993 -0.400002 -0.399998 1.3354e-08 1.765e-07 -0.399994 -0.399996 -0.4 -5.96599e-08 8.10257e-08 2.22844e-07 1.64298e-07 -0.399995 -0.399997 8.84767e-09 1.45813e-07 8.77981e-08 2.46598e-07 2.0658e-07 1.48707e-07 -0.399997 1.41016e-07 1.0106e-07 8.45708e-08 7.35788e-08 4.44028e-08 3.60866e-07 1.37204e-07 1.93278e-07 2.05542e-07 1.89402e-08 7.10212e-08 7.04793e-08 6.51798e-08 -1.23239e-08 -7.14208e-09 -3.39399e-07 1.63956e-07 1.55791e-07 -7.22648e-09 4.25353e-08 5.85401e-08 6.15802e-08 6.18372e-08 -2.66831e-08 0.201198 8.18147e-07 3.85138e-07 1.60024e-07 6.12083e-08 2.81341e-08 4.26738e-08 5.23674e-08 5.82976e-08 -4.69398e-08 0.200668 0.201836 9.76671e-08 2.26386e-07 7.42333e-08 2.66616e-08 2.81593e-08 3.97391e-08 4.96836e-08 -6.7389e-08 0.199278 0.199812 0.201198 2.97007e-07 3.8026e-08 1.73857e-08 1.68993e-08 2.62176e-08 3.79498e-08 -8.97751e-08 0.19895 0.199225 0.200668 1.03426e-06 -1.64315e-07 -3.15051e-08 -2.11324e-09 1.19186e-08 2.46475e-08 -1.14068e-07 -9.13366e-08 0.198938 0.199278 -3.47516e-09 -8.09609e-07 -1.45751e-07 -3.55298e-08 -5.72631e-09 1.01889e-08 -1.14104e-07 -1.3412e-07 -1.91448e-07 0.19895 -7.94961e-07 -2.46742e-08 -2.12504e-07 -7.58624e-08 -2.66104e-08 -5.88997e-09 -1.11742e-07 -1.15033e-07 -7.10015e-08 -1.35797e-07 -6.53794e-07 4.69935e-07 -5.31189e-08 -9.50487e-08 -4.43581e-08 -2.18101e-08 -1.09591e-07 -1.11395e-07 -1.06154e-07 -1.517e-07 -2.09287e-07 3.3093e-07 1.27838e-07 -2.01761e-08 -4.34548e-08 -3.2291e-08 -1.07912e-07 -1.08936e-07 -1.09423e-07 -1.20175e-07 -1.21901e-07 9.31929e-08 1.26709e-07 2.76121e-08 -1.33314e-08 -2.98476e-08 -1.07093e-07 -1.07047e-07 -1.07637e-07 -1.13377e-07 -1.18392e-07 -3.8492e-08 -4.97266e-08 8.27336e-08 8.28065e-08 -8.12682e-09 -1.06127e-07 -1.05141e-07 -1.0708e-07 -1.15605e-07 -1.22092e-07 -4.59604e-08 -0.200002 -2.28716e-08 -1.60854e-08 -1.03878e-07 -1.02391e-07 -1.06369e-07 -1.36064e-07 1.73377e-08 -0.200001 -0.200005 5.47222e-08 -1.00208e-07 -9.66701e-08 -9.37244e-08 1.67142e-08 -0.199998 -0.200001 -0.200002 -9.41337e-08 -8.47396e-08 -5.22811e-08 -0.199998 -0.199997 -0.200001 -8.58606e-08 -7.47562e-08 -6.23034e-08 -0.199998 -0.199998 -7.69441e-08 -6.97324e-08 -7.05092e-08 -0.199998 -7.27125e-08 -6.97438e-08 -7.06276e-08 -7.09461e-08 -7.04385e-08 -7.06395e-08 
            </DataArray>
            <DataArray type="Float64" Name="sea_floor_depth_below_geoid" NumberOfComponents="1" format="ascii">
               10 10 10 10 10 10 10 10 10 10 10 10 10 10 10 10 10 10 10 10 10 10 10 10 10 10 10 10 10 10 10 10 10 10 10 10 10 10 10 10 10 10 10 10 10 10 10 10 10 10 10 10 10 10 10 10 10 10 10 10 10 10 10 10 10 10 10 10 10 10 10 10 10 10 10 10 10 10 10 10 10 10 10 10 10 10 10 10 10 10 10 10 10 10 10 10 10 10 10 10 10 10 10 10 10 10 10 10 10 10 10 10 10 10 10 10 10 10 10 10 10 10 10 10 10 10 10 10 10 10 10 10 10 10 10 10 10 10 10 10 10 10 10 10 10 10 10 10 10 10 10 10 10 10 10 10 10 10 10 10 10 10 10 10 10 10 10 10 10 10 10 10 10 10 10 10 10 10 10 10 10 10 10 10 10 10 10 10 10 10 10 10 10 10 10 10 10 10 10 10 
            </DataArray>
         </PointData> 
      </Piece>
   </UnstructuredGrid> 
</VTKFile>
