<?xml version="1.0"?>
<VTKFile type="UnstructuredGrid" version="0.1" byte_order="LittleEndian">
   <UnstructuredGrid>
      <Piece NumberOfPoints="2000" NumberOfCells="0" > 
         <Points> 
            <DataArray type="Float64" Name="Position" NumberOfComponents="3" format="ascii"> 
               50  150  -9.5  
               50  150  -8.5  
               50  150  -7.5  
               50  150  -6.5  
               50  150  -5.5  
               50  150  -4.5  
               50  150  -3.5  
               50  150  -2.5  
               50  150  -1.5  
               50  150  -0.5  
               150  150  -9.5  
               150  150  -8.5  
               150  150  -7.5  
               150  150  -6.5  
               150  150  -5.5  
               150  150  -4.5  
               150  150  -3.5  
               150  150  -2.5  
               150  150  -1.5  
               150  150  -0.5  
               50  250  -9.5  
               50  250  -8.5  
               50  250  -7.5  
               50  250  -6.5  
               50  250  -5.5  
               50  250  -4.5  
               50  250  -3.5  
               50  250  -2.5  
               50  250  -1.5  
               50  250  -0.5  
               250  150  -9.5  
               250  150  -8.5  
               250  150  -7.5  
               250  150  -6.5  
               250  150  -5.5  
               250  150  -4.5  
               250  150  -3.5  
               250  150  -2.5  
               250  150  -1.5  
               250  150  -0.5  
               150  250  -9.57  
               150  250  -8.71  
               150  250  -7.85  
               150  250  -6.99001  
               150  250  -6.13001  
               150  250  -5.27001  
               150  250  -4.41001  
               150  250  -3.55001  
               150  250  -2.69001  
               150  250  -1.83002  
               50  350  -9.5  
               50  350  -8.5  
               50  350  -7.5  
               50  350  -6.5  
               50  350  -5.5  
               50  350  -4.5  
               50  350  -3.5  
               50  350  -2.5  
               50  350  -1.5  
               50  350  -0.5  
               350  150  -9.5  
               350  150  -8.5  
               350  150  -7.5  
               350  150  -6.5  
               350  150  -5.5  
               350  150  -4.5  
               350  150  -3.5  
               350  150  -2.5  
               350  150  -1.5  
               350  150  -0.5  
               250  250  -9.57  
               250  250  -8.71  
               250  250  -7.85  
               250  250  -6.99  
               250  250  -6.13  
               250  250  -5.27  
               250  250  -4.41  
               250  250  -3.55  
               250  250  -2.69  
               250  250  -1.83  
               150  350  -9.57  
               150  350  -8.71  
               150  350  -7.85  
               150  350  -6.99  
               150  350  -6.13  
               150  350  -5.27  
               150  350  -4.41  
               150  350  -3.55  
               150  350  -2.69  
               150  350  -1.83  
               50  450  -9.5  
               50  450  -8.5  
               50  450  -7.5  
               50  450  -6.5  
               50  450  -5.5  
               50  450  -4.5  
               50  450  -3.5  
               50  450  -2.5  
               50  450  -1.5  
               50  450  -0.5  
               450  150  -9.5  
               450  150  -8.5  
               450  150  -7.5  
               450  150  -6.5  
               450  150  -5.5  
               450  150  -4.5  
               450  150  -3.5  
               450  150  -2.5  
               450  150  -1.5  
               450  150  -0.5  
               350  250  -9.57  
               350  250  -8.71  
               350  250  -7.85  
               350  250  -6.99  
               350  250  -6.13  
               350  250  -5.27  
               350  250  -4.41  
               350  250  -3.55  
               350  250  -2.68999  
               350  250  -1.82999  
               250  350  -9.57  
               250  350  -8.71  
               250  350  -7.85  
               250  350  -6.99  
               250  350  -6.13  
               250  350  -5.27  
               250  350  -4.41  
               250  350  -3.55  
               250  350  -2.69  
               250  350  -1.83  
               150  450  -9.57  
               150  450  -8.71  
               150  450  -7.85  
               150  450  -6.99  
               150  450  -6.13  
               150  450  -5.27  
               150  450  -4.41  
               150  450  -3.55  
               150  450  -2.69  
               150  450  -1.83  
               50  550  -9.5  
               50  550  -8.5  
               50  550  -7.5  
               50  550  -6.5  
               50  550  -5.5  
               50  550  -4.5  
               50  550  -3.5  
               50  550  -2.5  
               50  550  -1.5  
               50  550  -0.5  
               550  150  -9.5  
               550  150  -8.5  
               550  150  -7.5  
               550  150  -6.5  
               550  150  -5.5  
               550  150  -4.5  
               550  150  -3.5  
               550  150  -2.5  
               550  150  -1.5  
               550  150  -0.5  
               450  250  -9.57  
               450  250  -8.71  
               450  250  -7.85  
               450  250  -6.99  
               450  250  -6.13  
               450  250  -5.27  
               450  250  -4.41  
               450  250  -3.55  
               450  250  -2.69  
               450  250  -1.83  
               350  350  -9.57  
               350  350  -8.71  
               350  350  -7.85  
               350  350  -6.99  
               350  350  -6.13  
               350  350  -5.27  
               350  350  -4.41  
               350  350  -3.55  
               350  350  -2.69  
               350  350  -1.83  
               250  450  -9.57  
               250  450  -8.71  
               250  450  -7.85  
               250  450  -6.99  
               250  450  -6.13  
               250  450  -5.27  
               250  450  -4.41  
               250  450  -3.55  
               250  450  -2.69  
               250  450  -1.83  
               150  550  -9.5  
               150  550  -8.5  
               150  550  -7.5  
               150  550  -6.5  
               150  550  -5.5  
               150  550  -4.5  
               150  550  -3.5  
               150  550  -2.5  
               150  550  -1.5  
               150  550  -0.5  
               50  650  -9.5  
               50  650  -8.5  
               50  650  -7.5  
               50  650  -6.5  
               50  650  -5.5  
               50  650  -4.5  
               50  650  -3.5  
               50  650  -2.5  
               50  650  -1.5  
               50  650  -0.5  
               650  150  -9.5  
               650  150  -8.5  
               650  150  -7.5  
               650  150  -6.5  
               650  150  -5.5  
               650  150  -4.5  
               650  150  -3.5  
               650  150  -2.5  
               650  150  -1.5  
               650  150  -0.5  
               550  250  -9.5  
               550  250  -8.5  
               550  250  -7.5  
               550  250  -6.5  
               550  250  -5.5  
               550  250  -4.5  
               550  250  -3.5  
               550  250  -2.5  
               550  250  -1.5  
               550  250  -0.5  
               450  350  -9.57  
               450  350  -8.71  
               450  350  -7.85  
               450  350  -6.99  
               450  350  -6.13  
               450  350  -5.27  
               450  350  -4.41  
               450  350  -3.55  
               450  350  -2.69  
               450  350  -1.83  
               350  450  -9.57  
               350  450  -8.71  
               350  450  -7.85  
               350  450  -6.99  
               350  450  -6.13  
               350  450  -5.27  
               350  450  -4.41  
               350  450  -3.55  
               350  450  -2.69  
               350  450  -1.83  
               250  550  -9.5  
               250  550  -8.5  
               250  550  -7.5  
               250  550  -6.5  
               250  550  -5.5  
               250  550  -4.5  
               250  550  -3.5  
               250  550  -2.5  
               250  550  -1.5  
               250  550  -0.5  
               150  650  -9.5  
               150  650  -8.5  
               150  650  -7.5  
               150  650  -6.5  
               150  650  -5.5  
               150  650  -4.5  
               150  650  -3.5  
               150  650  -2.5  
               150  650  -1.5  
               150  650  -0.5  
               50  750  -9.5  
               50  750  -8.5  
               50  750  -7.5  
               50  750  -6.5  
               50  750  -5.5  
               50  750  -4.5  
               50  750  -3.5  
               50  750  -2.5  
               50  750  -1.5  
               50  750  -0.5  
               750  150  -9.5  
               750  150  -8.5  
               750  150  -7.5  
               750  150  -6.5  
               750  150  -5.5  
               750  150  -4.5  
               750  150  -3.5  
               750  150  -2.5  
               750  150  -1.5  
               750  150  -0.5  
               650  250  -9.5  
               650  250  -8.5  
               650  250  -7.5  
               650  250  -6.5  
               650  250  -5.5  
               650  250  -4.5  
               650  250  -3.5  
               650  250  -2.5  
               650  250  -1.5  
               650  250  -0.5  
               550  350  -9.5  
               550  350  -8.5  
               550  350  -7.5  
               550  350  -6.5  
               550  350  -5.5  
               550  350  -4.5  
               550  350  -3.5  
               550  350  -2.5  
               550  350  -1.5  
               550  350  -0.5  
               450  450  -9.57  
               450  450  -8.71  
               450  450  -7.85  
               450  450  -6.99  
               450  450  -6.13  
               450  450  -5.27  
               450  450  -4.41  
               450  450  -3.55  
               450  450  -2.69  
               450  450  -1.83  
               350  550  -9.5  
               350  550  -8.5  
               350  550  -7.5  
               350  550  -6.5  
               350  550  -5.5  
               350  550  -4.5  
               350  550  -3.5  
               350  550  -2.5  
               350  550  -1.5  
               350  550  -0.5  
               250  650  -9.5  
               250  650  -8.5  
               250  650  -7.5  
               250  650  -6.5  
               250  650  -5.5  
               250  650  -4.5  
               250  650  -3.5  
               250  650  -2.5  
               250  650  -1.5  
               250  650  -0.5  
               150  750  -9.5  
               150  750  -8.5  
               150  750  -7.5  
               150  750  -6.5  
               150  750  -5.5  
               150  750  -4.5  
               150  750  -3.5  
               150  750  -2.5  
               150  750  -1.5  
               150  750  -0.5  
               50  850  -9.5  
               50  850  -8.5  
               50  850  -7.5  
               50  850  -6.5  
               50  850  -5.5  
               50  850  -4.5  
               50  850  -3.5  
               50  850  -2.5  
               50  850  -1.5  
               50  850  -0.5  
               850  150  -9.5  
               850  150  -8.5  
               850  150  -7.5  
               850  150  -6.5  
               850  150  -5.5  
               850  150  -4.5  
               850  150  -3.5  
               850  150  -2.5  
               850  150  -1.5  
               850  150  -0.5  
               750  250  -9.5  
               750  250  -8.5  
               750  250  -7.5  
               750  250  -6.5  
               750  250  -5.5  
               750  250  -4.5  
               750  250  -3.5  
               750  250  -2.5  
               750  250  -1.5  
               750  250  -0.5  
               650  350  -9.5  
               650  350  -8.5  
               650  350  -7.5  
               650  350  -6.5  
               650  350  -5.5  
               650  350  -4.5  
               650  350  -3.5  
               650  350  -2.5  
               650  350  -1.5  
               650  350  -0.5  
               550  450  -9.5  
               550  450  -8.5  
               550  450  -7.5  
               550  450  -6.5  
               550  450  -5.5  
               550  450  -4.5  
               550  450  -3.5  
               550  450  -2.5  
               550  450  -1.5  
               550  450  -0.5  
               450  550  -9.5  
               450  550  -8.5  
               450  550  -7.5  
               450  550  -6.5  
               450  550  -5.5  
               450  550  -4.5  
               450  550  -3.5  
               450  550  -2.5  
               450  550  -1.5  
               450  550  -0.5  
               350  650  -9.5  
               350  650  -8.5  
               350  650  -7.5  
               350  650  -6.5  
               350  650  -5.5  
               350  650  -4.5  
               350  650  -3.5  
               350  650  -2.5  
               350  650  -1.5  
               350  650  -0.5  
               250  750  -9.5  
               250  750  -8.5  
               250  750  -7.5  
               250  750  -6.5  
               250  750  -5.5  
               250  750  -4.5  
               250  750  -3.5  
               250  750  -2.5  
               250  750  -1.5  
               250  750  -0.5  
               150  850  -9.5  
               150  850  -8.5  
               150  850  -7.5  
               150  850  -6.5  
               150  850  -5.5  
               150  850  -4.5  
               150  850  -3.5  
               150  850  -2.5  
               150  850  -1.5  
               150  850  -0.5  
               50  950  -9.5  
               50  950  -8.5  
               50  950  -7.5  
               50  950  -6.5  
               50  950  -5.5  
               50  950  -4.5  
               50  950  -3.5  
               50  950  -2.5  
               50  950  -1.5  
               50  950  -0.5  
               950  150  -9.5  
               950  150  -8.5  
               950  150  -7.5  
               950  150  -6.5  
               950  150  -5.5  
               950  150  -4.5  
               950  150  -3.5  
               950  150  -2.5  
               950  150  -1.5  
               950  150  -0.5  
               850  250  -9.5  
               850  250  -8.5  
               850  250  -7.5  
               850  250  -6.5  
               850  250  -5.5  
               850  250  -4.5  
               850  250  -3.5  
               850  250  -2.5  
               850  250  -1.5  
               850  250  -0.5  
               750  350  -9.5  
               750  350  -8.5  
               750  350  -7.5  
               750  350  -6.5  
               750  350  -5.5  
               750  350  -4.5  
               750  350  -3.5  
               750  350  -2.5  
               750  350  -1.5  
               750  350  -0.5  
               650  450  -9.5  
               650  450  -8.5  
               650  450  -7.5  
               650  450  -6.5  
               650  450  -5.5  
               650  450  -4.5  
               650  450  -3.5  
               650  450  -2.5  
               650  450  -1.5  
               650  450  -0.5  
               550  550  -9.5  
               550  550  -8.5  
               550  550  -7.5  
               550  550  -6.5  
               550  550  -5.5  
               550  550  -4.5  
               550  550  -3.5  
               550  550  -2.5  
               550  550  -1.5  
               550  550  -0.5  
               450  650  -9.5  
               450  650  -8.5  
               450  650  -7.5  
               450  650  -6.5  
               450  650  -5.5  
               450  650  -4.5  
               450  650  -3.5  
               450  650  -2.5  
               450  650  -1.5  
               450  650  -0.5  
               350  750  -9.5  
               350  750  -8.5  
               350  750  -7.5  
               350  750  -6.5  
               350  750  -5.5  
               350  750  -4.5  
               350  750  -3.5  
               350  750  -2.5  
               350  750  -1.5  
               350  750  -0.5  
               250  850  -9.5  
               250  850  -8.5  
               250  850  -7.5  
               250  850  -6.5  
               250  850  -5.5  
               250  850  -4.5  
               250  850  -3.5  
               250  850  -2.5  
               250  850  -1.5  
               250  850  -0.5  
               150  950  -9.5  
               150  950  -8.5  
               150  950  -7.5  
               150  950  -6.5  
               150  950  -5.5  
               150  950  -4.5  
               150  950  -3.5  
               150  950  -2.5  
               150  950  -1.5  
               150  950  -0.5  
               50  1050  -9.5  
               50  1050  -8.5  
               50  1050  -7.5  
               50  1050  -6.5  
               50  1050  -5.5  
               50  1050  -4.5  
               50  1050  -3.5  
               50  1050  -2.5  
               50  1050  -1.5  
               50  1050  -0.5  
               1050  150  -9.5  
               1050  150  -8.5  
               1050  150  -7.5  
               1050  150  -6.5  
               1050  150  -5.5  
               1050  150  -4.5  
               1050  150  -3.5  
               1050  150  -2.5  
               1050  150  -1.5  
               1050  150  -0.5  
               950  250  -9.46498  
               950  250  -8.39493  
               950  250  -7.32488  
               950  250  -6.25483  
               950  250  -5.18478  
               950  250  -4.11474  
               950  250  -3.04469  
               950  250  -1.97464  
               950  250  -0.904592  
               950  250  0.165456  
               850  350  -9.5  
               850  350  -8.5  
               850  350  -7.5  
               850  350  -6.5  
               850  350  -5.5  
               850  350  -4.5  
               850  350  -3.5  
               850  350  -2.5  
               850  350  -1.5  
               850  350  -0.5  
               750  450  -9.5  
               750  450  -8.5  
               750  450  -7.5  
               750  450  -6.5  
               750  450  -5.5  
               750  450  -4.5  
               750  450  -3.5  
               750  450  -2.5  
               750  450  -1.5  
               750  450  -0.5  
               650  550  -9.5  
               650  550  -8.5  
               650  550  -7.5  
               650  550  -6.5  
               650  550  -5.5  
               650  550  -4.5  
               650  550  -3.5  
               650  550  -2.5  
               650  550  -1.5  
               650  550  -0.5  
               550  650  -9.5  
               550  650  -8.5  
               550  650  -7.5  
               550  650  -6.5  
               550  650  -5.5  
               550  650  -4.5  
               550  650  -3.5  
               550  650  -2.5  
               550  650  -1.5  
               550  650  -0.5  
               450  750  -9.5  
               450  750  -8.5  
               450  750  -7.5  
               450  750  -6.5  
               450  750  -5.5  
               450  750  -4.5  
               450  750  -3.5  
               450  750  -2.5  
               450  750  -1.5  
               450  750  -0.5  
               350  850  -9.5  
               350  850  -8.5  
               350  850  -7.5  
               350  850  -6.5  
               350  850  -5.5  
               350  850  -4.5  
               350  850  -3.5  
               350  850  -2.5  
               350  850  -1.5  
               350  850  -0.5  
               250  950  -9.5  
               250  950  -8.5  
               250  950  -7.5  
               250  950  -6.5  
               250  950  -5.5  
               250  950  -4.5  
               250  950  -3.5  
               250  950  -2.5  
               250  950  -1.5  
               250  950  -0.5  
               150  1050  -9.5  
               150  1050  -8.5  
               150  1050  -7.5  
               150  1050  -6.5  
               150  1050  -5.5  
               150  1050  -4.5  
               150  1050  -3.5  
               150  1050  -2.5  
               150  1050  -1.5  
               150  1050  -0.5  
               1150  150  -9.5  
               1150  150  -8.5  
               1150  150  -7.5  
               1150  150  -6.5  
               1150  150  -5.5  
               1150  150  -4.5  
               1150  150  -3.5  
               1150  150  -2.5  
               1150  150  -1.5  
               1150  150  -0.5  
               1050  250  -9.465  
               1050  250  -8.395  
               1050  250  -7.32499  
               1050  250  -6.25499  
               1050  250  -5.18499  
               1050  250  -4.11498  
               1050  250  -3.04498  
               1050  250  -1.97498  
               1050  250  -0.904972  
               1050  250  0.165031  
               950  350  -9.46494  
               950  350  -8.39482  
               950  350  -7.32471  
               950  350  -6.25459  
               950  350  -5.18447  
               950  350  -4.11435  
               950  350  -3.04424  
               950  350  -1.97412  
               950  350  -0.904001  
               950  350  0.166117  
               850  450  -9.5  
               850  450  -8.5  
               850  450  -7.5  
               850  450  -6.5  
               850  450  -5.5  
               850  450  -4.5  
               850  450  -3.5  
               850  450  -2.5  
               850  450  -1.5  
               850  450  -0.5  
               750  550  -9.5  
               750  550  -8.5  
               750  550  -7.5  
               750  550  -6.5  
               750  550  -5.5  
               750  550  -4.5  
               750  550  -3.5  
               750  550  -2.5  
               750  550  -1.5  
               750  550  -0.5  
               650  650  -9.5  
               650  650  -8.5  
               650  650  -7.5  
               650  650  -6.5  
               650  650  -5.5  
               650  650  -4.5  
               650  650  -3.5  
               650  650  -2.5  
               650  650  -1.5  
               650  650  -0.5  
               550  750  -9.5  
               550  750  -8.5  
               550  750  -7.5  
               550  750  -6.5  
               550  750  -5.5  
               550  750  -4.5  
               550  750  -3.5  
               550  750  -2.5  
               550  750  -1.5  
               550  750  -0.5  
               450  850  -9.5  
               450  850  -8.5  
               450  850  -7.5  
               450  850  -6.5  
               450  850  -5.5  
               450  850  -4.5  
               450  850  -3.5  
               450  850  -2.5  
               450  850  -1.5  
               450  850  -0.5  
               350  950  -9.5  
               350  950  -8.5  
               350  950  -7.5  
               350  950  -6.5  
               350  950  -5.5  
               350  950  -4.5  
               350  950  -3.5  
               350  950  -2.5  
               350  950  -1.5  
               350  950  -0.5  
               250  1050  -9.5  
               250  1050  -8.5  
               250  1050  -7.5  
               250  1050  -6.5  
               250  1050  -5.5  
               250  1050  -4.5  
               250  1050  -3.5  
               250  1050  -2.5  
               250  1050  -1.5  
               250  1050  -0.5  
               1250  150  -9.5  
               1250  150  -8.5  
               1250  150  -7.5  
               1250  150  -6.5  
               1250  150  -5.5  
               1250  150  -4.5  
               1250  150  -3.5  
               1250  150  -2.5  
               1250  150  -1.5  
               1250  150  -0.5  
               1150  250  -9.46502  
               1150  250  -8.39506  
               1150  250  -7.3251  
               1150  250  -6.25515  
               1150  250  -5.18519  
               1150  250  -4.11523  
               1150  250  -3.04527  
               1150  250  -1.97531  
               1150  250  -0.905356  
               1150  250  0.164603  
               1050  350  -9.46501  
               1050  350  -8.39502  
               1050  350  -7.32504  
               1050  350  -6.25505  
               1050  350  -5.18507  
               1050  350  -4.11508  
               1050  350  -3.04509  
               1050  350  -1.97511  
               1050  350  -0.905124  
               1050  350  0.164862  
               950  450  -9.46498  
               950  450  -8.39493  
               950  450  -7.32488  
               950  450  -6.25483  
               950  450  -5.18478  
               950  450  -4.11474  
               950  450  -3.04469  
               950  450  -1.97464  
               950  450  -0.904592  
               950  450  0.165456  
               850  550  -9.5  
               850  550  -8.5  
               850  550  -7.5  
               850  550  -6.5  
               850  550  -5.5  
               850  550  -4.5  
               850  550  -3.5  
               850  550  -2.5  
               850  550  -1.5  
               850  550  -0.5  
               750  650  -9.5  
               750  650  -8.5  
               750  650  -7.5  
               750  650  -6.5  
               750  650  -5.5  
               750  650  -4.5  
               750  650  -3.5  
               750  650  -2.5  
               750  650  -1.5  
               750  650  -0.5  
               650  750  -9.5  
               650  750  -8.5  
               650  750  -7.5  
               650  750  -6.5  
               650  750  -5.5  
               650  750  -4.5  
               650  750  -3.5  
               650  750  -2.5  
               650  750  -1.5  
               650  750  -0.5  
               550  850  -9.5  
               550  850  -8.5  
               550  850  -7.5  
               550  850  -6.5  
               550  850  -5.5  
               550  850  -4.5  
               550  850  -3.5  
               550  850  -2.5  
               550  850  -1.5  
               550  850  -0.5  
               450  950  -9.5  
               450  950  -8.5  
               450  950  -7.5  
               450  950  -6.5  
               450  950  -5.5  
               450  950  -4.5  
               450  950  -3.5  
               450  950  -2.5  
               450  950  -1.5  
               450  950  -0.5  
               350  1050  -9.5  
               350  1050  -8.5  
               350  1050  -7.5  
               350  1050  -6.5  
               350  1050  -5.5  
               350  1050  -4.5  
               350  1050  -3.5  
               350  1050  -2.5  
               350  1050  -1.5  
               350  1050  -0.5  
               1350  150  -9.5  
               1350  150  -8.5  
               1350  150  -7.5  
               1350  150  -6.5  
               1350  150  -5.5  
               1350  150  -4.5  
               1350  150  -3.5  
               1350  150  -2.5  
               1350  150  -1.5  
               1350  150  -0.5  
               1250  250  -9.46501  
               1250  250  -8.39504  
               1250  250  -7.32507  
               1250  250  -6.25509  
               1250  250  -5.18512  
               1250  250  -4.11515  
               1250  250  -3.04517  
               1250  250  -1.9752  
               1250  250  -0.905228  
               1250  250  0.164745  
               1150  350  -9.46502  
               1150  350  -8.39506  
               1150  350  -7.32511  
               1150  350  -6.25515  
               1150  350  -5.18519  
               1150  350  -4.11523  
               1150  350  -3.04528  
               1150  350  -1.97532  
               1150  350  -0.905363  
               1150  350  0.164595  
               1050  450  -9.465  
               1050  450  -8.395  
               1050  450  -7.32499  
               1050  450  -6.25499  
               1050  450  -5.18499  
               1050  450  -4.11498  
               1050  450  -3.04498  
               1050  450  -1.97498  
               1050  450  -0.904972  
               1050  450  0.165031  
               950  550  -9.5  
               950  550  -8.5  
               950  550  -7.5  
               950  550  -6.5  
               950  550  -5.5  
               950  550  -4.5  
               950  550  -3.5  
               950  550  -2.5  
               950  550  -1.5  
               950  550  -0.5  
               850  650  -9.5  
               850  650  -8.5  
               850  650  -7.5  
               850  650  -6.5  
               850  650  -5.5  
               850  650  -4.5  
               850  650  -3.5  
               850  650  -2.5  
               850  650  -1.5  
               850  650  -0.5  
               750  750  -9.5  
               750  750  -8.5  
               750  750  -7.5  
               750  750  -6.5  
               750  750  -5.5  
               750  750  -4.5  
               750  750  -3.5  
               750  750  -2.5  
               750  750  -1.5  
               750  750  -0.5  
               650  850  -9.5  
               650  850  -8.5  
               650  850  -7.5  
               650  850  -6.5  
               650  850  -5.5  
               650  850  -4.5  
               650  850  -3.5  
               650  850  -2.5  
               650  850  -1.5  
               650  850  -0.5  
               550  950  -9.5  
               550  950  -8.5  
               550  950  -7.5  
               550  950  -6.5  
               550  950  -5.5  
               550  950  -4.5  
               550  950  -3.5  
               550  950  -2.5  
               550  950  -1.5  
               550  950  -0.5  
               450  1050  -9.5  
               450  1050  -8.5  
               450  1050  -7.5  
               450  1050  -6.5  
               450  1050  -5.5  
               450  1050  -4.5  
               450  1050  -3.5  
               450  1050  -2.5  
               450  1050  -1.5  
               450  1050  -0.5  
               1450  150  -9.5  
               1450  150  -8.5  
               1450  150  -7.5  
               1450  150  -6.5  
               1450  150  -5.5  
               1450  150  -4.5  
               1450  150  -3.5  
               1450  150  -2.5  
               1450  150  -1.5  
               1450  150  -0.5  
               1350  250  -9.5  
               1350  250  -8.5  
               1350  250  -7.5  
               1350  250  -6.5  
               1350  250  -5.5  
               1350  250  -4.5  
               1350  250  -3.5  
               1350  250  -2.5  
               1350  250  -1.5  
               1350  250  -0.5  
               1250  350  -9.46501  
               1250  350  -8.39504  
               1250  350  -7.32506  
               1250  350  -6.25509  
               1250  350  -5.18511  
               1250  350  -4.11514  
               1250  350  -3.04517  
               1250  350  -1.97519  
               1250  350  -0.905216  
               1250  350  0.164758  
               1150  450  -9.46502  
               1150  450  -8.39506  
               1150  450  -7.3251  
               1150  450  -6.25515  
               1150  450  -5.18519  
               1150  450  -4.11523  
               1150  450  -3.04527  
               1150  450  -1.97531  
               1150  450  -0.905356  
               1150  450  0.164603  
               1050  550  -9.5  
               1050  550  -8.5  
               1050  550  -7.5  
               1050  550  -6.5  
               1050  550  -5.5  
               1050  550  -4.5  
               1050  550  -3.5  
               1050  550  -2.5  
               1050  550  -1.5  
               1050  550  -0.5  
               950  650  -9.5  
               950  650  -8.5  
               950  650  -7.5  
               950  650  -6.5  
               950  650  -5.5  
               950  650  -4.5  
               950  650  -3.5  
               950  650  -2.5  
               950  650  -1.5  
               950  650  -0.500001  
               850  750  -9.5  
               850  750  -8.5  
               850  750  -7.5  
               850  750  -6.5  
               850  750  -5.5  
               850  750  -4.5  
               850  750  -3.5  
               850  750  -2.5  
               850  750  -1.5  
               850  750  -0.5  
               750  850  -9.5  
               750  850  -8.5  
               750  850  -7.5  
               750  850  -6.5  
               750  850  -5.5  
               750  850  -4.5  
               750  850  -3.5  
               750  850  -2.5  
               750  850  -1.5  
               750  850  -0.5  
               650  950  -9.5  
               650  950  -8.5  
               650  950  -7.5  
               650  950  -6.5  
               650  950  -5.5  
               650  950  -4.5  
               650  950  -3.5  
               650  950  -2.5  
               650  950  -1.5  
               650  950  -0.5  
               550  1050  -9.5  
               550  1050  -8.5  
               550  1050  -7.5  
               550  1050  -6.5  
               550  1050  -5.5  
               550  1050  -4.5  
               550  1050  -3.5  
               550  1050  -2.5  
               550  1050  -1.5  
               550  1050  -0.5  
               1550  150  -9.5  
               1550  150  -8.5  
               1550  150  -7.5  
               1550  150  -6.5  
               1550  150  -5.5  
               1550  150  -4.5  
               1550  150  -3.5  
               1550  150  -2.5  
               1550  150  -1.5  
               1550  150  -0.5  
               1450  250  -9.5  
               1450  250  -8.5  
               1450  250  -7.5  
               1450  250  -6.5  
               1450  250  -5.5  
               1450  250  -4.5  
               1450  250  -3.5  
               1450  250  -2.5  
               1450  250  -1.5  
               1450  250  -0.5  
               1350  350  -9.5  
               1350  350  -8.5  
               1350  350  -7.5  
               1350  350  -6.5  
               1350  350  -5.5  
               1350  350  -4.5  
               1350  350  -3.5  
               1350  350  -2.5  
               1350  350  -1.5  
               1350  350  -0.5  
               1250  450  -9.46501  
               1250  450  -8.39504  
               1250  450  -7.32507  
               1250  450  -6.25509  
               1250  450  -5.18512  
               1250  450  -4.11515  
               1250  450  -3.04517  
               1250  450  -1.9752  
               1250  450  -0.905228  
               1250  450  0.164745  
               1150  550  -9.5  
               1150  550  -8.5  
               1150  550  -7.5  
               1150  550  -6.5  
               1150  550  -5.5  
               1150  550  -4.5  
               1150  550  -3.5  
               1150  550  -2.5  
               1150  550  -1.5  
               1150  550  -0.500001  
               1050  650  -9.5  
               1050  650  -8.5  
               1050  650  -7.5  
               1050  650  -6.5  
               1050  650  -5.5  
               1050  650  -4.5  
               1050  650  -3.5  
               1050  650  -2.5  
               1050  650  -1.5  
               1050  650  -0.5  
               950  750  -9.5  
               950  750  -8.5  
               950  750  -7.5  
               950  750  -6.5  
               950  750  -5.5  
               950  750  -4.5  
               950  750  -3.5  
               950  750  -2.5  
               950  750  -1.5  
               950  750  -0.5  
               850  850  -9.5  
               850  850  -8.5  
               850  850  -7.5  
               850  850  -6.5  
               850  850  -5.5  
               850  850  -4.5  
               850  850  -3.5  
               850  850  -2.5  
               850  850  -1.5  
               850  850  -0.5  
               750  950  -9.5  
               750  950  -8.5  
               750  950  -7.5  
               750  950  -6.5  
               750  950  -5.5  
               750  950  -4.5  
               750  950  -3.5  
               750  950  -2.5  
               750  950  -1.5  
               750  950  -0.5  
               650  1050  -9.5  
               650  1050  -8.5  
               650  1050  -7.5  
               650  1050  -6.5  
               650  1050  -5.5  
               650  1050  -4.5  
               650  1050  -3.5  
               650  1050  -2.5  
               650  1050  -1.5  
               650  1050  -0.5  
               1650  150  -9.5  
               1650  150  -8.5  
               1650  150  -7.5  
               1650  150  -6.5  
               1650  150  -5.5  
               1650  150  -4.5  
               1650  150  -3.5  
               1650  150  -2.5  
               1650  150  -1.5  
               1650  150  -0.5  
               1550  250  -9.5  
               1550  250  -8.5  
               1550  250  -7.5  
               1550  250  -6.5  
               1550  250  -5.5  
               1550  250  -4.5  
               1550  250  -3.5  
               1550  250  -2.5  
               1550  250  -1.5  
               1550  250  -0.5  
               1450  350  -9.5  
               1450  350  -8.5  
               1450  350  -7.5  
               1450  350  -6.5  
               1450  350  -5.5  
               1450  350  -4.5  
               1450  350  -3.5  
               1450  350  -2.5  
               1450  350  -1.5  
               1450  350  -0.5  
               1350  450  -9.5  
               1350  450  -8.5  
               1350  450  -7.5  
               1350  450  -6.5  
               1350  450  -5.5  
               1350  450  -4.5  
               1350  450  -3.5  
               1350  450  -2.5  
               1350  450  -1.5  
               1350  450  -0.5  
               1250  550  -9.5  
               1250  550  -8.5  
               1250  550  -7.5  
               1250  550  -6.5  
               1250  550  -5.5  
               1250  550  -4.5  
               1250  550  -3.5  
               1250  550  -2.5  
               1250  550  -1.5  
               1250  550  -0.500001  
               1150  650  -9.5  
               1150  650  -8.5  
               1150  650  -7.5  
               1150  650  -6.5  
               1150  650  -5.5  
               1150  650  -4.5  
               1150  650  -3.5  
               1150  650  -2.5  
               1150  650  -1.5  
               1150  650  -0.5  
               1050  750  -9.5  
               1050  750  -8.5  
               1050  750  -7.5  
               1050  750  -6.5  
               1050  750  -5.5  
               1050  750  -4.5  
               1050  750  -3.5  
               1050  750  -2.5  
               1050  750  -1.5  
               1050  750  -0.5  
               950  850  -9.5  
               950  850  -8.5  
               950  850  -7.5  
               950  850  -6.5  
               950  850  -5.5  
               950  850  -4.5  
               950  850  -3.5  
               950  850  -2.5  
               950  850  -1.5  
               950  850  -0.5  
               850  950  -9.5  
               850  950  -8.5  
               850  950  -7.5  
               850  950  -6.5  
               850  950  -5.5  
               850  950  -4.5  
               850  950  -3.5  
               850  950  -2.5  
               850  950  -1.5  
               850  950  -0.5  
               750  1050  -9.5  
               750  1050  -8.5  
               750  1050  -7.5  
               750  1050  -6.5  
               750  1050  -5.5  
               750  1050  -4.5  
               750  1050  -3.5  
               750  1050  -2.5  
               750  1050  -1.5  
               750  1050  -0.5  
               1750  150  -9.5  
               1750  150  -8.5  
               1750  150  -7.5  
               1750  150  -6.5  
               1750  150  -5.5  
               1750  150  -4.5  
               1750  150  -3.5  
               1750  150  -2.5  
               1750  150  -1.5  
               1750  150  -0.5  
               1650  250  -9.5  
               1650  250  -8.5  
               1650  250  -7.5  
               1650  250  -6.5  
               1650  250  -5.5  
               1650  250  -4.5  
               1650  250  -3.5  
               1650  250  -2.5  
               1650  250  -1.5  
               1650  250  -0.5  
               1550  350  -9.5  
               1550  350  -8.5  
               1550  350  -7.5  
               1550  350  -6.5  
               1550  350  -5.5  
               1550  350  -4.5  
               1550  350  -3.5  
               1550  350  -2.5  
               1550  350  -1.5  
               1550  350  -0.5  
               1450  450  -9.5  
               1450  450  -8.5  
               1450  450  -7.5  
               1450  450  -6.5  
               1450  450  -5.5  
               1450  450  -4.5  
               1450  450  -3.5  
               1450  450  -2.5  
               1450  450  -1.5  
               1450  450  -0.5  
               1350  550  -9.5  
               1350  550  -8.5  
               1350  550  -7.5  
               1350  550  -6.5  
               1350  550  -5.5  
               1350  550  -4.5  
               1350  550  -3.5  
               1350  550  -2.5  
               1350  550  -1.5  
               1350  550  -0.5  
               1250  650  -9.5  
               1250  650  -8.5  
               1250  650  -7.5  
               1250  650  -6.5  
               1250  650  -5.5  
               1250  650  -4.5  
               1250  650  -3.5  
               1250  650  -2.5  
               1250  650  -1.5  
               1250  650  -0.5  
               1150  750  -9.5  
               1150  750  -8.5  
               1150  750  -7.5  
               1150  750  -6.5  
               1150  750  -5.5  
               1150  750  -4.5  
               1150  750  -3.5  
               1150  750  -2.5  
               1150  750  -1.5  
               1150  750  -0.5  
               1050  850  -9.5  
               1050  850  -8.5  
               1050  850  -7.5  
               1050  850  -6.5  
               1050  850  -5.5  
               1050  850  -4.5  
               1050  850  -3.5  
               1050  850  -2.5  
               1050  850  -1.5  
               1050  850  -0.5  
               950  950  -9.5  
               950  950  -8.5  
               950  950  -7.5  
               950  950  -6.5  
               950  950  -5.5  
               950  950  -4.5  
               950  950  -3.5  
               950  950  -2.5  
               950  950  -1.5  
               950  950  -0.5  
               850  1050  -9.5  
               850  1050  -8.5  
               850  1050  -7.5  
               850  1050  -6.5  
               850  1050  -5.5  
               850  1050  -4.5  
               850  1050  -3.5  
               850  1050  -2.5  
               850  1050  -1.5  
               850  1050  -0.5  
               1850  150  -9.5  
               1850  150  -8.5  
               1850  150  -7.5  
               1850  150  -6.5  
               1850  150  -5.5  
               1850  150  -4.5  
               1850  150  -3.5  
               1850  150  -2.5  
               1850  150  -1.5  
               1850  150  -0.5  
               1750  250  -9.5  
               1750  250  -8.5  
               1750  250  -7.5  
               1750  250  -6.5  
               1750  250  -5.5  
               1750  250  -4.5  
               1750  250  -3.5  
               1750  250  -2.5  
               1750  250  -1.5  
               1750  250  -0.5  
               1650  350  -9.5  
               1650  350  -8.5  
               1650  350  -7.5  
               1650  350  -6.5  
               1650  350  -5.5  
               1650  350  -4.5  
               1650  350  -3.5  
               1650  350  -2.5  
               1650  350  -1.5  
               1650  350  -0.5  
               1550  450  -9.5  
               1550  450  -8.5  
               1550  450  -7.5  
               1550  450  -6.5  
               1550  450  -5.5  
               1550  450  -4.5  
               1550  450  -3.5  
               1550  450  -2.5  
               1550  450  -1.5  
               1550  450  -0.5  
               1450  550  -9.5  
               1450  550  -8.5  
               1450  550  -7.5  
               1450  550  -6.5  
               1450  550  -5.5  
               1450  550  -4.5  
               1450  550  -3.5  
               1450  550  -2.5  
               1450  550  -1.5  
               1450  550  -0.5  
               1350  650  -9.5  
               1350  650  -8.5  
               1350  650  -7.5  
               1350  650  -6.5  
               1350  650  -5.5  
               1350  650  -4.5  
               1350  650  -3.5  
               1350  650  -2.5  
               1350  650  -1.5  
               1350  650  -0.5  
               1250  750  -9.5  
               1250  750  -8.5  
               1250  750  -7.5  
               1250  750  -6.5  
               1250  750  -5.5  
               1250  750  -4.5  
               1250  750  -3.5  
               1250  750  -2.5  
               1250  750  -1.5  
               1250  750  -0.5  
               1150  850  -9.5  
               1150  850  -8.5  
               1150  850  -7.5  
               1150  850  -6.5  
               1150  850  -5.5  
               1150  850  -4.5  
               1150  850  -3.5  
               1150  850  -2.5  
               1150  850  -1.5  
               1150  850  -0.5  
               1050  950  -9.5  
               1050  950  -8.5  
               1050  950  -7.5  
               1050  950  -6.5  
               1050  950  -5.5  
               1050  950  -4.5  
               1050  950  -3.5  
               1050  950  -2.5  
               1050  950  -1.5  
               1050  950  -0.5  
               950  1050  -9.5  
               950  1050  -8.5  
               950  1050  -7.5  
               950  1050  -6.5  
               950  1050  -5.5  
               950  1050  -4.5  
               950  1050  -3.5  
               950  1050  -2.5  
               950  1050  -1.5  
               950  1050  -0.5  
               1950  150  -9.5  
               1950  150  -8.5  
               1950  150  -7.5  
               1950  150  -6.5  
               1950  150  -5.5  
               1950  150  -4.5  
               1950  150  -3.5  
               1950  150  -2.5  
               1950  150  -1.5  
               1950  150  -0.5  
               1850  250  -9.5  
               1850  250  -8.5  
               1850  250  -7.5  
               1850  250  -6.5  
               1850  250  -5.5  
               1850  250  -4.5  
               1850  250  -3.5  
               1850  250  -2.5  
               1850  250  -1.5  
               1850  250  -0.5  
               1750  350  -9.5  
               1750  350  -8.5  
               1750  350  -7.5  
               1750  350  -6.5  
               1750  350  -5.5  
               1750  350  -4.5  
               1750  350  -3.5  
               1750  350  -2.5  
               1750  350  -1.5  
               1750  350  -0.5  
               1650  450  -9.5  
               1650  450  -8.5  
               1650  450  -7.5  
               1650  450  -6.5  
               1650  450  -5.5  
               1650  450  -4.5  
               1650  450  -3.5  
               1650  450  -2.5  
               1650  450  -1.5  
               1650  450  -0.5  
               1550  550  -9.5  
               1550  550  -8.5  
               1550  550  -7.5  
               1550  550  -6.5  
               1550  550  -5.5  
               1550  550  -4.5  
               1550  550  -3.5  
               1550  550  -2.5  
               1550  550  -1.5  
               1550  550  -0.5  
               1450  650  -9.5  
               1450  650  -8.5  
               1450  650  -7.5  
               1450  650  -6.5  
               1450  650  -5.5  
               1450  650  -4.5  
               1450  650  -3.5  
               1450  650  -2.5  
               1450  650  -1.5  
               1450  650  -0.5  
               1350  750  -9.5  
               1350  750  -8.5  
               1350  750  -7.5  
               1350  750  -6.5  
               1350  750  -5.5  
               1350  750  -4.5  
               1350  750  -3.5  
               1350  750  -2.5  
               1350  750  -1.5  
               1350  750  -0.5  
               1250  850  -9.5  
               1250  850  -8.5  
               1250  850  -7.5  
               1250  850  -6.5  
               1250  850  -5.5  
               1250  850  -4.5  
               1250  850  -3.5  
               1250  850  -2.5  
               1250  850  -1.5  
               1250  850  -0.5  
               1150  950  -9.5  
               1150  950  -8.5  
               1150  950  -7.5  
               1150  950  -6.5  
               1150  950  -5.5  
               1150  950  -4.5  
               1150  950  -3.5  
               1150  950  -2.5  
               1150  950  -1.5  
               1150  950  -0.5  
               1050  1050  -9.5  
               1050  1050  -8.5  
               1050  1050  -7.5  
               1050  1050  -6.5  
               1050  1050  -5.5  
               1050  1050  -4.5  
               1050  1050  -3.5  
               1050  1050  -2.5  
               1050  1050  -1.5  
               1050  1050  -0.5  
               1950  250  -9.5  
               1950  250  -8.5  
               1950  250  -7.5  
               1950  250  -6.5  
               1950  250  -5.5  
               1950  250  -4.5  
               1950  250  -3.5  
               1950  250  -2.5  
               1950  250  -1.5  
               1950  250  -0.5  
               1850  350  -9.5  
               1850  350  -8.5  
               1850  350  -7.5  
               1850  350  -6.5  
               1850  350  -5.5  
               1850  350  -4.5  
               1850  350  -3.5  
               1850  350  -2.5  
               1850  350  -1.5  
               1850  350  -0.5  
               1750  450  -9.5  
               1750  450  -8.5  
               1750  450  -7.5  
               1750  450  -6.5  
               1750  450  -5.5  
               1750  450  -4.5  
               1750  450  -3.5  
               1750  450  -2.5  
               1750  450  -1.5  
               1750  450  -0.5  
               1650  550  -9.5  
               1650  550  -8.5  
               1650  550  -7.5  
               1650  550  -6.5  
               1650  550  -5.5  
               1650  550  -4.5  
               1650  550  -3.5  
               1650  550  -2.5  
               1650  550  -1.5  
               1650  550  -0.5  
               1550  650  -9.5  
               1550  650  -8.5  
               1550  650  -7.5  
               1550  650  -6.5  
               1550  650  -5.5  
               1550  650  -4.5  
               1550  650  -3.5  
               1550  650  -2.5  
               1550  650  -1.5  
               1550  650  -0.5  
               1450  750  -9.5  
               1450  750  -8.5  
               1450  750  -7.5  
               1450  750  -6.5  
               1450  750  -5.5  
               1450  750  -4.5  
               1450  750  -3.5  
               1450  750  -2.5  
               1450  750  -1.5  
               1450  750  -0.5  
               1350  850  -9.535  
               1350  850  -8.605  
               1350  850  -7.675  
               1350  850  -6.745  
               1350  850  -5.815  
               1350  850  -4.885  
               1350  850  -3.955  
               1350  850  -3.025  
               1350  850  -2.095  
               1350  850  -1.165  
               1250  950  -9.5  
               1250  950  -8.5  
               1250  950  -7.5  
               1250  950  -6.5  
               1250  950  -5.5  
               1250  950  -4.5  
               1250  950  -3.5  
               1250  950  -2.5  
               1250  950  -1.5  
               1250  950  -0.5  
               1150  1050  -9.5  
               1150  1050  -8.5  
               1150  1050  -7.5  
               1150  1050  -6.5  
               1150  1050  -5.5  
               1150  1050  -4.5  
               1150  1050  -3.5  
               1150  1050  -2.5  
               1150  1050  -1.5  
               1150  1050  -0.5  
               1950  350  -9.5  
               1950  350  -8.5  
               1950  350  -7.5  
               1950  350  -6.5  
               1950  350  -5.5  
               1950  350  -4.5  
               1950  350  -3.5  
               1950  350  -2.5  
               1950  350  -1.5  
               1950  350  -0.5  
               1850  450  -9.5  
               1850  450  -8.5  
               1850  450  -7.5  
               1850  450  -6.5  
               1850  450  -5.5  
               1850  450  -4.5  
               1850  450  -3.5  
               1850  450  -2.5  
               1850  450  -1.5  
               1850  450  -0.5  
               1750  550  -9.5  
               1750  550  -8.5  
               1750  550  -7.5  
               1750  550  -6.5  
               1750  550  -5.5  
               1750  550  -4.5  
               1750  550  -3.5  
               1750  550  -2.5  
               1750  550  -1.5  
               1750  550  -0.5  
               1650  650  -9.5  
               1650  650  -8.5  
               1650  650  -7.5  
               1650  650  -6.5  
               1650  650  -5.5  
               1650  650  -4.5  
               1650  650  -3.5  
               1650  650  -2.5  
               1650  650  -1.5  
               1650  650  -0.5  
               1550  750  -9.5  
               1550  750  -8.5  
               1550  750  -7.5  
               1550  750  -6.5  
               1550  750  -5.5  
               1550  750  -4.5  
               1550  750  -3.5  
               1550  750  -2.5  
               1550  750  -1.5  
               1550  750  -0.5  
               1450  850  -9.535  
               1450  850  -8.605  
               1450  850  -7.675  
               1450  850  -6.745  
               1450  850  -5.815  
               1450  850  -4.885  
               1450  850  -3.955  
               1450  850  -3.025  
               1450  850  -2.095  
               1450  850  -1.165  
               1350  950  -9.535  
               1350  950  -8.605  
               1350  950  -7.675  
               1350  950  -6.745  
               1350  950  -5.815  
               1350  950  -4.885  
               1350  950  -3.955  
               1350  950  -3.025  
               1350  950  -2.095  
               1350  950  -1.165  
               1250  1050  -9.5  
               1250  1050  -8.5  
               1250  1050  -7.5  
               1250  1050  -6.5  
               1250  1050  -5.5  
               1250  1050  -4.5  
               1250  1050  -3.5  
               1250  1050  -2.5  
               1250  1050  -1.5  
               1250  1050  -0.5  
               1950  450  -9.5  
               1950  450  -8.5  
               1950  450  -7.5  
               1950  450  -6.5  
               1950  450  -5.5  
               1950  450  -4.5  
               1950  450  -3.5  
               1950  450  -2.5  
               1950  450  -1.5  
               1950  450  -0.5  
               1850  550  -9.5  
               1850  550  -8.5  
               1850  550  -7.5  
               1850  550  -6.5  
               1850  550  -5.5  
               1850  550  -4.5  
               1850  550  -3.5  
               1850  550  -2.5  
               1850  550  -1.5  
               1850  550  -0.5  
               1750  650  -9.5  
               1750  650  -8.5  
               1750  650  -7.5  
               1750  650  -6.5  
               1750  650  -5.5  
               1750  650  -4.5  
               1750  650  -3.5  
               1750  650  -2.5  
               1750  650  -1.5  
               1750  650  -0.5  
               1650  750  -9.5  
               1650  750  -8.5  
               1650  750  -7.5  
               1650  750  -6.5  
               1650  750  -5.5  
               1650  750  -4.5  
               1650  750  -3.5  
               1650  750  -2.5  
               1650  750  -1.5  
               1650  750  -0.5  
               1550  850  -9.535  
               1550  850  -8.605  
               1550  850  -7.675  
               1550  850  -6.745  
               1550  850  -5.815  
               1550  850  -4.885  
               1550  850  -3.955  
               1550  850  -3.025  
               1550  850  -2.095  
               1550  850  -1.165  
               1450  950  -9.535  
               1450  950  -8.605  
               1450  950  -7.675  
               1450  950  -6.745  
               1450  950  -5.815  
               1450  950  -4.885  
               1450  950  -3.955  
               1450  950  -3.025  
               1450  950  -2.095  
               1450  950  -1.165  
               1350  1050  -9.535  
               1350  1050  -8.605  
               1350  1050  -7.675  
               1350  1050  -6.745  
               1350  1050  -5.815  
               1350  1050  -4.885  
               1350  1050  -3.955  
               1350  1050  -3.025  
               1350  1050  -2.095  
               1350  1050  -1.165  
               1950  550  -9.5  
               1950  550  -8.5  
               1950  550  -7.5  
               1950  550  -6.5  
               1950  550  -5.5  
               1950  550  -4.5  
               1950  550  -3.5  
               1950  550  -2.5  
               1950  550  -1.5  
               1950  550  -0.5  
               1850  650  -9.5  
               1850  650  -8.5  
               1850  650  -7.5  
               1850  650  -6.5  
               1850  650  -5.5  
               1850  650  -4.5  
               1850  650  -3.5  
               1850  650  -2.5  
               1850  650  -1.5  
               1850  650  -0.5  
               1750  750  -9.5  
               1750  750  -8.5  
               1750  750  -7.5  
               1750  750  -6.5  
               1750  750  -5.5  
               1750  750  -4.5  
               1750  750  -3.5  
               1750  750  -2.5  
               1750  750  -1.5  
               1750  750  -0.5  
               1650  850  -9.535  
               1650  850  -8.605  
               1650  850  -7.675  
               1650  850  -6.745  
               1650  850  -5.815  
               1650  850  -4.885  
               1650  850  -3.955  
               1650  850  -3.025  
               1650  850  -2.095  
               1650  850  -1.165  
               1550  950  -9.535  
               1550  950  -8.605  
               1550  950  -7.675  
               1550  950  -6.745  
               1550  950  -5.815  
               1550  950  -4.885  
               1550  950  -3.955  
               1550  950  -3.025  
               1550  950  -2.095  
               1550  950  -1.165  
               1450  1050  -9.535  
               1450  1050  -8.605  
               1450  1050  -7.675  
               1450  1050  -6.745  
               1450  1050  -5.815  
               1450  1050  -4.885  
               1450  1050  -3.955  
               1450  1050  -3.025  
               1450  1050  -2.095  
               1450  1050  -1.165  
               1950  650  -9.5  
               1950  650  -8.5  
               1950  650  -7.5  
               1950  650  -6.5  
               1950  650  -5.5  
               1950  650  -4.5  
               1950  650  -3.5  
               1950  650  -2.5  
               1950  650  -1.5  
               1950  650  -0.5  
               1850  750  -9.5  
               1850  750  -8.5  
               1850  750  -7.5  
               1850  750  -6.5  
               1850  750  -5.5  
               1850  750  -4.5  
               1850  750  -3.5  
               1850  750  -2.5  
               1850  750  -1.5  
               1850  750  -0.5  
               1750  850  -9.5  
               1750  850  -8.5  
               1750  850  -7.5  
               1750  850  -6.5  
               1750  850  -5.5  
               1750  850  -4.5  
               1750  850  -3.5  
               1750  850  -2.5  
               1750  850  -1.5  
               1750  850  -0.5  
               1650  950  -9.535  
               1650  950  -8.605  
               1650  950  -7.675  
               1650  950  -6.745  
               1650  950  -5.815  
               1650  950  -4.885  
               1650  950  -3.955  
               1650  950  -3.025  
               1650  950  -2.095  
               1650  950  -1.165  
               1550  1050  -9.535  
               1550  1050  -8.605  
               1550  1050  -7.675  
               1550  1050  -6.745  
               1550  1050  -5.815  
               1550  1050  -4.885  
               1550  1050  -3.955  
               1550  1050  -3.025  
               1550  1050  -2.095  
               1550  1050  -1.165  
               1950  750  -9.5  
               1950  750  -8.5  
               1950  750  -7.5  
               1950  750  -6.5  
               1950  750  -5.5  
               1950  750  -4.5  
               1950  750  -3.5  
               1950  750  -2.5  
               1950  750  -1.5  
               1950  750  -0.5  
               1850  850  -9.5  
               1850  850  -8.5  
               1850  850  -7.5  
               1850  850  -6.5  
               1850  850  -5.5  
               1850  850  -4.5  
               1850  850  -3.5  
               1850  850  -2.5  
               1850  850  -1.5  
               1850  850  -0.5  
               1750  950  -9.5  
               1750  950  -8.5  
               1750  950  -7.5  
               1750  950  -6.5  
               1750  950  -5.5  
               1750  950  -4.5  
               1750  950  -3.5  
               1750  950  -2.5  
               1750  950  -1.5  
               1750  950  -0.5  
               1650  1050  -9.535  
               1650  1050  -8.605  
               1650  1050  -7.675  
               1650  1050  -6.745  
               1650  1050  -5.815  
               1650  1050  -4.885  
               1650  1050  -3.955  
               1650  1050  -3.025  
               1650  1050  -2.095  
               1650  1050  -1.165  
               1950  850  -9.5  
               1950  850  -8.5  
               1950  850  -7.5  
               1950  850  -6.5  
               1950  850  -5.5  
               1950  850  -4.5  
               1950  850  -3.5  
               1950  850  -2.5  
               1950  850  -1.5  
               1950  850  -0.5  
               1850  950  -9.5  
               1850  950  -8.5  
               1850  950  -7.5  
               1850  950  -6.5  
               1850  950  -5.5  
               1850  950  -4.5  
               1850  950  -3.5  
               1850  950  -2.5  
               1850  950  -1.5  
               1850  950  -0.5  
               1750  1050  -9.5  
               1750  1050  -8.5  
               1750  1050  -7.5  
               1750  1050  -6.5  
               1750  1050  -5.5  
               1750  1050  -4.5  
               1750  1050  -3.5  
               1750  1050  -2.5  
               1750  1050  -1.5  
               1750  1050  -0.5  
               1950  950  -9.5  
               1950  950  -8.5  
               1950  950  -7.5  
               1950  950  -6.5  
               1950  950  -5.5  
               1950  950  -4.5  
               1950  950  -3.5  
               1950  950  -2.5  
               1950  950  -1.5  
               1950  950  -0.5  
               1850  1050  -9.5  
               1850  1050  -8.5  
               1850  1050  -7.5  
               1850  1050  -6.5  
               1850  1050  -5.5  
               1850  1050  -4.5  
               1850  1050  -3.5  
               1850  1050  -2.5  
               1850  1050  -1.5  
               1850  1050  -0.5  
               1950  1050  -9.5  
               1950  1050  -8.5  
               1950  1050  -7.5  
               1950  1050  -6.5  
               1950  1050  -5.5  
               1950  1050  -4.5  
               1950  1050  -3.5  
               1950  1050  -2.5  
               1950  1050  -1.5  
               1950  1050  -0.5  
            </DataArray>
         </Points> 

         <Cells>
            <DataArray type="Int32" Name="connectivity" NumberOfComponents="1" format="ascii">
               
            </DataArray> 
            <DataArray type="Int32" Name="offsets" NumberOfComponents="1" format="ascii">
               
            </DataArray>
            <DataArray type="UInt8"  Name="types" NumberOfComponents="1" format="ascii">
               
            </DataArray>
         </Cells>
         <PointData Scalars="Rank sea_water_potential_density " Vectors="">
            <DataArray type="UInt32" Name="Rank" NumberOfComponents="1" format="ascii">
               0 0 0 0 0 0 0 0 0 0 0 0 0 0 0 0 0 0 0 0 0 0 0 0 0 0 0 0 0 0 0 0 0 0 0 0 0 0 0 0 0 0 0 0 0 0 0 0 0 0 0 0 0 0 0 0 0 0 0 0 0 0 0 0 0 0 0 0 0 0 0 0 0 0 0 0 0 0 0 0 0 0 0 0 0 0 0 0 0 0 0 0 0 0 0 0 0 0 0 0 0 0 0 0 0 0 0 0 0 0 0 0 0 0 0 0 0 0 0 0 0 0 0 0 0 0 0 0 0 0 0 0 0 0 0 0 0 0 0 0 0 0 0 0 0 0 0 0 0 0 0 0 0 0 0 0 0 0 0 0 0 0 0 0 0 0 0 0 0 0 0 0 0 0 0 0 0 0 0 0 0 0 0 0 0 0 0 0 0 0 0 0 0 0 0 0 0 0 0 0 0 0 0 0 0 0 0 0 0 0 0 0 0 0 0 0 0 0 0 0 0 0 0 0 0 0 0 0 0 0 0 0 0 0 0 0 0 0 0 0 0 0 0 0 0 0 0 0 0 0 0 0 0 0 0 0 0 0 0 0 0 0 0 0 0 0 0 0 0 0 0 0 0 0 0 0 0 0 0 0 0 0 0 0 0 0 0 0 0 0 0 0 0 0 0 0 0 0 0 0 0 0 0 0 0 0 0 0 0 0 0 0 0 0 0 0 0 0 0 0 0 0 0 0 0 0 0 0 0 0 0 0 0 0 0 0 0 0 0 0 0 0 0 0 0 0 0 0 0 0 0 0 0 0 0 0 0 0 0 0 0 0 0 0 0 0 0 0 0 0 0 0 0 0 0 0 0 0 0 0 0 0 0 0 0 0 0 0 0 0 0 0 0 0 0 0 0 0 0 0 0 0 0 0 0 0 0 0 0 0 0 0 0 0 0 0 0 0 0 0 0 0 0 0 0 0 0 0 0 0 0 0 0 0 0 0 0 0 0 0 0 0 0 0 0 0 0 0 0 0 0 0 0 0 0 0 0 0 0 0 0 0 0 0 0 0 0 0 0 0 0 0 0 0 0 0 0 0 0 0 0 0 0 0 0 0 0 0 0 0 0 0 0 0 0 0 0 0 0 0 0 0 0 0 0 0 0 0 0 0 0 0 0 0 0 0 0 0 0 0 0 0 0 0 0 0 0 0 0 0 0 0 0 0 0 0 0 0 0 0 0 0 0 0 0 0 0 0 0 0 0 0 0 0 0 0 0 0 0 0 0 0 0 0 0 0 0 0 0 0 0 0 0 0 0 0 0 0 0 0 0 0 0 0 0 0 0 0 0 0 0 0 0 0 0 0 0 0 0 0 0 0 0 0 0 0 0 0 0 0 0 0 0 0 0 0 0 0 0 0 0 0 0 0 0 0 0 0 0 0 0 0 0 0 0 0 0 0 0 0 0 0 0 0 0 0 0 0 0 0 0 0 0 0 0 0 0 0 0 0 0 0 0 0 0 0 0 0 0 0 0 0 0 0 0 0 0 0 0 0 0 0 0 0 0 0 0 0 0 0 0 0 0 0 0 0 0 0 0 0 0 0 0 0 0 0 0 0 0 0 0 0 0 0 0 0 0 0 0 0 0 0 0 0 0 0 0 0 0 0 0 0 0 0 0 0 0 0 0 0 0 0 0 0 0 0 0 0 0 0 0 0 0 0 0 0 0 0 0 0 0 0 0 0 0 0 0 0 0 0 0 0 0 0 0 0 0 0 0 0 0 0 0 0 0 0 0 0 0 0 0 0 0 0 0 0 0 0 0 0 0 0 0 0 0 0 0 0 0 0 0 0 0 0 0 0 0 0 0 0 0 0 0 0 0 0 0 0 0 0 0 0 0 0 0 0 0 0 0 0 0 0 0 0 0 0 0 0 0 0 0 0 0 0 0 0 0 0 0 0 0 0 0 0 0 0 0 0 0 0 0 0 0 0 0 0 0 0 0 0 0 0 0 0 0 0 0 0 0 0 0 0 0 0 0 0 0 0 0 0 0 0 0 0 0 0 0 0 0 0 0 0 0 0 0 0 0 0 0 0 0 0 0 0 0 0 0 0 0 0 0 0 0 0 0 0 0 0 0 0 0 0 0 0 0 0 0 0 0 0 0 0 0 0 0 0 0 0 0 0 0 0 0 0 0 0 0 0 0 0 0 0 0 0 0 0 0 0 0 0 0 0 0 0 0 0 0 0 0 0 0 0 0 0 0 0 0 0 0 0 0 0 0 0 0 0 0 0 0 0 0 0 0 0 0 0 0 0 0 0 0 0 0 0 0 0 0 0 0 0 0 0 0 0 0 0 0 0 0 0 0 0 0 0 0 0 0 0 0 0 0 0 0 0 0 0 0 0 0 0 0 0 0 0 0 0 0 0 0 0 0 0 0 0 0 0 0 0 0 0 0 0 0 0 0 0 0 0 0 0 0 0 0 0 0 0 0 0 0 0 0 0 0 0 0 0 0 0 0 0 0 0 0 0 0 0 0 0 0 0 0 0 0 0 0 0 0 0 0 0 0 0 0 0 0 0 0 0 0 0 0 0 0 0 0 0 0 0 0 0 0 0 0 0 0 0 0 0 0 0 0 0 0 0 0 0 0 0 0 0 0 0 0 0 0 0 0 0 0 0 0 0 0 0 0 0 0 0 0 0 0 0 0 0 0 0 0 0 0 0 0 0 0 0 0 0 0 0 0 0 0 0 0 0 0 0 0 0 0 0 0 0 0 0 0 0 0 0 0 0 0 0 0 0 0 0 0 0 0 0 0 0 0 0 0 0 0 0 0 0 0 0 0 0 0 0 0 0 0 0 0 0 0 0 0 0 0 0 0 0 0 0 0 0 0 0 0 0 0 0 0 0 0 0 0 0 0 0 0 0 0 0 0 0 0 0 0 0 0 0 0 0 0 0 0 0 0 0 0 0 0 0 0 0 0 0 0 0 0 0 0 0 0 0 0 0 0 0 0 0 0 0 0 0 0 0 0 0 0 0 0 0 0 0 0 0 0 0 0 0 0 0 0 0 0 0 0 0 0 0 0 0 0 0 0 0 0 0 0 0 0 0 0 0 0 0 0 0 0 0 0 0 0 0 0 0 0 0 0 0 0 0 0 0 0 0 0 0 0 0 0 0 0 0 0 0 0 0 0 0 0 0 0 0 0 0 0 0 0 0 0 0 0 0 0 0 0 0 0 0 0 0 0 0 0 0 0 0 0 0 0 0 0 0 0 0 0 0 0 0 0 0 0 0 0 0 0 0 0 0 0 0 0 0 0 0 0 0 0 0 0 0 0 0 0 0 0 0 0 0 0 0 0 0 0 0 0 0 0 0 0 0 0 0 0 0 0 0 0 0 0 0 0 0 0 0 0 0 0 0 0 0 0 0 0 0 0 0 0 0 0 0 0 0 0 0 0 0 0 0 0 0 0 0 0 0 0 0 0 0 0 0 0 0 0 0 0 0 0 0 0 0 0 0 0 0 0 0 0 0 0 0 0 0 0 0 0 0 0 0 0 0 0 0 0 0 0 0 0 0 0 0 0 0 0 0 0 0 0 0 0 0 0 0 0 0 0 0 0 0 0 0 0 0 0 0 0 0 0 0 0 0 0 0 0 0 0 0 0 0 0 0 0 0 0 0 0 0 0 0 0 0 0 0 0 0 0 0 0 0 0 0 0 0 0 0 0 0 0 0 0 0 0 0 0 0 0 0 0 0 0 0 0 0 0 0 0 0 0 0 0 0 0 0 0 0 0 0 0 0 0 0 0 0 0 0 0 0 0 0 0 0 0 0 0 0 0 0 0 0 0 0 0 0 0 0 0 0 0 0 0 0 0 0 0 0 0 0 0 0 0 0 0 0 0 0 0 0 0 0 0 0 0 0 0 0 0 0 0 0 0 0 0 0 0 0 0 0 0 0 0 0 0 0 0 0 0 0 0 0 0 0 0 0 0 0 0 0 0 0 0 0 0 0 0 0 0 0 0 0 0 0 0 0 0 0 0 0 0 0 0 0 0 0 0 0 0 0 0 0 0 0 0 0 0 0 0 0 0 0 0 0 0 0 0 0 0 0 0 0 0 0 0 0 0 0 0 0 0 0 0 0 0 0 0 0 0 0 0 0 0 0 0 0 0 0 0 0 0 0 0 0 0 0 0 0 0 0 0 0 0 0 0 0 0 0 0 0 0 0 0 0 0 0 0 0 0 0 0 0 0 0 0 0 0 0 0 0 0 0 0 0 0 0 0 0 0 0 0 0 0 0 0 0 0 0 0 0 0 0 0 0 0 0 0 0 0 0 0 0 0 0 0 0 0 0 0 0 0 0 0 0 0 0 0 0 0 0 0 0 0 0 0 0 0 0 0 0 0 0 0 0 0 0 0 0 0 0 0 0 0 0 0 0 0 0 0 0 0 0 0 0 0 0 0 0 0 0 0 0 0 0 0 0 0 0 0 0 0 0 0 0 0 0 0 0 0 0 0 0 
            </DataArray>
            <DataArray type="Float64" Name="sea_water_potential_density" NumberOfComponents="1" format="ascii">
               1000 1000 1000 1000 1000 1000 1000 1000 1000 1000 1000 1000 1000 1000 1000 1000 1000 1000 1000 1000 1000 1000 1000 1000 1000 1000 1000 1000 1000 1000 1000 1000 1000 1000 1000 1000 1000 1000 1000 1000 1000 1000 1000 1000 1000 1000 1000 1000 1000 1000 1000 1000 1000 1000 1000 1000 1000 1000 1000 1000 1000 1000 1000 1000 1000 1000 1000 1000 1000 1000 1000 1000 1000 1000 1000 1000 1000 1000 1000 1000 1000 1000 1000 1000 1000 1000 1000 1000 1000 1000 1000 1000 1000 1000 1000 1000 1000 1000 1000 1000 1000 1000 1000 1000 1000 1000 1000 1000 1000 1000 1000 1000 1000 1000 1000 1000 1000 1000 1000 1000 1000 1000 1000 1000 1000 1000 1000 1000 1000 1000 1000 1000 1000 1000 1000 1000 1000 1000 1000 1000 1000 1000 1000 1000 1000 1000 1000 1000 1000 1000 1000 1000 1000 1000 1000 1000 1000 1000 1000 1000 1000 1000 1000 1000 1000 1000 1000 1000 1000 1000 1000 1000 1000 1000 1000 1000 1000 1000 1000 1000 1000 1000 1000 1000 1000 1000 1000 1000 1000 1000 1000 1000 1000 1000 1000 1000 1000 1000 1000 1000 1000 1022.12 1022.12 1022.12 1022.12 1022.12 1022.12 1022.12 1022.12 1022.12 1022.12 1000 1022.12 1022.12 1022.12 1022.12 1022.12 1022.12 1022.12 1022.12 1022.12 1022.12 1000 1022.12 1022.12 1022.12 1022.12 1022.12 1022.12 1022.12 1022.12 1022.12 1022.12 1000 1022.12 1022.12 1022.12 1022.12 1022.12 1022.12 1022.12 1022.12 1022.12 1022.12 1000 1022.12 1022.12 1022.12 1022.12 1022.12 1022.12 1022.12 1022.12 1022.12 1022.12 1000 1022.12 1022.12 1022.12 1022.12 1022.12 1022.12 1022.12 1022.12 1022.12 1022.12 1000 1022.12 1022.12 1022.12 1022.12 1022.12 1022.12 1022.12 1022.12 1022.12 1022.12 1000 1022.12 1022.12 1022.12 1022.12 1022.12 1022.12 1022.12 1022.12 1022.12 1022.12 1000 1022.12 1022.12 1022.12 1022.12 1022.12 1022.12 1022.12 1022.12 1022.12 1022.12 1000 1022.12 1022.12 1022.12 1022.12 1022.12 1022.12 1022.12 1022.12 1022.12 1022.12 1000 1022.12 1022.12 1022.12 1022.12 1022.12 1022.12 1022.12 1022.12 1022.12 1022.12 1000 1022.12 1022.12 1022.12 1022.12 1022.12 1022.12 1022.12 1022.12 1022.12 1022.12 1000 1022.12 1022.12 1022.12 1022.12 1022.12 1022.12 1022.12 1022.12 1022.12 1022.12 1000 1022.12 1022.12 1022.12 1022.12 1022.12 1022.12 1022.12 1022.12 1022.12 1022.12 1000 1022.12 1022.12 1022.12 1022.12 1022.12 1022.12 1022.12 1022.12 1022.12 1022.12 1000 1022.12 1022.12 1022.12 1022.12 1022.12 1022.12 1022.12 1022.12 1022.12 1022.12 1000 1022.12 1022.12 1022.12 1022.12 1022.12 1022.12 1022.12 1022.12 1022.12 1022.12 1000 1022.12 1022.12 1022.12 1022.12 1022.12 1022.12 1022.12 1022.12 1022.12 1022.12 1000 1022.12 1022.12 1022.12 1022.12 1022.12 1022.12 1022.12 1022.12 1022.12 1022.12 1000 1022.12 1022.12 1022.12 1022.12 1022.12 1022.12 1022.12 1022.12 1022.12 1022.12 1000 1022.12 1022.12 1022.12 1022.12 1022.12 1022.12 1022.12 1022.12 1022.12 1022.12 1000 1022.12 1022.12 1022.12 1022.12 1022.12 1022.12 1022.12 1022.12 1022.12 1022.12 1000 1022.12 1022.12 1022.12 1022.12 1022.12 1022.12 1022.12 1022.12 1022.12 1022.12 1000 1022.12 1022.12 1022.12 1022.12 1022.12 1022.12 1022.12 1022.12 1022.12 1022.12 1000 1022.12 1022.12 1022.12 1022.12 1022.12 1022.12 1022.12 1022.12 1022.12 1022.12 1000 1022.12 1022.12 1022.12 1022.12 1022.12 1022.12 1022.12 1022.12 1022.12 1022.12 1000 1022.12 1022.12 1022.12 1022.12 1022.12 1022.12 1022.12 1022.12 1022.12 1022.12 1000 1022.12 1022.12 1022.12 1022.12 1022.12 1022.12 1022.12 1022.12 1022.12 1022.12 1000 1022.12 1022.12 1022.12 1022.12 1022.12 1022.12 1022.12 1022.12 1022.12 1022.12 1000 1022.12 1022.12 1022.12 1022.12 1022.12 1022.12 1022.12 1022.12 1022.12 1022.12 1000 1022.12 1022.12 1022.12 1022.12 1022.12 1022.12 1022.12 1022.12 1022.12 1022.12 1000 1022.12 1022.12 1022.12 1022.12 1022.12 1022.12 1022.12 1022.12 1022.12 1022.12 1000 1022.12 1022.12 1022.12 1022.12 1022.12 1022.12 1022.12 1022.12 1022.12 1022.12 1000 1022.12 1022.12 1022.12 1022.12 1022.12 1022.12 1022.12 1022.12 1022.12 1022.12 1000 1022.12 1022.12 1022.12 1022.12 1022.12 1022.12 1022.12 1022.12 1022.12 1022.12 1000 1022.12 1022.12 1022.12 1022.12 1022.12 1022.12 1022.12 1022.12 1022.12 1022.12 1000 1022.12 1022.12 1022.12 1022.12 1022.12 1022.12 1022.12 1022.12 1022.12 1022.12 1000 1022.12 1022.12 1022.12 1022.12 1022.12 1022.12 1022.12 1022.12 1022.12 1022.12 1000 1022.12 1022.12 1022.12 1022.12 1022.12 1022.12 1022.12 1022.12 1022.12 1022.12 1000 1022.12 1022.12 1022.12 1022.12 1022.12 1022.12 1022.12 1022.12 1022.12 1022.12 1000 1022.12 1022.12 1022.12 1022.12 1022.12 1022.12 1022.12 1022.12 1022.12 1022.12 1000 1022.12 1022.12 1022.12 1022.12 1022.12 1022.12 1022.12 1022.12 1022.12 1022.12 1000 1022.12 1022.12 1022.12 1022.12 1022.12 1022.12 1022.12 1022.12 1022.12 1022.12 1000 1022.12 1022.12 1022.12 1022.12 1022.12 1022.12 1022.12 1022.12 1022.12 1022.12 1000 1022.12 1022.12 1022.12 1022.12 1022.12 1022.12 1022.12 1022.12 1022.12 1022.12 1000 1022.12 1022.12 1022.12 1022.12 1022.12 1022.12 1022.12 1022.12 1022.12 1022.12 1000 1022.12 1022.12 1022.12 1022.12 1022.12 1022.12 1022.12 1022.12 1022.12 1022.12 1000 1022.12 1022.12 1022.12 1022.12 1022.12 1022.12 1022.12 1022.12 1022.12 1022.12 1000 1022.12 1022.12 1022.12 1022.12 1022.12 1022.12 1022.12 1022.12 1022.12 1022.12 1000 1022.12 1022.12 1022.12 1022.12 1022.12 1022.12 1022.12 1022.12 1022.12 1022.12 1000 1022.12 1022.12 1022.12 1022.12 1022.12 1022.12 1022.12 1022.12 1022.12 1022.12 1000 1022.12 1022.12 1022.12 1022.12 1022.12 1022.12 1022.12 1022.12 1022.12 1022.12 1000 1022.12 1022.12 1022.12 1022.12 1022.12 1022.12 1022.12 1022.12 1022.12 1022.12 1000 1022.12 1022.12 1022.12 1022.12 1022.12 1022.12 1022.12 1022.12 1022.12 1022.12 1000 1022.12 1022.12 1022.12 1022.12 1022.12 1022.12 1022.12 1022.12 1022.12 1022.12 1000 1022.12 1022.12 1022.12 1022.12 1022.12 1022.12 1022.12 1022.12 1022.12 1022.12 1000 1022.11 1022.01 1021.84 1021.55 1021.15 1021.09 1021.07 1021.08 1021.09 1021.11 1000 1022.12 1022.12 1022.12 1022.12 1022.12 1022.12 1022.12 1022.12 1022.12 1022.12 1000 1022.12 1022.12 1022.12 1022.12 1022.12 1022.12 1022.12 1022.12 1022.12 1022.12 1000 1022.12 1022.12 1022.12 1022.12 1022.12 1022.12 1022.12 1022.12 1022.12 1022.12 1000 1022.12 1022.12 1022.12 1022.12 1022.12 1022.12 1022.12 1022.12 1022.12 1022.12 1000 1022.12 1022.12 1022.12 1022.12 1022.12 1022.12 1022.12 1022.12 1022.12 1022.12 1000 1022.12 1022.12 1022.12 1022.12 1022.12 1022.12 1022.12 1022.12 1022.12 1022.12 1000 1022.12 1022.12 1022.12 1022.12 1022.12 1022.12 1022.12 1022.12 1022.12 1022.12 1000 1022.12 1022.12 1022.12 1022.12 1022.12 1022.12 1022.12 1022.12 1022.12 1022.12 1000 1022.12 1022.12 1022.12 1022.12 1022.12 1022.12 1022.12 1022.12 1022.12 1022.12 1000 1022.09 1021.88 1021.65 1021.51 1021.35 1021.22 1021.18 1021.18 1021.18 1021.19 1000 1022.11 1022.06 1021.97 1021.88 1020.81 1020.84 1020.87 1020.91 1020.95 1021 1000 1022.12 1022.12 1022.12 1022.12 1022.12 1022.12 1022.12 1022.12 1022.12 1022.12 1000 1022.12 1022.12 1022.12 1022.12 1022.12 1022.12 1022.12 1022.12 1022.12 1022.12 1000 1022.12 1022.12 1022.12 1022.12 1022.12 1022.12 1022.12 1022.12 1022.12 1022.12 1000 1022.12 1022.12 1022.12 1022.12 1022.12 1022.12 1022.12 1022.12 1022.12 1022.12 1000 1022.12 1022.12 1022.12 1022.12 1022.12 1022.12 1022.12 1022.12 1022.12 1022.12 1000 1022.12 1022.12 1022.12 1022.12 1022.12 1022.12 1022.12 1022.12 1022.12 1022.12 1000 1022.12 1022.12 1022.12 1022.12 1022.12 1022.12 1022.12 1022.12 1022.12 1022.12 1000 1022.12 1022.12 1022.12 1022.12 1022.12 1022.12 1022.12 1022.12 1022.12 1022.12 1000 1022.05 1021.79 1021.56 1021.48 1021.44 1021.4 1021.34 1021.31 1021.29 1021.27 1000 1022.08 1021.9 1021.71 1021.57 1021.4 1021.28 1021.22 1021.17 1021.15 1021.14 1000 1022.11 1022.01 1021.84 1021.55 1021.15 1021.09 1021.07 1021.08 1021.09 1021.11 1000 1022.12 1022.12 1022.12 1022.12 1022.12 1022.12 1022.12 1022.12 1022.12 1022.12 1000 1022.12 1022.12 1022.12 1022.12 1022.12 1022.12 1022.12 1022.12 1022.12 1022.12 1000 1022.12 1022.12 1022.12 1022.12 1022.12 1022.12 1022.12 1022.12 1022.12 1022.12 1000 1022.12 1022.12 1022.12 1022.12 1022.12 1022.12 1022.12 1022.12 1022.12 1022.12 1000 1022.12 1022.12 1022.12 1022.12 1022.12 1022.12 1022.12 1022.12 1022.12 1022.12 1000 1022.12 1022.12 1022.12 1022.12 1022.12 1022.12 1022.12 1022.12 1022.12 1022.12 1000 1022.12 1022.12 1022.12 1022.12 1022.12 1022.12 1022.12 1022.12 1022.12 1022.12 1000 1022.05 1021.81 1021.54 1021.43 1021.37 1021.35 1021.33 1021.32 1021.31 1021.31 1000 1022.06 1021.78 1021.55 1021.47 1021.43 1021.4 1021.36 1021.33 1021.3 1021.26 1000 1022.09 1021.88 1021.65 1021.51 1021.35 1021.22 1021.18 1021.18 1021.18 1021.19 1000 1022.12 1022.12 1022.12 1022.12 1022.12 1022.12 1022.12 1022.12 1022.12 1022.12 1000 1022.12 1022.12 1022.12 1022.12 1022.12 1022.12 1022.12 1022.12 1022.12 1022.12 1000 1022.12 1022.12 1022.12 1022.12 1022.12 1022.12 1022.12 1022.12 1022.12 1022.12 1000 1022.12 1022.12 1022.12 1022.12 1022.12 1022.12 1022.12 1022.12 1022.12 1022.12 1000 1022.12 1022.12 1022.12 1022.12 1022.12 1022.12 1022.12 1022.12 1022.12 1022.12 1000 1022.12 1022.12 1022.12 1022.12 1022.12 1022.12 1022.12 1022.12 1022.12 1022.12 1000 1022.12 1022.12 1022.12 1022.12 1022.12 1022.12 1022.12 1022.12 1022.12 1022.12 1000 1022.12 1022.12 1022.12 1022.12 1022.12 1022.12 1022.12 1022.12 1022.12 1022.12 1000 1022.05 1021.76 1021.51 1021.41 1021.37 1021.35 1021.33 1021.32 1021.32 1021.31 1000 1022.05 1021.79 1021.56 1021.48 1021.44 1021.4 1021.34 1021.31 1021.29 1021.27 1000 1022.12 1022.12 1022.12 1022.12 1022.12 1022.12 1022.12 1022.12 1022.12 1022.12 1000 1022.12 1022.12 1022.12 1022.12 1022.12 1022.12 1022.12 1022.12 1022.12 1022.12 1000 1022.12 1022.12 1022.12 1022.12 1022.12 1022.12 1022.12 1022.12 1022.12 1022.12 1000 1022.12 1022.12 1022.12 1022.12 1022.12 1022.12 1022.12 1022.12 1022.12 1022.12 1000 1022.12 1022.12 1022.12 1022.12 1022.12 1022.12 1022.12 1022.12 1022.12 1022.12 1000 1022.12 1022.12 1022.12 1022.12 1022.12 1022.12 1022.12 1022.12 1022.12 1022.12 1000 1022.12 1022.12 1022.12 1022.12 1022.12 1022.12 1022.12 1022.12 1022.12 1022.12 1000 1022.12 1022.12 1022.12 1022.12 1022.12 1022.12 1022.12 1022.12 1022.12 1022.12 1000 1022.12 1022.12 1022.12 1022.12 1022.12 1022.12 1022.12 1022.12 1022.12 1022.12 1000 1022.05 1021.81 1021.54 1021.43 1021.37 1021.35 1021.33 1021.32 1021.31 1021.31 1000 1022.12 1022.12 1022.12 1022.12 1022.12 1022.12 1022.12 1022.12 1022.12 1022.12 1000 1022.12 1022.12 1022.12 1022.12 1022.12 1022.12 1022.12 1022.12 1022.12 1022.12 1000 1022.12 1022.12 1022.12 1022.12 1022.12 1022.12 1022.12 1022.12 1022.12 1022.12 1000 1022.12 1022.12 1022.12 1022.12 1022.12 1022.12 1022.12 1022.12 1022.12 1022.12 1000 1022.12 1022.12 1022.12 1022.12 1022.12 1022.12 1022.12 1022.12 1022.12 1022.12 1000 1022.12 1022.12 1022.12 1022.12 1022.12 1022.12 1022.12 1022.12 1022.12 1022.12 1000 1022.12 1022.12 1022.12 1022.12 1022.12 1022.12 1022.12 1022.12 1022.12 1022.12 1000 1022.12 1022.12 1022.12 1022.12 1022.12 1022.12 1022.12 1022.12 1022.12 1022.12 1000 1022.12 1022.12 1022.12 1022.12 1022.12 1022.12 1022.12 1022.12 1022.12 1022.12 1000 1022.12 1022.12 1022.12 1022.12 1022.12 1022.12 1022.12 1022.12 1022.12 1022.12 1000 1022.12 1022.12 1022.12 1022.12 1022.12 1022.12 1022.12 1022.12 1022.12 1022.12 1000 1022.12 1022.12 1022.12 1022.12 1022.12 1022.12 1022.12 1022.12 1022.12 1022.12 1000 1022.12 1022.12 1022.12 1022.12 1022.12 1022.12 1022.12 1022.12 1022.12 1022.12 1000 1022.12 1022.12 1022.12 1022.12 1022.12 1022.12 1022.12 1022.12 1022.12 1022.12 1000 1022.12 1022.12 1022.12 1022.12 1022.12 1022.12 1022.12 1022.12 1022.12 1022.12 1000 1022.12 1022.12 1022.12 1022.12 1022.12 1022.12 1022.12 1022.12 1022.12 1022.12 1000 1022.12 1022.12 1022.12 1022.12 1022.12 1022.12 1022.12 1022.12 1022.12 1022.12 1000 1022.12 1022.12 1022.12 1022.12 1022.12 1022.12 1022.12 1022.12 1022.12 1022.12 1000 1022.12 1022.12 1022.12 1022.12 1022.12 1022.12 1022.12 1022.12 1022.12 1022.12 1000 1022.12 1022.12 1022.12 1022.12 1022.12 1022.12 1022.12 1022.12 1022.12 1022.12 1000 1022.12 1022.12 1022.12 1022.12 1022.12 1022.12 1022.12 1022.12 1022.12 1022.12 1000 1022.12 1022.12 1022.12 1022.12 1022.12 1022.12 1022.12 1022.12 1022.12 1022.12 1000 1022.12 1022.12 1022.12 1022.12 1022.12 1022.12 1022.12 1022.12 1022.12 1022.12 1000 1022.12 1022.12 1022.12 1022.12 1022.12 1022.12 1022.12 1022.12 1022.12 1022.12 1000 1022.12 1022.12 1022.12 1022.12 1022.12 1022.12 1022.12 1022.12 1022.12 1022.12 1000 1022.12 1022.12 1022.12 1022.12 1022.12 1022.12 1022.12 1022.12 1022.12 1022.12 1000 1022.12 1022.12 1022.12 1022.12 1022.12 1022.12 1022.12 1022.12 1022.12 1022.12 1000 1022.12 1022.12 1022.12 1022.12 1022.12 1022.12 1022.12 1022.12 1022.12 1022.12 1000 1022.12 1022.12 1022.12 1022.12 1022.12 1022.12 1022.12 1022.12 1022.12 1022.12 1000 1022.12 1022.12 1022.12 1022.12 1022.12 1022.12 1022.12 1022.12 1022.12 1022.12 1000 1022.12 1022.12 1022.12 1022.12 1022.12 1022.12 1022.12 1022.12 1022.12 1022.12 1000 1022.12 1022.12 1022.12 1022.12 1022.12 1022.12 1022.12 1022.12 1022.12 1022.12 1000 1022.12 1022.12 1022.12 1022.12 1022.12 1022.12 1022.12 1022.12 1022.12 1022.12 1000 1022.12 1022.12 1022.12 1022.12 1022.12 1022.12 1022.12 1022.12 1022.12 1022.12 1000 1022.12 1022.12 1022.12 1022.12 1022.12 1022.12 1022.12 1022.12 1022.12 1022.12 1000 1022.12 1022.12 1022.12 1022.12 1022.12 1022.12 1022.12 1022.12 1022.12 1022.12 1000 1022.12 1022.12 1022.12 1022.12 1022.12 1022.12 1022.12 1022.12 1022.12 1022.12 1000 1022.12 1022.12 1022.12 1022.12 1022.12 1022.12 1022.12 1022.12 1022.12 1022.12 1000 1022.12 1022.12 1022.12 1022.12 1022.12 1022.12 1022.12 1022.12 1022.12 1022.12 1000 1022.12 1022.12 1022.12 1022.12 1022.12 1022.12 1022.12 1022.12 1022.12 1022.12 1000 1022.12 1022.12 1022.12 1022.12 1022.12 1022.12 1022.12 1022.12 1022.12 1022.12 1000 1022.12 1022.12 1022.12 1022.12 1022.12 1022.12 1022.12 1022.12 1022.12 1022.12 1000 1022.12 1022.12 1022.12 1022.12 1022.12 1022.12 1022.12 1022.12 1022.12 1022.12 1000 1022.12 1022.12 1022.12 1022.12 1022.12 1022.12 1022.12 1022.12 1022.12 1022.12 1000 1022.12 1022.12 1022.12 1022.12 1022.12 1022.12 1022.12 1022.12 1022.12 1022.12 1000 1022.12 1022.12 1022.12 1022.12 1022.12 1022.12 1022.12 1022.12 1022.12 1022.12 1000 1022.12 1022.12 1022.12 1022.12 1022.12 1022.12 1022.12 1022.12 1022.12 1022.12 1000 1022.12 1022.12 1022.12 1022.12 1022.12 1022.12 1022.12 1022.12 1022.12 1022.12 1000 1022.12 1022.12 1022.12 1022.12 1022.12 1022.12 1022.12 1022.12 1022.12 1022.12 1000 1022.12 1022.12 1022.12 1022.12 1022.12 1022.12 1022.12 1022.12 1022.12 1022.12 1000 1022.12 1022.12 1022.12 1022.12 1022.12 1022.12 1022.12 1022.12 1022.12 1022.12 1000 1022.12 1022.12 1022.12 1022.12 1022.12 1022.12 1022.12 1022.12 1022.12 1022.12 1000 1022.12 1022.12 1022.12 1022.12 1022.12 1022.12 1022.12 1022.12 1022.12 1022.12 1000 1022.12 1022.12 1022.12 1022.12 1022.12 1022.12 1022.12 1022.12 1022.12 1022.12 1000 1022.12 1022.12 1022.12 1022.12 1022.12 1022.12 
            </DataArray>
         </PointData> 
      </Piece>
   </UnstructuredGrid> 
</VTKFile>
