<?xml version="1.0"?>
<VTKFile type="UnstructuredGrid" version="0.1" byte_order="LittleEndian">
   <UnstructuredGrid>
      <Piece NumberOfPoints="200" NumberOfCells="0" > 
         <Points> 
            <DataArray type="Float64" Name="Position" NumberOfComponents="3" format="ascii"> 
               50  150  0  
               150  150  0  
               50  250  0  
               250  150  0  
               150  250  0  
               50  350  0  
               350  150  0  
               250  250  0  
               150  350  0  
               50  450  0  
               450  150  0  
               350  250  0  
               250  350  0  
               150  450  0  
               50  550  0  
               550  150  0  
               450  250  0  
               350  350  0  
               250  450  0  
               150  550  0  
               50  650  0  
               650  150  0  
               550  250  0  
               450  350  0  
               350  450  0  
               250  550  0  
               150  650  0  
               50  750  0  
               750  150  0  
               650  250  0  
               550  350  0  
               450  450  0  
               350  550  0  
               250  650  0  
               150  750  0  
               50  850  0  
               850  150  0  
               750  250  0  
               650  350  0  
               550  450  0  
               450  550  0  
               350  650  0  
               250  750  0  
               150  850  0  
               50  950  0  
               950  150  0  
               850  250  0  
               750  350  0  
               650  450  0  
               550  550  0  
               450  650  0  
               350  750  0  
               250  850  0  
               150  950  0  
               50  1050  0  
               1050  150  0  
               950  250  0  
               850  350  0  
               750  450  0  
               650  550  0  
               550  650  0  
               450  750  0  
               350  850  0  
               250  950  0  
               150  1050  0  
               1150  150  0  
               1050  250  0  
               950  350  0  
               850  450  0  
               750  550  0  
               650  650  0  
               550  750  0  
               450  850  0  
               350  950  0  
               250  1050  0  
               1250  150  0  
               1150  250  0  
               1050  350  0  
               950  450  0  
               850  550  0  
               750  650  0  
               650  750  0  
               550  850  0  
               450  950  0  
               350  1050  0  
               1350  150  0  
               1250  250  0  
               1150  350  0  
               1050  450  0  
               950  550  0  
               850  650  0  
               750  750  0  
               650  850  0  
               550  950  0  
               450  1050  0  
               1450  150  0  
               1350  250  0  
               1250  350  0  
               1150  450  0  
               1050  550  0  
               950  650  0  
               850  750  0  
               750  850  0  
               650  950  0  
               550  1050  0  
               1550  150  0  
               1450  250  0  
               1350  350  0  
               1250  450  0  
               1150  550  0  
               1050  650  0  
               950  750  0  
               850  850  0  
               750  950  0  
               650  1050  0  
               1650  150  0  
               1550  250  0  
               1450  350  0  
               1350  450  0  
               1250  550  0  
               1150  650  0  
               1050  750  0  
               950  850  0  
               850  950  0  
               750  1050  0  
               1750  150  0  
               1650  250  0  
               1550  350  0  
               1450  450  0  
               1350  550  0  
               1250  650  0  
               1150  750  0  
               1050  850  0  
               950  950  0  
               850  1050  0  
               1850  150  0  
               1750  250  0  
               1650  350  0  
               1550  450  0  
               1450  550  0  
               1350  650  0  
               1250  750  0  
               1150  850  0  
               1050  950  0  
               950  1050  0  
               1950  150  0  
               1850  250  0  
               1750  350  0  
               1650  450  0  
               1550  550  0  
               1450  650  0  
               1350  750  0  
               1250  850  0  
               1150  950  0  
               1050  1050  0  
               1950  250  0  
               1850  350  0  
               1750  450  0  
               1650  550  0  
               1550  650  0  
               1450  750  0  
               1350  850  0  
               1250  950  0  
               1150  1050  0  
               1950  350  0  
               1850  450  0  
               1750  550  0  
               1650  650  0  
               1550  750  0  
               1450  850  0  
               1350  950  0  
               1250  1050  0  
               1950  450  0  
               1850  550  0  
               1750  650  0  
               1650  750  0  
               1550  850  0  
               1450  950  0  
               1350  1050  0  
               1950  550  0  
               1850  650  0  
               1750  750  0  
               1650  850  0  
               1550  950  0  
               1450  1050  0  
               1950  650  0  
               1850  750  0  
               1750  850  0  
               1650  950  0  
               1550  1050  0  
               1950  750  0  
               1850  850  0  
               1750  950  0  
               1650  1050  0  
               1950  850  0  
               1850  950  0  
               1750  1050  0  
               1950  950  0  
               1850  1050  0  
               1950  1050  0  
            </DataArray>
         </Points> 

         <Cells>
            <DataArray type="Int32" Name="connectivity" NumberOfComponents="1" format="ascii">
               
            </DataArray> 
            <DataArray type="Int32" Name="offsets" NumberOfComponents="1" format="ascii">
               
            </DataArray>
            <DataArray type="UInt8"  Name="types" NumberOfComponents="1" format="ascii">
               
            </DataArray>
         </Cells>
         <PointData Scalars="Rank sea_floor_depth_below_sea_surface sea_surface_height sea_floor_depth_below_geoid " Vectors="">
            <DataArray type="UInt32" Name="Rank" NumberOfComponents="1" format="ascii">
               0 0 0 0 0 0 0 0 0 0 0 0 0 0 0 0 0 0 0 0 0 0 0 0 0 0 0 0 0 0 0 0 0 0 0 0 0 0 0 0 0 0 0 0 0 0 0 0 0 0 0 0 0 0 0 0 0 0 0 0 0 0 0 0 0 0 0 0 0 0 0 0 0 0 0 0 0 0 0 0 0 0 0 0 0 0 0 0 0 0 0 0 0 0 0 0 0 0 0 0 0 0 0 0 0 0 0 0 0 0 0 0 0 0 0 0 0 0 0 0 0 0 0 0 0 0 0 0 0 0 0 0 0 0 0 0 0 0 0 0 0 0 0 0 0 0 0 0 0 0 0 0 0 0 0 0 0 0 0 0 0 0 0 0 0 0 0 0 0 0 0 0 0 0 0 0 0 0 0 0 0 0 0 0 0 0 0 0 0 0 0 0 0 0 0 0 0 0 0 0 
            </DataArray>
            <DataArray type="Float64" Name="sea_floor_depth_below_sea_surface" NumberOfComponents="1" format="ascii">
               0 0 0 0 0 0 0 0 0 0 0 0 0 0 0 0 0 0 0 0 0 0 0 0 0 0 0 0 0 0 0 0 0 0 0 0 0 0 0 0 0 0 0 0 0 0 0 0 0 0 0 0 0 0 0 0 0 0 0 0 0 0 0 0 0 0 0 0 0 0 0 0 0 0 0 0 0 0 0 0 0 0 0 0 0 0 0 0 0 0 0 0 0 0 0 0 0 0 0 0 0 0 0 0 0 0 0 0 0 0 0 0 0 0 0 0 0 0 0 0 0 0 0 0 0 0 0 0 0 0 0 0 0 0 0 0 0 0 0 0 0 0 0 0 0 0 0 0 0 0 0 0 0 0 0 0 0 0 0 0 0 0 0 0 0 0 0 0 0 0 0 0 0 0 0 0 0 0 0 0 0 0 0 0 0 0 0 0 0 0 0 0 0 0 0 0 0 0 0 0 
            </DataArray>
            <DataArray type="Float64" Name="sea_surface_height" NumberOfComponents="1" format="ascii">
               1.42407e-07 1.62481e-07 1.223e-07 1.87617e-07 -2.20002 9.71445e-08 2.02611e-07 -2.20001 -2.2 5.92373e-08 2.2656e-07 -2.19999 -2.2 -2.2 5.80273e-08 2.13824e-07 -2.2 -2.2 -2.2 -4.07698e-08 1.50164e-07 2.47638e-07 2.70416e-07 -2.2 -2.2 1.56856e-08 2.40902e-07 1.76409e-07 2.82631e-07 1.96405e-07 2.14867e-07 -2.2 2.06718e-07 2.02834e-07 1.57997e-07 1.53468e-07 -4.07075e-08 1.55234e-07 4.03026e-07 2.75713e-07 3.18826e-07 6.1189e-08 1.4563e-07 1.52634e-07 1.44163e-07 -1.98982e-07 7.69213e-08 -2.91926e-07 1.58721e-07 1.9333e-07 -9.96326e-10 1.11702e-07 1.36068e-07 1.43824e-07 1.44638e-07 -1.5938e-07 1.10047 3.95252e-07 2.08973e-07 1.63274e-07 1.03887e-07 9.61445e-08 1.24153e-07 1.36878e-07 1.45674e-07 -1.5785e-07 1.10002 1.10097 1.89832e-07 1.50087e-07 1.11488e-07 8.2825e-08 1.09343e-07 1.26598e-07 1.37776e-07 -1.54162e-07 1.0995 1.0998 1.10047 -2.16077e-08 3.73125e-08 8.99634e-08 1.07269e-07 1.20976e-07 1.29445e-07 -1.71804e-07 1.0999 1.0995 1.10002 1.95498e-07 -3.39877e-07 3.04958e-08 9.74714e-08 1.16677e-07 1.22639e-07 -2.00903e-07 -1.86923e-07 1.09994 1.0995 -3.78607e-07 -1.06355e-06 2.40064e-08 9.89317e-08 1.19856e-07 1.21341e-07 -1.94873e-07 -1.87928e-07 -1.88449e-07 1.0999 -9.44466e-07 -3.36538e-07 4.27828e-07 1.78487e-07 1.44903e-07 1.27717e-07 -1.90558e-07 -1.85033e-07 -1.71298e-07 -2.39487e-07 -7.58716e-07 7.4688e-08 1.70663e-07 1.26854e-07 1.55667e-07 1.39327e-07 -1.91853e-07 -1.96337e-07 -2.06805e-07 -2.3446e-07 -3.94091e-07 -2.48644e-07 2.46943e-07 2.74982e-07 2.33534e-07 1.70903e-07 -1.9046e-07 -1.90791e-07 -1.90922e-07 -1.92167e-07 -2.26219e-07 -1.24429e-07 4.46791e-07 2.47411e-07 2.1093e-07 1.95966e-07 -1.91026e-07 -1.91327e-07 -1.93998e-07 -2.00661e-07 -2.04562e-07 -1.23753e-07 2.35694e-08 2.28226e-07 3.43462e-07 2.55283e-07 -1.91357e-07 -1.89487e-07 -1.91309e-07 -2.00568e-07 -2.32882e-07 -1.27127e-07 -1.1 2.47348e-07 2.34639e-07 -1.90588e-07 -1.89285e-07 -1.98519e-07 -2.37078e-07 -4.57469e-08 -1.1 -1.1 3.06922e-07 -1.87178e-07 -1.82094e-07 -1.79084e-07 -5.01168e-08 -1.1 -1.1 -1.1 -1.80619e-07 -1.68363e-07 -1.32982e-07 -1.1 -1.1 -1.1 -1.72815e-07 -1.66012e-07 -1.49096e-07 -1.1 -1.1 -1.63089e-07 -1.58871e-07 -1.68712e-07 -1.1 -1.6054e-07 -1.58956e-07 -1.65228e-07 -1.59518e-07 -1.61923e-07 -1.60036e-07 
            </DataArray>
            <DataArray type="Float64" Name="sea_floor_depth_below_geoid" NumberOfComponents="1" format="ascii">
               10 10 10 10 10 10 10 10 10 10 10 10 10 10 10 10 10 10 10 10 10 10 10 10 10 10 10 10 10 10 10 10 10 10 10 10 10 10 10 10 10 10 10 10 10 10 10 10 10 10 10 10 10 10 10 10 10 10 10 10 10 10 10 10 10 10 10 10 10 10 10 10 10 10 10 10 10 10 10 10 10 10 10 10 10 10 10 10 10 10 10 10 10 10 10 10 10 10 10 10 10 10 10 10 10 10 10 10 10 10 10 10 10 10 10 10 10 10 10 10 10 10 10 10 10 10 10 10 10 10 10 10 10 10 10 10 10 10 10 10 10 10 10 10 10 10 10 10 10 10 10 10 10 10 10 10 10 10 10 10 10 10 10 10 10 10 10 10 10 10 10 10 10 10 10 10 10 10 10 10 10 10 10 10 10 10 10 10 10 10 10 10 10 10 10 10 10 10 10 10 
            </DataArray>
         </PointData> 
      </Piece>
   </UnstructuredGrid> 
</VTKFile>
