<?xml version="1.0"?>
<VTKFile type="UnstructuredGrid" version="0.1" byte_order="LittleEndian">
   <UnstructuredGrid>
      <Piece NumberOfPoints="2000" NumberOfCells="0" > 
         <Points> 
            <DataArray type="Float64" Name="Position" NumberOfComponents="3" format="ascii"> 
               50  150  -9.5  
               50  150  -8.5  
               50  150  -7.5  
               50  150  -6.5  
               50  150  -5.5  
               50  150  -4.5  
               50  150  -3.5  
               50  150  -2.5  
               50  150  -1.5  
               50  150  -0.5  
               150  150  -9.5  
               150  150  -8.5  
               150  150  -7.5  
               150  150  -6.5  
               150  150  -5.5  
               150  150  -4.5  
               150  150  -3.5  
               150  150  -2.5  
               150  150  -1.5  
               150  150  -0.5  
               50  250  -9.5  
               50  250  -8.5  
               50  250  -7.5  
               50  250  -6.5  
               50  250  -5.5  
               50  250  -4.5  
               50  250  -3.5  
               50  250  -2.5  
               50  250  -1.5  
               50  250  -0.5  
               250  150  -9.5  
               250  150  -8.5  
               250  150  -7.5  
               250  150  -6.5  
               250  150  -5.5  
               250  150  -4.5  
               250  150  -3.5  
               250  150  -2.5  
               250  150  -1.5  
               250  150  -0.5  
               150  250  -9.64  
               150  250  -8.92  
               150  250  -8.20001  
               150  250  -7.48001  
               150  250  -6.76001  
               150  250  -6.04001  
               150  250  -5.32001  
               150  250  -4.60002  
               150  250  -3.88002  
               150  250  -3.16002  
               50  350  -9.5  
               50  350  -8.5  
               50  350  -7.5  
               50  350  -6.5  
               50  350  -5.5  
               50  350  -4.5  
               50  350  -3.5  
               50  350  -2.5  
               50  350  -1.5  
               50  350  -0.5  
               350  150  -9.5  
               350  150  -8.5  
               350  150  -7.5  
               350  150  -6.5  
               350  150  -5.5  
               350  150  -4.5  
               350  150  -3.5  
               350  150  -2.5  
               350  150  -1.5  
               350  150  -0.5  
               250  250  -9.64  
               250  250  -8.92  
               250  250  -8.2  
               250  250  -7.48  
               250  250  -6.76  
               250  250  -6.04  
               250  250  -5.32  
               250  250  -4.6  
               250  250  -3.88001  
               250  250  -3.16001  
               150  350  -9.64  
               150  350  -8.92  
               150  350  -8.2  
               150  350  -7.48  
               150  350  -6.76  
               150  350  -6.04  
               150  350  -5.32  
               150  350  -4.6  
               150  350  -3.88  
               150  350  -3.16  
               50  450  -9.5  
               50  450  -8.5  
               50  450  -7.5  
               50  450  -6.5  
               50  450  -5.5  
               50  450  -4.5  
               50  450  -3.5  
               50  450  -2.5  
               50  450  -1.5  
               50  450  -0.5  
               450  150  -9.5  
               450  150  -8.5  
               450  150  -7.5  
               450  150  -6.5  
               450  150  -5.5  
               450  150  -4.5  
               450  150  -3.5  
               450  150  -2.5  
               450  150  -1.5  
               450  150  -0.5  
               350  250  -9.64  
               350  250  -8.92  
               350  250  -8.2  
               350  250  -7.48  
               350  250  -6.76  
               350  250  -6.04  
               350  250  -5.32  
               350  250  -4.59999  
               350  250  -3.87999  
               350  250  -3.15999  
               250  350  -9.64  
               250  350  -8.92  
               250  350  -8.2  
               250  350  -7.48  
               250  350  -6.76  
               250  350  -6.04  
               250  350  -5.32  
               250  350  -4.6  
               250  350  -3.88  
               250  350  -3.16  
               150  450  -9.64  
               150  450  -8.92  
               150  450  -8.2  
               150  450  -7.48  
               150  450  -6.76  
               150  450  -6.04  
               150  450  -5.32  
               150  450  -4.6  
               150  450  -3.88  
               150  450  -3.15999  
               50  550  -9.5  
               50  550  -8.5  
               50  550  -7.5  
               50  550  -6.5  
               50  550  -5.5  
               50  550  -4.5  
               50  550  -3.5  
               50  550  -2.5  
               50  550  -1.5  
               50  550  -0.5  
               550  150  -9.5  
               550  150  -8.5  
               550  150  -7.5  
               550  150  -6.5  
               550  150  -5.5  
               550  150  -4.5  
               550  150  -3.5  
               550  150  -2.5  
               550  150  -1.5  
               550  150  -0.5  
               450  250  -9.64  
               450  250  -8.92  
               450  250  -8.2  
               450  250  -7.48  
               450  250  -6.76  
               450  250  -6.04  
               450  250  -5.32  
               450  250  -4.6  
               450  250  -3.88  
               450  250  -3.16  
               350  350  -9.64  
               350  350  -8.92  
               350  350  -8.2  
               350  350  -7.48  
               350  350  -6.76  
               350  350  -6.04  
               350  350  -5.32  
               350  350  -4.6  
               350  350  -3.88  
               350  350  -3.16  
               250  450  -9.64  
               250  450  -8.92  
               250  450  -8.2  
               250  450  -7.48  
               250  450  -6.76  
               250  450  -6.04  
               250  450  -5.32  
               250  450  -4.6  
               250  450  -3.88  
               250  450  -3.16  
               150  550  -9.5  
               150  550  -8.5  
               150  550  -7.5  
               150  550  -6.5  
               150  550  -5.5  
               150  550  -4.5  
               150  550  -3.5  
               150  550  -2.5  
               150  550  -1.5  
               150  550  -0.5  
               50  650  -9.5  
               50  650  -8.5  
               50  650  -7.5  
               50  650  -6.5  
               50  650  -5.5  
               50  650  -4.5  
               50  650  -3.5  
               50  650  -2.5  
               50  650  -1.5  
               50  650  -0.5  
               650  150  -9.5  
               650  150  -8.5  
               650  150  -7.5  
               650  150  -6.5  
               650  150  -5.5  
               650  150  -4.5  
               650  150  -3.5  
               650  150  -2.5  
               650  150  -1.5  
               650  150  -0.5  
               550  250  -9.5  
               550  250  -8.5  
               550  250  -7.5  
               550  250  -6.5  
               550  250  -5.5  
               550  250  -4.5  
               550  250  -3.5  
               550  250  -2.5  
               550  250  -1.5  
               550  250  -0.5  
               450  350  -9.64  
               450  350  -8.92  
               450  350  -8.2  
               450  350  -7.48  
               450  350  -6.76  
               450  350  -6.04  
               450  350  -5.32  
               450  350  -4.6  
               450  350  -3.88  
               450  350  -3.16  
               350  450  -9.64  
               350  450  -8.92  
               350  450  -8.2  
               350  450  -7.48  
               350  450  -6.76  
               350  450  -6.04  
               350  450  -5.32  
               350  450  -4.6  
               350  450  -3.88  
               350  450  -3.16  
               250  550  -9.5  
               250  550  -8.5  
               250  550  -7.5  
               250  550  -6.5  
               250  550  -5.5  
               250  550  -4.5  
               250  550  -3.5  
               250  550  -2.5  
               250  550  -1.5  
               250  550  -0.5  
               150  650  -9.5  
               150  650  -8.5  
               150  650  -7.5  
               150  650  -6.5  
               150  650  -5.5  
               150  650  -4.5  
               150  650  -3.5  
               150  650  -2.5  
               150  650  -1.5  
               150  650  -0.5  
               50  750  -9.5  
               50  750  -8.5  
               50  750  -7.5  
               50  750  -6.5  
               50  750  -5.5  
               50  750  -4.5  
               50  750  -3.5  
               50  750  -2.5  
               50  750  -1.5  
               50  750  -0.5  
               750  150  -9.5  
               750  150  -8.5  
               750  150  -7.5  
               750  150  -6.5  
               750  150  -5.5  
               750  150  -4.5  
               750  150  -3.5  
               750  150  -2.5  
               750  150  -1.5  
               750  150  -0.5  
               650  250  -9.5  
               650  250  -8.5  
               650  250  -7.5  
               650  250  -6.5  
               650  250  -5.5  
               650  250  -4.5  
               650  250  -3.5  
               650  250  -2.5  
               650  250  -1.5  
               650  250  -0.5  
               550  350  -9.5  
               550  350  -8.5  
               550  350  -7.5  
               550  350  -6.5  
               550  350  -5.5  
               550  350  -4.5  
               550  350  -3.5  
               550  350  -2.5  
               550  350  -1.5  
               550  350  -0.5  
               450  450  -9.64  
               450  450  -8.92  
               450  450  -8.2  
               450  450  -7.48  
               450  450  -6.76  
               450  450  -6.04  
               450  450  -5.32  
               450  450  -4.6  
               450  450  -3.88  
               450  450  -3.16  
               350  550  -9.5  
               350  550  -8.5  
               350  550  -7.5  
               350  550  -6.5  
               350  550  -5.5  
               350  550  -4.5  
               350  550  -3.5  
               350  550  -2.5  
               350  550  -1.5  
               350  550  -0.5  
               250  650  -9.5  
               250  650  -8.5  
               250  650  -7.5  
               250  650  -6.5  
               250  650  -5.5  
               250  650  -4.5  
               250  650  -3.5  
               250  650  -2.5  
               250  650  -1.5  
               250  650  -0.5  
               150  750  -9.5  
               150  750  -8.5  
               150  750  -7.5  
               150  750  -6.5  
               150  750  -5.5  
               150  750  -4.5  
               150  750  -3.5  
               150  750  -2.5  
               150  750  -1.5  
               150  750  -0.5  
               50  850  -9.5  
               50  850  -8.5  
               50  850  -7.5  
               50  850  -6.5  
               50  850  -5.5  
               50  850  -4.5  
               50  850  -3.5  
               50  850  -2.5  
               50  850  -1.5  
               50  850  -0.5  
               850  150  -9.5  
               850  150  -8.5  
               850  150  -7.5  
               850  150  -6.5  
               850  150  -5.5  
               850  150  -4.5  
               850  150  -3.5  
               850  150  -2.5  
               850  150  -1.5  
               850  150  -0.5  
               750  250  -9.5  
               750  250  -8.5  
               750  250  -7.5  
               750  250  -6.5  
               750  250  -5.5  
               750  250  -4.5  
               750  250  -3.5  
               750  250  -2.5  
               750  250  -1.5  
               750  250  -0.5  
               650  350  -9.5  
               650  350  -8.5  
               650  350  -7.5  
               650  350  -6.5  
               650  350  -5.5  
               650  350  -4.5  
               650  350  -3.5  
               650  350  -2.5  
               650  350  -1.5  
               650  350  -0.5  
               550  450  -9.5  
               550  450  -8.5  
               550  450  -7.5  
               550  450  -6.5  
               550  450  -5.5  
               550  450  -4.5  
               550  450  -3.5  
               550  450  -2.5  
               550  450  -1.5  
               550  450  -0.5  
               450  550  -9.5  
               450  550  -8.5  
               450  550  -7.5  
               450  550  -6.5  
               450  550  -5.5  
               450  550  -4.5  
               450  550  -3.5  
               450  550  -2.5  
               450  550  -1.5  
               450  550  -0.5  
               350  650  -9.5  
               350  650  -8.5  
               350  650  -7.5  
               350  650  -6.5  
               350  650  -5.5  
               350  650  -4.5  
               350  650  -3.5  
               350  650  -2.5  
               350  650  -1.5  
               350  650  -0.5  
               250  750  -9.5  
               250  750  -8.5  
               250  750  -7.5  
               250  750  -6.5  
               250  750  -5.5  
               250  750  -4.5  
               250  750  -3.5  
               250  750  -2.5  
               250  750  -1.5  
               250  750  -0.5  
               150  850  -9.5  
               150  850  -8.5  
               150  850  -7.5  
               150  850  -6.5  
               150  850  -5.5  
               150  850  -4.5  
               150  850  -3.5  
               150  850  -2.5  
               150  850  -1.5  
               150  850  -0.5  
               50  950  -9.5  
               50  950  -8.5  
               50  950  -7.5  
               50  950  -6.5  
               50  950  -5.5  
               50  950  -4.5  
               50  950  -3.5  
               50  950  -2.5  
               50  950  -1.5  
               50  950  -0.5  
               950  150  -9.5  
               950  150  -8.5  
               950  150  -7.5  
               950  150  -6.5  
               950  150  -5.5  
               950  150  -4.5  
               950  150  -3.5  
               950  150  -2.5  
               950  150  -1.5  
               950  150  -0.5  
               850  250  -9.5  
               850  250  -8.5  
               850  250  -7.5  
               850  250  -6.5  
               850  250  -5.5  
               850  250  -4.5  
               850  250  -3.5  
               850  250  -2.5  
               850  250  -1.5  
               850  250  -0.5  
               750  350  -9.5  
               750  350  -8.5  
               750  350  -7.5  
               750  350  -6.5  
               750  350  -5.5  
               750  350  -4.5  
               750  350  -3.5  
               750  350  -2.5  
               750  350  -1.5  
               750  350  -0.5  
               650  450  -9.5  
               650  450  -8.5  
               650  450  -7.5  
               650  450  -6.5  
               650  450  -5.5  
               650  450  -4.5  
               650  450  -3.5  
               650  450  -2.5  
               650  450  -1.5  
               650  450  -0.5  
               550  550  -9.5  
               550  550  -8.5  
               550  550  -7.5  
               550  550  -6.5  
               550  550  -5.5  
               550  550  -4.5  
               550  550  -3.5  
               550  550  -2.5  
               550  550  -1.5  
               550  550  -0.5  
               450  650  -9.5  
               450  650  -8.5  
               450  650  -7.5  
               450  650  -6.5  
               450  650  -5.5  
               450  650  -4.5  
               450  650  -3.5  
               450  650  -2.5  
               450  650  -1.5  
               450  650  -0.5  
               350  750  -9.5  
               350  750  -8.5  
               350  750  -7.5  
               350  750  -6.5  
               350  750  -5.5  
               350  750  -4.5  
               350  750  -3.5  
               350  750  -2.5  
               350  750  -1.5  
               350  750  -0.5  
               250  850  -9.5  
               250  850  -8.5  
               250  850  -7.5  
               250  850  -6.5  
               250  850  -5.5  
               250  850  -4.5  
               250  850  -3.5  
               250  850  -2.5  
               250  850  -1.5  
               250  850  -0.5  
               150  950  -9.5  
               150  950  -8.5  
               150  950  -7.5  
               150  950  -6.5  
               150  950  -5.5  
               150  950  -4.5  
               150  950  -3.5  
               150  950  -2.5  
               150  950  -1.5  
               150  950  -0.5  
               50  1050  -9.5  
               50  1050  -8.5  
               50  1050  -7.5  
               50  1050  -6.5  
               50  1050  -5.5  
               50  1050  -4.5  
               50  1050  -3.5  
               50  1050  -2.5  
               50  1050  -1.5  
               50  1050  -0.5  
               1050  150  -9.5  
               1050  150  -8.5  
               1050  150  -7.5  
               1050  150  -6.5  
               1050  150  -5.5  
               1050  150  -4.5  
               1050  150  -3.5  
               1050  150  -2.5  
               1050  150  -1.5  
               1050  150  -0.5  
               950  250  -9.42997  
               950  250  -8.28991  
               950  250  -7.14984  
               950  250  -6.00978  
               950  250  -4.86972  
               950  250  -3.72965  
               950  250  -2.58959  
               950  250  -1.44953  
               950  250  -0.309463  
               950  250  0.8306  
               850  350  -9.5  
               850  350  -8.5  
               850  350  -7.5  
               850  350  -6.5  
               850  350  -5.5  
               850  350  -4.5  
               850  350  -3.5  
               850  350  -2.5  
               850  350  -1.5  
               850  350  -0.5  
               750  450  -9.5  
               750  450  -8.5  
               750  450  -7.5  
               750  450  -6.5  
               750  450  -5.5  
               750  450  -4.5  
               750  450  -3.5  
               750  450  -2.5  
               750  450  -1.5  
               750  450  -0.5  
               650  550  -9.5  
               650  550  -8.5  
               650  550  -7.5  
               650  550  -6.5  
               650  550  -5.5  
               650  550  -4.5  
               650  550  -3.5  
               650  550  -2.5  
               650  550  -1.5  
               650  550  -0.5  
               550  650  -9.5  
               550  650  -8.5  
               550  650  -7.5  
               550  650  -6.5  
               550  650  -5.5  
               550  650  -4.5  
               550  650  -3.5  
               550  650  -2.5  
               550  650  -1.5  
               550  650  -0.5  
               450  750  -9.5  
               450  750  -8.5  
               450  750  -7.5  
               450  750  -6.5  
               450  750  -5.5  
               450  750  -4.5  
               450  750  -3.5  
               450  750  -2.5  
               450  750  -1.5  
               450  750  -0.5  
               350  850  -9.5  
               350  850  -8.5  
               350  850  -7.5  
               350  850  -6.5  
               350  850  -5.5  
               350  850  -4.5  
               350  850  -3.5  
               350  850  -2.5  
               350  850  -1.5  
               350  850  -0.5  
               250  950  -9.5  
               250  950  -8.5  
               250  950  -7.5  
               250  950  -6.5  
               250  950  -5.5  
               250  950  -4.5  
               250  950  -3.5  
               250  950  -2.5  
               250  950  -1.5  
               250  950  -0.5  
               150  1050  -9.5  
               150  1050  -8.5  
               150  1050  -7.5  
               150  1050  -6.5  
               150  1050  -5.5  
               150  1050  -4.5  
               150  1050  -3.5  
               150  1050  -2.5  
               150  1050  -1.5  
               150  1050  -0.5  
               1150  150  -9.5  
               1150  150  -8.5  
               1150  150  -7.5  
               1150  150  -6.5  
               1150  150  -5.5  
               1150  150  -4.5  
               1150  150  -3.5  
               1150  150  -2.5  
               1150  150  -1.5  
               1150  150  -0.5  
               1050  250  -9.42999  
               1050  250  -8.28998  
               1050  250  -7.14997  
               1050  250  -6.00995  
               1050  250  -4.86994  
               1050  250  -3.72993  
               1050  250  -2.58991  
               1050  250  -1.4499  
               1050  250  -0.309887  
               1050  250  0.830126  
               950  350  -9.42993  
               950  350  -8.2898  
               950  350  -7.14967  
               950  350  -6.00954  
               950  350  -4.86941  
               950  350  -3.72927  
               950  350  -2.58914  
               950  350  -1.44901  
               950  350  -0.308878  
               950  350  0.831254  
               850  450  -9.5  
               850  450  -8.5  
               850  450  -7.5  
               850  450  -6.5  
               850  450  -5.5  
               850  450  -4.5  
               850  450  -3.5  
               850  450  -2.5  
               850  450  -1.5  
               850  450  -0.5  
               750  550  -9.5  
               750  550  -8.5  
               750  550  -7.5  
               750  550  -6.5  
               750  550  -5.5  
               750  550  -4.5  
               750  550  -3.5  
               750  550  -2.5  
               750  550  -1.5  
               750  550  -0.5  
               650  650  -9.5  
               650  650  -8.5  
               650  650  -7.5  
               650  650  -6.5  
               650  650  -5.5  
               650  650  -4.5  
               650  650  -3.5  
               650  650  -2.5  
               650  650  -1.5  
               650  650  -0.5  
               550  750  -9.5  
               550  750  -8.5  
               550  750  -7.5  
               550  750  -6.5  
               550  750  -5.5  
               550  750  -4.5  
               550  750  -3.5  
               550  750  -2.5  
               550  750  -1.5  
               550  750  -0.5  
               450  850  -9.5  
               450  850  -8.5  
               450  850  -7.5  
               450  850  -6.5  
               450  850  -5.5  
               450  850  -4.5  
               450  850  -3.5  
               450  850  -2.5  
               450  850  -1.5  
               450  850  -0.5  
               350  950  -9.5  
               350  950  -8.5  
               350  950  -7.5  
               350  950  -6.5  
               350  950  -5.5  
               350  950  -4.5  
               350  950  -3.5  
               350  950  -2.5  
               350  950  -1.5  
               350  950  -0.5  
               250  1050  -9.5  
               250  1050  -8.5  
               250  1050  -7.5  
               250  1050  -6.5  
               250  1050  -5.5  
               250  1050  -4.5  
               250  1050  -3.5  
               250  1050  -2.5  
               250  1050  -1.5  
               250  1050  -0.5  
               1250  150  -9.5  
               1250  150  -8.5  
               1250  150  -7.5  
               1250  150  -6.5  
               1250  150  -5.5  
               1250  150  -4.5  
               1250  150  -3.5  
               1250  150  -2.5  
               1250  150  -1.5  
               1250  150  -0.5  
               1150  250  -9.43002  
               1150  250  -8.29006  
               1150  250  -7.15011  
               1150  250  -6.01015  
               1150  250  -4.87019  
               1150  250  -3.73024  
               1150  250  -2.59028  
               1150  250  -1.45032  
               1150  250  -0.310366  
               1150  250  0.829591  
               1050  350  -9.43001  
               1050  350  -8.29002  
               1050  350  -7.15003  
               1050  350  -6.01004  
               1050  350  -4.87005  
               1050  350  -3.73006  
               1050  350  -2.59007  
               1050  350  -1.45008  
               1050  350  -0.310093  
               1050  350  0.829897  
               950  450  -9.42997  
               950  450  -8.28991  
               950  450  -7.14984  
               950  450  -6.00978  
               950  450  -4.86972  
               950  450  -3.72965  
               950  450  -2.58959  
               950  450  -1.44953  
               950  450  -0.309463  
               950  450  0.8306  
               850  550  -9.5  
               850  550  -8.5  
               850  550  -7.5  
               850  550  -6.5  
               850  550  -5.5  
               850  550  -4.5  
               850  550  -3.5  
               850  550  -2.5  
               850  550  -1.5  
               850  550  -0.5  
               750  650  -9.5  
               750  650  -8.5  
               750  650  -7.5  
               750  650  -6.5  
               750  650  -5.5  
               750  650  -4.5  
               750  650  -3.5  
               750  650  -2.5  
               750  650  -1.5  
               750  650  -0.5  
               650  750  -9.5  
               650  750  -8.5  
               650  750  -7.5  
               650  750  -6.5  
               650  750  -5.5  
               650  750  -4.5  
               650  750  -3.5  
               650  750  -2.5  
               650  750  -1.5  
               650  750  -0.5  
               550  850  -9.5  
               550  850  -8.5  
               550  850  -7.5  
               550  850  -6.5  
               550  850  -5.5  
               550  850  -4.5  
               550  850  -3.5  
               550  850  -2.5  
               550  850  -1.5  
               550  850  -0.5  
               450  950  -9.5  
               450  950  -8.5  
               450  950  -7.5  
               450  950  -6.5  
               450  950  -5.5  
               450  950  -4.5  
               450  950  -3.5  
               450  950  -2.5  
               450  950  -1.5  
               450  950  -0.5  
               350  1050  -9.5  
               350  1050  -8.5  
               350  1050  -7.5  
               350  1050  -6.5  
               350  1050  -5.5  
               350  1050  -4.5  
               350  1050  -3.5  
               350  1050  -2.5  
               350  1050  -1.5  
               350  1050  -0.5  
               1350  150  -9.5  
               1350  150  -8.5  
               1350  150  -7.5  
               1350  150  -6.5  
               1350  150  -5.5  
               1350  150  -4.5  
               1350  150  -3.5  
               1350  150  -2.5  
               1350  150  -1.5  
               1350  150  -0.5  
               1250  250  -9.43002  
               1250  250  -8.29007  
               1250  250  -7.15011  
               1250  250  -6.01016  
               1250  250  -4.8702  
               1250  250  -3.73025  
               1250  250  -2.5903  
               1250  250  -1.45034  
               1250  250  -0.310387  
               1250  250  0.829568  
               1150  350  -9.43002  
               1150  350  -8.29007  
               1150  350  -7.15012  
               1150  350  -6.01017  
               1150  350  -4.87021  
               1150  350  -3.73026  
               1150  350  -2.59031  
               1150  350  -1.45036  
               1150  350  -0.310403  
               1150  350  0.82955  
               1050  450  -9.42999  
               1050  450  -8.28998  
               1050  450  -7.14997  
               1050  450  -6.00995  
               1050  450  -4.86994  
               1050  450  -3.72993  
               1050  450  -2.58991  
               1050  450  -1.4499  
               1050  450  -0.309887  
               1050  450  0.830126  
               950  550  -9.5  
               950  550  -8.5  
               950  550  -7.5  
               950  550  -6.5  
               950  550  -5.5  
               950  550  -4.5  
               950  550  -3.5  
               950  550  -2.5  
               950  550  -1.5  
               950  550  -0.5  
               850  650  -9.5  
               850  650  -8.5  
               850  650  -7.5  
               850  650  -6.5  
               850  650  -5.5  
               850  650  -4.5  
               850  650  -3.5  
               850  650  -2.5  
               850  650  -1.5  
               850  650  -0.5  
               750  750  -9.5  
               750  750  -8.5  
               750  750  -7.5  
               750  750  -6.5  
               750  750  -5.5  
               750  750  -4.5  
               750  750  -3.5  
               750  750  -2.5  
               750  750  -1.5  
               750  750  -0.5  
               650  850  -9.5  
               650  850  -8.5  
               650  850  -7.5  
               650  850  -6.5  
               650  850  -5.5  
               650  850  -4.5  
               650  850  -3.5  
               650  850  -2.5  
               650  850  -1.5  
               650  850  -0.5  
               550  950  -9.5  
               550  950  -8.5  
               550  950  -7.5  
               550  950  -6.5  
               550  950  -5.5  
               550  950  -4.5  
               550  950  -3.5  
               550  950  -2.5  
               550  950  -1.5  
               550  950  -0.5  
               450  1050  -9.5  
               450  1050  -8.5  
               450  1050  -7.5  
               450  1050  -6.5  
               450  1050  -5.5  
               450  1050  -4.5  
               450  1050  -3.5  
               450  1050  -2.5  
               450  1050  -1.5  
               450  1050  -0.5  
               1450  150  -9.5  
               1450  150  -8.5  
               1450  150  -7.5  
               1450  150  -6.5  
               1450  150  -5.5  
               1450  150  -4.5  
               1450  150  -3.5  
               1450  150  -2.5  
               1450  150  -1.5  
               1450  150  -0.5  
               1350  250  -9.5  
               1350  250  -8.5  
               1350  250  -7.5  
               1350  250  -6.5  
               1350  250  -5.5  
               1350  250  -4.5  
               1350  250  -3.5  
               1350  250  -2.5  
               1350  250  -1.5  
               1350  250  -0.5  
               1250  350  -9.43002  
               1250  350  -8.29007  
               1250  350  -7.15012  
               1250  350  -6.01017  
               1250  350  -4.87022  
               1250  350  -3.73027  
               1250  350  -2.59032  
               1250  350  -1.45037  
               1250  350  -0.310418  
               1250  350  0.829533  
               1150  450  -9.43002  
               1150  450  -8.29006  
               1150  450  -7.15011  
               1150  450  -6.01015  
               1150  450  -4.87019  
               1150  450  -3.73024  
               1150  450  -2.59028  
               1150  450  -1.45032  
               1150  450  -0.310366  
               1150  450  0.829591  
               1050  550  -9.5  
               1050  550  -8.5  
               1050  550  -7.5  
               1050  550  -6.5  
               1050  550  -5.5  
               1050  550  -4.5  
               1050  550  -3.5  
               1050  550  -2.5  
               1050  550  -1.5  
               1050  550  -0.5  
               950  650  -9.5  
               950  650  -8.5  
               950  650  -7.5  
               950  650  -6.5  
               950  650  -5.5  
               950  650  -4.5  
               950  650  -3.5  
               950  650  -2.5  
               950  650  -1.5  
               950  650  -0.500001  
               850  750  -9.5  
               850  750  -8.5  
               850  750  -7.5  
               850  750  -6.5  
               850  750  -5.5  
               850  750  -4.5  
               850  750  -3.5  
               850  750  -2.5  
               850  750  -1.5  
               850  750  -0.5  
               750  850  -9.5  
               750  850  -8.5  
               750  850  -7.5  
               750  850  -6.5  
               750  850  -5.5  
               750  850  -4.5  
               750  850  -3.5  
               750  850  -2.5  
               750  850  -1.5  
               750  850  -0.5  
               650  950  -9.5  
               650  950  -8.5  
               650  950  -7.5  
               650  950  -6.5  
               650  950  -5.5  
               650  950  -4.5  
               650  950  -3.5  
               650  950  -2.5  
               650  950  -1.5  
               650  950  -0.5  
               550  1050  -9.5  
               550  1050  -8.5  
               550  1050  -7.5  
               550  1050  -6.5  
               550  1050  -5.5  
               550  1050  -4.5  
               550  1050  -3.5  
               550  1050  -2.5  
               550  1050  -1.5  
               550  1050  -0.5  
               1550  150  -9.5  
               1550  150  -8.5  
               1550  150  -7.5  
               1550  150  -6.5  
               1550  150  -5.5  
               1550  150  -4.5  
               1550  150  -3.5  
               1550  150  -2.5  
               1550  150  -1.5  
               1550  150  -0.5  
               1450  250  -9.5  
               1450  250  -8.5  
               1450  250  -7.5  
               1450  250  -6.5  
               1450  250  -5.5  
               1450  250  -4.5  
               1450  250  -3.5  
               1450  250  -2.5  
               1450  250  -1.5  
               1450  250  -0.5  
               1350  350  -9.5  
               1350  350  -8.5  
               1350  350  -7.5  
               1350  350  -6.5  
               1350  350  -5.5  
               1350  350  -4.5  
               1350  350  -3.5  
               1350  350  -2.5  
               1350  350  -1.5  
               1350  350  -0.5  
               1250  450  -9.43002  
               1250  450  -8.29007  
               1250  450  -7.15011  
               1250  450  -6.01016  
               1250  450  -4.8702  
               1250  450  -3.73025  
               1250  450  -2.5903  
               1250  450  -1.45034  
               1250  450  -0.310387  
               1250  450  0.829567  
               1150  550  -9.5  
               1150  550  -8.5  
               1150  550  -7.5  
               1150  550  -6.5  
               1150  550  -5.5  
               1150  550  -4.5  
               1150  550  -3.5  
               1150  550  -2.5  
               1150  550  -1.5  
               1150  550  -0.500001  
               1050  650  -9.5  
               1050  650  -8.5  
               1050  650  -7.5  
               1050  650  -6.5  
               1050  650  -5.5  
               1050  650  -4.5  
               1050  650  -3.5  
               1050  650  -2.5  
               1050  650  -1.5  
               1050  650  -0.5  
               950  750  -9.5  
               950  750  -8.5  
               950  750  -7.5  
               950  750  -6.5  
               950  750  -5.5  
               950  750  -4.5  
               950  750  -3.5  
               950  750  -2.5  
               950  750  -1.5  
               950  750  -0.5  
               850  850  -9.5  
               850  850  -8.5  
               850  850  -7.5  
               850  850  -6.5  
               850  850  -5.5  
               850  850  -4.5  
               850  850  -3.5  
               850  850  -2.5  
               850  850  -1.5  
               850  850  -0.5  
               750  950  -9.5  
               750  950  -8.5  
               750  950  -7.5  
               750  950  -6.5  
               750  950  -5.5  
               750  950  -4.5  
               750  950  -3.5  
               750  950  -2.5  
               750  950  -1.5  
               750  950  -0.5  
               650  1050  -9.5  
               650  1050  -8.5  
               650  1050  -7.5  
               650  1050  -6.5  
               650  1050  -5.5  
               650  1050  -4.5  
               650  1050  -3.5  
               650  1050  -2.5  
               650  1050  -1.5  
               650  1050  -0.5  
               1650  150  -9.5  
               1650  150  -8.5  
               1650  150  -7.5  
               1650  150  -6.5  
               1650  150  -5.5  
               1650  150  -4.5  
               1650  150  -3.5  
               1650  150  -2.5  
               1650  150  -1.5  
               1650  150  -0.5  
               1550  250  -9.5  
               1550  250  -8.5  
               1550  250  -7.5  
               1550  250  -6.5  
               1550  250  -5.5  
               1550  250  -4.5  
               1550  250  -3.5  
               1550  250  -2.5  
               1550  250  -1.5  
               1550  250  -0.5  
               1450  350  -9.5  
               1450  350  -8.5  
               1450  350  -7.5  
               1450  350  -6.5  
               1450  350  -5.5  
               1450  350  -4.5  
               1450  350  -3.5  
               1450  350  -2.5  
               1450  350  -1.5  
               1450  350  -0.5  
               1350  450  -9.5  
               1350  450  -8.5  
               1350  450  -7.5  
               1350  450  -6.5  
               1350  450  -5.5  
               1350  450  -4.5  
               1350  450  -3.5  
               1350  450  -2.5  
               1350  450  -1.5  
               1350  450  -0.5  
               1250  550  -9.5  
               1250  550  -8.5  
               1250  550  -7.5  
               1250  550  -6.5  
               1250  550  -5.5  
               1250  550  -4.5  
               1250  550  -3.5  
               1250  550  -2.5  
               1250  550  -1.5  
               1250  550  -0.500001  
               1150  650  -9.5  
               1150  650  -8.5  
               1150  650  -7.5  
               1150  650  -6.5  
               1150  650  -5.5  
               1150  650  -4.5  
               1150  650  -3.5  
               1150  650  -2.5  
               1150  650  -1.5  
               1150  650  -0.5  
               1050  750  -9.5  
               1050  750  -8.5  
               1050  750  -7.5  
               1050  750  -6.5  
               1050  750  -5.5  
               1050  750  -4.5  
               1050  750  -3.5  
               1050  750  -2.5  
               1050  750  -1.5  
               1050  750  -0.5  
               950  850  -9.5  
               950  850  -8.5  
               950  850  -7.5  
               950  850  -6.5  
               950  850  -5.5  
               950  850  -4.5  
               950  850  -3.5  
               950  850  -2.5  
               950  850  -1.5  
               950  850  -0.5  
               850  950  -9.5  
               850  950  -8.5  
               850  950  -7.5  
               850  950  -6.5  
               850  950  -5.5  
               850  950  -4.5  
               850  950  -3.5  
               850  950  -2.5  
               850  950  -1.5  
               850  950  -0.5  
               750  1050  -9.5  
               750  1050  -8.5  
               750  1050  -7.5  
               750  1050  -6.5  
               750  1050  -5.5  
               750  1050  -4.5  
               750  1050  -3.5  
               750  1050  -2.5  
               750  1050  -1.5  
               750  1050  -0.5  
               1750  150  -9.5  
               1750  150  -8.5  
               1750  150  -7.5  
               1750  150  -6.5  
               1750  150  -5.5  
               1750  150  -4.5  
               1750  150  -3.5  
               1750  150  -2.5  
               1750  150  -1.5  
               1750  150  -0.5  
               1650  250  -9.5  
               1650  250  -8.5  
               1650  250  -7.5  
               1650  250  -6.5  
               1650  250  -5.5  
               1650  250  -4.5  
               1650  250  -3.5  
               1650  250  -2.5  
               1650  250  -1.5  
               1650  250  -0.5  
               1550  350  -9.5  
               1550  350  -8.5  
               1550  350  -7.5  
               1550  350  -6.5  
               1550  350  -5.5  
               1550  350  -4.5  
               1550  350  -3.5  
               1550  350  -2.5  
               1550  350  -1.5  
               1550  350  -0.5  
               1450  450  -9.5  
               1450  450  -8.5  
               1450  450  -7.5  
               1450  450  -6.5  
               1450  450  -5.5  
               1450  450  -4.5  
               1450  450  -3.5  
               1450  450  -2.5  
               1450  450  -1.5  
               1450  450  -0.5  
               1350  550  -9.5  
               1350  550  -8.5  
               1350  550  -7.5  
               1350  550  -6.5  
               1350  550  -5.5  
               1350  550  -4.5  
               1350  550  -3.5  
               1350  550  -2.5  
               1350  550  -1.5  
               1350  550  -0.5  
               1250  650  -9.5  
               1250  650  -8.5  
               1250  650  -7.5  
               1250  650  -6.5  
               1250  650  -5.5  
               1250  650  -4.5  
               1250  650  -3.5  
               1250  650  -2.5  
               1250  650  -1.5  
               1250  650  -0.5  
               1150  750  -9.5  
               1150  750  -8.5  
               1150  750  -7.5  
               1150  750  -6.5  
               1150  750  -5.5  
               1150  750  -4.5  
               1150  750  -3.5  
               1150  750  -2.5  
               1150  750  -1.5  
               1150  750  -0.5  
               1050  850  -9.5  
               1050  850  -8.5  
               1050  850  -7.5  
               1050  850  -6.5  
               1050  850  -5.5  
               1050  850  -4.5  
               1050  850  -3.5  
               1050  850  -2.5  
               1050  850  -1.5  
               1050  850  -0.5  
               950  950  -9.5  
               950  950  -8.5  
               950  950  -7.5  
               950  950  -6.5  
               950  950  -5.5  
               950  950  -4.5  
               950  950  -3.5  
               950  950  -2.5  
               950  950  -1.5  
               950  950  -0.5  
               850  1050  -9.5  
               850  1050  -8.5  
               850  1050  -7.5  
               850  1050  -6.5  
               850  1050  -5.5  
               850  1050  -4.5  
               850  1050  -3.5  
               850  1050  -2.5  
               850  1050  -1.5  
               850  1050  -0.5  
               1850  150  -9.5  
               1850  150  -8.5  
               1850  150  -7.5  
               1850  150  -6.5  
               1850  150  -5.5  
               1850  150  -4.5  
               1850  150  -3.5  
               1850  150  -2.5  
               1850  150  -1.5  
               1850  150  -0.5  
               1750  250  -9.5  
               1750  250  -8.5  
               1750  250  -7.5  
               1750  250  -6.5  
               1750  250  -5.5  
               1750  250  -4.5  
               1750  250  -3.5  
               1750  250  -2.5  
               1750  250  -1.5  
               1750  250  -0.5  
               1650  350  -9.5  
               1650  350  -8.5  
               1650  350  -7.5  
               1650  350  -6.5  
               1650  350  -5.5  
               1650  350  -4.5  
               1650  350  -3.5  
               1650  350  -2.5  
               1650  350  -1.5  
               1650  350  -0.5  
               1550  450  -9.5  
               1550  450  -8.5  
               1550  450  -7.5  
               1550  450  -6.5  
               1550  450  -5.5  
               1550  450  -4.5  
               1550  450  -3.5  
               1550  450  -2.5  
               1550  450  -1.5  
               1550  450  -0.5  
               1450  550  -9.5  
               1450  550  -8.5  
               1450  550  -7.5  
               1450  550  -6.5  
               1450  550  -5.5  
               1450  550  -4.5  
               1450  550  -3.5  
               1450  550  -2.5  
               1450  550  -1.5  
               1450  550  -0.5  
               1350  650  -9.5  
               1350  650  -8.5  
               1350  650  -7.5  
               1350  650  -6.5  
               1350  650  -5.5  
               1350  650  -4.5  
               1350  650  -3.5  
               1350  650  -2.5  
               1350  650  -1.5  
               1350  650  -0.5  
               1250  750  -9.5  
               1250  750  -8.5  
               1250  750  -7.5  
               1250  750  -6.5  
               1250  750  -5.5  
               1250  750  -4.5  
               1250  750  -3.5  
               1250  750  -2.5  
               1250  750  -1.5  
               1250  750  -0.5  
               1150  850  -9.5  
               1150  850  -8.5  
               1150  850  -7.5  
               1150  850  -6.5  
               1150  850  -5.5  
               1150  850  -4.5  
               1150  850  -3.5  
               1150  850  -2.5  
               1150  850  -1.5  
               1150  850  -0.5  
               1050  950  -9.5  
               1050  950  -8.5  
               1050  950  -7.5  
               1050  950  -6.5  
               1050  950  -5.5  
               1050  950  -4.5  
               1050  950  -3.5  
               1050  950  -2.5  
               1050  950  -1.5  
               1050  950  -0.5  
               950  1050  -9.5  
               950  1050  -8.5  
               950  1050  -7.5  
               950  1050  -6.5  
               950  1050  -5.5  
               950  1050  -4.5  
               950  1050  -3.5  
               950  1050  -2.5  
               950  1050  -1.5  
               950  1050  -0.5  
               1950  150  -9.5  
               1950  150  -8.5  
               1950  150  -7.5  
               1950  150  -6.5  
               1950  150  -5.5  
               1950  150  -4.5  
               1950  150  -3.5  
               1950  150  -2.5  
               1950  150  -1.5  
               1950  150  -0.5  
               1850  250  -9.5  
               1850  250  -8.5  
               1850  250  -7.5  
               1850  250  -6.5  
               1850  250  -5.5  
               1850  250  -4.5  
               1850  250  -3.5  
               1850  250  -2.5  
               1850  250  -1.5  
               1850  250  -0.5  
               1750  350  -9.5  
               1750  350  -8.5  
               1750  350  -7.5  
               1750  350  -6.5  
               1750  350  -5.5  
               1750  350  -4.5  
               1750  350  -3.5  
               1750  350  -2.5  
               1750  350  -1.5  
               1750  350  -0.5  
               1650  450  -9.5  
               1650  450  -8.5  
               1650  450  -7.5  
               1650  450  -6.5  
               1650  450  -5.5  
               1650  450  -4.5  
               1650  450  -3.5  
               1650  450  -2.5  
               1650  450  -1.5  
               1650  450  -0.5  
               1550  550  -9.5  
               1550  550  -8.5  
               1550  550  -7.5  
               1550  550  -6.5  
               1550  550  -5.5  
               1550  550  -4.5  
               1550  550  -3.5  
               1550  550  -2.5  
               1550  550  -1.5  
               1550  550  -0.5  
               1450  650  -9.5  
               1450  650  -8.5  
               1450  650  -7.5  
               1450  650  -6.5  
               1450  650  -5.5  
               1450  650  -4.5  
               1450  650  -3.5  
               1450  650  -2.5  
               1450  650  -1.5  
               1450  650  -0.5  
               1350  750  -9.5  
               1350  750  -8.5  
               1350  750  -7.5  
               1350  750  -6.5  
               1350  750  -5.5  
               1350  750  -4.5  
               1350  750  -3.5  
               1350  750  -2.5  
               1350  750  -1.5  
               1350  750  -0.5  
               1250  850  -9.5  
               1250  850  -8.5  
               1250  850  -7.5  
               1250  850  -6.5  
               1250  850  -5.5  
               1250  850  -4.5  
               1250  850  -3.5  
               1250  850  -2.5  
               1250  850  -1.5  
               1250  850  -0.5  
               1150  950  -9.5  
               1150  950  -8.5  
               1150  950  -7.5  
               1150  950  -6.5  
               1150  950  -5.5  
               1150  950  -4.5  
               1150  950  -3.5  
               1150  950  -2.5  
               1150  950  -1.5  
               1150  950  -0.5  
               1050  1050  -9.5  
               1050  1050  -8.5  
               1050  1050  -7.5  
               1050  1050  -6.5  
               1050  1050  -5.5  
               1050  1050  -4.5  
               1050  1050  -3.5  
               1050  1050  -2.5  
               1050  1050  -1.5  
               1050  1050  -0.5  
               1950  250  -9.5  
               1950  250  -8.5  
               1950  250  -7.5  
               1950  250  -6.5  
               1950  250  -5.5  
               1950  250  -4.5  
               1950  250  -3.5  
               1950  250  -2.5  
               1950  250  -1.5  
               1950  250  -0.5  
               1850  350  -9.5  
               1850  350  -8.5  
               1850  350  -7.5  
               1850  350  -6.5  
               1850  350  -5.5  
               1850  350  -4.5  
               1850  350  -3.5  
               1850  350  -2.5  
               1850  350  -1.5  
               1850  350  -0.5  
               1750  450  -9.5  
               1750  450  -8.5  
               1750  450  -7.5  
               1750  450  -6.5  
               1750  450  -5.5  
               1750  450  -4.5  
               1750  450  -3.5  
               1750  450  -2.5  
               1750  450  -1.5  
               1750  450  -0.5  
               1650  550  -9.5  
               1650  550  -8.5  
               1650  550  -7.5  
               1650  550  -6.5  
               1650  550  -5.5  
               1650  550  -4.5  
               1650  550  -3.5  
               1650  550  -2.5  
               1650  550  -1.5  
               1650  550  -0.5  
               1550  650  -9.5  
               1550  650  -8.5  
               1550  650  -7.5  
               1550  650  -6.5  
               1550  650  -5.5  
               1550  650  -4.5  
               1550  650  -3.5  
               1550  650  -2.5  
               1550  650  -1.5  
               1550  650  -0.5  
               1450  750  -9.5  
               1450  750  -8.5  
               1450  750  -7.5  
               1450  750  -6.5  
               1450  750  -5.5  
               1450  750  -4.5  
               1450  750  -3.5  
               1450  750  -2.5  
               1450  750  -1.5  
               1450  750  -0.5  
               1350  850  -9.57  
               1350  850  -8.71  
               1350  850  -7.85  
               1350  850  -6.99  
               1350  850  -6.13  
               1350  850  -5.27  
               1350  850  -4.41  
               1350  850  -3.55  
               1350  850  -2.69  
               1350  850  -1.83  
               1250  950  -9.5  
               1250  950  -8.5  
               1250  950  -7.5  
               1250  950  -6.5  
               1250  950  -5.5  
               1250  950  -4.5  
               1250  950  -3.5  
               1250  950  -2.5  
               1250  950  -1.5  
               1250  950  -0.5  
               1150  1050  -9.5  
               1150  1050  -8.5  
               1150  1050  -7.5  
               1150  1050  -6.5  
               1150  1050  -5.5  
               1150  1050  -4.5  
               1150  1050  -3.5  
               1150  1050  -2.5  
               1150  1050  -1.5  
               1150  1050  -0.5  
               1950  350  -9.5  
               1950  350  -8.5  
               1950  350  -7.5  
               1950  350  -6.5  
               1950  350  -5.5  
               1950  350  -4.5  
               1950  350  -3.5  
               1950  350  -2.5  
               1950  350  -1.5  
               1950  350  -0.5  
               1850  450  -9.5  
               1850  450  -8.5  
               1850  450  -7.5  
               1850  450  -6.5  
               1850  450  -5.5  
               1850  450  -4.5  
               1850  450  -3.5  
               1850  450  -2.5  
               1850  450  -1.5  
               1850  450  -0.5  
               1750  550  -9.5  
               1750  550  -8.5  
               1750  550  -7.5  
               1750  550  -6.5  
               1750  550  -5.5  
               1750  550  -4.5  
               1750  550  -3.5  
               1750  550  -2.5  
               1750  550  -1.5  
               1750  550  -0.5  
               1650  650  -9.5  
               1650  650  -8.5  
               1650  650  -7.5  
               1650  650  -6.5  
               1650  650  -5.5  
               1650  650  -4.5  
               1650  650  -3.5  
               1650  650  -2.5  
               1650  650  -1.5  
               1650  650  -0.5  
               1550  750  -9.5  
               1550  750  -8.5  
               1550  750  -7.5  
               1550  750  -6.5  
               1550  750  -5.5  
               1550  750  -4.5  
               1550  750  -3.5  
               1550  750  -2.5  
               1550  750  -1.5  
               1550  750  -0.5  
               1450  850  -9.57  
               1450  850  -8.71  
               1450  850  -7.85  
               1450  850  -6.99  
               1450  850  -6.13  
               1450  850  -5.27  
               1450  850  -4.41  
               1450  850  -3.55  
               1450  850  -2.69  
               1450  850  -1.83  
               1350  950  -9.57  
               1350  950  -8.71  
               1350  950  -7.85  
               1350  950  -6.99  
               1350  950  -6.13  
               1350  950  -5.27  
               1350  950  -4.41  
               1350  950  -3.55  
               1350  950  -2.69  
               1350  950  -1.83  
               1250  1050  -9.5  
               1250  1050  -8.5  
               1250  1050  -7.5  
               1250  1050  -6.5  
               1250  1050  -5.5  
               1250  1050  -4.5  
               1250  1050  -3.5  
               1250  1050  -2.5  
               1250  1050  -1.5  
               1250  1050  -0.5  
               1950  450  -9.5  
               1950  450  -8.5  
               1950  450  -7.5  
               1950  450  -6.5  
               1950  450  -5.5  
               1950  450  -4.5  
               1950  450  -3.5  
               1950  450  -2.5  
               1950  450  -1.5  
               1950  450  -0.5  
               1850  550  -9.5  
               1850  550  -8.5  
               1850  550  -7.5  
               1850  550  -6.5  
               1850  550  -5.5  
               1850  550  -4.5  
               1850  550  -3.5  
               1850  550  -2.5  
               1850  550  -1.5  
               1850  550  -0.5  
               1750  650  -9.5  
               1750  650  -8.5  
               1750  650  -7.5  
               1750  650  -6.5  
               1750  650  -5.5  
               1750  650  -4.5  
               1750  650  -3.5  
               1750  650  -2.5  
               1750  650  -1.5  
               1750  650  -0.5  
               1650  750  -9.5  
               1650  750  -8.5  
               1650  750  -7.5  
               1650  750  -6.5  
               1650  750  -5.5  
               1650  750  -4.5  
               1650  750  -3.5  
               1650  750  -2.5  
               1650  750  -1.5  
               1650  750  -0.5  
               1550  850  -9.57  
               1550  850  -8.71  
               1550  850  -7.85  
               1550  850  -6.99  
               1550  850  -6.13  
               1550  850  -5.27  
               1550  850  -4.41  
               1550  850  -3.55  
               1550  850  -2.69  
               1550  850  -1.83  
               1450  950  -9.57  
               1450  950  -8.71  
               1450  950  -7.85  
               1450  950  -6.99  
               1450  950  -6.13  
               1450  950  -5.27  
               1450  950  -4.41  
               1450  950  -3.55  
               1450  950  -2.69  
               1450  950  -1.83  
               1350  1050  -9.57  
               1350  1050  -8.71  
               1350  1050  -7.85  
               1350  1050  -6.99  
               1350  1050  -6.13  
               1350  1050  -5.27  
               1350  1050  -4.41  
               1350  1050  -3.55  
               1350  1050  -2.69  
               1350  1050  -1.83  
               1950  550  -9.5  
               1950  550  -8.5  
               1950  550  -7.5  
               1950  550  -6.5  
               1950  550  -5.5  
               1950  550  -4.5  
               1950  550  -3.5  
               1950  550  -2.5  
               1950  550  -1.5  
               1950  550  -0.5  
               1850  650  -9.5  
               1850  650  -8.5  
               1850  650  -7.5  
               1850  650  -6.5  
               1850  650  -5.5  
               1850  650  -4.5  
               1850  650  -3.5  
               1850  650  -2.5  
               1850  650  -1.5  
               1850  650  -0.5  
               1750  750  -9.5  
               1750  750  -8.5  
               1750  750  -7.5  
               1750  750  -6.5  
               1750  750  -5.5  
               1750  750  -4.5  
               1750  750  -3.5  
               1750  750  -2.5  
               1750  750  -1.5  
               1750  750  -0.5  
               1650  850  -9.57  
               1650  850  -8.71  
               1650  850  -7.85  
               1650  850  -6.99  
               1650  850  -6.13  
               1650  850  -5.27  
               1650  850  -4.41  
               1650  850  -3.55  
               1650  850  -2.69  
               1650  850  -1.83  
               1550  950  -9.57  
               1550  950  -8.71  
               1550  950  -7.85  
               1550  950  -6.99  
               1550  950  -6.13  
               1550  950  -5.27  
               1550  950  -4.41  
               1550  950  -3.55  
               1550  950  -2.69  
               1550  950  -1.83  
               1450  1050  -9.57  
               1450  1050  -8.71  
               1450  1050  -7.85  
               1450  1050  -6.99  
               1450  1050  -6.13  
               1450  1050  -5.27  
               1450  1050  -4.41  
               1450  1050  -3.55  
               1450  1050  -2.69  
               1450  1050  -1.83  
               1950  650  -9.5  
               1950  650  -8.5  
               1950  650  -7.5  
               1950  650  -6.5  
               1950  650  -5.5  
               1950  650  -4.5  
               1950  650  -3.5  
               1950  650  -2.5  
               1950  650  -1.5  
               1950  650  -0.5  
               1850  750  -9.5  
               1850  750  -8.5  
               1850  750  -7.5  
               1850  750  -6.5  
               1850  750  -5.5  
               1850  750  -4.5  
               1850  750  -3.5  
               1850  750  -2.5  
               1850  750  -1.5  
               1850  750  -0.5  
               1750  850  -9.5  
               1750  850  -8.5  
               1750  850  -7.5  
               1750  850  -6.5  
               1750  850  -5.5  
               1750  850  -4.5  
               1750  850  -3.5  
               1750  850  -2.5  
               1750  850  -1.5  
               1750  850  -0.5  
               1650  950  -9.57  
               1650  950  -8.71  
               1650  950  -7.85  
               1650  950  -6.99  
               1650  950  -6.13  
               1650  950  -5.27  
               1650  950  -4.41  
               1650  950  -3.55  
               1650  950  -2.69  
               1650  950  -1.83  
               1550  1050  -9.57  
               1550  1050  -8.71  
               1550  1050  -7.85  
               1550  1050  -6.99  
               1550  1050  -6.13  
               1550  1050  -5.27  
               1550  1050  -4.41  
               1550  1050  -3.55  
               1550  1050  -2.69  
               1550  1050  -1.83  
               1950  750  -9.5  
               1950  750  -8.5  
               1950  750  -7.5  
               1950  750  -6.5  
               1950  750  -5.5  
               1950  750  -4.5  
               1950  750  -3.5  
               1950  750  -2.5  
               1950  750  -1.5  
               1950  750  -0.5  
               1850  850  -9.5  
               1850  850  -8.5  
               1850  850  -7.5  
               1850  850  -6.5  
               1850  850  -5.5  
               1850  850  -4.5  
               1850  850  -3.5  
               1850  850  -2.5  
               1850  850  -1.5  
               1850  850  -0.5  
               1750  950  -9.5  
               1750  950  -8.5  
               1750  950  -7.5  
               1750  950  -6.5  
               1750  950  -5.5  
               1750  950  -4.5  
               1750  950  -3.5  
               1750  950  -2.5  
               1750  950  -1.5  
               1750  950  -0.5  
               1650  1050  -9.57  
               1650  1050  -8.71  
               1650  1050  -7.85  
               1650  1050  -6.99  
               1650  1050  -6.13  
               1650  1050  -5.27  
               1650  1050  -4.41  
               1650  1050  -3.55  
               1650  1050  -2.69  
               1650  1050  -1.83  
               1950  850  -9.5  
               1950  850  -8.5  
               1950  850  -7.5  
               1950  850  -6.5  
               1950  850  -5.5  
               1950  850  -4.5  
               1950  850  -3.5  
               1950  850  -2.5  
               1950  850  -1.5  
               1950  850  -0.5  
               1850  950  -9.5  
               1850  950  -8.5  
               1850  950  -7.5  
               1850  950  -6.5  
               1850  950  -5.5  
               1850  950  -4.5  
               1850  950  -3.5  
               1850  950  -2.5  
               1850  950  -1.5  
               1850  950  -0.5  
               1750  1050  -9.5  
               1750  1050  -8.5  
               1750  1050  -7.5  
               1750  1050  -6.5  
               1750  1050  -5.5  
               1750  1050  -4.5  
               1750  1050  -3.5  
               1750  1050  -2.5  
               1750  1050  -1.5  
               1750  1050  -0.5  
               1950  950  -9.5  
               1950  950  -8.5  
               1950  950  -7.5  
               1950  950  -6.5  
               1950  950  -5.5  
               1950  950  -4.5  
               1950  950  -3.5  
               1950  950  -2.5  
               1950  950  -1.5  
               1950  950  -0.5  
               1850  1050  -9.5  
               1850  1050  -8.5  
               1850  1050  -7.5  
               1850  1050  -6.5  
               1850  1050  -5.5  
               1850  1050  -4.5  
               1850  1050  -3.5  
               1850  1050  -2.5  
               1850  1050  -1.5  
               1850  1050  -0.5  
               1950  1050  -9.5  
               1950  1050  -8.5  
               1950  1050  -7.5  
               1950  1050  -6.5  
               1950  1050  -5.5  
               1950  1050  -4.5  
               1950  1050  -3.5  
               1950  1050  -2.5  
               1950  1050  -1.5  
               1950  1050  -0.5  
            </DataArray>
         </Points> 

         <Cells>
            <DataArray type="Int32" Name="connectivity" NumberOfComponents="1" format="ascii">
               
            </DataArray> 
            <DataArray type="Int32" Name="offsets" NumberOfComponents="1" format="ascii">
               
            </DataArray>
            <DataArray type="UInt8"  Name="types" NumberOfComponents="1" format="ascii">
               
            </DataArray>
         </Cells>
         <PointData Scalars="Rank sea_water_potential_density " Vectors="">
            <DataArray type="UInt32" Name="Rank" NumberOfComponents="1" format="ascii">
               0 0 0 0 0 0 0 0 0 0 0 0 0 0 0 0 0 0 0 0 0 0 0 0 0 0 0 0 0 0 0 0 0 0 0 0 0 0 0 0 0 0 0 0 0 0 0 0 0 0 0 0 0 0 0 0 0 0 0 0 0 0 0 0 0 0 0 0 0 0 0 0 0 0 0 0 0 0 0 0 0 0 0 0 0 0 0 0 0 0 0 0 0 0 0 0 0 0 0 0 0 0 0 0 0 0 0 0 0 0 0 0 0 0 0 0 0 0 0 0 0 0 0 0 0 0 0 0 0 0 0 0 0 0 0 0 0 0 0 0 0 0 0 0 0 0 0 0 0 0 0 0 0 0 0 0 0 0 0 0 0 0 0 0 0 0 0 0 0 0 0 0 0 0 0 0 0 0 0 0 0 0 0 0 0 0 0 0 0 0 0 0 0 0 0 0 0 0 0 0 0 0 0 0 0 0 0 0 0 0 0 0 0 0 0 0 0 0 0 0 0 0 0 0 0 0 0 0 0 0 0 0 0 0 0 0 0 0 0 0 0 0 0 0 0 0 0 0 0 0 0 0 0 0 0 0 0 0 0 0 0 0 0 0 0 0 0 0 0 0 0 0 0 0 0 0 0 0 0 0 0 0 0 0 0 0 0 0 0 0 0 0 0 0 0 0 0 0 0 0 0 0 0 0 0 0 0 0 0 0 0 0 0 0 0 0 0 0 0 0 0 0 0 0 0 0 0 0 0 0 0 0 0 0 0 0 0 0 0 0 0 0 0 0 0 0 0 0 0 0 0 0 0 0 0 0 0 0 0 0 0 0 0 0 0 0 0 0 0 0 0 0 0 0 0 0 0 0 0 0 0 0 0 0 0 0 0 0 0 0 0 0 0 0 0 0 0 0 0 0 0 0 0 0 0 0 0 0 0 0 0 0 0 0 0 0 0 0 0 0 0 0 0 0 0 0 0 0 0 0 0 0 0 0 0 0 0 0 0 0 0 0 0 0 0 0 0 0 0 0 0 0 0 0 0 0 0 0 0 0 0 0 0 0 0 0 0 0 0 0 0 0 0 0 0 0 0 0 0 0 0 0 0 0 0 0 0 0 0 0 0 0 0 0 0 0 0 0 0 0 0 0 0 0 0 0 0 0 0 0 0 0 0 0 0 0 0 0 0 0 0 0 0 0 0 0 0 0 0 0 0 0 0 0 0 0 0 0 0 0 0 0 0 0 0 0 0 0 0 0 0 0 0 0 0 0 0 0 0 0 0 0 0 0 0 0 0 0 0 0 0 0 0 0 0 0 0 0 0 0 0 0 0 0 0 0 0 0 0 0 0 0 0 0 0 0 0 0 0 0 0 0 0 0 0 0 0 0 0 0 0 0 0 0 0 0 0 0 0 0 0 0 0 0 0 0 0 0 0 0 0 0 0 0 0 0 0 0 0 0 0 0 0 0 0 0 0 0 0 0 0 0 0 0 0 0 0 0 0 0 0 0 0 0 0 0 0 0 0 0 0 0 0 0 0 0 0 0 0 0 0 0 0 0 0 0 0 0 0 0 0 0 0 0 0 0 0 0 0 0 0 0 0 0 0 0 0 0 0 0 0 0 0 0 0 0 0 0 0 0 0 0 0 0 0 0 0 0 0 0 0 0 0 0 0 0 0 0 0 0 0 0 0 0 0 0 0 0 0 0 0 0 0 0 0 0 0 0 0 0 0 0 0 0 0 0 0 0 0 0 0 0 0 0 0 0 0 0 0 0 0 0 0 0 0 0 0 0 0 0 0 0 0 0 0 0 0 0 0 0 0 0 0 0 0 0 0 0 0 0 0 0 0 0 0 0 0 0 0 0 0 0 0 0 0 0 0 0 0 0 0 0 0 0 0 0 0 0 0 0 0 0 0 0 0 0 0 0 0 0 0 0 0 0 0 0 0 0 0 0 0 0 0 0 0 0 0 0 0 0 0 0 0 0 0 0 0 0 0 0 0 0 0 0 0 0 0 0 0 0 0 0 0 0 0 0 0 0 0 0 0 0 0 0 0 0 0 0 0 0 0 0 0 0 0 0 0 0 0 0 0 0 0 0 0 0 0 0 0 0 0 0 0 0 0 0 0 0 0 0 0 0 0 0 0 0 0 0 0 0 0 0 0 0 0 0 0 0 0 0 0 0 0 0 0 0 0 0 0 0 0 0 0 0 0 0 0 0 0 0 0 0 0 0 0 0 0 0 0 0 0 0 0 0 0 0 0 0 0 0 0 0 0 0 0 0 0 0 0 0 0 0 0 0 0 0 0 0 0 0 0 0 0 0 0 0 0 0 0 0 0 0 0 0 0 0 0 0 0 0 0 0 0 0 0 0 0 0 0 0 0 0 0 0 0 0 0 0 0 0 0 0 0 0 0 0 0 0 0 0 0 0 0 0 0 0 0 0 0 0 0 0 0 0 0 0 0 0 0 0 0 0 0 0 0 0 0 0 0 0 0 0 0 0 0 0 0 0 0 0 0 0 0 0 0 0 0 0 0 0 0 0 0 0 0 0 0 0 0 0 0 0 0 0 0 0 0 0 0 0 0 0 0 0 0 0 0 0 0 0 0 0 0 0 0 0 0 0 0 0 0 0 0 0 0 0 0 0 0 0 0 0 0 0 0 0 0 0 0 0 0 0 0 0 0 0 0 0 0 0 0 0 0 0 0 0 0 0 0 0 0 0 0 0 0 0 0 0 0 0 0 0 0 0 0 0 0 0 0 0 0 0 0 0 0 0 0 0 0 0 0 0 0 0 0 0 0 0 0 0 0 0 0 0 0 0 0 0 0 0 0 0 0 0 0 0 0 0 0 0 0 0 0 0 0 0 0 0 0 0 0 0 0 0 0 0 0 0 0 0 0 0 0 0 0 0 0 0 0 0 0 0 0 0 0 0 0 0 0 0 0 0 0 0 0 0 0 0 0 0 0 0 0 0 0 0 0 0 0 0 0 0 0 0 0 0 0 0 0 0 0 0 0 0 0 0 0 0 0 0 0 0 0 0 0 0 0 0 0 0 0 0 0 0 0 0 0 0 0 0 0 0 0 0 0 0 0 0 0 0 0 0 0 0 0 0 0 0 0 0 0 0 0 0 0 0 0 0 0 0 0 0 0 0 0 0 0 0 0 0 0 0 0 0 0 0 0 0 0 0 0 0 0 0 0 0 0 0 0 0 0 0 0 0 0 0 0 0 0 0 0 0 0 0 0 0 0 0 0 0 0 0 0 0 0 0 0 0 0 0 0 0 0 0 0 0 0 0 0 0 0 0 0 0 0 0 0 0 0 0 0 0 0 0 0 0 0 0 0 0 0 0 0 0 0 0 0 0 0 0 0 0 0 0 0 0 0 0 0 0 0 0 0 0 0 0 0 0 0 0 0 0 0 0 0 0 0 0 0 0 0 0 0 0 0 0 0 0 0 0 0 0 0 0 0 0 0 0 0 0 0 0 0 0 0 0 0 0 0 0 0 0 0 0 0 0 0 0 0 0 0 0 0 0 0 0 0 0 0 0 0 0 0 0 0 0 0 0 0 0 0 0 0 0 0 0 0 0 0 0 0 0 0 0 0 0 0 0 0 0 0 0 0 0 0 0 0 0 0 0 0 0 0 0 0 0 0 0 0 0 0 0 0 0 0 0 0 0 0 0 0 0 0 0 0 0 0 0 0 0 0 0 0 0 0 0 0 0 0 0 0 0 0 0 0 0 0 0 0 0 0 0 0 0 0 0 0 0 0 0 0 0 0 0 0 0 0 0 0 0 0 0 0 0 0 0 0 0 0 0 0 0 0 0 0 0 0 0 0 0 0 0 0 0 0 0 0 0 0 0 0 0 0 0 0 0 0 0 0 0 0 0 0 0 0 0 0 0 0 0 0 0 0 0 0 0 0 0 0 0 0 0 0 0 0 0 0 0 0 0 0 0 0 0 0 0 0 0 0 0 0 0 0 0 0 0 0 0 0 0 0 0 0 0 0 0 0 0 0 0 0 0 0 0 0 0 0 0 0 0 0 0 0 0 0 0 0 0 0 0 0 0 0 0 0 0 0 0 0 0 0 0 0 0 0 0 0 0 0 0 0 0 0 0 0 0 0 0 0 0 0 0 0 0 0 0 0 0 0 0 0 0 0 0 0 0 0 0 0 0 0 0 0 0 0 0 0 0 0 0 0 0 0 0 0 0 0 0 0 0 0 0 0 0 0 0 0 0 0 0 0 0 0 0 0 0 0 0 0 0 0 0 0 0 0 0 0 0 0 0 0 0 0 0 0 0 0 0 0 0 0 0 0 0 0 0 0 0 0 0 0 0 0 0 0 0 0 0 0 0 0 0 0 0 0 0 0 0 0 0 0 0 0 0 0 0 0 0 0 0 0 0 0 0 0 0 0 0 0 0 0 0 0 0 0 0 0 0 0 0 0 0 0 0 0 0 0 0 0 0 0 0 0 0 0 0 0 0 0 0 0 0 0 0 0 0 0 0 0 0 
            </DataArray>
            <DataArray type="Float64" Name="sea_water_potential_density" NumberOfComponents="1" format="ascii">
               1000 1000 1000 1000 1000 1000 1000 1000 1000 1000 1000 1000 1000 1000 1000 1000 1000 1000 1000 1000 1000 1000 1000 1000 1000 1000 1000 1000 1000 1000 1000 1000 1000 1000 1000 1000 1000 1000 1000 1000 1000 1000 1000 1000 1000 1000 1000 1000 1000 1000 1000 1000 1000 1000 1000 1000 1000 1000 1000 1000 1000 1000 1000 1000 1000 1000 1000 1000 1000 1000 1000 1000 1000 1000 1000 1000 1000 1000 1000 1000 1000 1000 1000 1000 1000 1000 1000 1000 1000 1000 1000 1000 1000 1000 1000 1000 1000 1000 1000 1000 1000 1000 1000 1000 1000 1000 1000 1000 1000 1000 1000 1000 1000 1000 1000 1000 1000 1000 1000 1000 1000 1000 1000 1000 1000 1000 1000 1000 1000 1000 1000 1000 1000 1000 1000 1000 1000 1000 1000 1000 1000 1000 1000 1000 1000 1000 1000 1000 1000 1000 1000 1000 1000 1000 1000 1000 1000 1000 1000 1000 1000 1000 1000 1000 1000 1000 1000 1000 1000 1000 1000 1000 1000 1000 1000 1000 1000 1000 1000 1000 1000 1000 1000 1000 1000 1000 1000 1000 1000 1000 1000 1000 1000 1000 1000 1000 1000 1000 1000 1000 1000 1022.12 1022.12 1022.12 1022.12 1022.12 1022.12 1022.12 1022.12 1022.12 1022.12 1000 1022.12 1022.12 1022.12 1022.12 1022.12 1022.12 1022.12 1022.12 1022.12 1022.12 1000 1022.12 1022.12 1022.12 1022.12 1022.12 1022.12 1022.12 1022.12 1022.12 1022.12 1000 1022.12 1022.12 1022.12 1022.12 1022.12 1022.12 1022.12 1022.12 1022.12 1022.12 1000 1022.12 1022.12 1022.12 1022.12 1022.12 1022.12 1022.12 1022.12 1022.12 1022.12 1000 1022.12 1022.12 1022.12 1022.12 1022.12 1022.12 1022.12 1022.12 1022.12 1022.12 1000 1022.12 1022.12 1022.12 1022.12 1022.12 1022.12 1022.12 1022.12 1022.12 1022.12 1000 1022.12 1022.12 1022.12 1022.12 1022.12 1022.12 1022.12 1022.12 1022.12 1022.12 1000 1022.12 1022.12 1022.12 1022.12 1022.12 1022.12 1022.12 1022.12 1022.12 1022.12 1000 1022.12 1022.12 1022.12 1022.12 1022.12 1022.12 1022.12 1022.12 1022.12 1022.12 1000 1022.12 1022.12 1022.12 1022.12 1022.12 1022.12 1022.12 1022.12 1022.12 1022.12 1000 1022.12 1022.12 1022.12 1022.12 1022.12 1022.12 1022.12 1022.12 1022.12 1022.12 1000 1022.12 1022.12 1022.12 1022.12 1022.12 1022.12 1022.12 1022.12 1022.12 1022.12 1000 1022.12 1022.12 1022.12 1022.12 1022.12 1022.12 1022.12 1022.12 1022.12 1022.12 1000 1022.12 1022.12 1022.12 1022.12 1022.12 1022.12 1022.12 1022.12 1022.12 1022.12 1000 1022.12 1022.12 1022.12 1022.12 1022.12 1022.12 1022.12 1022.12 1022.12 1022.12 1000 1022.12 1022.12 1022.12 1022.12 1022.12 1022.12 1022.12 1022.12 1022.12 1022.12 1000 1022.12 1022.12 1022.12 1022.12 1022.12 1022.12 1022.12 1022.12 1022.12 1022.12 1000 1022.12 1022.12 1022.12 1022.12 1022.12 1022.12 1022.12 1022.12 1022.12 1022.12 1000 1022.12 1022.12 1022.12 1022.12 1022.12 1022.12 1022.12 1022.12 1022.12 1022.12 1000 1022.12 1022.12 1022.12 1022.12 1022.12 1022.12 1022.12 1022.12 1022.12 1022.12 1000 1022.12 1022.12 1022.12 1022.12 1022.12 1022.12 1022.12 1022.12 1022.12 1022.12 1000 1022.12 1022.12 1022.12 1022.12 1022.12 1022.12 1022.12 1022.12 1022.12 1022.12 1000 1022.12 1022.12 1022.12 1022.12 1022.12 1022.12 1022.12 1022.12 1022.12 1022.12 1000 1022.12 1022.12 1022.12 1022.12 1022.12 1022.12 1022.12 1022.12 1022.12 1022.12 1000 1022.12 1022.12 1022.12 1022.12 1022.12 1022.12 1022.12 1022.12 1022.12 1022.12 1000 1022.12 1022.12 1022.12 1022.12 1022.12 1022.12 1022.12 1022.12 1022.12 1022.12 1000 1022.12 1022.12 1022.12 1022.12 1022.12 1022.12 1022.12 1022.12 1022.12 1022.12 1000 1022.12 1022.12 1022.12 1022.12 1022.12 1022.12 1022.12 1022.12 1022.12 1022.12 1000 1022.12 1022.12 1022.12 1022.12 1022.12 1022.12 1022.12 1022.12 1022.12 1022.12 1000 1022.12 1022.12 1022.12 1022.12 1022.12 1022.12 1022.12 1022.12 1022.12 1022.12 1000 1022.12 1022.12 1022.12 1022.12 1022.12 1022.12 1022.12 1022.12 1022.12 1022.12 1000 1022.12 1022.12 1022.12 1022.12 1022.12 1022.12 1022.12 1022.12 1022.12 1022.12 1000 1022.12 1022.12 1022.12 1022.12 1022.12 1022.12 1022.12 1022.12 1022.12 1022.12 1000 1022.12 1022.12 1022.12 1022.12 1022.12 1022.12 1022.12 1022.12 1022.12 1022.12 1000 1022.12 1022.12 1022.12 1022.12 1022.12 1022.12 1022.12 1022.12 1022.12 1022.12 1000 1022.12 1022.12 1022.12 1022.12 1022.12 1022.12 1022.12 1022.12 1022.12 1022.12 1000 1022.12 1022.12 1022.12 1022.12 1022.12 1022.12 1022.12 1022.12 1022.12 1022.12 1000 1022.12 1022.12 1022.12 1022.12 1022.12 1022.12 1022.12 1022.12 1022.12 1022.12 1000 1022.12 1022.12 1022.12 1022.12 1022.12 1022.12 1022.12 1022.12 1022.12 1022.12 1000 1022.12 1022.12 1022.12 1022.12 1022.12 1022.12 1022.12 1022.12 1022.12 1022.12 1000 1022.12 1022.12 1022.12 1022.12 1022.12 1022.12 1022.12 1022.12 1022.12 1022.12 1000 1022.12 1022.12 1022.12 1022.12 1022.12 1022.12 1022.12 1022.12 1022.12 1022.12 1000 1022.12 1022.12 1022.12 1022.12 1022.12 1022.12 1022.12 1022.12 1022.12 1022.12 1000 1022.12 1022.12 1022.12 1022.12 1022.12 1022.12 1022.12 1022.12 1022.12 1022.12 1000 1022.12 1022.12 1022.12 1022.12 1022.12 1022.12 1022.12 1022.12 1022.12 1022.12 1000 1022.12 1022.12 1022.12 1022.12 1022.12 1022.12 1022.12 1022.12 1022.12 1022.12 1000 1022.12 1022.12 1022.12 1022.12 1022.12 1022.12 1022.12 1022.12 1022.12 1022.12 1000 1022.12 1022.12 1022.12 1022.12 1022.12 1022.12 1022.12 1022.12 1022.12 1022.12 1000 1022.12 1022.12 1022.12 1022.12 1022.12 1022.12 1022.12 1022.12 1022.12 1022.12 1000 1022.12 1022.12 1022.12 1022.12 1022.12 1022.12 1022.12 1022.12 1022.12 1022.12 1000 1022.12 1022.12 1022.12 1022.12 1022.12 1022.12 1022.12 1022.12 1022.12 1022.12 1000 1022.12 1022.12 1022.12 1022.12 1022.12 1022.12 1022.12 1022.12 1022.12 1022.12 1000 1022.12 1022.12 1022.12 1022.12 1022.12 1022.12 1022.12 1022.12 1022.12 1022.12 1000 1022.12 1022.12 1022.12 1022.12 1022.12 1022.12 1022.12 1022.12 1022.12 1022.12 1000 1022.12 1022.12 1022.12 1022.12 1022.12 1022.12 1022.12 1022.12 1022.12 1022.12 1000 1021.82 1021.49 1021.17 1020.94 1020.49 1020.32 1020.29 1020.28 1020.28 1020.28 1000 1022.12 1022.12 1022.12 1022.12 1022.12 1022.12 1022.12 1022.12 1022.12 1022.12 1000 1022.12 1022.12 1022.12 1022.12 1022.12 1022.12 1022.12 1022.12 1022.12 1022.12 1000 1022.12 1022.12 1022.12 1022.12 1022.12 1022.12 1022.12 1022.12 1022.12 1022.12 1000 1022.12 1022.12 1022.12 1022.12 1022.12 1022.12 1022.12 1022.12 1022.12 1022.12 1000 1022.12 1022.12 1022.12 1022.12 1022.12 1022.12 1022.12 1022.12 1022.12 1022.12 1000 1022.12 1022.12 1022.12 1022.12 1022.12 1022.12 1022.12 1022.12 1022.12 1022.12 1000 1022.12 1022.12 1022.12 1022.12 1022.12 1022.12 1022.12 1022.12 1022.12 1022.12 1000 1022.12 1022.12 1022.12 1022.12 1022.12 1022.12 1022.12 1022.12 1022.12 1022.12 1000 1022.12 1022.12 1022.12 1022.12 1022.12 1022.12 1022.12 1022.12 1022.12 1022.12 1000 1021.87 1021.54 1021.08 1020.84 1020.65 1020.45 1020.38 1020.36 1020.35 1020.35 1000 1021.88 1021.62 1021.35 1021.22 1020.05 1020.09 1020.12 1020.15 1020.17 1020.19 1000 1022.12 1022.12 1022.12 1022.12 1022.12 1022.12 1022.12 1022.12 1022.12 1022.12 1000 1022.12 1022.12 1022.12 1022.12 1022.12 1022.12 1022.12 1022.12 1022.12 1022.12 1000 1022.12 1022.12 1022.12 1022.12 1022.12 1022.12 1022.12 1022.12 1022.12 1022.12 1000 1022.12 1022.12 1022.12 1022.12 1022.12 1022.12 1022.12 1022.12 1022.12 1022.12 1000 1022.12 1022.12 1022.12 1022.12 1022.12 1022.12 1022.12 1022.12 1022.12 1022.12 1000 1022.12 1022.12 1022.12 1022.12 1022.12 1022.12 1022.12 1022.12 1022.12 1022.12 1000 1022.12 1022.12 1022.12 1022.12 1022.12 1022.12 1022.12 1022.12 1022.12 1022.12 1000 1022.12 1022.12 1022.12 1022.12 1022.12 1022.12 1022.12 1022.12 1022.12 1022.12 1000 1021.8 1021.36 1020.98 1020.83 1020.75 1020.67 1020.58 1020.51 1020.47 1020.45 1000 1021.89 1021.53 1021.12 1020.91 1020.68 1020.51 1020.44 1020.38 1020.33 1020.31 1000 1021.82 1021.49 1021.17 1020.94 1020.49 1020.32 1020.29 1020.28 1020.28 1020.28 1000 1022.12 1022.12 1022.12 1022.12 1022.12 1022.12 1022.12 1022.12 1022.12 1022.12 1000 1022.12 1022.12 1022.12 1022.12 1022.12 1022.12 1022.12 1022.12 1022.12 1022.12 1000 1022.12 1022.12 1022.12 1022.12 1022.12 1022.12 1022.12 1022.12 1022.12 1022.12 1000 1022.12 1022.12 1022.12 1022.12 1022.12 1022.12 1022.12 1022.12 1022.12 1022.12 1000 1022.12 1022.12 1022.12 1022.12 1022.12 1022.12 1022.12 1022.12 1022.12 1022.12 1000 1022.12 1022.12 1022.12 1022.12 1022.12 1022.12 1022.12 1022.12 1022.12 1022.12 1000 1022.12 1022.12 1022.12 1022.12 1022.12 1022.12 1022.12 1022.12 1022.12 1022.12 1000 1021.69 1021.41 1020.95 1020.77 1020.69 1020.65 1020.62 1020.59 1020.57 1020.56 1000 1021.8 1021.36 1020.97 1020.81 1020.74 1020.68 1020.62 1020.54 1020.48 1020.45 1000 1021.87 1021.54 1021.08 1020.84 1020.65 1020.45 1020.38 1020.36 1020.35 1020.35 1000 1022.12 1022.12 1022.12 1022.12 1022.12 1022.12 1022.12 1022.12 1022.12 1022.12 1000 1022.12 1022.12 1022.12 1022.12 1022.12 1022.12 1022.12 1022.12 1022.12 1022.12 1000 1022.12 1022.12 1022.12 1022.12 1022.12 1022.12 1022.12 1022.12 1022.12 1022.12 1000 1022.12 1022.12 1022.12 1022.12 1022.12 1022.12 1022.12 1022.12 1022.12 1022.12 1000 1022.12 1022.12 1022.12 1022.12 1022.12 1022.12 1022.12 1022.12 1022.12 1022.12 1000 1022.12 1022.12 1022.12 1022.12 1022.12 1022.12 1022.12 1022.12 1022.12 1022.12 1000 1022.12 1022.12 1022.12 1022.12 1022.12 1022.12 1022.12 1022.12 1022.12 1022.12 1000 1022.12 1022.12 1022.12 1022.12 1022.12 1022.12 1022.12 1022.12 1022.12 1022.12 1000 1021.7 1021.39 1020.94 1020.77 1020.7 1020.66 1020.63 1020.6 1020.58 1020.57 1000 1021.8 1021.36 1020.98 1020.83 1020.75 1020.67 1020.58 1020.51 1020.47 1020.45 1000 1022.12 1022.12 1022.12 1022.12 1022.12 1022.12 1022.12 1022.12 1022.12 1022.12 1000 1022.12 1022.12 1022.12 1022.12 1022.12 1022.12 1022.12 1022.12 1022.12 1022.12 1000 1022.12 1022.12 1022.12 1022.12 1022.12 1022.12 1022.12 1022.12 1022.12 1022.12 1000 1022.12 1022.12 1022.12 1022.12 1022.12 1022.12 1022.12 1022.12 1022.12 1022.12 1000 1022.12 1022.12 1022.12 1022.12 1022.12 1022.12 1022.12 1022.12 1022.12 1022.12 1000 1022.12 1022.12 1022.12 1022.12 1022.12 1022.12 1022.12 1022.12 1022.12 1022.12 1000 1022.12 1022.12 1022.12 1022.12 1022.12 1022.12 1022.12 1022.12 1022.12 1022.12 1000 1022.12 1022.12 1022.12 1022.12 1022.12 1022.12 1022.12 1022.12 1022.12 1022.12 1000 1022.12 1022.12 1022.12 1022.12 1022.12 1022.12 1022.12 1022.12 1022.12 1022.12 1000 1021.69 1021.41 1020.95 1020.77 1020.69 1020.65 1020.62 1020.59 1020.57 1020.56 1000 1022.12 1022.12 1022.12 1022.12 1022.12 1022.12 1022.12 1022.12 1022.12 1022.12 1000 1022.12 1022.12 1022.12 1022.12 1022.12 1022.12 1022.12 1022.12 1022.12 1022.12 1000 1022.12 1022.12 1022.12 1022.12 1022.12 1022.12 1022.12 1022.12 1022.12 1022.12 1000 1022.12 1022.12 1022.12 1022.12 1022.12 1022.12 1022.12 1022.12 1022.12 1022.12 1000 1022.12 1022.12 1022.12 1022.12 1022.12 1022.12 1022.12 1022.12 1022.12 1022.12 1000 1022.12 1022.12 1022.12 1022.12 1022.12 1022.12 1022.12 1022.12 1022.12 1022.12 1000 1022.12 1022.12 1022.12 1022.12 1022.12 1022.12 1022.12 1022.12 1022.12 1022.12 1000 1022.12 1022.12 1022.12 1022.12 1022.12 1022.12 1022.12 1022.12 1022.12 1022.12 1000 1022.12 1022.12 1022.12 1022.12 1022.12 1022.12 1022.12 1022.12 1022.12 1022.12 1000 1022.12 1022.12 1022.12 1022.12 1022.12 1022.12 1022.12 1022.12 1022.12 1022.12 1000 1022.12 1022.12 1022.12 1022.12 1022.12 1022.12 1022.12 1022.12 1022.12 1022.12 1000 1022.12 1022.12 1022.12 1022.12 1022.12 1022.12 1022.12 1022.12 1022.12 1022.12 1000 1022.12 1022.12 1022.12 1022.12 1022.12 1022.12 1022.12 1022.12 1022.12 1022.12 1000 1022.12 1022.12 1022.12 1022.12 1022.12 1022.12 1022.12 1022.12 1022.12 1022.12 1000 1022.12 1022.12 1022.12 1022.12 1022.12 1022.12 1022.12 1022.12 1022.12 1022.12 1000 1022.12 1022.12 1022.12 1022.12 1022.12 1022.12 1022.12 1022.12 1022.12 1022.12 1000 1022.12 1022.12 1022.12 1022.12 1022.12 1022.12 1022.12 1022.12 1022.12 1022.12 1000 1022.12 1022.12 1022.12 1022.12 1022.12 1022.12 1022.12 1022.12 1022.12 1022.12 1000 1022.12 1022.12 1022.12 1022.12 1022.12 1022.12 1022.12 1022.12 1022.12 1022.12 1000 1022.12 1022.12 1022.12 1022.12 1022.12 1022.12 1022.12 1022.12 1022.12 1022.12 1000 1022.12 1022.12 1022.12 1022.12 1022.12 1022.12 1022.12 1022.12 1022.12 1022.12 1000 1022.12 1022.12 1022.12 1022.12 1022.12 1022.12 1022.12 1022.12 1022.12 1022.12 1000 1022.12 1022.12 1022.12 1022.12 1022.12 1022.12 1022.12 1022.12 1022.12 1022.12 1000 1022.12 1022.12 1022.12 1022.12 1022.12 1022.12 1022.12 1022.12 1022.12 1022.12 1000 1022.12 1022.12 1022.12 1022.12 1022.12 1022.12 1022.12 1022.12 1022.12 1022.12 1000 1022.12 1022.12 1022.12 1022.12 1022.12 1022.12 1022.12 1022.12 1022.12 1022.12 1000 1022.12 1022.12 1022.12 1022.12 1022.12 1022.12 1022.12 1022.12 1022.12 1022.12 1000 1022.12 1022.12 1022.12 1022.12 1022.12 1022.12 1022.12 1022.12 1022.12 1022.12 1000 1022.12 1022.12 1022.12 1022.12 1022.12 1022.12 1022.12 1022.12 1022.12 1022.12 1000 1022.12 1022.12 1022.12 1022.12 1022.12 1022.12 1022.12 1022.12 1022.12 1022.12 1000 1022.12 1022.12 1022.12 1022.12 1022.12 1022.12 1022.12 1022.12 1022.12 1022.12 1000 1022.12 1022.12 1022.12 1022.12 1022.12 1022.12 1022.12 1022.12 1022.12 1022.12 1000 1022.12 1022.12 1022.12 1022.12 1022.12 1022.12 1022.12 1022.12 1022.12 1022.12 1000 1022.12 1022.12 1022.12 1022.12 1022.12 1022.12 1022.12 1022.12 1022.12 1022.12 1000 1022.12 1022.12 1022.12 1022.12 1022.12 1022.12 1022.12 1022.12 1022.12 1022.12 1000 1022.12 1022.12 1022.12 1022.12 1022.12 1022.12 1022.12 1022.12 1022.12 1022.12 1000 1022.12 1022.12 1022.12 1022.12 1022.12 1022.12 1022.12 1022.12 1022.12 1022.12 1000 1022.12 1022.12 1022.12 1022.12 1022.12 1022.12 1022.12 1022.12 1022.12 1022.12 1000 1022.12 1022.12 1022.12 1022.12 1022.12 1022.12 1022.12 1022.12 1022.12 1022.12 1000 1022.12 1022.12 1022.12 1022.12 1022.12 1022.12 1022.12 1022.12 1022.12 1022.12 1000 1022.12 1022.12 1022.12 1022.12 1022.12 1022.12 1022.12 1022.12 1022.12 1022.12 1000 1022.12 1022.12 1022.12 1022.12 1022.12 1022.12 1022.12 1022.12 1022.12 1022.12 1000 1022.12 1022.12 1022.12 1022.12 1022.12 1022.12 1022.12 1022.12 1022.12 1022.12 1000 1022.12 1022.12 1022.12 1022.12 1022.12 1022.12 1022.12 1022.12 1022.12 1022.12 1000 1022.12 1022.12 1022.12 1022.12 1022.12 1022.12 1022.12 1022.12 1022.12 1022.12 1000 1022.12 1022.12 1022.12 1022.12 1022.12 1022.12 1022.12 1022.12 1022.12 1022.12 1000 1022.12 1022.12 1022.12 1022.12 1022.12 1022.12 1022.12 1022.12 1022.12 1022.12 1000 1022.12 1022.12 1022.12 1022.12 1022.12 1022.12 1022.12 1022.12 1022.12 1022.12 1000 1022.12 1022.12 1022.12 1022.12 1022.12 1022.12 1022.12 1022.12 1022.12 1022.12 1000 1022.12 1022.12 1022.12 1022.12 1022.12 1022.12 1022.12 1022.12 1022.12 1022.12 1000 1022.12 1022.12 1022.12 1022.12 1022.12 1022.12 1022.12 1022.12 1022.12 1022.12 1000 1022.12 1022.12 1022.12 1022.12 1022.12 1022.12 1022.12 1022.12 1022.12 1022.12 1000 1022.12 1022.12 1022.12 1022.12 1022.12 1022.12 1022.12 1022.12 1022.12 1022.12 1000 1022.12 1022.12 1022.12 1022.12 1022.12 1022.12 1022.12 1022.12 1022.12 1022.12 1000 1022.12 1022.12 1022.12 1022.12 1022.12 1022.12 
            </DataArray>
         </PointData> 
      </Piece>
   </UnstructuredGrid> 
</VTKFile>
