<?xml version="1.0"?>
<VTKFile type="UnstructuredGrid" version="0.1" byte_order="LittleEndian">
   <UnstructuredGrid>
      <Piece NumberOfPoints="2000" NumberOfCells="0" > 
         <Points> 
            <DataArray type="Float64" Name="Position" NumberOfComponents="3" format="ascii"> 
               50  150  -9.5  
               50  150  -8.5  
               50  150  -7.5  
               50  150  -6.5  
               50  150  -5.5  
               50  150  -4.5  
               50  150  -3.5  
               50  150  -2.5  
               50  150  -1.5  
               50  150  -0.5  
               150  150  -9.5  
               150  150  -8.5  
               150  150  -7.5  
               150  150  -6.5  
               150  150  -5.5  
               150  150  -4.5  
               150  150  -3.5  
               150  150  -2.5  
               150  150  -1.5  
               150  150  -0.5  
               50  250  -9.5  
               50  250  -8.5  
               50  250  -7.5  
               50  250  -6.5  
               50  250  -5.5  
               50  250  -4.5  
               50  250  -3.5  
               50  250  -2.5  
               50  250  -1.5  
               50  250  -0.5  
               250  150  -9.5  
               250  150  -8.5  
               250  150  -7.5  
               250  150  -6.5  
               250  150  -5.5  
               250  150  -4.5  
               250  150  -3.5  
               250  150  -2.5  
               250  150  -1.5  
               250  150  -0.5  
               150  250  -9.53  
               150  250  -8.59  
               150  250  -7.65  
               150  250  -6.71001  
               150  250  -5.77001  
               150  250  -4.83001  
               150  250  -3.89001  
               150  250  -2.95001  
               150  250  -2.01001  
               150  250  -1.07001  
               50  350  -9.5  
               50  350  -8.5  
               50  350  -7.5  
               50  350  -6.5  
               50  350  -5.5  
               50  350  -4.5  
               50  350  -3.5  
               50  350  -2.5  
               50  350  -1.5  
               50  350  -0.5  
               350  150  -9.5  
               350  150  -8.5  
               350  150  -7.5  
               350  150  -6.5  
               350  150  -5.5  
               350  150  -4.5  
               350  150  -3.5  
               350  150  -2.5  
               350  150  -1.5  
               350  150  -0.5  
               250  250  -9.53  
               250  250  -8.59  
               250  250  -7.65  
               250  250  -6.71  
               250  250  -5.77  
               250  250  -4.83  
               250  250  -3.89  
               250  250  -2.95  
               250  250  -2.01  
               250  250  -1.07  
               150  350  -9.53  
               150  350  -8.59  
               150  350  -7.65  
               150  350  -6.71  
               150  350  -5.77  
               150  350  -4.83  
               150  350  -3.89  
               150  350  -2.95  
               150  350  -2.01  
               150  350  -1.07  
               50  450  -9.5  
               50  450  -8.5  
               50  450  -7.5  
               50  450  -6.5  
               50  450  -5.5  
               50  450  -4.5  
               50  450  -3.5  
               50  450  -2.5  
               50  450  -1.5  
               50  450  -0.5  
               450  150  -9.5  
               450  150  -8.5  
               450  150  -7.5  
               450  150  -6.5  
               450  150  -5.5  
               450  150  -4.5  
               450  150  -3.5  
               450  150  -2.5  
               450  150  -1.5  
               450  150  -0.5  
               350  250  -9.53  
               350  250  -8.59  
               350  250  -7.65  
               350  250  -6.71  
               350  250  -5.77  
               350  250  -4.83  
               350  250  -3.89  
               350  250  -2.95  
               350  250  -2.01  
               350  250  -1.06999  
               250  350  -9.53  
               250  350  -8.59  
               250  350  -7.65  
               250  350  -6.71  
               250  350  -5.77  
               250  350  -4.83  
               250  350  -3.89  
               250  350  -2.95  
               250  350  -2.01  
               250  350  -1.07  
               150  450  -9.53  
               150  450  -8.59  
               150  450  -7.65  
               150  450  -6.71  
               150  450  -5.77  
               150  450  -4.83  
               150  450  -3.89  
               150  450  -2.95  
               150  450  -2.01  
               150  450  -1.07  
               50  550  -9.5  
               50  550  -8.5  
               50  550  -7.5  
               50  550  -6.5  
               50  550  -5.5  
               50  550  -4.5  
               50  550  -3.5  
               50  550  -2.5  
               50  550  -1.5  
               50  550  -0.5  
               550  150  -9.5  
               550  150  -8.5  
               550  150  -7.5  
               550  150  -6.5  
               550  150  -5.5  
               550  150  -4.5  
               550  150  -3.5  
               550  150  -2.5  
               550  150  -1.5  
               550  150  -0.5  
               450  250  -9.53  
               450  250  -8.59  
               450  250  -7.65  
               450  250  -6.71  
               450  250  -5.77  
               450  250  -4.83  
               450  250  -3.89  
               450  250  -2.95  
               450  250  -2.01  
               450  250  -1.07  
               350  350  -9.53  
               350  350  -8.59  
               350  350  -7.65  
               350  350  -6.71  
               350  350  -5.77  
               350  350  -4.83  
               350  350  -3.89  
               350  350  -2.95  
               350  350  -2.01  
               350  350  -1.07  
               250  450  -9.53  
               250  450  -8.59  
               250  450  -7.65  
               250  450  -6.71  
               250  450  -5.77  
               250  450  -4.83  
               250  450  -3.89  
               250  450  -2.95  
               250  450  -2.01  
               250  450  -1.07  
               150  550  -9.5  
               150  550  -8.5  
               150  550  -7.5  
               150  550  -6.5  
               150  550  -5.5  
               150  550  -4.5  
               150  550  -3.5  
               150  550  -2.5  
               150  550  -1.5  
               150  550  -0.5  
               50  650  -9.5  
               50  650  -8.5  
               50  650  -7.5  
               50  650  -6.5  
               50  650  -5.5  
               50  650  -4.5  
               50  650  -3.5  
               50  650  -2.5  
               50  650  -1.5  
               50  650  -0.5  
               650  150  -9.5  
               650  150  -8.5  
               650  150  -7.5  
               650  150  -6.5  
               650  150  -5.5  
               650  150  -4.5  
               650  150  -3.5  
               650  150  -2.5  
               650  150  -1.5  
               650  150  -0.5  
               550  250  -9.5  
               550  250  -8.5  
               550  250  -7.5  
               550  250  -6.5  
               550  250  -5.5  
               550  250  -4.5  
               550  250  -3.5  
               550  250  -2.5  
               550  250  -1.5  
               550  250  -0.5  
               450  350  -9.53  
               450  350  -8.59  
               450  350  -7.65  
               450  350  -6.71  
               450  350  -5.77  
               450  350  -4.83  
               450  350  -3.89  
               450  350  -2.95  
               450  350  -2.01  
               450  350  -1.07  
               350  450  -9.53  
               350  450  -8.59  
               350  450  -7.65  
               350  450  -6.71  
               350  450  -5.77  
               350  450  -4.83  
               350  450  -3.89  
               350  450  -2.95  
               350  450  -2.01  
               350  450  -1.07  
               250  550  -9.5  
               250  550  -8.5  
               250  550  -7.5  
               250  550  -6.5  
               250  550  -5.5  
               250  550  -4.5  
               250  550  -3.5  
               250  550  -2.5  
               250  550  -1.5  
               250  550  -0.5  
               150  650  -9.5  
               150  650  -8.5  
               150  650  -7.5  
               150  650  -6.5  
               150  650  -5.5  
               150  650  -4.5  
               150  650  -3.5  
               150  650  -2.5  
               150  650  -1.5  
               150  650  -0.5  
               50  750  -9.5  
               50  750  -8.5  
               50  750  -7.5  
               50  750  -6.5  
               50  750  -5.5  
               50  750  -4.5  
               50  750  -3.5  
               50  750  -2.5  
               50  750  -1.5  
               50  750  -0.5  
               750  150  -9.5  
               750  150  -8.5  
               750  150  -7.5  
               750  150  -6.5  
               750  150  -5.5  
               750  150  -4.5  
               750  150  -3.5  
               750  150  -2.5  
               750  150  -1.5  
               750  150  -0.5  
               650  250  -9.5  
               650  250  -8.5  
               650  250  -7.5  
               650  250  -6.5  
               650  250  -5.5  
               650  250  -4.5  
               650  250  -3.5  
               650  250  -2.5  
               650  250  -1.5  
               650  250  -0.5  
               550  350  -9.5  
               550  350  -8.5  
               550  350  -7.5  
               550  350  -6.5  
               550  350  -5.5  
               550  350  -4.5  
               550  350  -3.5  
               550  350  -2.5  
               550  350  -1.5  
               550  350  -0.5  
               450  450  -9.53  
               450  450  -8.59  
               450  450  -7.65  
               450  450  -6.71  
               450  450  -5.77  
               450  450  -4.83  
               450  450  -3.89  
               450  450  -2.95  
               450  450  -2.01  
               450  450  -1.07  
               350  550  -9.5  
               350  550  -8.5  
               350  550  -7.5  
               350  550  -6.5  
               350  550  -5.5  
               350  550  -4.5  
               350  550  -3.5  
               350  550  -2.5  
               350  550  -1.5  
               350  550  -0.5  
               250  650  -9.5  
               250  650  -8.5  
               250  650  -7.5  
               250  650  -6.5  
               250  650  -5.5  
               250  650  -4.5  
               250  650  -3.5  
               250  650  -2.5  
               250  650  -1.5  
               250  650  -0.5  
               150  750  -9.5  
               150  750  -8.5  
               150  750  -7.5  
               150  750  -6.5  
               150  750  -5.5  
               150  750  -4.5  
               150  750  -3.5  
               150  750  -2.5  
               150  750  -1.5  
               150  750  -0.5  
               50  850  -9.5  
               50  850  -8.5  
               50  850  -7.5  
               50  850  -6.5  
               50  850  -5.5  
               50  850  -4.5  
               50  850  -3.5  
               50  850  -2.5  
               50  850  -1.5  
               50  850  -0.5  
               850  150  -9.5  
               850  150  -8.5  
               850  150  -7.5  
               850  150  -6.5  
               850  150  -5.5  
               850  150  -4.5  
               850  150  -3.5  
               850  150  -2.5  
               850  150  -1.5  
               850  150  -0.5  
               750  250  -9.5  
               750  250  -8.5  
               750  250  -7.5  
               750  250  -6.5  
               750  250  -5.5  
               750  250  -4.5  
               750  250  -3.5  
               750  250  -2.5  
               750  250  -1.5  
               750  250  -0.5  
               650  350  -9.5  
               650  350  -8.5  
               650  350  -7.5  
               650  350  -6.5  
               650  350  -5.5  
               650  350  -4.5  
               650  350  -3.5  
               650  350  -2.5  
               650  350  -1.5  
               650  350  -0.5  
               550  450  -9.5  
               550  450  -8.5  
               550  450  -7.5  
               550  450  -6.5  
               550  450  -5.5  
               550  450  -4.5  
               550  450  -3.5  
               550  450  -2.5  
               550  450  -1.5  
               550  450  -0.5  
               450  550  -9.5  
               450  550  -8.5  
               450  550  -7.5  
               450  550  -6.5  
               450  550  -5.5  
               450  550  -4.5  
               450  550  -3.5  
               450  550  -2.5  
               450  550  -1.5  
               450  550  -0.5  
               350  650  -9.5  
               350  650  -8.5  
               350  650  -7.5  
               350  650  -6.5  
               350  650  -5.5  
               350  650  -4.5  
               350  650  -3.5  
               350  650  -2.5  
               350  650  -1.5  
               350  650  -0.5  
               250  750  -9.5  
               250  750  -8.5  
               250  750  -7.5  
               250  750  -6.5  
               250  750  -5.5  
               250  750  -4.5  
               250  750  -3.5  
               250  750  -2.5  
               250  750  -1.5  
               250  750  -0.5  
               150  850  -9.5  
               150  850  -8.5  
               150  850  -7.5  
               150  850  -6.5  
               150  850  -5.5  
               150  850  -4.5  
               150  850  -3.5  
               150  850  -2.5  
               150  850  -1.5  
               150  850  -0.5  
               50  950  -9.5  
               50  950  -8.5  
               50  950  -7.5  
               50  950  -6.5  
               50  950  -5.5  
               50  950  -4.5  
               50  950  -3.5  
               50  950  -2.5  
               50  950  -1.5  
               50  950  -0.5  
               950  150  -9.5  
               950  150  -8.5  
               950  150  -7.5  
               950  150  -6.5  
               950  150  -5.5  
               950  150  -4.5  
               950  150  -3.5  
               950  150  -2.5  
               950  150  -1.5  
               950  150  -0.5  
               850  250  -9.5  
               850  250  -8.5  
               850  250  -7.5  
               850  250  -6.5  
               850  250  -5.5  
               850  250  -4.5  
               850  250  -3.5  
               850  250  -2.5  
               850  250  -1.5  
               850  250  -0.5  
               750  350  -9.5  
               750  350  -8.5  
               750  350  -7.5  
               750  350  -6.5  
               750  350  -5.5  
               750  350  -4.5  
               750  350  -3.5  
               750  350  -2.5  
               750  350  -1.5  
               750  350  -0.5  
               650  450  -9.5  
               650  450  -8.5  
               650  450  -7.5  
               650  450  -6.5  
               650  450  -5.5  
               650  450  -4.5  
               650  450  -3.5  
               650  450  -2.5  
               650  450  -1.5  
               650  450  -0.5  
               550  550  -9.5  
               550  550  -8.5  
               550  550  -7.5  
               550  550  -6.5  
               550  550  -5.5  
               550  550  -4.5  
               550  550  -3.5  
               550  550  -2.5  
               550  550  -1.5  
               550  550  -0.5  
               450  650  -9.5  
               450  650  -8.5  
               450  650  -7.5  
               450  650  -6.5  
               450  650  -5.5  
               450  650  -4.5  
               450  650  -3.5  
               450  650  -2.5  
               450  650  -1.5  
               450  650  -0.5  
               350  750  -9.5  
               350  750  -8.5  
               350  750  -7.5  
               350  750  -6.5  
               350  750  -5.5  
               350  750  -4.5  
               350  750  -3.5  
               350  750  -2.5  
               350  750  -1.5  
               350  750  -0.5  
               250  850  -9.5  
               250  850  -8.5  
               250  850  -7.5  
               250  850  -6.5  
               250  850  -5.5  
               250  850  -4.5  
               250  850  -3.5  
               250  850  -2.5  
               250  850  -1.5  
               250  850  -0.5  
               150  950  -9.5  
               150  950  -8.5  
               150  950  -7.5  
               150  950  -6.5  
               150  950  -5.5  
               150  950  -4.5  
               150  950  -3.5  
               150  950  -2.5  
               150  950  -1.5  
               150  950  -0.5  
               50  1050  -9.5  
               50  1050  -8.5  
               50  1050  -7.5  
               50  1050  -6.5  
               50  1050  -5.5  
               50  1050  -4.5  
               50  1050  -3.5  
               50  1050  -2.5  
               50  1050  -1.5  
               50  1050  -0.5  
               1050  150  -9.5  
               1050  150  -8.5  
               1050  150  -7.5  
               1050  150  -6.5  
               1050  150  -5.5  
               1050  150  -4.5  
               1050  150  -3.5  
               1050  150  -2.5  
               1050  150  -1.5  
               1050  150  -0.5  
               950  250  -9.48494  
               950  250  -8.45483  
               950  250  -7.42472  
               950  250  -6.39461  
               950  250  -5.36449  
               950  250  -4.33438  
               950  250  -3.30427  
               950  250  -2.27416  
               950  250  -1.24404  
               950  250  -0.213932  
               850  350  -9.5  
               850  350  -8.5  
               850  350  -7.5  
               850  350  -6.5  
               850  350  -5.5  
               850  350  -4.5  
               850  350  -3.5  
               850  350  -2.5  
               850  350  -1.5  
               850  350  -0.499999  
               750  450  -9.5  
               750  450  -8.5  
               750  450  -7.5  
               750  450  -6.5  
               750  450  -5.5  
               750  450  -4.5  
               750  450  -3.5  
               750  450  -2.5  
               750  450  -1.5  
               750  450  -0.5  
               650  550  -9.5  
               650  550  -8.5  
               650  550  -7.5  
               650  550  -6.5  
               650  550  -5.5  
               650  550  -4.5  
               650  550  -3.5  
               650  550  -2.5  
               650  550  -1.5  
               650  550  -0.5  
               550  650  -9.5  
               550  650  -8.5  
               550  650  -7.5  
               550  650  -6.5  
               550  650  -5.5  
               550  650  -4.5  
               550  650  -3.5  
               550  650  -2.5  
               550  650  -1.5  
               550  650  -0.5  
               450  750  -9.5  
               450  750  -8.5  
               450  750  -7.5  
               450  750  -6.5  
               450  750  -5.5  
               450  750  -4.5  
               450  750  -3.5  
               450  750  -2.5  
               450  750  -1.5  
               450  750  -0.5  
               350  850  -9.5  
               350  850  -8.5  
               350  850  -7.5  
               350  850  -6.5  
               350  850  -5.5  
               350  850  -4.5  
               350  850  -3.5  
               350  850  -2.5  
               350  850  -1.5  
               350  850  -0.5  
               250  950  -9.5  
               250  950  -8.5  
               250  950  -7.5  
               250  950  -6.5  
               250  950  -5.5  
               250  950  -4.5  
               250  950  -3.5  
               250  950  -2.5  
               250  950  -1.5  
               250  950  -0.5  
               150  1050  -9.5  
               150  1050  -8.5  
               150  1050  -7.5  
               150  1050  -6.5  
               150  1050  -5.5  
               150  1050  -4.5  
               150  1050  -3.5  
               150  1050  -2.5  
               150  1050  -1.5  
               150  1050  -0.5  
               1150  150  -9.5  
               1150  150  -8.5  
               1150  150  -7.5  
               1150  150  -6.5  
               1150  150  -5.5  
               1150  150  -4.5  
               1150  150  -3.5  
               1150  150  -2.5  
               1150  150  -1.5  
               1150  150  -0.5  
               1050  250  -9.48498  
               1050  250  -8.45493  
               1050  250  -7.42489  
               1050  250  -6.39484  
               1050  250  -5.36479  
               1050  250  -4.33475  
               1050  250  -3.3047  
               1050  250  -2.27466  
               1050  250  -1.24461  
               1050  250  -0.214567  
               950  350  -9.48492  
               950  350  -8.45477  
               950  350  -7.42462  
               950  350  -6.39446  
               950  350  -5.36431  
               950  350  -4.33415  
               950  350  -3.304  
               950  350  -2.27385  
               950  350  -1.24369  
               950  350  -0.213539  
               850  450  -9.5  
               850  450  -8.5  
               850  450  -7.5  
               850  450  -6.5  
               850  450  -5.5  
               850  450  -4.5  
               850  450  -3.5  
               850  450  -2.5  
               850  450  -1.5  
               850  450  -0.5  
               750  550  -9.5  
               750  550  -8.5  
               750  550  -7.5  
               750  550  -6.5  
               750  550  -5.5  
               750  550  -4.5  
               750  550  -3.5  
               750  550  -2.5  
               750  550  -1.5  
               750  550  -0.5  
               650  650  -9.5  
               650  650  -8.5  
               650  650  -7.5  
               650  650  -6.5  
               650  650  -5.5  
               650  650  -4.5  
               650  650  -3.5  
               650  650  -2.5  
               650  650  -1.5  
               650  650  -0.5  
               550  750  -9.5  
               550  750  -8.5  
               550  750  -7.5  
               550  750  -6.5  
               550  750  -5.5  
               550  750  -4.5  
               550  750  -3.5  
               550  750  -2.5  
               550  750  -1.5  
               550  750  -0.5  
               450  850  -9.5  
               450  850  -8.5  
               450  850  -7.5  
               450  850  -6.5  
               450  850  -5.5  
               450  850  -4.5  
               450  850  -3.5  
               450  850  -2.5  
               450  850  -1.5  
               450  850  -0.5  
               350  950  -9.5  
               350  950  -8.5  
               350  950  -7.5  
               350  950  -6.5  
               350  950  -5.5  
               350  950  -4.5  
               350  950  -3.5  
               350  950  -2.5  
               350  950  -1.5  
               350  950  -0.5  
               250  1050  -9.5  
               250  1050  -8.5  
               250  1050  -7.5  
               250  1050  -6.5  
               250  1050  -5.5  
               250  1050  -4.5  
               250  1050  -3.5  
               250  1050  -2.5  
               250  1050  -1.5  
               250  1050  -0.5  
               1250  150  -9.5  
               1250  150  -8.5  
               1250  150  -7.5  
               1250  150  -6.5  
               1250  150  -5.5  
               1250  150  -4.5  
               1250  150  -3.5  
               1250  150  -2.5  
               1250  150  -1.5  
               1250  150  -0.5  
               1150  250  -9.48502  
               1150  250  -8.45505  
               1150  250  -7.42508  
               1150  250  -6.39511  
               1150  250  -5.36514  
               1150  250  -4.33518  
               1150  250  -3.30521  
               1150  250  -2.27524  
               1150  250  -1.24527  
               1150  250  -0.215303  
               1050  350  -9.48501  
               1050  350  -8.45503  
               1050  350  -7.42505  
               1050  350  -6.39507  
               1050  350  -5.36509  
               1050  350  -4.33511  
               1050  350  -3.30513  
               1050  350  -2.27515  
               1050  350  -1.24517  
               1050  350  -0.215194  
               950  450  -9.48494  
               950  450  -8.45483  
               950  450  -7.42472  
               950  450  -6.39461  
               950  450  -5.36449  
               950  450  -4.33438  
               950  450  -3.30427  
               950  450  -2.27416  
               950  450  -1.24404  
               950  450  -0.213932  
               850  550  -9.5  
               850  550  -8.5  
               850  550  -7.5  
               850  550  -6.5  
               850  550  -5.5  
               850  550  -4.5  
               850  550  -3.5  
               850  550  -2.5  
               850  550  -1.5  
               850  550  -0.5  
               750  650  -9.5  
               750  650  -8.5  
               750  650  -7.5  
               750  650  -6.5  
               750  650  -5.5  
               750  650  -4.5  
               750  650  -3.5  
               750  650  -2.5  
               750  650  -1.5  
               750  650  -0.5  
               650  750  -9.5  
               650  750  -8.5  
               650  750  -7.5  
               650  750  -6.5  
               650  750  -5.5  
               650  750  -4.5  
               650  750  -3.5  
               650  750  -2.5  
               650  750  -1.5  
               650  750  -0.5  
               550  850  -9.5  
               550  850  -8.5  
               550  850  -7.5  
               550  850  -6.5  
               550  850  -5.5  
               550  850  -4.5  
               550  850  -3.5  
               550  850  -2.5  
               550  850  -1.5  
               550  850  -0.5  
               450  950  -9.5  
               450  950  -8.5  
               450  950  -7.5  
               450  950  -6.5  
               450  950  -5.5  
               450  950  -4.5  
               450  950  -3.5  
               450  950  -2.5  
               450  950  -1.5  
               450  950  -0.5  
               350  1050  -9.5  
               350  1050  -8.5  
               350  1050  -7.5  
               350  1050  -6.5  
               350  1050  -5.5  
               350  1050  -4.5  
               350  1050  -3.5  
               350  1050  -2.5  
               350  1050  -1.5  
               350  1050  -0.5  
               1350  150  -9.5  
               1350  150  -8.5  
               1350  150  -7.5  
               1350  150  -6.5  
               1350  150  -5.5  
               1350  150  -4.5  
               1350  150  -3.5  
               1350  150  -2.5  
               1350  150  -1.5  
               1350  150  -0.5  
               1250  250  -9.48505  
               1250  250  -8.45515  
               1250  250  -7.42525  
               1250  250  -6.39534  
               1250  250  -5.36544  
               1250  250  -4.33554  
               1250  250  -3.30564  
               1250  250  -2.27574  
               1250  250  -1.24584  
               1250  250  -0.215936  
               1150  350  -9.48504  
               1150  350  -8.45511  
               1150  350  -7.42518  
               1150  350  -6.39526  
               1150  350  -5.36533  
               1150  350  -4.3354  
               1150  350  -3.30548  
               1150  350  -2.27555  
               1150  350  -1.24562  
               1150  350  -0.215697  
               1050  450  -9.48498  
               1050  450  -8.45493  
               1050  450  -7.42489  
               1050  450  -6.39484  
               1050  450  -5.36479  
               1050  450  -4.33475  
               1050  450  -3.3047  
               1050  450  -2.27466  
               1050  450  -1.24461  
               1050  450  -0.214567  
               950  550  -9.5  
               950  550  -8.5  
               950  550  -7.5  
               950  550  -6.5  
               950  550  -5.5  
               950  550  -4.5  
               950  550  -3.5  
               950  550  -2.5  
               950  550  -1.5  
               950  550  -0.499999  
               850  650  -9.5  
               850  650  -8.5  
               850  650  -7.5  
               850  650  -6.5  
               850  650  -5.5  
               850  650  -4.5  
               850  650  -3.5  
               850  650  -2.5  
               850  650  -1.5  
               850  650  -0.5  
               750  750  -9.5  
               750  750  -8.5  
               750  750  -7.5  
               750  750  -6.5  
               750  750  -5.5  
               750  750  -4.5  
               750  750  -3.5  
               750  750  -2.5  
               750  750  -1.5  
               750  750  -0.5  
               650  850  -9.5  
               650  850  -8.5  
               650  850  -7.5  
               650  850  -6.5  
               650  850  -5.5  
               650  850  -4.5  
               650  850  -3.5  
               650  850  -2.5  
               650  850  -1.5  
               650  850  -0.5  
               550  950  -9.5  
               550  950  -8.5  
               550  950  -7.5  
               550  950  -6.5  
               550  950  -5.5  
               550  950  -4.5  
               550  950  -3.5  
               550  950  -2.5  
               550  950  -1.5  
               550  950  -0.5  
               450  1050  -9.5  
               450  1050  -8.5  
               450  1050  -7.5  
               450  1050  -6.5  
               450  1050  -5.5  
               450  1050  -4.5  
               450  1050  -3.5  
               450  1050  -2.5  
               450  1050  -1.5  
               450  1050  -0.5  
               1450  150  -9.5  
               1450  150  -8.5  
               1450  150  -7.5  
               1450  150  -6.5  
               1450  150  -5.5  
               1450  150  -4.5  
               1450  150  -3.5  
               1450  150  -2.5  
               1450  150  -1.5  
               1450  150  -0.5  
               1350  250  -9.5  
               1350  250  -8.5  
               1350  250  -7.5  
               1350  250  -6.5  
               1350  250  -5.5  
               1350  250  -4.5  
               1350  250  -3.5  
               1350  250  -2.5  
               1350  250  -1.5  
               1350  250  -0.5  
               1250  350  -9.48506  
               1250  350  -8.45517  
               1250  350  -7.42529  
               1250  350  -6.3954  
               1250  350  -5.36552  
               1250  350  -4.33563  
               1250  350  -3.30575  
               1250  350  -2.27586  
               1250  350  -1.24598  
               1250  350  -0.216094  
               1150  450  -9.48502  
               1150  450  -8.45505  
               1150  450  -7.42508  
               1150  450  -6.39511  
               1150  450  -5.36514  
               1150  450  -4.33518  
               1150  450  -3.30521  
               1150  450  -2.27524  
               1150  450  -1.24527  
               1150  450  -0.215303  
               1050  550  -9.5  
               1050  550  -8.5  
               1050  550  -7.5  
               1050  550  -6.5  
               1050  550  -5.5  
               1050  550  -4.5  
               1050  550  -3.5  
               1050  550  -2.5  
               1050  550  -1.5  
               1050  550  -0.5  
               950  650  -9.5  
               950  650  -8.5  
               950  650  -7.5  
               950  650  -6.5  
               950  650  -5.5  
               950  650  -4.5  
               950  650  -3.5  
               950  650  -2.5  
               950  650  -1.5  
               950  650  -0.500001  
               850  750  -9.5  
               850  750  -8.5  
               850  750  -7.5  
               850  750  -6.5  
               850  750  -5.5  
               850  750  -4.5  
               850  750  -3.5  
               850  750  -2.5  
               850  750  -1.5  
               850  750  -0.5  
               750  850  -9.5  
               750  850  -8.5  
               750  850  -7.5  
               750  850  -6.5  
               750  850  -5.5  
               750  850  -4.5  
               750  850  -3.5  
               750  850  -2.5  
               750  850  -1.5  
               750  850  -0.5  
               650  950  -9.5  
               650  950  -8.5  
               650  950  -7.5  
               650  950  -6.5  
               650  950  -5.5  
               650  950  -4.5  
               650  950  -3.5  
               650  950  -2.5  
               650  950  -1.5  
               650  950  -0.5  
               550  1050  -9.5  
               550  1050  -8.5  
               550  1050  -7.5  
               550  1050  -6.5  
               550  1050  -5.5  
               550  1050  -4.5  
               550  1050  -3.5  
               550  1050  -2.5  
               550  1050  -1.5  
               550  1050  -0.5  
               1550  150  -9.5  
               1550  150  -8.5  
               1550  150  -7.5  
               1550  150  -6.5  
               1550  150  -5.5  
               1550  150  -4.5  
               1550  150  -3.5  
               1550  150  -2.5  
               1550  150  -1.5  
               1550  150  -0.5  
               1450  250  -9.5  
               1450  250  -8.5  
               1450  250  -7.5  
               1450  250  -6.5  
               1450  250  -5.5  
               1450  250  -4.5  
               1450  250  -3.5  
               1450  250  -2.5  
               1450  250  -1.5  
               1450  250  -0.5  
               1350  350  -9.5  
               1350  350  -8.5  
               1350  350  -7.5  
               1350  350  -6.5  
               1350  350  -5.5  
               1350  350  -4.5  
               1350  350  -3.5  
               1350  350  -2.5  
               1350  350  -1.5  
               1350  350  -0.5  
               1250  450  -9.48505  
               1250  450  -8.45515  
               1250  450  -7.42525  
               1250  450  -6.39534  
               1250  450  -5.36544  
               1250  450  -4.33554  
               1250  450  -3.30564  
               1250  450  -2.27574  
               1250  450  -1.24584  
               1250  450  -0.215936  
               1150  550  -9.5  
               1150  550  -8.5  
               1150  550  -7.5  
               1150  550  -6.5  
               1150  550  -5.5  
               1150  550  -4.5  
               1150  550  -3.5  
               1150  550  -2.5  
               1150  550  -1.5  
               1150  550  -0.500001  
               1050  650  -9.5  
               1050  650  -8.5  
               1050  650  -7.5  
               1050  650  -6.5  
               1050  650  -5.5  
               1050  650  -4.5  
               1050  650  -3.5  
               1050  650  -2.5  
               1050  650  -1.5  
               1050  650  -0.5  
               950  750  -9.5  
               950  750  -8.5  
               950  750  -7.5  
               950  750  -6.5  
               950  750  -5.5  
               950  750  -4.5  
               950  750  -3.5  
               950  750  -2.5  
               950  750  -1.5  
               950  750  -0.5  
               850  850  -9.5  
               850  850  -8.5  
               850  850  -7.5  
               850  850  -6.5  
               850  850  -5.5  
               850  850  -4.5  
               850  850  -3.5  
               850  850  -2.5  
               850  850  -1.5  
               850  850  -0.5  
               750  950  -9.5  
               750  950  -8.5  
               750  950  -7.5  
               750  950  -6.5  
               750  950  -5.5  
               750  950  -4.5  
               750  950  -3.5  
               750  950  -2.5  
               750  950  -1.5  
               750  950  -0.5  
               650  1050  -9.5  
               650  1050  -8.5  
               650  1050  -7.5  
               650  1050  -6.5  
               650  1050  -5.5  
               650  1050  -4.5  
               650  1050  -3.5  
               650  1050  -2.5  
               650  1050  -1.5  
               650  1050  -0.5  
               1650  150  -9.5  
               1650  150  -8.5  
               1650  150  -7.5  
               1650  150  -6.5  
               1650  150  -5.5  
               1650  150  -4.5  
               1650  150  -3.5  
               1650  150  -2.5  
               1650  150  -1.5  
               1650  150  -0.5  
               1550  250  -9.5  
               1550  250  -8.5  
               1550  250  -7.5  
               1550  250  -6.5  
               1550  250  -5.5  
               1550  250  -4.5  
               1550  250  -3.5  
               1550  250  -2.5  
               1550  250  -1.5  
               1550  250  -0.5  
               1450  350  -9.5  
               1450  350  -8.5  
               1450  350  -7.5  
               1450  350  -6.5  
               1450  350  -5.5  
               1450  350  -4.5  
               1450  350  -3.5  
               1450  350  -2.5  
               1450  350  -1.5  
               1450  350  -0.5  
               1350  450  -9.5  
               1350  450  -8.5  
               1350  450  -7.5  
               1350  450  -6.5  
               1350  450  -5.5  
               1350  450  -4.5  
               1350  450  -3.5  
               1350  450  -2.5  
               1350  450  -1.5  
               1350  450  -0.5  
               1250  550  -9.5  
               1250  550  -8.5  
               1250  550  -7.5  
               1250  550  -6.5  
               1250  550  -5.5  
               1250  550  -4.5  
               1250  550  -3.5  
               1250  550  -2.5  
               1250  550  -1.5  
               1250  550  -0.500001  
               1150  650  -9.5  
               1150  650  -8.5  
               1150  650  -7.5  
               1150  650  -6.5  
               1150  650  -5.5  
               1150  650  -4.5  
               1150  650  -3.5  
               1150  650  -2.5  
               1150  650  -1.5  
               1150  650  -0.5  
               1050  750  -9.5  
               1050  750  -8.5  
               1050  750  -7.5  
               1050  750  -6.5  
               1050  750  -5.5  
               1050  750  -4.5  
               1050  750  -3.5  
               1050  750  -2.5  
               1050  750  -1.5  
               1050  750  -0.5  
               950  850  -9.5  
               950  850  -8.5  
               950  850  -7.5  
               950  850  -6.5  
               950  850  -5.5  
               950  850  -4.5  
               950  850  -3.5  
               950  850  -2.5  
               950  850  -1.5  
               950  850  -0.5  
               850  950  -9.5  
               850  950  -8.5  
               850  950  -7.5  
               850  950  -6.5  
               850  950  -5.5  
               850  950  -4.5  
               850  950  -3.5  
               850  950  -2.5  
               850  950  -1.5  
               850  950  -0.5  
               750  1050  -9.5  
               750  1050  -8.5  
               750  1050  -7.5  
               750  1050  -6.5  
               750  1050  -5.5  
               750  1050  -4.5  
               750  1050  -3.5  
               750  1050  -2.5  
               750  1050  -1.5  
               750  1050  -0.5  
               1750  150  -9.5  
               1750  150  -8.5  
               1750  150  -7.5  
               1750  150  -6.5  
               1750  150  -5.5  
               1750  150  -4.5  
               1750  150  -3.5  
               1750  150  -2.5  
               1750  150  -1.5  
               1750  150  -0.5  
               1650  250  -9.5  
               1650  250  -8.5  
               1650  250  -7.5  
               1650  250  -6.5  
               1650  250  -5.5  
               1650  250  -4.5  
               1650  250  -3.5  
               1650  250  -2.5  
               1650  250  -1.5  
               1650  250  -0.5  
               1550  350  -9.5  
               1550  350  -8.5  
               1550  350  -7.5  
               1550  350  -6.5  
               1550  350  -5.5  
               1550  350  -4.5  
               1550  350  -3.5  
               1550  350  -2.5  
               1550  350  -1.5  
               1550  350  -0.5  
               1450  450  -9.5  
               1450  450  -8.5  
               1450  450  -7.5  
               1450  450  -6.5  
               1450  450  -5.5  
               1450  450  -4.5  
               1450  450  -3.5  
               1450  450  -2.5  
               1450  450  -1.5  
               1450  450  -0.5  
               1350  550  -9.5  
               1350  550  -8.5  
               1350  550  -7.5  
               1350  550  -6.5  
               1350  550  -5.5  
               1350  550  -4.5  
               1350  550  -3.5  
               1350  550  -2.5  
               1350  550  -1.5  
               1350  550  -0.5  
               1250  650  -9.5  
               1250  650  -8.5  
               1250  650  -7.5  
               1250  650  -6.5  
               1250  650  -5.5  
               1250  650  -4.5  
               1250  650  -3.5  
               1250  650  -2.5  
               1250  650  -1.5  
               1250  650  -0.5  
               1150  750  -9.5  
               1150  750  -8.5  
               1150  750  -7.5  
               1150  750  -6.5  
               1150  750  -5.5  
               1150  750  -4.5  
               1150  750  -3.5  
               1150  750  -2.5  
               1150  750  -1.5  
               1150  750  -0.5  
               1050  850  -9.5  
               1050  850  -8.5  
               1050  850  -7.5  
               1050  850  -6.5  
               1050  850  -5.5  
               1050  850  -4.5  
               1050  850  -3.5  
               1050  850  -2.5  
               1050  850  -1.5  
               1050  850  -0.5  
               950  950  -9.5  
               950  950  -8.5  
               950  950  -7.5  
               950  950  -6.5  
               950  950  -5.5  
               950  950  -4.5  
               950  950  -3.5  
               950  950  -2.5  
               950  950  -1.5  
               950  950  -0.5  
               850  1050  -9.5  
               850  1050  -8.5  
               850  1050  -7.5  
               850  1050  -6.5  
               850  1050  -5.5  
               850  1050  -4.5  
               850  1050  -3.5  
               850  1050  -2.5  
               850  1050  -1.5  
               850  1050  -0.5  
               1850  150  -9.5  
               1850  150  -8.5  
               1850  150  -7.5  
               1850  150  -6.5  
               1850  150  -5.5  
               1850  150  -4.5  
               1850  150  -3.5  
               1850  150  -2.5  
               1850  150  -1.5  
               1850  150  -0.5  
               1750  250  -9.5  
               1750  250  -8.5  
               1750  250  -7.5  
               1750  250  -6.5  
               1750  250  -5.5  
               1750  250  -4.5  
               1750  250  -3.5  
               1750  250  -2.5  
               1750  250  -1.5  
               1750  250  -0.5  
               1650  350  -9.5  
               1650  350  -8.5  
               1650  350  -7.5  
               1650  350  -6.5  
               1650  350  -5.5  
               1650  350  -4.5  
               1650  350  -3.5  
               1650  350  -2.5  
               1650  350  -1.5  
               1650  350  -0.5  
               1550  450  -9.5  
               1550  450  -8.5  
               1550  450  -7.5  
               1550  450  -6.5  
               1550  450  -5.5  
               1550  450  -4.5  
               1550  450  -3.5  
               1550  450  -2.5  
               1550  450  -1.5  
               1550  450  -0.5  
               1450  550  -9.5  
               1450  550  -8.5  
               1450  550  -7.5  
               1450  550  -6.5  
               1450  550  -5.5  
               1450  550  -4.5  
               1450  550  -3.5  
               1450  550  -2.5  
               1450  550  -1.5  
               1450  550  -0.5  
               1350  650  -9.5  
               1350  650  -8.5  
               1350  650  -7.5  
               1350  650  -6.5  
               1350  650  -5.5  
               1350  650  -4.5  
               1350  650  -3.5  
               1350  650  -2.5  
               1350  650  -1.5  
               1350  650  -0.5  
               1250  750  -9.5  
               1250  750  -8.5  
               1250  750  -7.5  
               1250  750  -6.5  
               1250  750  -5.5  
               1250  750  -4.5  
               1250  750  -3.5  
               1250  750  -2.5  
               1250  750  -1.5  
               1250  750  -0.5  
               1150  850  -9.5  
               1150  850  -8.5  
               1150  850  -7.5  
               1150  850  -6.5  
               1150  850  -5.5  
               1150  850  -4.5  
               1150  850  -3.5  
               1150  850  -2.5  
               1150  850  -1.5  
               1150  850  -0.5  
               1050  950  -9.5  
               1050  950  -8.5  
               1050  950  -7.5  
               1050  950  -6.5  
               1050  950  -5.5  
               1050  950  -4.5  
               1050  950  -3.5  
               1050  950  -2.5  
               1050  950  -1.5  
               1050  950  -0.5  
               950  1050  -9.5  
               950  1050  -8.5  
               950  1050  -7.5  
               950  1050  -6.5  
               950  1050  -5.5  
               950  1050  -4.5  
               950  1050  -3.5  
               950  1050  -2.5  
               950  1050  -1.5  
               950  1050  -0.5  
               1950  150  -9.5  
               1950  150  -8.5  
               1950  150  -7.5  
               1950  150  -6.5  
               1950  150  -5.5  
               1950  150  -4.5  
               1950  150  -3.5  
               1950  150  -2.5  
               1950  150  -1.5  
               1950  150  -0.5  
               1850  250  -9.5  
               1850  250  -8.5  
               1850  250  -7.5  
               1850  250  -6.5  
               1850  250  -5.5  
               1850  250  -4.5  
               1850  250  -3.5  
               1850  250  -2.5  
               1850  250  -1.5  
               1850  250  -0.5  
               1750  350  -9.5  
               1750  350  -8.5  
               1750  350  -7.5  
               1750  350  -6.5  
               1750  350  -5.5  
               1750  350  -4.5  
               1750  350  -3.5  
               1750  350  -2.5  
               1750  350  -1.5  
               1750  350  -0.5  
               1650  450  -9.5  
               1650  450  -8.5  
               1650  450  -7.5  
               1650  450  -6.5  
               1650  450  -5.5  
               1650  450  -4.5  
               1650  450  -3.5  
               1650  450  -2.5  
               1650  450  -1.5  
               1650  450  -0.5  
               1550  550  -9.5  
               1550  550  -8.5  
               1550  550  -7.5  
               1550  550  -6.5  
               1550  550  -5.5  
               1550  550  -4.5  
               1550  550  -3.5  
               1550  550  -2.5  
               1550  550  -1.5  
               1550  550  -0.5  
               1450  650  -9.5  
               1450  650  -8.5  
               1450  650  -7.5  
               1450  650  -6.5  
               1450  650  -5.5  
               1450  650  -4.5  
               1450  650  -3.5  
               1450  650  -2.5  
               1450  650  -1.5  
               1450  650  -0.5  
               1350  750  -9.5  
               1350  750  -8.5  
               1350  750  -7.5  
               1350  750  -6.5  
               1350  750  -5.5  
               1350  750  -4.5  
               1350  750  -3.5  
               1350  750  -2.5  
               1350  750  -1.5  
               1350  750  -0.5  
               1250  850  -9.5  
               1250  850  -8.5  
               1250  850  -7.5  
               1250  850  -6.5  
               1250  850  -5.5  
               1250  850  -4.5  
               1250  850  -3.5  
               1250  850  -2.5  
               1250  850  -1.5  
               1250  850  -0.5  
               1150  950  -9.5  
               1150  950  -8.5  
               1150  950  -7.5  
               1150  950  -6.5  
               1150  950  -5.5  
               1150  950  -4.5  
               1150  950  -3.5  
               1150  950  -2.5  
               1150  950  -1.5  
               1150  950  -0.5  
               1050  1050  -9.5  
               1050  1050  -8.5  
               1050  1050  -7.5  
               1050  1050  -6.5  
               1050  1050  -5.5  
               1050  1050  -4.5  
               1050  1050  -3.5  
               1050  1050  -2.5  
               1050  1050  -1.5  
               1050  1050  -0.5  
               1950  250  -9.5  
               1950  250  -8.5  
               1950  250  -7.5  
               1950  250  -6.5  
               1950  250  -5.5  
               1950  250  -4.5  
               1950  250  -3.5  
               1950  250  -2.5  
               1950  250  -1.5  
               1950  250  -0.5  
               1850  350  -9.5  
               1850  350  -8.5  
               1850  350  -7.5  
               1850  350  -6.5  
               1850  350  -5.5  
               1850  350  -4.5  
               1850  350  -3.5  
               1850  350  -2.5  
               1850  350  -1.5  
               1850  350  -0.5  
               1750  450  -9.5  
               1750  450  -8.5  
               1750  450  -7.5  
               1750  450  -6.5  
               1750  450  -5.5  
               1750  450  -4.5  
               1750  450  -3.5  
               1750  450  -2.5  
               1750  450  -1.5  
               1750  450  -0.5  
               1650  550  -9.5  
               1650  550  -8.5  
               1650  550  -7.5  
               1650  550  -6.5  
               1650  550  -5.5  
               1650  550  -4.5  
               1650  550  -3.5  
               1650  550  -2.5  
               1650  550  -1.5  
               1650  550  -0.5  
               1550  650  -9.5  
               1550  650  -8.5  
               1550  650  -7.5  
               1550  650  -6.5  
               1550  650  -5.5  
               1550  650  -4.5  
               1550  650  -3.5  
               1550  650  -2.5  
               1550  650  -1.5  
               1550  650  -0.5  
               1450  750  -9.5  
               1450  750  -8.5  
               1450  750  -7.5  
               1450  750  -6.5  
               1450  750  -5.5  
               1450  750  -4.5  
               1450  750  -3.5  
               1450  750  -2.5  
               1450  750  -1.5  
               1450  750  -0.5  
               1350  850  -9.515  
               1350  850  -8.545  
               1350  850  -7.575  
               1350  850  -6.605  
               1350  850  -5.635  
               1350  850  -4.665  
               1350  850  -3.695  
               1350  850  -2.725  
               1350  850  -1.755  
               1350  850  -0.785  
               1250  950  -9.5  
               1250  950  -8.5  
               1250  950  -7.5  
               1250  950  -6.5  
               1250  950  -5.5  
               1250  950  -4.5  
               1250  950  -3.5  
               1250  950  -2.5  
               1250  950  -1.5  
               1250  950  -0.5  
               1150  1050  -9.5  
               1150  1050  -8.5  
               1150  1050  -7.5  
               1150  1050  -6.5  
               1150  1050  -5.5  
               1150  1050  -4.5  
               1150  1050  -3.5  
               1150  1050  -2.5  
               1150  1050  -1.5  
               1150  1050  -0.5  
               1950  350  -9.5  
               1950  350  -8.5  
               1950  350  -7.5  
               1950  350  -6.5  
               1950  350  -5.5  
               1950  350  -4.5  
               1950  350  -3.5  
               1950  350  -2.5  
               1950  350  -1.5  
               1950  350  -0.5  
               1850  450  -9.5  
               1850  450  -8.5  
               1850  450  -7.5  
               1850  450  -6.5  
               1850  450  -5.5  
               1850  450  -4.5  
               1850  450  -3.5  
               1850  450  -2.5  
               1850  450  -1.5  
               1850  450  -0.5  
               1750  550  -9.5  
               1750  550  -8.5  
               1750  550  -7.5  
               1750  550  -6.5  
               1750  550  -5.5  
               1750  550  -4.5  
               1750  550  -3.5  
               1750  550  -2.5  
               1750  550  -1.5  
               1750  550  -0.5  
               1650  650  -9.5  
               1650  650  -8.5  
               1650  650  -7.5  
               1650  650  -6.5  
               1650  650  -5.5  
               1650  650  -4.5  
               1650  650  -3.5  
               1650  650  -2.5  
               1650  650  -1.5  
               1650  650  -0.5  
               1550  750  -9.5  
               1550  750  -8.5  
               1550  750  -7.5  
               1550  750  -6.5  
               1550  750  -5.5  
               1550  750  -4.5  
               1550  750  -3.5  
               1550  750  -2.5  
               1550  750  -1.5  
               1550  750  -0.5  
               1450  850  -9.515  
               1450  850  -8.545  
               1450  850  -7.575  
               1450  850  -6.605  
               1450  850  -5.635  
               1450  850  -4.665  
               1450  850  -3.695  
               1450  850  -2.725  
               1450  850  -1.755  
               1450  850  -0.785  
               1350  950  -9.515  
               1350  950  -8.545  
               1350  950  -7.575  
               1350  950  -6.605  
               1350  950  -5.635  
               1350  950  -4.665  
               1350  950  -3.695  
               1350  950  -2.725  
               1350  950  -1.755  
               1350  950  -0.785004  
               1250  1050  -9.5  
               1250  1050  -8.5  
               1250  1050  -7.5  
               1250  1050  -6.5  
               1250  1050  -5.5  
               1250  1050  -4.5  
               1250  1050  -3.5  
               1250  1050  -2.5  
               1250  1050  -1.5  
               1250  1050  -0.5  
               1950  450  -9.5  
               1950  450  -8.5  
               1950  450  -7.5  
               1950  450  -6.5  
               1950  450  -5.5  
               1950  450  -4.5  
               1950  450  -3.5  
               1950  450  -2.5  
               1950  450  -1.5  
               1950  450  -0.5  
               1850  550  -9.5  
               1850  550  -8.5  
               1850  550  -7.5  
               1850  550  -6.5  
               1850  550  -5.5  
               1850  550  -4.5  
               1850  550  -3.5  
               1850  550  -2.5  
               1850  550  -1.5  
               1850  550  -0.5  
               1750  650  -9.5  
               1750  650  -8.5  
               1750  650  -7.5  
               1750  650  -6.5  
               1750  650  -5.5  
               1750  650  -4.5  
               1750  650  -3.5  
               1750  650  -2.5  
               1750  650  -1.5  
               1750  650  -0.5  
               1650  750  -9.5  
               1650  750  -8.5  
               1650  750  -7.5  
               1650  750  -6.5  
               1650  750  -5.5  
               1650  750  -4.5  
               1650  750  -3.5  
               1650  750  -2.5  
               1650  750  -1.5  
               1650  750  -0.5  
               1550  850  -9.515  
               1550  850  -8.545  
               1550  850  -7.575  
               1550  850  -6.605  
               1550  850  -5.635  
               1550  850  -4.665  
               1550  850  -3.695  
               1550  850  -2.725  
               1550  850  -1.755  
               1550  850  -0.784999  
               1450  950  -9.515  
               1450  950  -8.545  
               1450  950  -7.575  
               1450  950  -6.605  
               1450  950  -5.635  
               1450  950  -4.665  
               1450  950  -3.695  
               1450  950  -2.725  
               1450  950  -1.755  
               1450  950  -0.785  
               1350  1050  -9.515  
               1350  1050  -8.545  
               1350  1050  -7.575  
               1350  1050  -6.605  
               1350  1050  -5.635  
               1350  1050  -4.665  
               1350  1050  -3.695  
               1350  1050  -2.725  
               1350  1050  -1.755  
               1350  1050  -0.785001  
               1950  550  -9.5  
               1950  550  -8.5  
               1950  550  -7.5  
               1950  550  -6.5  
               1950  550  -5.5  
               1950  550  -4.5  
               1950  550  -3.5  
               1950  550  -2.5  
               1950  550  -1.5  
               1950  550  -0.5  
               1850  650  -9.5  
               1850  650  -8.5  
               1850  650  -7.5  
               1850  650  -6.5  
               1850  650  -5.5  
               1850  650  -4.5  
               1850  650  -3.5  
               1850  650  -2.5  
               1850  650  -1.5  
               1850  650  -0.5  
               1750  750  -9.5  
               1750  750  -8.5  
               1750  750  -7.5  
               1750  750  -6.5  
               1750  750  -5.5  
               1750  750  -4.5  
               1750  750  -3.5  
               1750  750  -2.5  
               1750  750  -1.5  
               1750  750  -0.5  
               1650  850  -9.515  
               1650  850  -8.545  
               1650  850  -7.575  
               1650  850  -6.605  
               1650  850  -5.635  
               1650  850  -4.665  
               1650  850  -3.695  
               1650  850  -2.725  
               1650  850  -1.755  
               1650  850  -0.784999  
               1550  950  -9.515  
               1550  950  -8.545  
               1550  950  -7.575  
               1550  950  -6.605  
               1550  950  -5.635  
               1550  950  -4.665  
               1550  950  -3.695  
               1550  950  -2.725  
               1550  950  -1.755  
               1550  950  -0.784998  
               1450  1050  -9.515  
               1450  1050  -8.545  
               1450  1050  -7.575  
               1450  1050  -6.605  
               1450  1050  -5.635  
               1450  1050  -4.665  
               1450  1050  -3.695  
               1450  1050  -2.725  
               1450  1050  -1.755  
               1450  1050  -0.785001  
               1950  650  -9.5  
               1950  650  -8.5  
               1950  650  -7.5  
               1950  650  -6.5  
               1950  650  -5.5  
               1950  650  -4.5  
               1950  650  -3.5  
               1950  650  -2.5  
               1950  650  -1.5  
               1950  650  -0.5  
               1850  750  -9.5  
               1850  750  -8.5  
               1850  750  -7.5  
               1850  750  -6.5  
               1850  750  -5.5  
               1850  750  -4.5  
               1850  750  -3.5  
               1850  750  -2.5  
               1850  750  -1.5  
               1850  750  -0.5  
               1750  850  -9.5  
               1750  850  -8.5  
               1750  850  -7.5  
               1750  850  -6.5  
               1750  850  -5.5  
               1750  850  -4.5  
               1750  850  -3.5  
               1750  850  -2.5  
               1750  850  -1.5  
               1750  850  -0.5  
               1650  950  -9.515  
               1650  950  -8.545  
               1650  950  -7.575  
               1650  950  -6.605  
               1650  950  -5.635  
               1650  950  -4.665  
               1650  950  -3.695  
               1650  950  -2.725  
               1650  950  -1.755  
               1650  950  -0.784999  
               1550  1050  -9.515  
               1550  1050  -8.545  
               1550  1050  -7.575  
               1550  1050  -6.605  
               1550  1050  -5.635  
               1550  1050  -4.665  
               1550  1050  -3.695  
               1550  1050  -2.725  
               1550  1050  -1.755  
               1550  1050  -0.784999  
               1950  750  -9.5  
               1950  750  -8.5  
               1950  750  -7.5  
               1950  750  -6.5  
               1950  750  -5.5  
               1950  750  -4.5  
               1950  750  -3.5  
               1950  750  -2.5  
               1950  750  -1.5  
               1950  750  -0.5  
               1850  850  -9.5  
               1850  850  -8.5  
               1850  850  -7.5  
               1850  850  -6.5  
               1850  850  -5.5  
               1850  850  -4.5  
               1850  850  -3.5  
               1850  850  -2.5  
               1850  850  -1.5  
               1850  850  -0.5  
               1750  950  -9.5  
               1750  950  -8.5  
               1750  950  -7.5  
               1750  950  -6.5  
               1750  950  -5.5  
               1750  950  -4.5  
               1750  950  -3.5  
               1750  950  -2.5  
               1750  950  -1.5  
               1750  950  -0.5  
               1650  1050  -9.515  
               1650  1050  -8.545  
               1650  1050  -7.575  
               1650  1050  -6.605  
               1650  1050  -5.635  
               1650  1050  -4.665  
               1650  1050  -3.695  
               1650  1050  -2.725  
               1650  1050  -1.755  
               1650  1050  -0.784999  
               1950  850  -9.5  
               1950  850  -8.5  
               1950  850  -7.5  
               1950  850  -6.5  
               1950  850  -5.5  
               1950  850  -4.5  
               1950  850  -3.5  
               1950  850  -2.5  
               1950  850  -1.5  
               1950  850  -0.5  
               1850  950  -9.5  
               1850  950  -8.5  
               1850  950  -7.5  
               1850  950  -6.5  
               1850  950  -5.5  
               1850  950  -4.5  
               1850  950  -3.5  
               1850  950  -2.5  
               1850  950  -1.5  
               1850  950  -0.5  
               1750  1050  -9.5  
               1750  1050  -8.5  
               1750  1050  -7.5  
               1750  1050  -6.5  
               1750  1050  -5.5  
               1750  1050  -4.5  
               1750  1050  -3.5  
               1750  1050  -2.5  
               1750  1050  -1.5  
               1750  1050  -0.5  
               1950  950  -9.5  
               1950  950  -8.5  
               1950  950  -7.5  
               1950  950  -6.5  
               1950  950  -5.5  
               1950  950  -4.5  
               1950  950  -3.5  
               1950  950  -2.5  
               1950  950  -1.5  
               1950  950  -0.5  
               1850  1050  -9.5  
               1850  1050  -8.5  
               1850  1050  -7.5  
               1850  1050  -6.5  
               1850  1050  -5.5  
               1850  1050  -4.5  
               1850  1050  -3.5  
               1850  1050  -2.5  
               1850  1050  -1.5  
               1850  1050  -0.5  
               1950  1050  -9.5  
               1950  1050  -8.5  
               1950  1050  -7.5  
               1950  1050  -6.5  
               1950  1050  -5.5  
               1950  1050  -4.5  
               1950  1050  -3.5  
               1950  1050  -2.5  
               1950  1050  -1.5  
               1950  1050  -0.5  
            </DataArray>
         </Points> 

         <Cells>
            <DataArray type="Int32" Name="connectivity" NumberOfComponents="1" format="ascii">
               
            </DataArray> 
            <DataArray type="Int32" Name="offsets" NumberOfComponents="1" format="ascii">
               
            </DataArray>
            <DataArray type="UInt8"  Name="types" NumberOfComponents="1" format="ascii">
               
            </DataArray>
         </Cells>
         <PointData Scalars="Rank sea_water_potential_density " Vectors="">
            <DataArray type="UInt32" Name="Rank" NumberOfComponents="1" format="ascii">
               0 0 0 0 0 0 0 0 0 0 0 0 0 0 0 0 0 0 0 0 0 0 0 0 0 0 0 0 0 0 0 0 0 0 0 0 0 0 0 0 0 0 0 0 0 0 0 0 0 0 0 0 0 0 0 0 0 0 0 0 0 0 0 0 0 0 0 0 0 0 0 0 0 0 0 0 0 0 0 0 0 0 0 0 0 0 0 0 0 0 0 0 0 0 0 0 0 0 0 0 0 0 0 0 0 0 0 0 0 0 0 0 0 0 0 0 0 0 0 0 0 0 0 0 0 0 0 0 0 0 0 0 0 0 0 0 0 0 0 0 0 0 0 0 0 0 0 0 0 0 0 0 0 0 0 0 0 0 0 0 0 0 0 0 0 0 0 0 0 0 0 0 0 0 0 0 0 0 0 0 0 0 0 0 0 0 0 0 0 0 0 0 0 0 0 0 0 0 0 0 0 0 0 0 0 0 0 0 0 0 0 0 0 0 0 0 0 0 0 0 0 0 0 0 0 0 0 0 0 0 0 0 0 0 0 0 0 0 0 0 0 0 0 0 0 0 0 0 0 0 0 0 0 0 0 0 0 0 0 0 0 0 0 0 0 0 0 0 0 0 0 0 0 0 0 0 0 0 0 0 0 0 0 0 0 0 0 0 0 0 0 0 0 0 0 0 0 0 0 0 0 0 0 0 0 0 0 0 0 0 0 0 0 0 0 0 0 0 0 0 0 0 0 0 0 0 0 0 0 0 0 0 0 0 0 0 0 0 0 0 0 0 0 0 0 0 0 0 0 0 0 0 0 0 0 0 0 0 0 0 0 0 0 0 0 0 0 0 0 0 0 0 0 0 0 0 0 0 0 0 0 0 0 0 0 0 0 0 0 0 0 0 0 0 0 0 0 0 0 0 0 0 0 0 0 0 0 0 0 0 0 0 0 0 0 0 0 0 0 0 0 0 0 0 0 0 0 0 0 0 0 0 0 0 0 0 0 0 0 0 0 0 0 0 0 0 0 0 0 0 0 0 0 0 0 0 0 0 0 0 0 0 0 0 0 0 0 0 0 0 0 0 0 0 0 0 0 0 0 0 0 0 0 0 0 0 0 0 0 0 0 0 0 0 0 0 0 0 0 0 0 0 0 0 0 0 0 0 0 0 0 0 0 0 0 0 0 0 0 0 0 0 0 0 0 0 0 0 0 0 0 0 0 0 0 0 0 0 0 0 0 0 0 0 0 0 0 0 0 0 0 0 0 0 0 0 0 0 0 0 0 0 0 0 0 0 0 0 0 0 0 0 0 0 0 0 0 0 0 0 0 0 0 0 0 0 0 0 0 0 0 0 0 0 0 0 0 0 0 0 0 0 0 0 0 0 0 0 0 0 0 0 0 0 0 0 0 0 0 0 0 0 0 0 0 0 0 0 0 0 0 0 0 0 0 0 0 0 0 0 0 0 0 0 0 0 0 0 0 0 0 0 0 0 0 0 0 0 0 0 0 0 0 0 0 0 0 0 0 0 0 0 0 0 0 0 0 0 0 0 0 0 0 0 0 0 0 0 0 0 0 0 0 0 0 0 0 0 0 0 0 0 0 0 0 0 0 0 0 0 0 0 0 0 0 0 0 0 0 0 0 0 0 0 0 0 0 0 0 0 0 0 0 0 0 0 0 0 0 0 0 0 0 0 0 0 0 0 0 0 0 0 0 0 0 0 0 0 0 0 0 0 0 0 0 0 0 0 0 0 0 0 0 0 0 0 0 0 0 0 0 0 0 0 0 0 0 0 0 0 0 0 0 0 0 0 0 0 0 0 0 0 0 0 0 0 0 0 0 0 0 0 0 0 0 0 0 0 0 0 0 0 0 0 0 0 0 0 0 0 0 0 0 0 0 0 0 0 0 0 0 0 0 0 0 0 0 0 0 0 0 0 0 0 0 0 0 0 0 0 0 0 0 0 0 0 0 0 0 0 0 0 0 0 0 0 0 0 0 0 0 0 0 0 0 0 0 0 0 0 0 0 0 0 0 0 0 0 0 0 0 0 0 0 0 0 0 0 0 0 0 0 0 0 0 0 0 0 0 0 0 0 0 0 0 0 0 0 0 0 0 0 0 0 0 0 0 0 0 0 0 0 0 0 0 0 0 0 0 0 0 0 0 0 0 0 0 0 0 0 0 0 0 0 0 0 0 0 0 0 0 0 0 0 0 0 0 0 0 0 0 0 0 0 0 0 0 0 0 0 0 0 0 0 0 0 0 0 0 0 0 0 0 0 0 0 0 0 0 0 0 0 0 0 0 0 0 0 0 0 0 0 0 0 0 0 0 0 0 0 0 0 0 0 0 0 0 0 0 0 0 0 0 0 0 0 0 0 0 0 0 0 0 0 0 0 0 0 0 0 0 0 0 0 0 0 0 0 0 0 0 0 0 0 0 0 0 0 0 0 0 0 0 0 0 0 0 0 0 0 0 0 0 0 0 0 0 0 0 0 0 0 0 0 0 0 0 0 0 0 0 0 0 0 0 0 0 0 0 0 0 0 0 0 0 0 0 0 0 0 0 0 0 0 0 0 0 0 0 0 0 0 0 0 0 0 0 0 0 0 0 0 0 0 0 0 0 0 0 0 0 0 0 0 0 0 0 0 0 0 0 0 0 0 0 0 0 0 0 0 0 0 0 0 0 0 0 0 0 0 0 0 0 0 0 0 0 0 0 0 0 0 0 0 0 0 0 0 0 0 0 0 0 0 0 0 0 0 0 0 0 0 0 0 0 0 0 0 0 0 0 0 0 0 0 0 0 0 0 0 0 0 0 0 0 0 0 0 0 0 0 0 0 0 0 0 0 0 0 0 0 0 0 0 0 0 0 0 0 0 0 0 0 0 0 0 0 0 0 0 0 0 0 0 0 0 0 0 0 0 0 0 0 0 0 0 0 0 0 0 0 0 0 0 0 0 0 0 0 0 0 0 0 0 0 0 0 0 0 0 0 0 0 0 0 0 0 0 0 0 0 0 0 0 0 0 0 0 0 0 0 0 0 0 0 0 0 0 0 0 0 0 0 0 0 0 0 0 0 0 0 0 0 0 0 0 0 0 0 0 0 0 0 0 0 0 0 0 0 0 0 0 0 0 0 0 0 0 0 0 0 0 0 0 0 0 0 0 0 0 0 0 0 0 0 0 0 0 0 0 0 0 0 0 0 0 0 0 0 0 0 0 0 0 0 0 0 0 0 0 0 0 0 0 0 0 0 0 0 0 0 0 0 0 0 0 0 0 0 0 0 0 0 0 0 0 0 0 0 0 0 0 0 0 0 0 0 0 0 0 0 0 0 0 0 0 0 0 0 0 0 0 0 0 0 0 0 0 0 0 0 0 0 0 0 0 0 0 0 0 0 0 0 0 0 0 0 0 0 0 0 0 0 0 0 0 0 0 0 0 0 0 0 0 0 0 0 0 0 0 0 0 0 0 0 0 0 0 0 0 0 0 0 0 0 0 0 0 0 0 0 0 0 0 0 0 0 0 0 0 0 0 0 0 0 0 0 0 0 0 0 0 0 0 0 0 0 0 0 0 0 0 0 0 0 0 0 0 0 0 0 0 0 0 0 0 0 0 0 0 0 0 0 0 0 0 0 0 0 0 0 0 0 0 0 0 0 0 0 0 0 0 0 0 0 0 0 0 0 0 0 0 0 0 0 0 0 0 0 0 0 0 0 0 0 0 0 0 0 0 0 0 0 0 0 0 0 0 0 0 0 0 0 0 0 0 0 0 0 0 0 0 0 0 0 0 0 0 0 0 0 0 0 0 0 0 0 0 0 0 0 0 0 0 0 0 0 0 0 0 0 0 0 0 0 0 0 0 0 0 0 0 0 0 0 0 0 0 0 0 0 0 0 0 0 0 0 0 0 0 0 0 0 0 0 0 0 0 0 0 0 0 0 0 0 0 0 0 0 0 0 0 0 0 0 0 0 0 0 0 0 0 0 0 0 0 0 0 0 0 0 0 0 0 0 0 0 0 0 0 0 0 0 0 0 0 0 0 0 0 0 0 0 0 0 0 0 0 0 0 0 0 0 0 0 0 0 0 0 0 0 0 0 0 0 0 0 0 0 0 0 0 0 0 0 0 0 0 0 0 0 0 0 0 0 0 0 0 0 0 0 0 0 0 0 0 0 0 0 0 0 0 0 0 0 0 0 0 0 0 0 0 0 0 0 0 0 0 0 0 0 0 0 0 0 0 0 0 0 0 0 0 0 0 0 0 0 0 0 0 0 0 0 0 0 0 0 0 0 0 0 0 0 0 0 0 0 0 0 0 0 0 0 0 0 0 0 0 0 0 0 0 0 0 0 0 0 0 0 0 0 0 0 0 0 0 0 0 0 0 0 0 0 0 0 0 0 0 0 0 0 0 0 0 0 0 0 0 0 0 0 0 0 0 0 0 0 0 0 0 0 0 0 0 0 0 0 0 0 0 0 0 0 0 0 0 0 0 0 0 0 0 0 0 0 0 0 0 0 0 
            </DataArray>
            <DataArray type="Float64" Name="sea_water_potential_density" NumberOfComponents="1" format="ascii">
               1000 1000 1000 1000 1000 1000 1000 1000 1000 1000 1000 1000 1000 1000 1000 1000 1000 1000 1000 1000 1000 1000 1000 1000 1000 1000 1000 1000 1000 1000 1000 1000 1000 1000 1000 1000 1000 1000 1000 1000 1000 1000 1000 1000 1000 1000 1000 1000 1000 1000 1000 1000 1000 1000 1000 1000 1000 1000 1000 1000 1000 1000 1000 1000 1000 1000 1000 1000 1000 1000 1000 1000 1000 1000 1000 1000 1000 1000 1000 1000 1000 1000 1000 1000 1000 1000 1000 1000 1000 1000 1000 1000 1000 1000 1000 1000 1000 1000 1000 1000 1000 1000 1000 1000 1000 1000 1000 1000 1000 1000 1000 1000 1000 1000 1000 1000 1000 1000 1000 1000 1000 1000 1000 1000 1000 1000 1000 1000 1000 1000 1000 1000 1000 1000 1000 1000 1000 1000 1000 1000 1000 1000 1000 1000 1000 1000 1000 1000 1000 1000 1000 1000 1000 1000 1000 1000 1000 1000 1000 1000 1000 1000 1000 1000 1000 1000 1000 1000 1000 1000 1000 1000 1000 1000 1000 1000 1000 1000 1000 1000 1000 1000 1000 1000 1000 1000 1000 1000 1000 1000 1000 1000 1000 1000 1000 1000 1000 1000 1000 1000 1000 1022.12 1022.12 1022.12 1022.12 1022.12 1022.12 1022.12 1022.12 1022.12 1022.12 1000 1022.12 1022.12 1022.12 1022.12 1022.12 1022.12 1022.12 1022.12 1022.12 1022.12 1000 1022.12 1022.12 1022.12 1022.12 1022.12 1022.12 1022.12 1022.12 1022.12 1022.12 1000 1022.12 1022.12 1022.12 1022.12 1022.12 1022.12 1022.12 1022.12 1022.12 1022.12 1000 1022.12 1022.12 1022.12 1022.12 1022.12 1022.12 1022.12 1022.12 1022.12 1022.12 1000 1022.12 1022.12 1022.12 1022.12 1022.12 1022.12 1022.12 1022.12 1022.12 1022.12 1000 1022.12 1022.12 1022.12 1022.12 1022.12 1022.12 1022.12 1022.12 1022.12 1022.12 1000 1022.12 1022.12 1022.12 1022.12 1022.12 1022.12 1022.12 1022.12 1022.12 1022.12 1000 1022.12 1022.12 1022.12 1022.12 1022.12 1022.12 1022.12 1022.12 1022.12 1022.12 1000 1022.12 1022.12 1022.12 1022.12 1022.12 1022.12 1022.12 1022.12 1022.12 1022.12 1000 1022.12 1022.12 1022.12 1022.12 1022.12 1022.12 1022.12 1022.12 1022.12 1022.12 1000 1022.12 1022.12 1022.12 1022.12 1022.12 1022.12 1022.12 1022.12 1022.12 1022.12 1000 1022.12 1022.12 1022.12 1022.12 1022.12 1022.12 1022.12 1022.12 1022.12 1022.12 1000 1022.12 1022.12 1022.12 1022.12 1022.12 1022.12 1022.12 1022.12 1022.12 1022.12 1000 1022.12 1022.12 1022.12 1022.12 1022.12 1022.12 1022.12 1022.12 1022.12 1022.12 1000 1022.12 1022.12 1022.12 1022.12 1022.12 1022.12 1022.12 1022.12 1022.12 1022.12 1000 1022.12 1022.12 1022.12 1022.12 1022.12 1022.12 1022.12 1022.12 1022.12 1022.12 1000 1022.12 1022.12 1022.12 1022.12 1022.12 1022.12 1022.12 1022.12 1022.12 1022.12 1000 1022.12 1022.12 1022.12 1022.12 1022.12 1022.12 1022.12 1022.12 1022.12 1022.12 1000 1022.12 1022.12 1022.12 1022.12 1022.12 1022.12 1022.12 1022.12 1022.12 1022.12 1000 1022.12 1022.12 1022.12 1022.12 1022.12 1022.12 1022.12 1022.12 1022.12 1022.12 1000 1022.12 1022.12 1022.12 1022.12 1022.12 1022.12 1022.12 1022.12 1022.12 1022.12 1000 1022.12 1022.12 1022.12 1022.12 1022.12 1022.12 1022.12 1022.12 1022.12 1022.12 1000 1022.12 1022.12 1022.12 1022.12 1022.12 1022.12 1022.12 1022.12 1022.12 1022.12 1000 1022.12 1022.12 1022.12 1022.12 1022.12 1022.12 1022.12 1022.12 1022.12 1022.12 1000 1022.12 1022.12 1022.12 1022.12 1022.12 1022.12 1022.12 1022.12 1022.12 1022.12 1000 1022.12 1022.12 1022.12 1022.12 1022.12 1022.12 1022.12 1022.12 1022.12 1022.12 1000 1022.12 1022.12 1022.12 1022.12 1022.12 1022.12 1022.12 1022.12 1022.12 1022.12 1000 1022.12 1022.12 1022.12 1022.12 1022.12 1022.12 1022.12 1022.12 1022.12 1022.12 1000 1022.12 1022.12 1022.12 1022.12 1022.12 1022.12 1022.12 1022.12 1022.12 1022.12 1000 1022.12 1022.12 1022.12 1022.12 1022.12 1022.12 1022.12 1022.12 1022.12 1022.12 1000 1022.12 1022.12 1022.12 1022.12 1022.12 1022.12 1022.12 1022.12 1022.12 1022.12 1000 1022.12 1022.12 1022.12 1022.12 1022.12 1022.12 1022.12 1022.12 1022.12 1022.12 1000 1022.12 1022.12 1022.12 1022.12 1022.12 1022.12 1022.12 1022.12 1022.12 1022.12 1000 1022.12 1022.12 1022.12 1022.12 1022.12 1022.12 1022.12 1022.12 1022.12 1022.12 1000 1022.12 1022.12 1022.12 1022.12 1022.12 1022.12 1022.12 1022.12 1022.12 1022.12 1000 1022.12 1022.12 1022.12 1022.12 1022.12 1022.12 1022.12 1022.12 1022.12 1022.12 1000 1022.12 1022.12 1022.12 1022.12 1022.12 1022.12 1022.12 1022.12 1022.12 1022.12 1000 1022.12 1022.12 1022.12 1022.12 1022.12 1022.12 1022.12 1022.12 1022.12 1022.12 1000 1022.12 1022.12 1022.12 1022.12 1022.12 1022.12 1022.12 1022.12 1022.12 1022.12 1000 1022.12 1022.12 1022.12 1022.12 1022.12 1022.12 1022.12 1022.12 1022.12 1022.12 1000 1022.12 1022.12 1022.12 1022.12 1022.12 1022.12 1022.12 1022.12 1022.12 1022.12 1000 1022.12 1022.12 1022.12 1022.12 1022.12 1022.12 1022.12 1022.12 1022.12 1022.12 1000 1022.12 1022.12 1022.12 1022.12 1022.12 1022.12 1022.12 1022.12 1022.12 1022.12 1000 1022.12 1022.12 1022.12 1022.12 1022.12 1022.12 1022.12 1022.12 1022.12 1022.12 1000 1022.12 1022.12 1022.12 1022.12 1022.12 1022.12 1022.12 1022.12 1022.12 1022.12 1000 1022.12 1022.12 1022.12 1022.12 1022.12 1022.12 1022.12 1022.12 1022.12 1022.12 1000 1022.12 1022.12 1022.12 1022.12 1022.12 1022.12 1022.12 1022.12 1022.12 1022.12 1000 1022.12 1022.12 1022.12 1022.12 1022.12 1022.12 1022.12 1022.12 1022.12 1022.12 1000 1022.12 1022.12 1022.12 1022.12 1022.12 1022.12 1022.12 1022.12 1022.12 1022.12 1000 1022.12 1022.12 1022.12 1022.12 1022.12 1022.12 1022.12 1022.12 1022.12 1022.12 1000 1022.12 1022.12 1022.12 1022.12 1022.12 1022.12 1022.12 1022.12 1022.12 1022.12 1000 1022.12 1022.12 1022.12 1022.12 1022.12 1022.12 1022.12 1022.12 1022.12 1022.12 1000 1022.12 1022.12 1022.12 1022.12 1022.12 1022.12 1022.12 1022.12 1022.12 1022.12 1000 1022.12 1022.12 1022.12 1022.12 1022.12 1022.12 1022.12 1022.12 1022.12 1022.12 1000 1022.12 1022.12 1022.12 1022.12 1022.12 1022.12 1022.12 1022.12 1022.12 1022.12 1000 1022.12 1022.11 1022.05 1021.91 1021.57 1021.39 1021.37 1021.37 1021.37 1021.39 1000 1022.12 1022.12 1022.12 1022.12 1022.12 1022.12 1022.12 1022.12 1022.12 1022.12 1000 1022.12 1022.12 1022.12 1022.12 1022.12 1022.12 1022.12 1022.12 1022.12 1022.12 1000 1022.12 1022.12 1022.12 1022.12 1022.12 1022.12 1022.12 1022.12 1022.12 1022.12 1000 1022.12 1022.12 1022.12 1022.12 1022.12 1022.12 1022.12 1022.12 1022.12 1022.12 1000 1022.12 1022.12 1022.12 1022.12 1022.12 1022.12 1022.12 1022.12 1022.12 1022.12 1000 1022.12 1022.12 1022.12 1022.12 1022.12 1022.12 1022.12 1022.12 1022.12 1022.12 1000 1022.12 1022.12 1022.12 1022.12 1022.12 1022.12 1022.12 1022.12 1022.12 1022.12 1000 1022.12 1022.12 1022.12 1022.12 1022.12 1022.12 1022.12 1022.12 1022.12 1022.12 1000 1022.12 1022.12 1022.12 1022.12 1022.12 1022.12 1022.12 1022.12 1022.12 1022.12 1000 1022.12 1022.11 1022.04 1021.92 1021.74 1021.58 1021.48 1021.43 1021.41 1021.41 1000 1022.12 1022.11 1022.1 1022.07 1021.22 1021.25 1021.28 1021.29 1021.31 1021.34 1000 1022.12 1022.12 1022.12 1022.12 1022.12 1022.12 1022.12 1022.12 1022.12 1022.12 1000 1022.12 1022.12 1022.12 1022.12 1022.12 1022.12 1022.12 1022.12 1022.12 1022.12 1000 1022.12 1022.12 1022.12 1022.12 1022.12 1022.12 1022.12 1022.12 1022.12 1022.12 1000 1022.12 1022.12 1022.12 1022.12 1022.12 1022.12 1022.12 1022.12 1022.12 1022.12 1000 1022.12 1022.12 1022.12 1022.12 1022.12 1022.12 1022.12 1022.12 1022.12 1022.12 1000 1022.12 1022.12 1022.12 1022.12 1022.12 1022.12 1022.12 1022.12 1022.12 1022.12 1000 1022.12 1022.12 1022.12 1022.12 1022.12 1022.12 1022.12 1022.12 1022.12 1022.12 1000 1022.12 1022.12 1022.12 1022.12 1022.12 1022.12 1022.12 1022.12 1022.12 1022.12 1000 1022.12 1022.12 1022.1 1022.06 1021.98 1021.86 1021.74 1021.64 1021.54 1021.48 1000 1022.12 1022.11 1022.06 1021.97 1021.85 1021.8 1021.74 1021.57 1021.4 1021.38 1000 1022.12 1022.11 1022.05 1021.91 1021.57 1021.39 1021.37 1021.37 1021.37 1021.39 1000 1022.12 1022.12 1022.12 1022.12 1022.12 1022.12 1022.12 1022.12 1022.12 1022.12 1000 1022.12 1022.12 1022.12 1022.12 1022.12 1022.12 1022.12 1022.12 1022.12 1022.12 1000 1022.12 1022.12 1022.12 1022.12 1022.12 1022.12 1022.12 1022.12 1022.12 1022.12 1000 1022.12 1022.12 1022.12 1022.12 1022.12 1022.12 1022.12 1022.12 1022.12 1022.12 1000 1022.12 1022.12 1022.12 1022.12 1022.12 1022.12 1022.12 1022.12 1022.12 1022.12 1000 1022.12 1022.12 1022.12 1022.12 1022.12 1022.12 1022.12 1022.12 1022.12 1022.12 1000 1022.12 1022.12 1022.12 1022.12 1022.12 1022.12 1022.12 1022.12 1022.12 1022.12 1000 1022.12 1022.12 1022.12 1022.11 1022.1 1022.07 1022.01 1021.93 1021.85 1021.8 1000 1022.12 1022.12 1022.11 1022.09 1022.07 1022.02 1021.95 1021.83 1021.65 1021.5 1000 1022.12 1022.11 1022.04 1021.92 1021.74 1021.58 1021.48 1021.43 1021.41 1021.41 1000 1022.12 1022.12 1022.12 1022.12 1022.12 1022.12 1022.12 1022.12 1022.12 1022.12 1000 1022.12 1022.12 1022.12 1022.12 1022.12 1022.12 1022.12 1022.12 1022.12 1022.12 1000 1022.12 1022.12 1022.12 1022.12 1022.12 1022.12 1022.12 1022.12 1022.12 1022.12 1000 1022.12 1022.12 1022.12 1022.12 1022.12 1022.12 1022.12 1022.12 1022.12 1022.12 1000 1022.12 1022.12 1022.12 1022.12 1022.12 1022.12 1022.12 1022.12 1022.12 1022.12 1000 1022.12 1022.12 1022.12 1022.12 1022.12 1022.12 1022.12 1022.12 1022.12 1022.12 1000 1022.12 1022.12 1022.12 1022.12 1022.12 1022.12 1022.12 1022.12 1022.12 1022.12 1000 1022.12 1022.12 1022.12 1022.12 1022.12 1022.12 1022.12 1022.12 1022.12 1022.12 1000 1022.12 1022.12 1022.12 1022.12 1022.11 1022.11 1022.08 1022.02 1021.92 1021.84 1000 1022.12 1022.12 1022.1 1022.06 1021.98 1021.86 1021.74 1021.64 1021.54 1021.48 1000 1022.12 1022.12 1022.12 1022.12 1022.12 1022.12 1022.12 1022.12 1022.12 1022.12 1000 1022.12 1022.12 1022.12 1022.12 1022.12 1022.12 1022.12 1022.12 1022.12 1022.12 1000 1022.12 1022.12 1022.12 1022.12 1022.12 1022.12 1022.12 1022.12 1022.12 1022.12 1000 1022.12 1022.12 1022.12 1022.12 1022.12 1022.12 1022.12 1022.12 1022.12 1022.12 1000 1022.12 1022.12 1022.12 1022.12 1022.12 1022.12 1022.12 1022.12 1022.12 1022.12 1000 1022.12 1022.12 1022.12 1022.12 1022.12 1022.12 1022.12 1022.12 1022.12 1022.12 1000 1022.12 1022.12 1022.12 1022.12 1022.12 1022.12 1022.12 1022.12 1022.12 1022.12 1000 1022.12 1022.12 1022.12 1022.12 1022.12 1022.12 1022.12 1022.12 1022.12 1022.12 1000 1022.12 1022.12 1022.12 1022.12 1022.12 1022.12 1022.12 1022.12 1022.12 1022.12 1000 1022.12 1022.12 1022.12 1022.11 1022.1 1022.07 1022.01 1021.93 1021.85 1021.8 1000 1022.12 1022.12 1022.12 1022.12 1022.12 1022.12 1022.12 1022.12 1022.12 1022.12 1000 1022.12 1022.12 1022.12 1022.12 1022.12 1022.12 1022.12 1022.12 1022.12 1022.12 1000 1022.12 1022.12 1022.12 1022.12 1022.12 1022.12 1022.12 1022.12 1022.12 1022.12 1000 1022.12 1022.12 1022.12 1022.12 1022.12 1022.12 1022.12 1022.12 1022.12 1022.12 1000 1022.12 1022.12 1022.12 1022.12 1022.12 1022.12 1022.12 1022.12 1022.12 1022.12 1000 1022.12 1022.12 1022.12 1022.12 1022.12 1022.12 1022.12 1022.12 1022.12 1022.12 1000 1022.12 1022.12 1022.12 1022.12 1022.12 1022.12 1022.12 1022.12 1022.12 1022.12 1000 1022.12 1022.12 1022.12 1022.12 1022.12 1022.12 1022.12 1022.12 1022.12 1022.12 1000 1022.12 1022.12 1022.12 1022.12 1022.12 1022.12 1022.12 1022.12 1022.12 1022.12 1000 1022.12 1022.12 1022.12 1022.12 1022.12 1022.12 1022.12 1022.12 1022.12 1022.12 1000 1022.12 1022.12 1022.12 1022.12 1022.12 1022.12 1022.12 1022.12 1022.12 1022.12 1000 1022.12 1022.12 1022.12 1022.12 1022.12 1022.12 1022.12 1022.12 1022.12 1022.12 1000 1022.12 1022.12 1022.12 1022.12 1022.12 1022.12 1022.12 1022.12 1022.12 1022.12 1000 1022.12 1022.12 1022.12 1022.12 1022.12 1022.12 1022.12 1022.12 1022.12 1022.12 1000 1022.12 1022.12 1022.12 1022.12 1022.12 1022.12 1022.12 1022.12 1022.12 1022.12 1000 1022.12 1022.12 1022.12 1022.12 1022.12 1022.12 1022.12 1022.12 1022.12 1022.12 1000 1022.12 1022.12 1022.12 1022.12 1022.12 1022.12 1022.12 1022.12 1022.12 1022.12 1000 1022.12 1022.12 1022.12 1022.12 1022.12 1022.12 1022.12 1022.12 1022.12 1022.12 1000 1022.12 1022.12 1022.12 1022.12 1022.12 1022.12 1022.12 1022.12 1022.12 1022.12 1000 1022.12 1022.12 1022.12 1022.12 1022.12 1022.12 1022.12 1022.12 1022.12 1022.12 1000 1022.12 1022.12 1022.12 1022.12 1022.12 1022.12 1022.12 1022.12 1022.12 1022.12 1000 1022.12 1022.12 1022.12 1022.12 1022.12 1022.12 1022.12 1022.12 1022.12 1022.12 1000 1022.12 1022.12 1022.12 1022.12 1022.12 1022.12 1022.12 1022.12 1022.12 1022.12 1000 1022.12 1022.12 1022.12 1022.12 1022.12 1022.12 1022.12 1022.12 1022.12 1022.12 1000 1022.12 1022.12 1022.12 1022.12 1022.12 1022.12 1022.12 1022.12 1022.12 1022.12 1000 1022.12 1022.12 1022.12 1022.12 1022.12 1022.12 1022.12 1022.12 1022.12 1022.12 1000 1022.12 1022.12 1022.12 1022.12 1022.12 1022.12 1022.12 1022.12 1022.12 1022.12 1000 1022.12 1022.12 1022.12 1022.12 1022.12 1022.12 1022.12 1022.12 1022.12 1022.12 1000 1022.12 1022.12 1022.12 1022.12 1022.12 1022.12 1022.12 1022.12 1022.12 1022.12 1000 1022.12 1022.12 1022.12 1022.12 1022.12 1022.12 1022.12 1022.12 1022.12 1022.12 1000 1022.12 1022.12 1022.12 1022.12 1022.12 1022.12 1022.12 1022.12 1022.12 1022.12 1000 1022.12 1022.12 1022.12 1022.12 1022.12 1022.12 1022.12 1022.12 1022.12 1022.12 1000 1022.12 1022.12 1022.12 1022.12 1022.12 1022.12 1022.12 1022.12 1022.12 1022.12 1000 1022.12 1022.12 1022.12 1022.12 1022.12 1022.12 1022.12 1022.12 1022.12 1022.12 1000 1022.12 1022.12 1022.12 1022.12 1022.12 1022.12 1022.12 1022.12 1022.12 1022.12 1000 1022.12 1022.12 1022.12 1022.12 1022.12 1022.12 1022.12 1022.12 1022.12 1022.12 1000 1022.12 1022.12 1022.12 1022.12 1022.12 1022.12 1022.12 1022.12 1022.12 1022.12 1000 1022.12 1022.12 1022.12 1022.12 1022.12 1022.12 1022.12 1022.12 1022.12 1022.12 1000 1022.12 1022.12 1022.12 1022.12 1022.12 1022.12 1022.12 1022.12 1022.12 1022.12 1000 1022.12 1022.12 1022.12 1022.12 1022.12 1022.12 1022.12 1022.12 1022.12 1022.12 1000 1022.12 1022.12 1022.12 1022.12 1022.12 1022.12 1022.12 1022.12 1022.12 1022.12 1000 1022.12 1022.12 1022.12 1022.12 1022.12 1022.12 1022.12 1022.12 1022.12 1022.12 1000 1022.12 1022.12 1022.12 1022.12 1022.12 1022.12 1022.12 1022.12 1022.12 1022.12 1000 1022.12 1022.12 1022.12 1022.12 1022.12 1022.12 1022.12 1022.12 1022.12 1022.12 1000 1022.12 1022.12 1022.12 1022.12 1022.12 1022.12 1022.12 1022.12 1022.12 1022.12 1000 1022.12 1022.12 1022.12 1022.12 1022.12 1022.12 1022.12 1022.12 1022.12 1022.12 1000 1022.12 1022.12 1022.12 1022.12 1022.12 1022.12 1022.12 1022.12 1022.12 1022.12 1000 1022.12 1022.12 1022.12 1022.12 1022.12 1022.12 1022.12 1022.12 1022.12 1022.12 1000 1022.12 1022.12 1022.12 1022.12 1022.12 1022.12 1022.12 1022.12 1022.12 1022.12 1000 1022.12 1022.12 1022.12 1022.12 1022.12 1022.12 1022.12 1022.12 1022.12 1022.12 1000 1022.12 1022.12 1022.12 1022.12 1022.12 1022.12 1022.12 1022.12 1022.12 1022.12 1000 1022.12 1022.12 1022.12 1022.12 1022.12 1022.12 1022.12 1022.12 1022.12 1022.12 1000 1022.12 1022.12 1022.12 1022.12 1022.12 1022.12 1022.12 1022.12 1022.12 1022.12 1000 1022.12 1022.12 1022.12 1022.12 1022.12 1022.12 1022.12 1022.12 1022.12 1022.12 1000 1022.12 1022.12 1022.12 1022.12 1022.12 1022.12 
            </DataArray>
         </PointData> 
      </Piece>
   </UnstructuredGrid> 
</VTKFile>
