<?xml version="1.0"?>
<VTKFile type="UnstructuredGrid" version="0.1" byte_order="LittleEndian">
   <UnstructuredGrid>
      <Piece NumberOfPoints="2000" NumberOfCells="0" > 
         <Points> 
            <DataArray type="Float64" Name="Position" NumberOfComponents="3" format="ascii"> 
               50  150  -9.5  
               50  150  -8.5  
               50  150  -7.5  
               50  150  -6.5  
               50  150  -5.5  
               50  150  -4.5  
               50  150  -3.5  
               50  150  -2.5  
               50  150  -1.5  
               50  150  -0.5  
               150  150  -9.5  
               150  150  -8.5  
               150  150  -7.5  
               150  150  -6.5  
               150  150  -5.5  
               150  150  -4.5  
               150  150  -3.5  
               150  150  -2.5  
               150  150  -1.5  
               150  150  -0.5  
               50  250  -9.5  
               50  250  -8.5  
               50  250  -7.5  
               50  250  -6.5  
               50  250  -5.5  
               50  250  -4.5  
               50  250  -3.5  
               50  250  -2.5  
               50  250  -1.5  
               50  250  -0.5  
               250  150  -9.5  
               250  150  -8.5  
               250  150  -7.5  
               250  150  -6.5  
               250  150  -5.5  
               250  150  -4.5  
               250  150  -3.5  
               250  150  -2.5  
               250  150  -1.5  
               250  150  -0.5  
               150  250  -9.68  
               150  250  -9.04  
               150  250  -8.40001  
               150  250  -7.76001  
               150  250  -7.12001  
               150  250  -6.48001  
               150  250  -5.84002  
               150  250  -5.20002  
               150  250  -4.56002  
               150  250  -3.92003  
               50  350  -9.5  
               50  350  -8.5  
               50  350  -7.5  
               50  350  -6.5  
               50  350  -5.5  
               50  350  -4.5  
               50  350  -3.5  
               50  350  -2.5  
               50  350  -1.5  
               50  350  -0.5  
               350  150  -9.5  
               350  150  -8.5  
               350  150  -7.5  
               350  150  -6.5  
               350  150  -5.5  
               350  150  -4.5  
               350  150  -3.5  
               350  150  -2.5  
               350  150  -1.5  
               350  150  -0.5  
               250  250  -9.68  
               250  250  -9.04  
               250  250  -8.4  
               250  250  -7.76  
               250  250  -7.12  
               250  250  -6.48  
               250  250  -5.84001  
               250  250  -5.20001  
               250  250  -4.56001  
               250  250  -3.92001  
               150  350  -9.68  
               150  350  -9.04  
               150  350  -8.4  
               150  350  -7.76  
               150  350  -7.12  
               150  350  -6.48  
               150  350  -5.84  
               150  350  -5.2  
               150  350  -4.56  
               150  350  -3.92001  
               50  450  -9.5  
               50  450  -8.5  
               50  450  -7.5  
               50  450  -6.5  
               50  450  -5.5  
               50  450  -4.5  
               50  450  -3.5  
               50  450  -2.5  
               50  450  -1.5  
               50  450  -0.5  
               450  150  -9.5  
               450  150  -8.5  
               450  150  -7.5  
               450  150  -6.5  
               450  150  -5.5  
               450  150  -4.5  
               450  150  -3.5  
               450  150  -2.5  
               450  150  -1.5  
               450  150  -0.5  
               350  250  -9.68  
               350  250  -9.04  
               350  250  -8.4  
               350  250  -7.76  
               350  250  -7.12  
               350  250  -6.48  
               350  250  -5.83999  
               350  250  -5.19999  
               350  250  -4.55999  
               350  250  -3.91999  
               250  350  -9.68  
               250  350  -9.04  
               250  350  -8.4  
               250  350  -7.76  
               250  350  -7.12  
               250  350  -6.48  
               250  350  -5.84  
               250  350  -5.2  
               250  350  -4.56  
               250  350  -3.92  
               150  450  -9.68  
               150  450  -9.04  
               150  450  -8.4  
               150  450  -7.76  
               150  450  -7.12  
               150  450  -6.48  
               150  450  -5.84  
               150  450  -5.2  
               150  450  -4.55999  
               150  450  -3.91999  
               50  550  -9.5  
               50  550  -8.5  
               50  550  -7.5  
               50  550  -6.5  
               50  550  -5.5  
               50  550  -4.5  
               50  550  -3.5  
               50  550  -2.5  
               50  550  -1.5  
               50  550  -0.5  
               550  150  -9.5  
               550  150  -8.5  
               550  150  -7.5  
               550  150  -6.5  
               550  150  -5.5  
               550  150  -4.5  
               550  150  -3.5  
               550  150  -2.5  
               550  150  -1.5  
               550  150  -0.5  
               450  250  -9.68  
               450  250  -9.04  
               450  250  -8.4  
               450  250  -7.76  
               450  250  -7.12  
               450  250  -6.48  
               450  250  -5.84  
               450  250  -5.2  
               450  250  -4.56  
               450  250  -3.91999  
               350  350  -9.68  
               350  350  -9.04  
               350  350  -8.4  
               350  350  -7.76  
               350  350  -7.12  
               350  350  -6.48  
               350  350  -5.84  
               350  350  -5.2  
               350  350  -4.55999  
               350  350  -3.91999  
               250  450  -9.68  
               250  450  -9.04  
               250  450  -8.4  
               250  450  -7.76  
               250  450  -7.12  
               250  450  -6.48  
               250  450  -5.84  
               250  450  -5.2  
               250  450  -4.56  
               250  450  -3.92  
               150  550  -9.5  
               150  550  -8.5  
               150  550  -7.5  
               150  550  -6.5  
               150  550  -5.5  
               150  550  -4.5  
               150  550  -3.5  
               150  550  -2.5  
               150  550  -1.5  
               150  550  -0.5  
               50  650  -9.5  
               50  650  -8.5  
               50  650  -7.5  
               50  650  -6.5  
               50  650  -5.5  
               50  650  -4.5  
               50  650  -3.5  
               50  650  -2.5  
               50  650  -1.5  
               50  650  -0.5  
               650  150  -9.5  
               650  150  -8.5  
               650  150  -7.5  
               650  150  -6.5  
               650  150  -5.5  
               650  150  -4.5  
               650  150  -3.5  
               650  150  -2.5  
               650  150  -1.5  
               650  150  -0.5  
               550  250  -9.5  
               550  250  -8.5  
               550  250  -7.5  
               550  250  -6.5  
               550  250  -5.5  
               550  250  -4.5  
               550  250  -3.5  
               550  250  -2.5  
               550  250  -1.5  
               550  250  -0.5  
               450  350  -9.68  
               450  350  -9.04  
               450  350  -8.4  
               450  350  -7.76  
               450  350  -7.12  
               450  350  -6.48  
               450  350  -5.84  
               450  350  -5.2  
               450  350  -4.56  
               450  350  -3.91999  
               350  450  -9.68  
               350  450  -9.04  
               350  450  -8.4  
               350  450  -7.76  
               350  450  -7.12  
               350  450  -6.48  
               350  450  -5.84  
               350  450  -5.2  
               350  450  -4.56  
               350  450  -3.92  
               250  550  -9.5  
               250  550  -8.5  
               250  550  -7.5  
               250  550  -6.5  
               250  550  -5.5  
               250  550  -4.5  
               250  550  -3.5  
               250  550  -2.5  
               250  550  -1.5  
               250  550  -0.5  
               150  650  -9.5  
               150  650  -8.5  
               150  650  -7.5  
               150  650  -6.5  
               150  650  -5.5  
               150  650  -4.5  
               150  650  -3.5  
               150  650  -2.5  
               150  650  -1.5  
               150  650  -0.5  
               50  750  -9.5  
               50  750  -8.5  
               50  750  -7.5  
               50  750  -6.5  
               50  750  -5.5  
               50  750  -4.5  
               50  750  -3.5  
               50  750  -2.5  
               50  750  -1.5  
               50  750  -0.5  
               750  150  -9.5  
               750  150  -8.5  
               750  150  -7.5  
               750  150  -6.5  
               750  150  -5.5  
               750  150  -4.5  
               750  150  -3.5  
               750  150  -2.5  
               750  150  -1.5  
               750  150  -0.5  
               650  250  -9.5  
               650  250  -8.5  
               650  250  -7.5  
               650  250  -6.5  
               650  250  -5.5  
               650  250  -4.5  
               650  250  -3.5  
               650  250  -2.5  
               650  250  -1.5  
               650  250  -0.5  
               550  350  -9.5  
               550  350  -8.5  
               550  350  -7.5  
               550  350  -6.5  
               550  350  -5.5  
               550  350  -4.5  
               550  350  -3.5  
               550  350  -2.5  
               550  350  -1.5  
               550  350  -0.5  
               450  450  -9.68  
               450  450  -9.04  
               450  450  -8.4  
               450  450  -7.76  
               450  450  -7.12  
               450  450  -6.48  
               450  450  -5.84  
               450  450  -5.2  
               450  450  -4.56  
               450  450  -3.92  
               350  550  -9.5  
               350  550  -8.5  
               350  550  -7.5  
               350  550  -6.5  
               350  550  -5.5  
               350  550  -4.5  
               350  550  -3.5  
               350  550  -2.5  
               350  550  -1.5  
               350  550  -0.5  
               250  650  -9.5  
               250  650  -8.5  
               250  650  -7.5  
               250  650  -6.5  
               250  650  -5.5  
               250  650  -4.5  
               250  650  -3.5  
               250  650  -2.5  
               250  650  -1.5  
               250  650  -0.5  
               150  750  -9.5  
               150  750  -8.5  
               150  750  -7.5  
               150  750  -6.5  
               150  750  -5.5  
               150  750  -4.5  
               150  750  -3.5  
               150  750  -2.5  
               150  750  -1.5  
               150  750  -0.5  
               50  850  -9.5  
               50  850  -8.5  
               50  850  -7.5  
               50  850  -6.5  
               50  850  -5.5  
               50  850  -4.5  
               50  850  -3.5  
               50  850  -2.5  
               50  850  -1.5  
               50  850  -0.5  
               850  150  -9.5  
               850  150  -8.5  
               850  150  -7.5  
               850  150  -6.5  
               850  150  -5.5  
               850  150  -4.5  
               850  150  -3.5  
               850  150  -2.5  
               850  150  -1.5  
               850  150  -0.5  
               750  250  -9.5  
               750  250  -8.5  
               750  250  -7.5  
               750  250  -6.5  
               750  250  -5.5  
               750  250  -4.5  
               750  250  -3.5  
               750  250  -2.5  
               750  250  -1.5  
               750  250  -0.5  
               650  350  -9.5  
               650  350  -8.5  
               650  350  -7.5  
               650  350  -6.5  
               650  350  -5.5  
               650  350  -4.5  
               650  350  -3.5  
               650  350  -2.5  
               650  350  -1.5  
               650  350  -0.5  
               550  450  -9.5  
               550  450  -8.5  
               550  450  -7.5  
               550  450  -6.5  
               550  450  -5.5  
               550  450  -4.5  
               550  450  -3.5  
               550  450  -2.5  
               550  450  -1.5  
               550  450  -0.5  
               450  550  -9.5  
               450  550  -8.5  
               450  550  -7.5  
               450  550  -6.5  
               450  550  -5.5  
               450  550  -4.5  
               450  550  -3.5  
               450  550  -2.5  
               450  550  -1.5  
               450  550  -0.5  
               350  650  -9.5  
               350  650  -8.5  
               350  650  -7.5  
               350  650  -6.5  
               350  650  -5.5  
               350  650  -4.5  
               350  650  -3.5  
               350  650  -2.5  
               350  650  -1.5  
               350  650  -0.5  
               250  750  -9.5  
               250  750  -8.5  
               250  750  -7.5  
               250  750  -6.5  
               250  750  -5.5  
               250  750  -4.5  
               250  750  -3.5  
               250  750  -2.5  
               250  750  -1.5  
               250  750  -0.5  
               150  850  -9.5  
               150  850  -8.5  
               150  850  -7.5  
               150  850  -6.5  
               150  850  -5.5  
               150  850  -4.5  
               150  850  -3.5  
               150  850  -2.5  
               150  850  -1.5  
               150  850  -0.5  
               50  950  -9.5  
               50  950  -8.5  
               50  950  -7.5  
               50  950  -6.5  
               50  950  -5.5  
               50  950  -4.5  
               50  950  -3.5  
               50  950  -2.5  
               50  950  -1.5  
               50  950  -0.5  
               950  150  -9.5  
               950  150  -8.5  
               950  150  -7.5  
               950  150  -6.5  
               950  150  -5.5  
               950  150  -4.5  
               950  150  -3.5  
               950  150  -2.5  
               950  150  -1.5  
               950  150  -0.5  
               850  250  -9.5  
               850  250  -8.5  
               850  250  -7.5  
               850  250  -6.5  
               850  250  -5.5  
               850  250  -4.5  
               850  250  -3.5  
               850  250  -2.5  
               850  250  -1.5  
               850  250  -0.5  
               750  350  -9.5  
               750  350  -8.5  
               750  350  -7.5  
               750  350  -6.5  
               750  350  -5.5  
               750  350  -4.5  
               750  350  -3.5  
               750  350  -2.5  
               750  350  -1.5  
               750  350  -0.5  
               650  450  -9.5  
               650  450  -8.5  
               650  450  -7.5  
               650  450  -6.5  
               650  450  -5.5  
               650  450  -4.5  
               650  450  -3.5  
               650  450  -2.5  
               650  450  -1.5  
               650  450  -0.5  
               550  550  -9.5  
               550  550  -8.5  
               550  550  -7.5  
               550  550  -6.5  
               550  550  -5.5  
               550  550  -4.5  
               550  550  -3.5  
               550  550  -2.5  
               550  550  -1.5  
               550  550  -0.5  
               450  650  -9.5  
               450  650  -8.5  
               450  650  -7.5  
               450  650  -6.5  
               450  650  -5.5  
               450  650  -4.5  
               450  650  -3.5  
               450  650  -2.5  
               450  650  -1.5  
               450  650  -0.5  
               350  750  -9.5  
               350  750  -8.5  
               350  750  -7.5  
               350  750  -6.5  
               350  750  -5.5  
               350  750  -4.5  
               350  750  -3.5  
               350  750  -2.5  
               350  750  -1.5  
               350  750  -0.5  
               250  850  -9.5  
               250  850  -8.5  
               250  850  -7.5  
               250  850  -6.5  
               250  850  -5.5  
               250  850  -4.5  
               250  850  -3.5  
               250  850  -2.5  
               250  850  -1.5  
               250  850  -0.5  
               150  950  -9.5  
               150  950  -8.5  
               150  950  -7.5  
               150  950  -6.5  
               150  950  -5.5  
               150  950  -4.5  
               150  950  -3.5  
               150  950  -2.5  
               150  950  -1.5  
               150  950  -0.5  
               50  1050  -9.5  
               50  1050  -8.5  
               50  1050  -7.5  
               50  1050  -6.5  
               50  1050  -5.5  
               50  1050  -4.5  
               50  1050  -3.5  
               50  1050  -2.5  
               50  1050  -1.5  
               50  1050  -0.5  
               1050  150  -9.5  
               1050  150  -8.5  
               1050  150  -7.5  
               1050  150  -6.5  
               1050  150  -5.5  
               1050  150  -4.5  
               1050  150  -3.5  
               1050  150  -2.5  
               1050  150  -1.5  
               1050  150  -0.5  
               950  250  -9.40997  
               950  250  -8.22992  
               950  250  -7.04987  
               950  250  -5.86982  
               950  250  -4.68977  
               950  250  -3.50972  
               950  250  -2.32967  
               950  250  -1.14962  
               950  250  0.0304356  
               950  250  1.21049  
               850  350  -9.5  
               850  350  -8.5  
               850  350  -7.5  
               850  350  -6.5  
               850  350  -5.5  
               850  350  -4.5  
               850  350  -3.5  
               850  350  -2.5  
               850  350  -1.5  
               850  350  -0.5  
               750  450  -9.5  
               750  450  -8.5  
               750  450  -7.5  
               750  450  -6.5  
               750  450  -5.5  
               750  450  -4.5  
               750  450  -3.5  
               750  450  -2.5  
               750  450  -1.5  
               750  450  -0.5  
               650  550  -9.5  
               650  550  -8.5  
               650  550  -7.5  
               650  550  -6.5  
               650  550  -5.5  
               650  550  -4.5  
               650  550  -3.5  
               650  550  -2.5  
               650  550  -1.5  
               650  550  -0.5  
               550  650  -9.5  
               550  650  -8.5  
               550  650  -7.5  
               550  650  -6.5  
               550  650  -5.5  
               550  650  -4.5  
               550  650  -3.5  
               550  650  -2.5  
               550  650  -1.5  
               550  650  -0.5  
               450  750  -9.5  
               450  750  -8.5  
               450  750  -7.5  
               450  750  -6.5  
               450  750  -5.5  
               450  750  -4.5  
               450  750  -3.5  
               450  750  -2.5  
               450  750  -1.5  
               450  750  -0.5  
               350  850  -9.5  
               350  850  -8.5  
               350  850  -7.5  
               350  850  -6.5  
               350  850  -5.5  
               350  850  -4.5  
               350  850  -3.5  
               350  850  -2.5  
               350  850  -1.5  
               350  850  -0.5  
               250  950  -9.5  
               250  950  -8.5  
               250  950  -7.5  
               250  950  -6.5  
               250  950  -5.5  
               250  950  -4.5  
               250  950  -3.5  
               250  950  -2.5  
               250  950  -1.5  
               250  950  -0.5  
               150  1050  -9.5  
               150  1050  -8.5  
               150  1050  -7.5  
               150  1050  -6.5  
               150  1050  -5.5  
               150  1050  -4.5  
               150  1050  -3.5  
               150  1050  -2.5  
               150  1050  -1.5  
               150  1050  -0.5  
               1150  150  -9.5  
               1150  150  -8.5  
               1150  150  -7.5  
               1150  150  -6.5  
               1150  150  -5.5  
               1150  150  -4.5  
               1150  150  -3.5  
               1150  150  -2.5  
               1150  150  -1.5  
               1150  150  -0.5  
               1050  250  -9.41  
               1050  250  -8.22999  
               1050  250  -7.04998  
               1050  250  -5.86998  
               1050  250  -4.68997  
               1050  250  -3.50996  
               1050  250  -2.32996  
               1050  250  -1.14995  
               1050  250  0.030055  
               1050  250  1.21006  
               950  350  -9.40994  
               950  350  -8.22983  
               950  350  -7.04971  
               950  350  -5.8696  
               950  350  -4.68948  
               950  350  -3.50937  
               950  350  -2.32925  
               950  350  -1.14913  
               950  350  0.0309806  
               950  350  1.2111  
               850  450  -9.5  
               850  450  -8.5  
               850  450  -7.5  
               850  450  -6.5  
               850  450  -5.5  
               850  450  -4.5  
               850  450  -3.5  
               850  450  -2.5  
               850  450  -1.5  
               850  450  -0.5  
               750  550  -9.5  
               750  550  -8.5  
               750  550  -7.5  
               750  550  -6.5  
               750  550  -5.5  
               750  550  -4.5  
               750  550  -3.5  
               750  550  -2.5  
               750  550  -1.5  
               750  550  -0.5  
               650  650  -9.5  
               650  650  -8.5  
               650  650  -7.5  
               650  650  -6.5  
               650  650  -5.5  
               650  650  -4.5  
               650  650  -3.5  
               650  650  -2.5  
               650  650  -1.5  
               650  650  -0.5  
               550  750  -9.5  
               550  750  -8.5  
               550  750  -7.5  
               550  750  -6.5  
               550  750  -5.5  
               550  750  -4.5  
               550  750  -3.5  
               550  750  -2.5  
               550  750  -1.5  
               550  750  -0.5  
               450  850  -9.5  
               450  850  -8.5  
               450  850  -7.5  
               450  850  -6.5  
               450  850  -5.5  
               450  850  -4.5  
               450  850  -3.5  
               450  850  -2.5  
               450  850  -1.5  
               450  850  -0.5  
               350  950  -9.5  
               350  950  -8.5  
               350  950  -7.5  
               350  950  -6.5  
               350  950  -5.5  
               350  950  -4.5  
               350  950  -3.5  
               350  950  -2.5  
               350  950  -1.5  
               350  950  -0.5  
               250  1050  -9.5  
               250  1050  -8.5  
               250  1050  -7.5  
               250  1050  -6.5  
               250  1050  -5.5  
               250  1050  -4.5  
               250  1050  -3.5  
               250  1050  -2.5  
               250  1050  -1.5  
               250  1050  -0.5  
               1250  150  -9.5  
               1250  150  -8.5  
               1250  150  -7.5  
               1250  150  -6.5  
               1250  150  -5.5  
               1250  150  -4.5  
               1250  150  -3.5  
               1250  150  -2.5  
               1250  150  -1.5  
               1250  150  -0.5  
               1150  250  -9.41002  
               1150  250  -8.23007  
               1150  250  -7.05011  
               1150  250  -5.87015  
               1150  250  -4.6902  
               1150  250  -3.51024  
               1150  250  -2.33028  
               1150  250  -1.15033  
               1150  250  0.0296308  
               1150  250  1.20959  
               1050  350  -9.41001  
               1050  350  -8.23003  
               1050  350  -7.05005  
               1050  350  -5.87006  
               1050  350  -4.69008  
               1050  350  -3.5101  
               1050  350  -2.33012  
               1050  350  -1.15014  
               1050  350  0.0298435  
               1050  350  1.20983  
               950  450  -9.40997  
               950  450  -8.22992  
               950  450  -7.04987  
               950  450  -5.86982  
               950  450  -4.68977  
               950  450  -3.50972  
               950  450  -2.32967  
               950  450  -1.14962  
               950  450  0.0304357  
               950  450  1.21049  
               850  550  -9.5  
               850  550  -8.5  
               850  550  -7.5  
               850  550  -6.5  
               850  550  -5.5  
               850  550  -4.5  
               850  550  -3.5  
               850  550  -2.5  
               850  550  -1.5  
               850  550  -0.5  
               750  650  -9.5  
               750  650  -8.5  
               750  650  -7.5  
               750  650  -6.5  
               750  650  -5.5  
               750  650  -4.5  
               750  650  -3.5  
               750  650  -2.5  
               750  650  -1.5  
               750  650  -0.5  
               650  750  -9.5  
               650  750  -8.5  
               650  750  -7.5  
               650  750  -6.5  
               650  750  -5.5  
               650  750  -4.5  
               650  750  -3.5  
               650  750  -2.5  
               650  750  -1.5  
               650  750  -0.5  
               550  850  -9.5  
               550  850  -8.5  
               550  850  -7.5  
               550  850  -6.5  
               550  850  -5.5  
               550  850  -4.5  
               550  850  -3.5  
               550  850  -2.5  
               550  850  -1.5  
               550  850  -0.5  
               450  950  -9.5  
               450  950  -8.5  
               450  950  -7.5  
               450  950  -6.5  
               450  950  -5.5  
               450  950  -4.5  
               450  950  -3.5  
               450  950  -2.5  
               450  950  -1.5  
               450  950  -0.5  
               350  1050  -9.5  
               350  1050  -8.5  
               350  1050  -7.5  
               350  1050  -6.5  
               350  1050  -5.5  
               350  1050  -4.5  
               350  1050  -3.5  
               350  1050  -2.5  
               350  1050  -1.5  
               350  1050  -0.5  
               1350  150  -9.5  
               1350  150  -8.5  
               1350  150  -7.5  
               1350  150  -6.5  
               1350  150  -5.5  
               1350  150  -4.5  
               1350  150  -3.5  
               1350  150  -2.5  
               1350  150  -1.5  
               1350  150  -0.5  
               1250  250  -9.41001  
               1250  250  -8.23004  
               1250  250  -7.05007  
               1250  250  -5.87009  
               1250  250  -4.69012  
               1250  250  -3.51015  
               1250  250  -2.33017  
               1250  250  -1.1502  
               1250  250  0.0297739  
               1250  250  1.20975  
               1150  350  -9.41002  
               1150  350  -8.23007  
               1150  350  -7.05011  
               1150  350  -5.87016  
               1150  350  -4.6902  
               1150  350  -3.51025  
               1150  350  -2.33029  
               1150  350  -1.15034  
               1150  350  0.029616  
               1150  350  1.20957  
               1050  450  -9.41  
               1050  450  -8.22999  
               1050  450  -7.04998  
               1050  450  -5.86998  
               1050  450  -4.68997  
               1050  450  -3.50996  
               1050  450  -2.32996  
               1050  450  -1.14995  
               1050  450  0.0300549  
               1050  450  1.21006  
               950  550  -9.5  
               950  550  -8.5  
               950  550  -7.5  
               950  550  -6.5  
               950  550  -5.5  
               950  550  -4.5  
               950  550  -3.5  
               950  550  -2.5  
               950  550  -1.5  
               950  550  -0.5  
               850  650  -9.5  
               850  650  -8.5  
               850  650  -7.5  
               850  650  -6.5  
               850  650  -5.5  
               850  650  -4.5  
               850  650  -3.5  
               850  650  -2.5  
               850  650  -1.5  
               850  650  -0.5  
               750  750  -9.5  
               750  750  -8.5  
               750  750  -7.5  
               750  750  -6.5  
               750  750  -5.5  
               750  750  -4.5  
               750  750  -3.5  
               750  750  -2.5  
               750  750  -1.5  
               750  750  -0.5  
               650  850  -9.5  
               650  850  -8.5  
               650  850  -7.5  
               650  850  -6.5  
               650  850  -5.5  
               650  850  -4.5  
               650  850  -3.5  
               650  850  -2.5  
               650  850  -1.5  
               650  850  -0.5  
               550  950  -9.5  
               550  950  -8.5  
               550  950  -7.5  
               550  950  -6.5  
               550  950  -5.5  
               550  950  -4.5  
               550  950  -3.5  
               550  950  -2.5  
               550  950  -1.5  
               550  950  -0.5  
               450  1050  -9.5  
               450  1050  -8.5  
               450  1050  -7.5  
               450  1050  -6.5  
               450  1050  -5.5  
               450  1050  -4.5  
               450  1050  -3.5  
               450  1050  -2.5  
               450  1050  -1.5  
               450  1050  -0.5  
               1450  150  -9.5  
               1450  150  -8.5  
               1450  150  -7.5  
               1450  150  -6.5  
               1450  150  -5.5  
               1450  150  -4.5  
               1450  150  -3.5  
               1450  150  -2.5  
               1450  150  -1.5  
               1450  150  -0.5  
               1350  250  -9.5  
               1350  250  -8.5  
               1350  250  -7.5  
               1350  250  -6.5  
               1350  250  -5.5  
               1350  250  -4.5  
               1350  250  -3.5  
               1350  250  -2.5  
               1350  250  -1.5  
               1350  250  -0.5  
               1250  350  -9.41001  
               1250  350  -8.23004  
               1250  350  -7.05007  
               1250  350  -5.87009  
               1250  350  -4.69012  
               1250  350  -3.51015  
               1250  350  -2.33018  
               1250  350  -1.1502  
               1250  350  0.0297694  
               1250  350  1.20974  
               1150  450  -9.41002  
               1150  450  -8.23007  
               1150  450  -7.05011  
               1150  450  -5.87015  
               1150  450  -4.6902  
               1150  450  -3.51024  
               1150  450  -2.33028  
               1150  450  -1.15033  
               1150  450  0.0296309  
               1150  450  1.20959  
               1050  550  -9.5  
               1050  550  -8.5  
               1050  550  -7.5  
               1050  550  -6.5  
               1050  550  -5.5  
               1050  550  -4.5  
               1050  550  -3.5  
               1050  550  -2.5  
               1050  550  -1.5  
               1050  550  -0.5  
               950  650  -9.5  
               950  650  -8.5  
               950  650  -7.5  
               950  650  -6.5  
               950  650  -5.5  
               950  650  -4.5  
               950  650  -3.5  
               950  650  -2.5  
               950  650  -1.5  
               950  650  -0.500001  
               850  750  -9.5  
               850  750  -8.5  
               850  750  -7.5  
               850  750  -6.5  
               850  750  -5.5  
               850  750  -4.5  
               850  750  -3.5  
               850  750  -2.5  
               850  750  -1.5  
               850  750  -0.5  
               750  850  -9.5  
               750  850  -8.5  
               750  850  -7.5  
               750  850  -6.5  
               750  850  -5.5  
               750  850  -4.5  
               750  850  -3.5  
               750  850  -2.5  
               750  850  -1.5  
               750  850  -0.5  
               650  950  -9.5  
               650  950  -8.5  
               650  950  -7.5  
               650  950  -6.5  
               650  950  -5.5  
               650  950  -4.5  
               650  950  -3.5  
               650  950  -2.5  
               650  950  -1.5  
               650  950  -0.5  
               550  1050  -9.5  
               550  1050  -8.5  
               550  1050  -7.5  
               550  1050  -6.5  
               550  1050  -5.5  
               550  1050  -4.5  
               550  1050  -3.5  
               550  1050  -2.5  
               550  1050  -1.5  
               550  1050  -0.5  
               1550  150  -9.5  
               1550  150  -8.5  
               1550  150  -7.5  
               1550  150  -6.5  
               1550  150  -5.5  
               1550  150  -4.5  
               1550  150  -3.5  
               1550  150  -2.5  
               1550  150  -1.5  
               1550  150  -0.5  
               1450  250  -9.5  
               1450  250  -8.5  
               1450  250  -7.5  
               1450  250  -6.5  
               1450  250  -5.5  
               1450  250  -4.5  
               1450  250  -3.5  
               1450  250  -2.5  
               1450  250  -1.5  
               1450  250  -0.5  
               1350  350  -9.5  
               1350  350  -8.5  
               1350  350  -7.5  
               1350  350  -6.5  
               1350  350  -5.5  
               1350  350  -4.5  
               1350  350  -3.5  
               1350  350  -2.5  
               1350  350  -1.5  
               1350  350  -0.5  
               1250  450  -9.41001  
               1250  450  -8.23004  
               1250  450  -7.05007  
               1250  450  -5.87009  
               1250  450  -4.69012  
               1250  450  -3.51015  
               1250  450  -2.33017  
               1250  450  -1.1502  
               1250  450  0.0297737  
               1250  450  1.20975  
               1150  550  -9.5  
               1150  550  -8.5  
               1150  550  -7.5  
               1150  550  -6.5  
               1150  550  -5.5  
               1150  550  -4.5  
               1150  550  -3.5  
               1150  550  -2.5  
               1150  550  -1.5  
               1150  550  -0.500001  
               1050  650  -9.5  
               1050  650  -8.5  
               1050  650  -7.5  
               1050  650  -6.5  
               1050  650  -5.5  
               1050  650  -4.5  
               1050  650  -3.5  
               1050  650  -2.5  
               1050  650  -1.5  
               1050  650  -0.5  
               950  750  -9.5  
               950  750  -8.5  
               950  750  -7.5  
               950  750  -6.5  
               950  750  -5.5  
               950  750  -4.5  
               950  750  -3.5  
               950  750  -2.5  
               950  750  -1.5  
               950  750  -0.499999  
               850  850  -9.5  
               850  850  -8.5  
               850  850  -7.5  
               850  850  -6.5  
               850  850  -5.5  
               850  850  -4.5  
               850  850  -3.5  
               850  850  -2.5  
               850  850  -1.5  
               850  850  -0.5  
               750  950  -9.5  
               750  950  -8.5  
               750  950  -7.5  
               750  950  -6.5  
               750  950  -5.5  
               750  950  -4.5  
               750  950  -3.5  
               750  950  -2.5  
               750  950  -1.5  
               750  950  -0.5  
               650  1050  -9.5  
               650  1050  -8.5  
               650  1050  -7.5  
               650  1050  -6.5  
               650  1050  -5.5  
               650  1050  -4.5  
               650  1050  -3.5  
               650  1050  -2.5  
               650  1050  -1.5  
               650  1050  -0.5  
               1650  150  -9.5  
               1650  150  -8.5  
               1650  150  -7.5  
               1650  150  -6.5  
               1650  150  -5.5  
               1650  150  -4.5  
               1650  150  -3.5  
               1650  150  -2.5  
               1650  150  -1.5  
               1650  150  -0.5  
               1550  250  -9.5  
               1550  250  -8.5  
               1550  250  -7.5  
               1550  250  -6.5  
               1550  250  -5.5  
               1550  250  -4.5  
               1550  250  -3.5  
               1550  250  -2.5  
               1550  250  -1.5  
               1550  250  -0.5  
               1450  350  -9.5  
               1450  350  -8.5  
               1450  350  -7.5  
               1450  350  -6.5  
               1450  350  -5.5  
               1450  350  -4.5  
               1450  350  -3.5  
               1450  350  -2.5  
               1450  350  -1.5  
               1450  350  -0.5  
               1350  450  -9.5  
               1350  450  -8.5  
               1350  450  -7.5  
               1350  450  -6.5  
               1350  450  -5.5  
               1350  450  -4.5  
               1350  450  -3.5  
               1350  450  -2.5  
               1350  450  -1.5  
               1350  450  -0.5  
               1250  550  -9.5  
               1250  550  -8.5  
               1250  550  -7.5  
               1250  550  -6.5  
               1250  550  -5.5  
               1250  550  -4.5  
               1250  550  -3.5  
               1250  550  -2.5  
               1250  550  -1.5  
               1250  550  -0.500001  
               1150  650  -9.5  
               1150  650  -8.5  
               1150  650  -7.5  
               1150  650  -6.5  
               1150  650  -5.5  
               1150  650  -4.5  
               1150  650  -3.5  
               1150  650  -2.5  
               1150  650  -1.5  
               1150  650  -0.5  
               1050  750  -9.5  
               1050  750  -8.5  
               1050  750  -7.5  
               1050  750  -6.5  
               1050  750  -5.5  
               1050  750  -4.5  
               1050  750  -3.5  
               1050  750  -2.5  
               1050  750  -1.5  
               1050  750  -0.5  
               950  850  -9.5  
               950  850  -8.5  
               950  850  -7.5  
               950  850  -6.5  
               950  850  -5.5  
               950  850  -4.5  
               950  850  -3.5  
               950  850  -2.5  
               950  850  -1.5  
               950  850  -0.5  
               850  950  -9.5  
               850  950  -8.5  
               850  950  -7.5  
               850  950  -6.5  
               850  950  -5.5  
               850  950  -4.5  
               850  950  -3.5  
               850  950  -2.5  
               850  950  -1.5  
               850  950  -0.5  
               750  1050  -9.5  
               750  1050  -8.5  
               750  1050  -7.5  
               750  1050  -6.5  
               750  1050  -5.5  
               750  1050  -4.5  
               750  1050  -3.5  
               750  1050  -2.5  
               750  1050  -1.5  
               750  1050  -0.5  
               1750  150  -9.5  
               1750  150  -8.5  
               1750  150  -7.5  
               1750  150  -6.5  
               1750  150  -5.5  
               1750  150  -4.5  
               1750  150  -3.5  
               1750  150  -2.5  
               1750  150  -1.5  
               1750  150  -0.5  
               1650  250  -9.5  
               1650  250  -8.5  
               1650  250  -7.5  
               1650  250  -6.5  
               1650  250  -5.5  
               1650  250  -4.5  
               1650  250  -3.5  
               1650  250  -2.5  
               1650  250  -1.5  
               1650  250  -0.5  
               1550  350  -9.5  
               1550  350  -8.5  
               1550  350  -7.5  
               1550  350  -6.5  
               1550  350  -5.5  
               1550  350  -4.5  
               1550  350  -3.5  
               1550  350  -2.5  
               1550  350  -1.5  
               1550  350  -0.5  
               1450  450  -9.5  
               1450  450  -8.5  
               1450  450  -7.5  
               1450  450  -6.5  
               1450  450  -5.5  
               1450  450  -4.5  
               1450  450  -3.5  
               1450  450  -2.5  
               1450  450  -1.5  
               1450  450  -0.5  
               1350  550  -9.5  
               1350  550  -8.5  
               1350  550  -7.5  
               1350  550  -6.5  
               1350  550  -5.5  
               1350  550  -4.5  
               1350  550  -3.5  
               1350  550  -2.5  
               1350  550  -1.5  
               1350  550  -0.500001  
               1250  650  -9.5  
               1250  650  -8.5  
               1250  650  -7.5  
               1250  650  -6.5  
               1250  650  -5.5  
               1250  650  -4.5  
               1250  650  -3.5  
               1250  650  -2.5  
               1250  650  -1.5  
               1250  650  -0.5  
               1150  750  -9.5  
               1150  750  -8.5  
               1150  750  -7.5  
               1150  750  -6.5  
               1150  750  -5.5  
               1150  750  -4.5  
               1150  750  -3.5  
               1150  750  -2.5  
               1150  750  -1.5  
               1150  750  -0.5  
               1050  850  -9.5  
               1050  850  -8.5  
               1050  850  -7.5  
               1050  850  -6.5  
               1050  850  -5.5  
               1050  850  -4.5  
               1050  850  -3.5  
               1050  850  -2.5  
               1050  850  -1.5  
               1050  850  -0.5  
               950  950  -9.5  
               950  950  -8.5  
               950  950  -7.5  
               950  950  -6.5  
               950  950  -5.5  
               950  950  -4.5  
               950  950  -3.5  
               950  950  -2.5  
               950  950  -1.5  
               950  950  -0.5  
               850  1050  -9.5  
               850  1050  -8.5  
               850  1050  -7.5  
               850  1050  -6.5  
               850  1050  -5.5  
               850  1050  -4.5  
               850  1050  -3.5  
               850  1050  -2.5  
               850  1050  -1.5  
               850  1050  -0.5  
               1850  150  -9.5  
               1850  150  -8.5  
               1850  150  -7.5  
               1850  150  -6.5  
               1850  150  -5.5  
               1850  150  -4.5  
               1850  150  -3.5  
               1850  150  -2.5  
               1850  150  -1.5  
               1850  150  -0.5  
               1750  250  -9.5  
               1750  250  -8.5  
               1750  250  -7.5  
               1750  250  -6.5  
               1750  250  -5.5  
               1750  250  -4.5  
               1750  250  -3.5  
               1750  250  -2.5  
               1750  250  -1.5  
               1750  250  -0.5  
               1650  350  -9.5  
               1650  350  -8.5  
               1650  350  -7.5  
               1650  350  -6.5  
               1650  350  -5.5  
               1650  350  -4.5  
               1650  350  -3.5  
               1650  350  -2.5  
               1650  350  -1.5  
               1650  350  -0.5  
               1550  450  -9.5  
               1550  450  -8.5  
               1550  450  -7.5  
               1550  450  -6.5  
               1550  450  -5.5  
               1550  450  -4.5  
               1550  450  -3.5  
               1550  450  -2.5  
               1550  450  -1.5  
               1550  450  -0.5  
               1450  550  -9.5  
               1450  550  -8.5  
               1450  550  -7.5  
               1450  550  -6.5  
               1450  550  -5.5  
               1450  550  -4.5  
               1450  550  -3.5  
               1450  550  -2.5  
               1450  550  -1.5  
               1450  550  -0.5  
               1350  650  -9.5  
               1350  650  -8.5  
               1350  650  -7.5  
               1350  650  -6.5  
               1350  650  -5.5  
               1350  650  -4.5  
               1350  650  -3.5  
               1350  650  -2.5  
               1350  650  -1.5  
               1350  650  -0.5  
               1250  750  -9.5  
               1250  750  -8.5  
               1250  750  -7.5  
               1250  750  -6.5  
               1250  750  -5.5  
               1250  750  -4.5  
               1250  750  -3.5  
               1250  750  -2.5  
               1250  750  -1.5  
               1250  750  -0.499999  
               1150  850  -9.5  
               1150  850  -8.5  
               1150  850  -7.5  
               1150  850  -6.5  
               1150  850  -5.5  
               1150  850  -4.5  
               1150  850  -3.5  
               1150  850  -2.5  
               1150  850  -1.5  
               1150  850  -0.5  
               1050  950  -9.5  
               1050  950  -8.5  
               1050  950  -7.5  
               1050  950  -6.5  
               1050  950  -5.5  
               1050  950  -4.5  
               1050  950  -3.5  
               1050  950  -2.5  
               1050  950  -1.5  
               1050  950  -0.5  
               950  1050  -9.5  
               950  1050  -8.5  
               950  1050  -7.5  
               950  1050  -6.5  
               950  1050  -5.5  
               950  1050  -4.5  
               950  1050  -3.5  
               950  1050  -2.5  
               950  1050  -1.5  
               950  1050  -0.5  
               1950  150  -9.5  
               1950  150  -8.5  
               1950  150  -7.5  
               1950  150  -6.5  
               1950  150  -5.5  
               1950  150  -4.5  
               1950  150  -3.5  
               1950  150  -2.5  
               1950  150  -1.5  
               1950  150  -0.5  
               1850  250  -9.5  
               1850  250  -8.5  
               1850  250  -7.5  
               1850  250  -6.5  
               1850  250  -5.5  
               1850  250  -4.5  
               1850  250  -3.5  
               1850  250  -2.5  
               1850  250  -1.5  
               1850  250  -0.5  
               1750  350  -9.5  
               1750  350  -8.5  
               1750  350  -7.5  
               1750  350  -6.5  
               1750  350  -5.5  
               1750  350  -4.5  
               1750  350  -3.5  
               1750  350  -2.5  
               1750  350  -1.5  
               1750  350  -0.5  
               1650  450  -9.5  
               1650  450  -8.5  
               1650  450  -7.5  
               1650  450  -6.5  
               1650  450  -5.5  
               1650  450  -4.5  
               1650  450  -3.5  
               1650  450  -2.5  
               1650  450  -1.5  
               1650  450  -0.5  
               1550  550  -9.5  
               1550  550  -8.5  
               1550  550  -7.5  
               1550  550  -6.5  
               1550  550  -5.5  
               1550  550  -4.5  
               1550  550  -3.5  
               1550  550  -2.5  
               1550  550  -1.5  
               1550  550  -0.5  
               1450  650  -9.5  
               1450  650  -8.5  
               1450  650  -7.5  
               1450  650  -6.5  
               1450  650  -5.5  
               1450  650  -4.5  
               1450  650  -3.5  
               1450  650  -2.5  
               1450  650  -1.5  
               1450  650  -0.5  
               1350  750  -9.5  
               1350  750  -8.5  
               1350  750  -7.5  
               1350  750  -6.5  
               1350  750  -5.5  
               1350  750  -4.5  
               1350  750  -3.5  
               1350  750  -2.5  
               1350  750  -1.5  
               1350  750  -0.5  
               1250  850  -9.5  
               1250  850  -8.5  
               1250  850  -7.5  
               1250  850  -6.5  
               1250  850  -5.5  
               1250  850  -4.5  
               1250  850  -3.5  
               1250  850  -2.5  
               1250  850  -1.5  
               1250  850  -0.5  
               1150  950  -9.5  
               1150  950  -8.5  
               1150  950  -7.5  
               1150  950  -6.5  
               1150  950  -5.5  
               1150  950  -4.5  
               1150  950  -3.5  
               1150  950  -2.5  
               1150  950  -1.5  
               1150  950  -0.5  
               1050  1050  -9.5  
               1050  1050  -8.5  
               1050  1050  -7.5  
               1050  1050  -6.5  
               1050  1050  -5.5  
               1050  1050  -4.5  
               1050  1050  -3.5  
               1050  1050  -2.5  
               1050  1050  -1.5  
               1050  1050  -0.5  
               1950  250  -9.5  
               1950  250  -8.5  
               1950  250  -7.5  
               1950  250  -6.5  
               1950  250  -5.5  
               1950  250  -4.5  
               1950  250  -3.5  
               1950  250  -2.5  
               1950  250  -1.5  
               1950  250  -0.5  
               1850  350  -9.5  
               1850  350  -8.5  
               1850  350  -7.5  
               1850  350  -6.5  
               1850  350  -5.5  
               1850  350  -4.5  
               1850  350  -3.5  
               1850  350  -2.5  
               1850  350  -1.5  
               1850  350  -0.5  
               1750  450  -9.5  
               1750  450  -8.5  
               1750  450  -7.5  
               1750  450  -6.5  
               1750  450  -5.5  
               1750  450  -4.5  
               1750  450  -3.5  
               1750  450  -2.5  
               1750  450  -1.5  
               1750  450  -0.5  
               1650  550  -9.5  
               1650  550  -8.5  
               1650  550  -7.5  
               1650  550  -6.5  
               1650  550  -5.5  
               1650  550  -4.5  
               1650  550  -3.5  
               1650  550  -2.5  
               1650  550  -1.5  
               1650  550  -0.5  
               1550  650  -9.5  
               1550  650  -8.5  
               1550  650  -7.5  
               1550  650  -6.5  
               1550  650  -5.5  
               1550  650  -4.5  
               1550  650  -3.5  
               1550  650  -2.5  
               1550  650  -1.5  
               1550  650  -0.5  
               1450  750  -9.5  
               1450  750  -8.5  
               1450  750  -7.5  
               1450  750  -6.5  
               1450  750  -5.5  
               1450  750  -4.5  
               1450  750  -3.5  
               1450  750  -2.5  
               1450  750  -1.5  
               1450  750  -0.5  
               1350  850  -9.59  
               1350  850  -8.77  
               1350  850  -7.95  
               1350  850  -7.13  
               1350  850  -6.31  
               1350  850  -5.49  
               1350  850  -4.67  
               1350  850  -3.85  
               1350  850  -3.03  
               1350  850  -2.21  
               1250  950  -9.5  
               1250  950  -8.5  
               1250  950  -7.5  
               1250  950  -6.5  
               1250  950  -5.5  
               1250  950  -4.5  
               1250  950  -3.5  
               1250  950  -2.5  
               1250  950  -1.5  
               1250  950  -0.5  
               1150  1050  -9.5  
               1150  1050  -8.5  
               1150  1050  -7.5  
               1150  1050  -6.5  
               1150  1050  -5.5  
               1150  1050  -4.5  
               1150  1050  -3.5  
               1150  1050  -2.5  
               1150  1050  -1.5  
               1150  1050  -0.5  
               1950  350  -9.5  
               1950  350  -8.5  
               1950  350  -7.5  
               1950  350  -6.5  
               1950  350  -5.5  
               1950  350  -4.5  
               1950  350  -3.5  
               1950  350  -2.5  
               1950  350  -1.5  
               1950  350  -0.5  
               1850  450  -9.5  
               1850  450  -8.5  
               1850  450  -7.5  
               1850  450  -6.5  
               1850  450  -5.5  
               1850  450  -4.5  
               1850  450  -3.5  
               1850  450  -2.5  
               1850  450  -1.5  
               1850  450  -0.5  
               1750  550  -9.5  
               1750  550  -8.5  
               1750  550  -7.5  
               1750  550  -6.5  
               1750  550  -5.5  
               1750  550  -4.5  
               1750  550  -3.5  
               1750  550  -2.5  
               1750  550  -1.5  
               1750  550  -0.5  
               1650  650  -9.5  
               1650  650  -8.5  
               1650  650  -7.5  
               1650  650  -6.5  
               1650  650  -5.5  
               1650  650  -4.5  
               1650  650  -3.5  
               1650  650  -2.5  
               1650  650  -1.5  
               1650  650  -0.5  
               1550  750  -9.5  
               1550  750  -8.5  
               1550  750  -7.5  
               1550  750  -6.5  
               1550  750  -5.5  
               1550  750  -4.5  
               1550  750  -3.5  
               1550  750  -2.5  
               1550  750  -1.5  
               1550  750  -0.5  
               1450  850  -9.59  
               1450  850  -8.77  
               1450  850  -7.95  
               1450  850  -7.13  
               1450  850  -6.31  
               1450  850  -5.49  
               1450  850  -4.67  
               1450  850  -3.85  
               1450  850  -3.03  
               1450  850  -2.21  
               1350  950  -9.59  
               1350  950  -8.77  
               1350  950  -7.95  
               1350  950  -7.13  
               1350  950  -6.31  
               1350  950  -5.49  
               1350  950  -4.67  
               1350  950  -3.85  
               1350  950  -3.03  
               1350  950  -2.21  
               1250  1050  -9.5  
               1250  1050  -8.5  
               1250  1050  -7.5  
               1250  1050  -6.5  
               1250  1050  -5.5  
               1250  1050  -4.5  
               1250  1050  -3.5  
               1250  1050  -2.5  
               1250  1050  -1.5  
               1250  1050  -0.5  
               1950  450  -9.5  
               1950  450  -8.5  
               1950  450  -7.5  
               1950  450  -6.5  
               1950  450  -5.5  
               1950  450  -4.5  
               1950  450  -3.5  
               1950  450  -2.5  
               1950  450  -1.5  
               1950  450  -0.5  
               1850  550  -9.5  
               1850  550  -8.5  
               1850  550  -7.5  
               1850  550  -6.5  
               1850  550  -5.5  
               1850  550  -4.5  
               1850  550  -3.5  
               1850  550  -2.5  
               1850  550  -1.5  
               1850  550  -0.5  
               1750  650  -9.5  
               1750  650  -8.5  
               1750  650  -7.5  
               1750  650  -6.5  
               1750  650  -5.5  
               1750  650  -4.5  
               1750  650  -3.5  
               1750  650  -2.5  
               1750  650  -1.5  
               1750  650  -0.5  
               1650  750  -9.5  
               1650  750  -8.5  
               1650  750  -7.5  
               1650  750  -6.5  
               1650  750  -5.5  
               1650  750  -4.5  
               1650  750  -3.5  
               1650  750  -2.5  
               1650  750  -1.5  
               1650  750  -0.5  
               1550  850  -9.59  
               1550  850  -8.77  
               1550  850  -7.95  
               1550  850  -7.13  
               1550  850  -6.31  
               1550  850  -5.49  
               1550  850  -4.67  
               1550  850  -3.85  
               1550  850  -3.03  
               1550  850  -2.21  
               1450  950  -9.59  
               1450  950  -8.77  
               1450  950  -7.95  
               1450  950  -7.13  
               1450  950  -6.31  
               1450  950  -5.49  
               1450  950  -4.67  
               1450  950  -3.85  
               1450  950  -3.03  
               1450  950  -2.21  
               1350  1050  -9.59  
               1350  1050  -8.77  
               1350  1050  -7.95  
               1350  1050  -7.13  
               1350  1050  -6.31  
               1350  1050  -5.49  
               1350  1050  -4.67  
               1350  1050  -3.85  
               1350  1050  -3.03  
               1350  1050  -2.21  
               1950  550  -9.5  
               1950  550  -8.5  
               1950  550  -7.5  
               1950  550  -6.5  
               1950  550  -5.5  
               1950  550  -4.5  
               1950  550  -3.5  
               1950  550  -2.5  
               1950  550  -1.5  
               1950  550  -0.5  
               1850  650  -9.5  
               1850  650  -8.5  
               1850  650  -7.5  
               1850  650  -6.5  
               1850  650  -5.5  
               1850  650  -4.5  
               1850  650  -3.5  
               1850  650  -2.5  
               1850  650  -1.5  
               1850  650  -0.5  
               1750  750  -9.5  
               1750  750  -8.5  
               1750  750  -7.5  
               1750  750  -6.5  
               1750  750  -5.5  
               1750  750  -4.5  
               1750  750  -3.5  
               1750  750  -2.5  
               1750  750  -1.5  
               1750  750  -0.5  
               1650  850  -9.59  
               1650  850  -8.77  
               1650  850  -7.95  
               1650  850  -7.13  
               1650  850  -6.31  
               1650  850  -5.49  
               1650  850  -4.67  
               1650  850  -3.85  
               1650  850  -3.03  
               1650  850  -2.21  
               1550  950  -9.59  
               1550  950  -8.77  
               1550  950  -7.95  
               1550  950  -7.13  
               1550  950  -6.31  
               1550  950  -5.49  
               1550  950  -4.67  
               1550  950  -3.85  
               1550  950  -3.03  
               1550  950  -2.21  
               1450  1050  -9.59  
               1450  1050  -8.77  
               1450  1050  -7.95  
               1450  1050  -7.13  
               1450  1050  -6.31  
               1450  1050  -5.49  
               1450  1050  -4.67  
               1450  1050  -3.85  
               1450  1050  -3.03  
               1450  1050  -2.21  
               1950  650  -9.5  
               1950  650  -8.5  
               1950  650  -7.5  
               1950  650  -6.5  
               1950  650  -5.5  
               1950  650  -4.5  
               1950  650  -3.5  
               1950  650  -2.5  
               1950  650  -1.5  
               1950  650  -0.5  
               1850  750  -9.5  
               1850  750  -8.5  
               1850  750  -7.5  
               1850  750  -6.5  
               1850  750  -5.5  
               1850  750  -4.5  
               1850  750  -3.5  
               1850  750  -2.5  
               1850  750  -1.5  
               1850  750  -0.5  
               1750  850  -9.5  
               1750  850  -8.5  
               1750  850  -7.5  
               1750  850  -6.5  
               1750  850  -5.5  
               1750  850  -4.5  
               1750  850  -3.5  
               1750  850  -2.5  
               1750  850  -1.5  
               1750  850  -0.5  
               1650  950  -9.59  
               1650  950  -8.77  
               1650  950  -7.95  
               1650  950  -7.13  
               1650  950  -6.31  
               1650  950  -5.49  
               1650  950  -4.67  
               1650  950  -3.85  
               1650  950  -3.03  
               1650  950  -2.21  
               1550  1050  -9.59  
               1550  1050  -8.77  
               1550  1050  -7.95  
               1550  1050  -7.13  
               1550  1050  -6.31  
               1550  1050  -5.49  
               1550  1050  -4.67  
               1550  1050  -3.85  
               1550  1050  -3.03  
               1550  1050  -2.21  
               1950  750  -9.5  
               1950  750  -8.5  
               1950  750  -7.5  
               1950  750  -6.5  
               1950  750  -5.5  
               1950  750  -4.5  
               1950  750  -3.5  
               1950  750  -2.5  
               1950  750  -1.5  
               1950  750  -0.5  
               1850  850  -9.5  
               1850  850  -8.5  
               1850  850  -7.5  
               1850  850  -6.5  
               1850  850  -5.5  
               1850  850  -4.5  
               1850  850  -3.5  
               1850  850  -2.5  
               1850  850  -1.5  
               1850  850  -0.5  
               1750  950  -9.5  
               1750  950  -8.5  
               1750  950  -7.5  
               1750  950  -6.5  
               1750  950  -5.5  
               1750  950  -4.5  
               1750  950  -3.5  
               1750  950  -2.5  
               1750  950  -1.5  
               1750  950  -0.5  
               1650  1050  -9.59  
               1650  1050  -8.77  
               1650  1050  -7.95  
               1650  1050  -7.13  
               1650  1050  -6.31  
               1650  1050  -5.49  
               1650  1050  -4.67  
               1650  1050  -3.85  
               1650  1050  -3.03  
               1650  1050  -2.21  
               1950  850  -9.5  
               1950  850  -8.5  
               1950  850  -7.5  
               1950  850  -6.5  
               1950  850  -5.5  
               1950  850  -4.5  
               1950  850  -3.5  
               1950  850  -2.5  
               1950  850  -1.5  
               1950  850  -0.5  
               1850  950  -9.5  
               1850  950  -8.5  
               1850  950  -7.5  
               1850  950  -6.5  
               1850  950  -5.5  
               1850  950  -4.5  
               1850  950  -3.5  
               1850  950  -2.5  
               1850  950  -1.5  
               1850  950  -0.5  
               1750  1050  -9.5  
               1750  1050  -8.5  
               1750  1050  -7.5  
               1750  1050  -6.5  
               1750  1050  -5.5  
               1750  1050  -4.5  
               1750  1050  -3.5  
               1750  1050  -2.5  
               1750  1050  -1.5  
               1750  1050  -0.5  
               1950  950  -9.5  
               1950  950  -8.5  
               1950  950  -7.5  
               1950  950  -6.5  
               1950  950  -5.5  
               1950  950  -4.5  
               1950  950  -3.5  
               1950  950  -2.5  
               1950  950  -1.5  
               1950  950  -0.5  
               1850  1050  -9.5  
               1850  1050  -8.5  
               1850  1050  -7.5  
               1850  1050  -6.5  
               1850  1050  -5.5  
               1850  1050  -4.5  
               1850  1050  -3.5  
               1850  1050  -2.5  
               1850  1050  -1.5  
               1850  1050  -0.5  
               1950  1050  -9.5  
               1950  1050  -8.5  
               1950  1050  -7.5  
               1950  1050  -6.5  
               1950  1050  -5.5  
               1950  1050  -4.5  
               1950  1050  -3.5  
               1950  1050  -2.5  
               1950  1050  -1.5  
               1950  1050  -0.5  
            </DataArray>
         </Points> 

         <Cells>
            <DataArray type="Int32" Name="connectivity" NumberOfComponents="1" format="ascii">
               
            </DataArray> 
            <DataArray type="Int32" Name="offsets" NumberOfComponents="1" format="ascii">
               
            </DataArray>
            <DataArray type="UInt8"  Name="types" NumberOfComponents="1" format="ascii">
               
            </DataArray>
         </Cells>
         <PointData Scalars="Rank sea_water_potential_density " Vectors="">
            <DataArray type="UInt32" Name="Rank" NumberOfComponents="1" format="ascii">
               0 0 0 0 0 0 0 0 0 0 0 0 0 0 0 0 0 0 0 0 0 0 0 0 0 0 0 0 0 0 0 0 0 0 0 0 0 0 0 0 0 0 0 0 0 0 0 0 0 0 0 0 0 0 0 0 0 0 0 0 0 0 0 0 0 0 0 0 0 0 0 0 0 0 0 0 0 0 0 0 0 0 0 0 0 0 0 0 0 0 0 0 0 0 0 0 0 0 0 0 0 0 0 0 0 0 0 0 0 0 0 0 0 0 0 0 0 0 0 0 0 0 0 0 0 0 0 0 0 0 0 0 0 0 0 0 0 0 0 0 0 0 0 0 0 0 0 0 0 0 0 0 0 0 0 0 0 0 0 0 0 0 0 0 0 0 0 0 0 0 0 0 0 0 0 0 0 0 0 0 0 0 0 0 0 0 0 0 0 0 0 0 0 0 0 0 0 0 0 0 0 0 0 0 0 0 0 0 0 0 0 0 0 0 0 0 0 0 0 0 0 0 0 0 0 0 0 0 0 0 0 0 0 0 0 0 0 0 0 0 0 0 0 0 0 0 0 0 0 0 0 0 0 0 0 0 0 0 0 0 0 0 0 0 0 0 0 0 0 0 0 0 0 0 0 0 0 0 0 0 0 0 0 0 0 0 0 0 0 0 0 0 0 0 0 0 0 0 0 0 0 0 0 0 0 0 0 0 0 0 0 0 0 0 0 0 0 0 0 0 0 0 0 0 0 0 0 0 0 0 0 0 0 0 0 0 0 0 0 0 0 0 0 0 0 0 0 0 0 0 0 0 0 0 0 0 0 0 0 0 0 0 0 0 0 0 0 0 0 0 0 0 0 0 0 0 0 0 0 0 0 0 0 0 0 0 0 0 0 0 0 0 0 0 0 0 0 0 0 0 0 0 0 0 0 0 0 0 0 0 0 0 0 0 0 0 0 0 0 0 0 0 0 0 0 0 0 0 0 0 0 0 0 0 0 0 0 0 0 0 0 0 0 0 0 0 0 0 0 0 0 0 0 0 0 0 0 0 0 0 0 0 0 0 0 0 0 0 0 0 0 0 0 0 0 0 0 0 0 0 0 0 0 0 0 0 0 0 0 0 0 0 0 0 0 0 0 0 0 0 0 0 0 0 0 0 0 0 0 0 0 0 0 0 0 0 0 0 0 0 0 0 0 0 0 0 0 0 0 0 0 0 0 0 0 0 0 0 0 0 0 0 0 0 0 0 0 0 0 0 0 0 0 0 0 0 0 0 0 0 0 0 0 0 0 0 0 0 0 0 0 0 0 0 0 0 0 0 0 0 0 0 0 0 0 0 0 0 0 0 0 0 0 0 0 0 0 0 0 0 0 0 0 0 0 0 0 0 0 0 0 0 0 0 0 0 0 0 0 0 0 0 0 0 0 0 0 0 0 0 0 0 0 0 0 0 0 0 0 0 0 0 0 0 0 0 0 0 0 0 0 0 0 0 0 0 0 0 0 0 0 0 0 0 0 0 0 0 0 0 0 0 0 0 0 0 0 0 0 0 0 0 0 0 0 0 0 0 0 0 0 0 0 0 0 0 0 0 0 0 0 0 0 0 0 0 0 0 0 0 0 0 0 0 0 0 0 0 0 0 0 0 0 0 0 0 0 0 0 0 0 0 0 0 0 0 0 0 0 0 0 0 0 0 0 0 0 0 0 0 0 0 0 0 0 0 0 0 0 0 0 0 0 0 0 0 0 0 0 0 0 0 0 0 0 0 0 0 0 0 0 0 0 0 0 0 0 0 0 0 0 0 0 0 0 0 0 0 0 0 0 0 0 0 0 0 0 0 0 0 0 0 0 0 0 0 0 0 0 0 0 0 0 0 0 0 0 0 0 0 0 0 0 0 0 0 0 0 0 0 0 0 0 0 0 0 0 0 0 0 0 0 0 0 0 0 0 0 0 0 0 0 0 0 0 0 0 0 0 0 0 0 0 0 0 0 0 0 0 0 0 0 0 0 0 0 0 0 0 0 0 0 0 0 0 0 0 0 0 0 0 0 0 0 0 0 0 0 0 0 0 0 0 0 0 0 0 0 0 0 0 0 0 0 0 0 0 0 0 0 0 0 0 0 0 0 0 0 0 0 0 0 0 0 0 0 0 0 0 0 0 0 0 0 0 0 0 0 0 0 0 0 0 0 0 0 0 0 0 0 0 0 0 0 0 0 0 0 0 0 0 0 0 0 0 0 0 0 0 0 0 0 0 0 0 0 0 0 0 0 0 0 0 0 0 0 0 0 0 0 0 0 0 0 0 0 0 0 0 0 0 0 0 0 0 0 0 0 0 0 0 0 0 0 0 0 0 0 0 0 0 0 0 0 0 0 0 0 0 0 0 0 0 0 0 0 0 0 0 0 0 0 0 0 0 0 0 0 0 0 0 0 0 0 0 0 0 0 0 0 0 0 0 0 0 0 0 0 0 0 0 0 0 0 0 0 0 0 0 0 0 0 0 0 0 0 0 0 0 0 0 0 0 0 0 0 0 0 0 0 0 0 0 0 0 0 0 0 0 0 0 0 0 0 0 0 0 0 0 0 0 0 0 0 0 0 0 0 0 0 0 0 0 0 0 0 0 0 0 0 0 0 0 0 0 0 0 0 0 0 0 0 0 0 0 0 0 0 0 0 0 0 0 0 0 0 0 0 0 0 0 0 0 0 0 0 0 0 0 0 0 0 0 0 0 0 0 0 0 0 0 0 0 0 0 0 0 0 0 0 0 0 0 0 0 0 0 0 0 0 0 0 0 0 0 0 0 0 0 0 0 0 0 0 0 0 0 0 0 0 0 0 0 0 0 0 0 0 0 0 0 0 0 0 0 0 0 0 0 0 0 0 0 0 0 0 0 0 0 0 0 0 0 0 0 0 0 0 0 0 0 0 0 0 0 0 0 0 0 0 0 0 0 0 0 0 0 0 0 0 0 0 0 0 0 0 0 0 0 0 0 0 0 0 0 0 0 0 0 0 0 0 0 0 0 0 0 0 0 0 0 0 0 0 0 0 0 0 0 0 0 0 0 0 0 0 0 0 0 0 0 0 0 0 0 0 0 0 0 0 0 0 0 0 0 0 0 0 0 0 0 0 0 0 0 0 0 0 0 0 0 0 0 0 0 0 0 0 0 0 0 0 0 0 0 0 0 0 0 0 0 0 0 0 0 0 0 0 0 0 0 0 0 0 0 0 0 0 0 0 0 0 0 0 0 0 0 0 0 0 0 0 0 0 0 0 0 0 0 0 0 0 0 0 0 0 0 0 0 0 0 0 0 0 0 0 0 0 0 0 0 0 0 0 0 0 0 0 0 0 0 0 0 0 0 0 0 0 0 0 0 0 0 0 0 0 0 0 0 0 0 0 0 0 0 0 0 0 0 0 0 0 0 0 0 0 0 0 0 0 0 0 0 0 0 0 0 0 0 0 0 0 0 0 0 0 0 0 0 0 0 0 0 0 0 0 0 0 0 0 0 0 0 0 0 0 0 0 0 0 0 0 0 0 0 0 0 0 0 0 0 0 0 0 0 0 0 0 0 0 0 0 0 0 0 0 0 0 0 0 0 0 0 0 0 0 0 0 0 0 0 0 0 0 0 0 0 0 0 0 0 0 0 0 0 0 0 0 0 0 0 0 0 0 0 0 0 0 0 0 0 0 0 0 0 0 0 0 0 0 0 0 0 0 0 0 0 0 0 0 0 0 0 0 0 0 0 0 0 0 0 0 0 0 0 0 0 0 0 0 0 0 0 0 0 0 0 0 0 0 0 0 0 0 0 0 0 0 0 0 0 0 0 0 0 0 0 0 0 0 0 0 0 0 0 0 0 0 0 0 0 0 0 0 0 0 0 0 0 0 0 0 0 0 0 0 0 0 0 0 0 0 0 0 0 0 0 0 0 0 0 0 0 0 0 0 0 0 0 0 0 0 0 0 0 0 0 0 0 0 0 0 0 0 0 0 0 0 0 0 0 0 0 0 0 0 0 0 0 0 0 0 0 0 0 0 0 0 0 0 0 0 0 0 0 0 0 0 0 0 0 0 0 0 0 0 0 0 0 0 0 0 0 0 0 0 0 0 0 0 0 0 0 0 0 0 0 0 0 0 0 0 0 0 0 0 0 0 0 0 0 0 0 0 0 0 0 0 0 0 0 0 0 0 0 0 0 0 0 0 0 0 0 0 0 0 0 0 0 0 0 0 0 0 0 0 0 0 0 0 0 0 0 0 0 0 0 0 0 0 0 0 0 0 0 0 0 0 0 0 0 0 0 0 0 0 0 0 0 0 0 0 0 0 0 0 0 0 0 0 0 0 0 0 0 0 0 0 0 0 0 0 0 0 0 0 0 0 0 0 0 0 0 0 0 0 0 0 0 0 0 0 0 0 0 0 0 0 0 0 0 0 0 0 0 0 0 0 0 0 0 0 0 0 0 0 0 0 0 0 0 0 0 0 0 0 0 0 0 0 0 0 0 0 0 0 0 0 0 0 
            </DataArray>
            <DataArray type="Float64" Name="sea_water_potential_density" NumberOfComponents="1" format="ascii">
               1000 1000 1000 1000 1000 1000 1000 1000 1000 1000 1000 1000 1000 1000 1000 1000 1000 1000 1000 1000 1000 1000 1000 1000 1000 1000 1000 1000 1000 1000 1000 1000 1000 1000 1000 1000 1000 1000 1000 1000 1000 1000 1000 1000 1000 1000 1000 1000 1000 1000 1000 1000 1000 1000 1000 1000 1000 1000 1000 1000 1000 1000 1000 1000 1000 1000 1000 1000 1000 1000 1000 1000 1000 1000 1000 1000 1000 1000 1000 1000 1000 1000 1000 1000 1000 1000 1000 1000 1000 1000 1000 1000 1000 1000 1000 1000 1000 1000 1000 1000 1000 1000 1000 1000 1000 1000 1000 1000 1000 1000 1000 1000 1000 1000 1000 1000 1000 1000 1000 1000 1000 1000 1000 1000 1000 1000 1000 1000 1000 1000 1000 1000 1000 1000 1000 1000 1000 1000 1000 1000 1000 1000 1000 1000 1000 1000 1000 1000 1000 1000 1000 1000 1000 1000 1000 1000 1000 1000 1000 1000 1000 1000 1000 1000 1000 1000 1000 1000 1000 1000 1000 1000 1000 1000 1000 1000 1000 1000 1000 1000 1000 1000 1000 1000 1000 1000 1000 1000 1000 1000 1000 1000 1000 1000 1000 1000 1000 1000 1000 1000 1000 1022.12 1022.12 1022.12 1022.12 1022.12 1022.12 1022.12 1022.12 1022.12 1022.12 1000 1022.12 1022.12 1022.12 1022.12 1022.12 1022.12 1022.12 1022.12 1022.12 1022.12 1000 1022.12 1022.12 1022.12 1022.12 1022.12 1022.12 1022.12 1022.12 1022.12 1022.12 1000 1022.12 1022.12 1022.12 1022.12 1022.12 1022.12 1022.12 1022.12 1022.12 1022.12 1000 1022.12 1022.12 1022.12 1022.12 1022.12 1022.12 1022.12 1022.12 1022.12 1022.12 1000 1022.12 1022.12 1022.12 1022.12 1022.12 1022.12 1022.12 1022.12 1022.12 1022.12 1000 1022.12 1022.12 1022.12 1022.12 1022.12 1022.12 1022.12 1022.12 1022.12 1022.12 1000 1022.12 1022.12 1022.12 1022.12 1022.12 1022.12 1022.12 1022.12 1022.12 1022.12 1000 1022.12 1022.12 1022.12 1022.12 1022.12 1022.12 1022.12 1022.12 1022.12 1022.12 1000 1022.12 1022.12 1022.12 1022.12 1022.12 1022.12 1022.12 1022.12 1022.12 1022.12 1000 1022.12 1022.12 1022.12 1022.12 1022.12 1022.12 1022.12 1022.12 1022.12 1022.12 1000 1022.12 1022.12 1022.12 1022.12 1022.12 1022.12 1022.12 1022.12 1022.12 1022.12 1000 1022.12 1022.12 1022.12 1022.12 1022.12 1022.12 1022.12 1022.12 1022.12 1022.12 1000 1022.12 1022.12 1022.12 1022.12 1022.12 1022.12 1022.12 1022.12 1022.12 1022.12 1000 1022.12 1022.12 1022.12 1022.12 1022.12 1022.12 1022.12 1022.12 1022.12 1022.12 1000 1022.12 1022.12 1022.12 1022.12 1022.12 1022.12 1022.12 1022.12 1022.12 1022.12 1000 1022.12 1022.12 1022.12 1022.12 1022.12 1022.12 1022.12 1022.12 1022.12 1022.12 1000 1022.12 1022.12 1022.12 1022.12 1022.12 1022.12 1022.12 1022.12 1022.12 1022.12 1000 1022.12 1022.12 1022.12 1022.12 1022.12 1022.12 1022.12 1022.12 1022.12 1022.12 1000 1022.12 1022.12 1022.12 1022.12 1022.12 1022.12 1022.12 1022.12 1022.12 1022.12 1000 1022.12 1022.12 1022.12 1022.12 1022.12 1022.12 1022.12 1022.12 1022.12 1022.12 1000 1022.12 1022.12 1022.12 1022.12 1022.12 1022.12 1022.12 1022.12 1022.12 1022.12 1000 1022.12 1022.12 1022.12 1022.12 1022.12 1022.12 1022.12 1022.12 1022.12 1022.12 1000 1022.12 1022.12 1022.12 1022.12 1022.12 1022.12 1022.12 1022.12 1022.12 1022.12 1000 1022.12 1022.12 1022.12 1022.12 1022.12 1022.12 1022.12 1022.12 1022.12 1022.12 1000 1022.12 1022.12 1022.12 1022.12 1022.12 1022.12 1022.12 1022.12 1022.12 1022.12 1000 1022.12 1022.12 1022.12 1022.12 1022.12 1022.12 1022.12 1022.12 1022.12 1022.12 1000 1022.12 1022.12 1022.12 1022.12 1022.12 1022.12 1022.12 1022.12 1022.12 1022.12 1000 1022.12 1022.12 1022.12 1022.12 1022.12 1022.12 1022.12 1022.12 1022.12 1022.12 1000 1022.12 1022.12 1022.12 1022.12 1022.12 1022.12 1022.12 1022.12 1022.12 1022.12 1000 1022.12 1022.12 1022.12 1022.12 1022.12 1022.12 1022.12 1022.12 1022.12 1022.12 1000 1022.12 1022.12 1022.12 1022.12 1022.12 1022.12 1022.12 1022.12 1022.12 1022.12 1000 1022.12 1022.12 1022.12 1022.12 1022.12 1022.12 1022.12 1022.12 1022.12 1022.12 1000 1022.12 1022.12 1022.12 1022.12 1022.12 1022.12 1022.12 1022.12 1022.12 1022.12 1000 1022.12 1022.12 1022.12 1022.12 1022.12 1022.12 1022.12 1022.12 1022.12 1022.12 1000 1022.12 1022.12 1022.12 1022.12 1022.12 1022.12 1022.12 1022.12 1022.12 1022.12 1000 1022.12 1022.12 1022.12 1022.12 1022.12 1022.12 1022.12 1022.12 1022.12 1022.12 1000 1022.12 1022.12 1022.12 1022.12 1022.12 1022.12 1022.12 1022.12 1022.12 1022.12 1000 1022.12 1022.12 1022.12 1022.12 1022.12 1022.12 1022.12 1022.12 1022.12 1022.12 1000 1022.12 1022.12 1022.12 1022.12 1022.12 1022.12 1022.12 1022.12 1022.12 1022.12 1000 1022.12 1022.12 1022.12 1022.12 1022.12 1022.12 1022.12 1022.12 1022.12 1022.12 1000 1022.12 1022.12 1022.12 1022.12 1022.12 1022.12 1022.12 1022.12 1022.12 1022.12 1000 1022.12 1022.12 1022.12 1022.12 1022.12 1022.12 1022.12 1022.12 1022.12 1022.12 1000 1022.12 1022.12 1022.12 1022.12 1022.12 1022.12 1022.12 1022.12 1022.12 1022.12 1000 1022.12 1022.12 1022.12 1022.12 1022.12 1022.12 1022.12 1022.12 1022.12 1022.12 1000 1022.12 1022.12 1022.12 1022.12 1022.12 1022.12 1022.12 1022.12 1022.12 1022.12 1000 1022.12 1022.12 1022.12 1022.12 1022.12 1022.12 1022.12 1022.12 1022.12 1022.12 1000 1022.12 1022.12 1022.12 1022.12 1022.12 1022.12 1022.12 1022.12 1022.12 1022.12 1000 1022.12 1022.12 1022.12 1022.12 1022.12 1022.12 1022.12 1022.12 1022.12 1022.12 1000 1022.12 1022.12 1022.12 1022.12 1022.12 1022.12 1022.12 1022.12 1022.12 1022.12 1000 1022.12 1022.12 1022.12 1022.12 1022.12 1022.12 1022.12 1022.12 1022.12 1022.12 1000 1022.12 1022.12 1022.12 1022.12 1022.12 1022.12 1022.12 1022.12 1022.12 1022.12 1000 1022.12 1022.12 1022.12 1022.12 1022.12 1022.12 1022.12 1022.12 1022.12 1022.12 1000 1022.12 1022.12 1022.12 1022.12 1022.12 1022.12 1022.12 1022.12 1022.12 1022.12 1000 1022.12 1022.12 1022.12 1022.12 1022.12 1022.12 1022.12 1022.12 1022.12 1022.12 1000 1022.12 1022.12 1022.12 1022.12 1022.12 1022.12 1022.12 1022.12 1022.12 1022.12 1000 1021.68 1021.3 1020.87 1020.59 1020.16 1019.94 1019.87 1019.87 1019.87 1019.87 1000 1022.12 1022.12 1022.12 1022.12 1022.12 1022.12 1022.12 1022.12 1022.12 1022.12 1000 1022.12 1022.12 1022.12 1022.12 1022.12 1022.12 1022.12 1022.12 1022.12 1022.12 1000 1022.12 1022.12 1022.12 1022.12 1022.12 1022.12 1022.12 1022.12 1022.12 1022.12 1000 1022.12 1022.12 1022.12 1022.12 1022.12 1022.12 1022.12 1022.12 1022.12 1022.12 1000 1022.12 1022.12 1022.12 1022.12 1022.12 1022.12 1022.12 1022.12 1022.12 1022.12 1000 1022.12 1022.12 1022.12 1022.12 1022.12 1022.12 1022.12 1022.12 1022.12 1022.12 1000 1022.12 1022.12 1022.12 1022.12 1022.12 1022.12 1022.12 1022.12 1022.12 1022.12 1000 1022.12 1022.12 1022.12 1022.12 1022.12 1022.12 1022.12 1022.12 1022.12 1022.12 1000 1022.12 1022.12 1022.12 1022.12 1022.12 1022.12 1022.12 1022.12 1022.12 1022.12 1000 1021.74 1021.37 1020.72 1020.45 1020.3 1020.1 1019.95 1019.92 1019.92 1019.92 1000 1021.68 1021.4 1021.05 1020.88 1019.67 1019.71 1019.74 1019.76 1019.79 1019.81 1000 1022.12 1022.12 1022.12 1022.12 1022.12 1022.12 1022.12 1022.12 1022.12 1022.12 1000 1022.12 1022.12 1022.12 1022.12 1022.12 1022.12 1022.12 1022.12 1022.12 1022.12 1000 1022.12 1022.12 1022.12 1022.12 1022.12 1022.12 1022.12 1022.12 1022.12 1022.12 1000 1022.12 1022.12 1022.12 1022.12 1022.12 1022.12 1022.12 1022.12 1022.12 1022.12 1000 1022.12 1022.12 1022.12 1022.12 1022.12 1022.12 1022.12 1022.12 1022.12 1022.12 1000 1022.12 1022.12 1022.12 1022.12 1022.12 1022.12 1022.12 1022.12 1022.12 1022.12 1000 1022.12 1022.12 1022.12 1022.12 1022.12 1022.12 1022.12 1022.12 1022.12 1022.12 1000 1022.12 1022.12 1022.12 1022.12 1022.12 1022.12 1022.12 1022.12 1022.12 1022.12 1000 1021.71 1021.11 1020.56 1020.42 1020.37 1020.3 1020.18 1020.08 1020.02 1019.99 1000 1021.73 1021.36 1020.79 1020.52 1020.33 1020.16 1020.01 1019.93 1019.9 1019.89 1000 1021.68 1021.3 1020.87 1020.59 1020.16 1019.94 1019.87 1019.87 1019.87 1019.87 1000 1022.12 1022.12 1022.12 1022.12 1022.12 1022.12 1022.12 1022.12 1022.12 1022.12 1000 1022.12 1022.12 1022.12 1022.12 1022.12 1022.12 1022.12 1022.12 1022.12 1022.12 1000 1022.12 1022.12 1022.12 1022.12 1022.12 1022.12 1022.12 1022.12 1022.12 1022.12 1000 1022.12 1022.12 1022.12 1022.12 1022.12 1022.12 1022.12 1022.12 1022.12 1022.12 1000 1022.12 1022.12 1022.12 1022.12 1022.12 1022.12 1022.12 1022.12 1022.12 1022.12 1000 1022.12 1022.12 1022.12 1022.12 1022.12 1022.12 1022.12 1022.12 1022.12 1022.12 1000 1022.12 1022.12 1022.12 1022.12 1022.12 1022.12 1022.12 1022.12 1022.12 1022.12 1000 1021.65 1021.11 1020.5 1020.34 1020.26 1020.21 1020.17 1020.13 1020.1 1020.08 1000 1021.71 1021.13 1020.55 1020.4 1020.35 1020.29 1020.22 1020.11 1020.02 1019.98 1000 1021.74 1021.37 1020.72 1020.45 1020.3 1020.1 1019.95 1019.92 1019.92 1019.92 1000 1022.12 1022.12 1022.12 1022.12 1022.12 1022.12 1022.12 1022.12 1022.12 1022.12 1000 1022.12 1022.12 1022.12 1022.12 1022.12 1022.12 1022.12 1022.12 1022.12 1022.12 1000 1022.12 1022.12 1022.12 1022.12 1022.12 1022.12 1022.12 1022.12 1022.12 1022.12 1000 1022.12 1022.12 1022.12 1022.12 1022.12 1022.12 1022.12 1022.12 1022.12 1022.12 1000 1022.12 1022.12 1022.12 1022.12 1022.12 1022.12 1022.12 1022.12 1022.12 1022.12 1000 1022.12 1022.12 1022.12 1022.12 1022.12 1022.12 1022.12 1022.12 1022.12 1022.12 1000 1022.12 1022.12 1022.12 1022.12 1022.12 1022.12 1022.12 1022.12 1022.12 1022.12 1000 1022.12 1022.12 1022.12 1022.12 1022.12 1022.12 1022.12 1022.12 1022.12 1022.12 1000 1021.65 1021.13 1020.49 1020.33 1020.26 1020.21 1020.17 1020.13 1020.11 1020.09 1000 1021.71 1021.11 1020.56 1020.42 1020.37 1020.3 1020.18 1020.08 1020.02 1019.99 1000 1022.12 1022.12 1022.12 1022.12 1022.12 1022.12 1022.12 1022.12 1022.12 1022.12 1000 1022.12 1022.12 1022.12 1022.12 1022.12 1022.12 1022.12 1022.12 1022.12 1022.12 1000 1022.12 1022.12 1022.12 1022.12 1022.12 1022.12 1022.12 1022.12 1022.12 1022.12 1000 1022.12 1022.12 1022.12 1022.12 1022.12 1022.12 1022.12 1022.12 1022.12 1022.12 1000 1022.12 1022.12 1022.12 1022.12 1022.12 1022.12 1022.12 1022.12 1022.12 1022.12 1000 1022.12 1022.12 1022.12 1022.12 1022.12 1022.12 1022.12 1022.12 1022.12 1022.12 1000 1022.12 1022.12 1022.12 1022.12 1022.12 1022.12 1022.12 1022.12 1022.12 1022.12 1000 1022.12 1022.12 1022.12 1022.12 1022.12 1022.12 1022.12 1022.12 1022.12 1022.12 1000 1022.12 1022.12 1022.12 1022.12 1022.12 1022.12 1022.12 1022.12 1022.12 1022.12 1000 1021.65 1021.11 1020.5 1020.34 1020.26 1020.21 1020.17 1020.13 1020.1 1020.08 1000 1022.12 1022.12 1022.12 1022.12 1022.12 1022.12 1022.12 1022.12 1022.12 1022.12 1000 1022.12 1022.12 1022.12 1022.12 1022.12 1022.12 1022.12 1022.12 1022.12 1022.12 1000 1022.12 1022.12 1022.12 1022.12 1022.12 1022.12 1022.12 1022.12 1022.12 1022.12 1000 1022.12 1022.12 1022.12 1022.12 1022.12 1022.12 1022.12 1022.12 1022.12 1022.12 1000 1022.12 1022.12 1022.12 1022.12 1022.12 1022.12 1022.12 1022.12 1022.12 1022.12 1000 1022.12 1022.12 1022.12 1022.12 1022.12 1022.12 1022.12 1022.12 1022.12 1022.12 1000 1022.12 1022.12 1022.12 1022.12 1022.12 1022.12 1022.12 1022.12 1022.12 1022.12 1000 1022.12 1022.12 1022.12 1022.12 1022.12 1022.12 1022.12 1022.12 1022.12 1022.12 1000 1022.12 1022.12 1022.12 1022.12 1022.12 1022.12 1022.12 1022.12 1022.12 1022.12 1000 1022.12 1022.12 1022.12 1022.12 1022.12 1022.12 1022.12 1022.12 1022.12 1022.12 1000 1022.12 1022.12 1022.12 1022.12 1022.12 1022.12 1022.12 1022.12 1022.12 1022.12 1000 1022.12 1022.12 1022.12 1022.12 1022.12 1022.12 1022.12 1022.12 1022.12 1022.12 1000 1022.12 1022.12 1022.12 1022.12 1022.12 1022.12 1022.12 1022.12 1022.12 1022.12 1000 1022.12 1022.12 1022.12 1022.12 1022.12 1022.12 1022.12 1022.12 1022.12 1022.12 1000 1022.12 1022.12 1022.12 1022.12 1022.12 1022.12 1022.12 1022.12 1022.12 1022.12 1000 1022.12 1022.12 1022.12 1022.12 1022.12 1022.12 1022.12 1022.12 1022.12 1022.12 1000 1022.12 1022.12 1022.12 1022.12 1022.12 1022.12 1022.12 1022.12 1022.12 1022.12 1000 1022.12 1022.12 1022.12 1022.12 1022.12 1022.12 1022.12 1022.12 1022.12 1022.12 1000 1022.12 1022.12 1022.12 1022.12 1022.12 1022.12 1022.12 1022.12 1022.12 1022.12 1000 1022.12 1022.12 1022.12 1022.12 1022.12 1022.12 1022.12 1022.12 1022.12 1022.12 1000 1022.12 1022.12 1022.12 1022.12 1022.12 1022.12 1022.12 1022.12 1022.12 1022.12 1000 1022.12 1022.12 1022.12 1022.12 1022.12 1022.12 1022.12 1022.12 1022.12 1022.12 1000 1022.12 1022.12 1022.12 1022.12 1022.12 1022.12 1022.12 1022.12 1022.12 1022.12 1000 1022.12 1022.12 1022.12 1022.12 1022.12 1022.12 1022.12 1022.12 1022.12 1022.12 1000 1022.12 1022.12 1022.12 1022.12 1022.12 1022.12 1022.12 1022.12 1022.12 1022.12 1000 1022.12 1022.12 1022.12 1022.12 1022.12 1022.12 1022.12 1022.12 1022.12 1022.12 1000 1022.12 1022.12 1022.12 1022.12 1022.12 1022.12 1022.12 1022.12 1022.12 1022.12 1000 1022.12 1022.12 1022.12 1022.12 1022.12 1022.12 1022.12 1022.12 1022.12 1022.12 1000 1022.12 1022.12 1022.12 1022.12 1022.12 1022.12 1022.12 1022.12 1022.12 1022.12 1000 1022.12 1022.12 1022.12 1022.12 1022.12 1022.12 1022.12 1022.12 1022.12 1022.12 1000 1022.12 1022.12 1022.12 1022.12 1022.12 1022.12 1022.12 1022.12 1022.12 1022.12 1000 1022.12 1022.12 1022.12 1022.12 1022.12 1022.12 1022.12 1022.12 1022.12 1022.12 1000 1022.12 1022.12 1022.12 1022.12 1022.12 1022.12 1022.12 1022.12 1022.12 1022.12 1000 1022.12 1022.12 1022.12 1022.12 1022.12 1022.12 1022.12 1022.12 1022.12 1022.12 1000 1022.12 1022.12 1022.12 1022.12 1022.12 1022.12 1022.12 1022.12 1022.12 1022.12 1000 1022.12 1022.12 1022.12 1022.12 1022.12 1022.12 1022.12 1022.12 1022.12 1022.12 1000 1022.12 1022.12 1022.12 1022.12 1022.12 1022.12 1022.12 1022.12 1022.12 1022.12 1000 1022.12 1022.12 1022.12 1022.12 1022.12 1022.12 1022.12 1022.12 1022.12 1022.12 1000 1022.12 1022.12 1022.12 1022.12 1022.12 1022.12 1022.12 1022.12 1022.12 1022.12 1000 1022.12 1022.12 1022.12 1022.12 1022.12 1022.12 1022.12 1022.12 1022.12 1022.12 1000 1022.12 1022.12 1022.12 1022.12 1022.12 1022.12 1022.12 1022.12 1022.12 1022.12 1000 1022.12 1022.12 1022.12 1022.12 1022.12 1022.12 1022.12 1022.12 1022.12 1022.12 1000 1022.12 1022.12 1022.12 1022.12 1022.12 1022.12 1022.12 1022.12 1022.12 1022.12 1000 1022.12 1022.12 1022.12 1022.12 1022.12 1022.12 1022.12 1022.12 1022.12 1022.12 1000 1022.12 1022.12 1022.12 1022.12 1022.12 1022.12 1022.12 1022.12 1022.12 1022.12 1000 1022.12 1022.12 1022.12 1022.12 1022.12 1022.12 1022.12 1022.12 1022.12 1022.12 1000 1022.12 1022.12 1022.12 1022.12 1022.12 1022.12 1022.12 1022.12 1022.12 1022.12 1000 1022.12 1022.12 1022.12 1022.12 1022.12 1022.12 1022.12 1022.12 1022.12 1022.12 1000 1022.12 1022.12 1022.12 1022.12 1022.12 1022.12 1022.12 1022.12 1022.12 1022.12 1000 1022.12 1022.12 1022.12 1022.12 1022.12 1022.12 1022.12 1022.12 1022.12 1022.12 1000 1022.12 1022.12 1022.12 1022.12 1022.12 1022.12 1022.12 1022.12 1022.12 1022.12 1000 1022.12 1022.12 1022.12 1022.12 1022.12 1022.12 1022.12 1022.12 1022.12 1022.12 1000 1022.12 1022.12 1022.12 1022.12 1022.12 1022.12 1022.12 1022.12 1022.12 1022.12 1000 1022.12 1022.12 1022.12 1022.12 1022.12 1022.12 1022.12 1022.12 1022.12 1022.12 1000 1022.12 1022.12 1022.12 1022.12 1022.12 1022.12 
            </DataArray>
         </PointData> 
      </Piece>
   </UnstructuredGrid> 
</VTKFile>
