<?xml version="1.0"?>
<VTKFile type="UnstructuredGrid" version="0.1" byte_order="LittleEndian">
   <UnstructuredGrid>
      <Piece NumberOfPoints="2000" NumberOfCells="0" > 
         <Points> 
            <DataArray type="Float64" Name="Position" NumberOfComponents="3" format="ascii"> 
               50  150  -9.5  
               50  150  -8.5  
               50  150  -7.5  
               50  150  -6.5  
               50  150  -5.5  
               50  150  -4.5  
               50  150  -3.5  
               50  150  -2.5  
               50  150  -1.5  
               50  150  -0.5  
               150  150  -9.5  
               150  150  -8.5  
               150  150  -7.5  
               150  150  -6.5  
               150  150  -5.5  
               150  150  -4.5  
               150  150  -3.5  
               150  150  -2.5  
               150  150  -1.5  
               150  150  -0.5  
               50  250  -9.5  
               50  250  -8.5  
               50  250  -7.5  
               50  250  -6.5  
               50  250  -5.5  
               50  250  -4.5  
               50  250  -3.5  
               50  250  -2.5  
               50  250  -1.5  
               50  250  -0.5  
               250  150  -9.5  
               250  150  -8.5  
               250  150  -7.5  
               250  150  -6.5  
               250  150  -5.5  
               250  150  -4.5  
               250  150  -3.5  
               250  150  -2.5  
               250  150  -1.5  
               250  150  -0.5  
               150  250  -9.66  
               150  250  -8.98  
               150  250  -8.30001  
               150  250  -7.62001  
               150  250  -6.94001  
               150  250  -6.26001  
               150  250  -5.58002  
               150  250  -4.90002  
               150  250  -4.22002  
               150  250  -3.54002  
               50  350  -9.5  
               50  350  -8.5  
               50  350  -7.5  
               50  350  -6.5  
               50  350  -5.5  
               50  350  -4.5  
               50  350  -3.5  
               50  350  -2.5  
               50  350  -1.5  
               50  350  -0.5  
               350  150  -9.5  
               350  150  -8.5  
               350  150  -7.5  
               350  150  -6.5  
               350  150  -5.5  
               350  150  -4.5  
               350  150  -3.5  
               350  150  -2.5  
               350  150  -1.5  
               350  150  -0.5  
               250  250  -9.66  
               250  250  -8.98  
               250  250  -8.3  
               250  250  -7.62  
               250  250  -6.94  
               250  250  -6.26  
               250  250  -5.58  
               250  250  -4.90001  
               250  250  -4.22001  
               250  250  -3.54001  
               150  350  -9.66  
               150  350  -8.98  
               150  350  -8.3  
               150  350  -7.62  
               150  350  -6.94  
               150  350  -6.26  
               150  350  -5.58  
               150  350  -4.9  
               150  350  -4.22  
               150  350  -3.54  
               50  450  -9.5  
               50  450  -8.5  
               50  450  -7.5  
               50  450  -6.5  
               50  450  -5.5  
               50  450  -4.5  
               50  450  -3.5  
               50  450  -2.5  
               50  450  -1.5  
               50  450  -0.5  
               450  150  -9.5  
               450  150  -8.5  
               450  150  -7.5  
               450  150  -6.5  
               450  150  -5.5  
               450  150  -4.5  
               450  150  -3.5  
               450  150  -2.5  
               450  150  -1.5  
               450  150  -0.5  
               350  250  -9.66  
               350  250  -8.98  
               350  250  -8.3  
               350  250  -7.62  
               350  250  -6.94  
               350  250  -6.26  
               350  250  -5.58  
               350  250  -4.89999  
               350  250  -4.21999  
               350  250  -3.53999  
               250  350  -9.66  
               250  350  -8.98  
               250  350  -8.3  
               250  350  -7.62  
               250  350  -6.94  
               250  350  -6.26  
               250  350  -5.58  
               250  350  -4.9  
               250  350  -4.22  
               250  350  -3.54  
               150  450  -9.66  
               150  450  -8.98  
               150  450  -8.3  
               150  450  -7.62  
               150  450  -6.94  
               150  450  -6.26  
               150  450  -5.58  
               150  450  -4.9  
               150  450  -4.22  
               150  450  -3.53999  
               50  550  -9.5  
               50  550  -8.5  
               50  550  -7.5  
               50  550  -6.5  
               50  550  -5.5  
               50  550  -4.5  
               50  550  -3.5  
               50  550  -2.5  
               50  550  -1.5  
               50  550  -0.5  
               550  150  -9.5  
               550  150  -8.5  
               550  150  -7.5  
               550  150  -6.5  
               550  150  -5.5  
               550  150  -4.5  
               550  150  -3.5  
               550  150  -2.5  
               550  150  -1.5  
               550  150  -0.5  
               450  250  -9.66  
               450  250  -8.98  
               450  250  -8.3  
               450  250  -7.62  
               450  250  -6.94  
               450  250  -6.26  
               450  250  -5.58  
               450  250  -4.9  
               450  250  -4.22  
               450  250  -3.54  
               350  350  -9.66  
               350  350  -8.98  
               350  350  -8.3  
               350  350  -7.62  
               350  350  -6.94  
               350  350  -6.26  
               350  350  -5.58  
               350  350  -4.9  
               350  350  -4.22  
               350  350  -3.53999  
               250  450  -9.66  
               250  450  -8.98  
               250  450  -8.3  
               250  450  -7.62  
               250  450  -6.94  
               250  450  -6.26  
               250  450  -5.58  
               250  450  -4.9  
               250  450  -4.22  
               250  450  -3.54  
               150  550  -9.5  
               150  550  -8.5  
               150  550  -7.5  
               150  550  -6.5  
               150  550  -5.5  
               150  550  -4.5  
               150  550  -3.5  
               150  550  -2.5  
               150  550  -1.5  
               150  550  -0.5  
               50  650  -9.5  
               50  650  -8.5  
               50  650  -7.5  
               50  650  -6.5  
               50  650  -5.5  
               50  650  -4.5  
               50  650  -3.5  
               50  650  -2.5  
               50  650  -1.5  
               50  650  -0.5  
               650  150  -9.5  
               650  150  -8.5  
               650  150  -7.5  
               650  150  -6.5  
               650  150  -5.5  
               650  150  -4.5  
               650  150  -3.5  
               650  150  -2.5  
               650  150  -1.5  
               650  150  -0.5  
               550  250  -9.5  
               550  250  -8.5  
               550  250  -7.5  
               550  250  -6.5  
               550  250  -5.5  
               550  250  -4.5  
               550  250  -3.5  
               550  250  -2.5  
               550  250  -1.5  
               550  250  -0.5  
               450  350  -9.66  
               450  350  -8.98  
               450  350  -8.3  
               450  350  -7.62  
               450  350  -6.94  
               450  350  -6.26  
               450  350  -5.58  
               450  350  -4.9  
               450  350  -4.22  
               450  350  -3.54  
               350  450  -9.66  
               350  450  -8.98  
               350  450  -8.3  
               350  450  -7.62  
               350  450  -6.94  
               350  450  -6.26  
               350  450  -5.58  
               350  450  -4.9  
               350  450  -4.22  
               350  450  -3.54  
               250  550  -9.5  
               250  550  -8.5  
               250  550  -7.5  
               250  550  -6.5  
               250  550  -5.5  
               250  550  -4.5  
               250  550  -3.5  
               250  550  -2.5  
               250  550  -1.5  
               250  550  -0.5  
               150  650  -9.5  
               150  650  -8.5  
               150  650  -7.5  
               150  650  -6.5  
               150  650  -5.5  
               150  650  -4.5  
               150  650  -3.5  
               150  650  -2.5  
               150  650  -1.5  
               150  650  -0.5  
               50  750  -9.5  
               50  750  -8.5  
               50  750  -7.5  
               50  750  -6.5  
               50  750  -5.5  
               50  750  -4.5  
               50  750  -3.5  
               50  750  -2.5  
               50  750  -1.5  
               50  750  -0.5  
               750  150  -9.5  
               750  150  -8.5  
               750  150  -7.5  
               750  150  -6.5  
               750  150  -5.5  
               750  150  -4.5  
               750  150  -3.5  
               750  150  -2.5  
               750  150  -1.5  
               750  150  -0.5  
               650  250  -9.5  
               650  250  -8.5  
               650  250  -7.5  
               650  250  -6.5  
               650  250  -5.5  
               650  250  -4.5  
               650  250  -3.5  
               650  250  -2.5  
               650  250  -1.5  
               650  250  -0.5  
               550  350  -9.5  
               550  350  -8.5  
               550  350  -7.5  
               550  350  -6.5  
               550  350  -5.5  
               550  350  -4.5  
               550  350  -3.5  
               550  350  -2.5  
               550  350  -1.5  
               550  350  -0.5  
               450  450  -9.66  
               450  450  -8.98  
               450  450  -8.3  
               450  450  -7.62  
               450  450  -6.94  
               450  450  -6.26  
               450  450  -5.58  
               450  450  -4.9  
               450  450  -4.22  
               450  450  -3.54  
               350  550  -9.5  
               350  550  -8.5  
               350  550  -7.5  
               350  550  -6.5  
               350  550  -5.5  
               350  550  -4.5  
               350  550  -3.5  
               350  550  -2.5  
               350  550  -1.5  
               350  550  -0.5  
               250  650  -9.5  
               250  650  -8.5  
               250  650  -7.5  
               250  650  -6.5  
               250  650  -5.5  
               250  650  -4.5  
               250  650  -3.5  
               250  650  -2.5  
               250  650  -1.5  
               250  650  -0.5  
               150  750  -9.5  
               150  750  -8.5  
               150  750  -7.5  
               150  750  -6.5  
               150  750  -5.5  
               150  750  -4.5  
               150  750  -3.5  
               150  750  -2.5  
               150  750  -1.5  
               150  750  -0.5  
               50  850  -9.5  
               50  850  -8.5  
               50  850  -7.5  
               50  850  -6.5  
               50  850  -5.5  
               50  850  -4.5  
               50  850  -3.5  
               50  850  -2.5  
               50  850  -1.5  
               50  850  -0.5  
               850  150  -9.5  
               850  150  -8.5  
               850  150  -7.5  
               850  150  -6.5  
               850  150  -5.5  
               850  150  -4.5  
               850  150  -3.5  
               850  150  -2.5  
               850  150  -1.5  
               850  150  -0.5  
               750  250  -9.5  
               750  250  -8.5  
               750  250  -7.5  
               750  250  -6.5  
               750  250  -5.5  
               750  250  -4.5  
               750  250  -3.5  
               750  250  -2.5  
               750  250  -1.5  
               750  250  -0.5  
               650  350  -9.5  
               650  350  -8.5  
               650  350  -7.5  
               650  350  -6.5  
               650  350  -5.5  
               650  350  -4.5  
               650  350  -3.5  
               650  350  -2.5  
               650  350  -1.5  
               650  350  -0.5  
               550  450  -9.5  
               550  450  -8.5  
               550  450  -7.5  
               550  450  -6.5  
               550  450  -5.5  
               550  450  -4.5  
               550  450  -3.5  
               550  450  -2.5  
               550  450  -1.5  
               550  450  -0.5  
               450  550  -9.5  
               450  550  -8.5  
               450  550  -7.5  
               450  550  -6.5  
               450  550  -5.5  
               450  550  -4.5  
               450  550  -3.5  
               450  550  -2.5  
               450  550  -1.5  
               450  550  -0.5  
               350  650  -9.5  
               350  650  -8.5  
               350  650  -7.5  
               350  650  -6.5  
               350  650  -5.5  
               350  650  -4.5  
               350  650  -3.5  
               350  650  -2.5  
               350  650  -1.5  
               350  650  -0.5  
               250  750  -9.5  
               250  750  -8.5  
               250  750  -7.5  
               250  750  -6.5  
               250  750  -5.5  
               250  750  -4.5  
               250  750  -3.5  
               250  750  -2.5  
               250  750  -1.5  
               250  750  -0.5  
               150  850  -9.5  
               150  850  -8.5  
               150  850  -7.5  
               150  850  -6.5  
               150  850  -5.5  
               150  850  -4.5  
               150  850  -3.5  
               150  850  -2.5  
               150  850  -1.5  
               150  850  -0.5  
               50  950  -9.5  
               50  950  -8.5  
               50  950  -7.5  
               50  950  -6.5  
               50  950  -5.5  
               50  950  -4.5  
               50  950  -3.5  
               50  950  -2.5  
               50  950  -1.5  
               50  950  -0.5  
               950  150  -9.5  
               950  150  -8.5  
               950  150  -7.5  
               950  150  -6.5  
               950  150  -5.5  
               950  150  -4.5  
               950  150  -3.5  
               950  150  -2.5  
               950  150  -1.5  
               950  150  -0.5  
               850  250  -9.5  
               850  250  -8.5  
               850  250  -7.5  
               850  250  -6.5  
               850  250  -5.5  
               850  250  -4.5  
               850  250  -3.5  
               850  250  -2.5  
               850  250  -1.5  
               850  250  -0.5  
               750  350  -9.5  
               750  350  -8.5  
               750  350  -7.5  
               750  350  -6.5  
               750  350  -5.5  
               750  350  -4.5  
               750  350  -3.5  
               750  350  -2.5  
               750  350  -1.5  
               750  350  -0.5  
               650  450  -9.5  
               650  450  -8.5  
               650  450  -7.5  
               650  450  -6.5  
               650  450  -5.5  
               650  450  -4.5  
               650  450  -3.5  
               650  450  -2.5  
               650  450  -1.5  
               650  450  -0.5  
               550  550  -9.5  
               550  550  -8.5  
               550  550  -7.5  
               550  550  -6.5  
               550  550  -5.5  
               550  550  -4.5  
               550  550  -3.5  
               550  550  -2.5  
               550  550  -1.5  
               550  550  -0.5  
               450  650  -9.5  
               450  650  -8.5  
               450  650  -7.5  
               450  650  -6.5  
               450  650  -5.5  
               450  650  -4.5  
               450  650  -3.5  
               450  650  -2.5  
               450  650  -1.5  
               450  650  -0.5  
               350  750  -9.5  
               350  750  -8.5  
               350  750  -7.5  
               350  750  -6.5  
               350  750  -5.5  
               350  750  -4.5  
               350  750  -3.5  
               350  750  -2.5  
               350  750  -1.5  
               350  750  -0.5  
               250  850  -9.5  
               250  850  -8.5  
               250  850  -7.5  
               250  850  -6.5  
               250  850  -5.5  
               250  850  -4.5  
               250  850  -3.5  
               250  850  -2.5  
               250  850  -1.5  
               250  850  -0.5  
               150  950  -9.5  
               150  950  -8.5  
               150  950  -7.5  
               150  950  -6.5  
               150  950  -5.5  
               150  950  -4.5  
               150  950  -3.5  
               150  950  -2.5  
               150  950  -1.5  
               150  950  -0.5  
               50  1050  -9.5  
               50  1050  -8.5  
               50  1050  -7.5  
               50  1050  -6.5  
               50  1050  -5.5  
               50  1050  -4.5  
               50  1050  -3.5  
               50  1050  -2.5  
               50  1050  -1.5  
               50  1050  -0.5  
               1050  150  -9.5  
               1050  150  -8.5  
               1050  150  -7.5  
               1050  150  -6.5  
               1050  150  -5.5  
               1050  150  -4.5  
               1050  150  -3.5  
               1050  150  -2.5  
               1050  150  -1.5  
               1050  150  -0.5  
               950  250  -9.41997  
               950  250  -8.25991  
               950  250  -7.09985  
               950  250  -5.93979  
               950  250  -4.77973  
               950  250  -3.61967  
               950  250  -2.45961  
               950  250  -1.29955  
               950  250  -0.139494  
               950  250  1.02057  
               850  350  -9.5  
               850  350  -8.5  
               850  350  -7.5  
               850  350  -6.5  
               850  350  -5.5  
               850  350  -4.5  
               850  350  -3.5  
               850  350  -2.5  
               850  350  -1.5  
               850  350  -0.5  
               750  450  -9.5  
               750  450  -8.5  
               750  450  -7.5  
               750  450  -6.5  
               750  450  -5.5  
               750  450  -4.5  
               750  450  -3.5  
               750  450  -2.5  
               750  450  -1.5  
               750  450  -0.5  
               650  550  -9.5  
               650  550  -8.5  
               650  550  -7.5  
               650  550  -6.5  
               650  550  -5.5  
               650  550  -4.5  
               650  550  -3.5  
               650  550  -2.5  
               650  550  -1.5  
               650  550  -0.5  
               550  650  -9.5  
               550  650  -8.5  
               550  650  -7.5  
               550  650  -6.5  
               550  650  -5.5  
               550  650  -4.5  
               550  650  -3.5  
               550  650  -2.5  
               550  650  -1.5  
               550  650  -0.5  
               450  750  -9.5  
               450  750  -8.5  
               450  750  -7.5  
               450  750  -6.5  
               450  750  -5.5  
               450  750  -4.5  
               450  750  -3.5  
               450  750  -2.5  
               450  750  -1.5  
               450  750  -0.5  
               350  850  -9.5  
               350  850  -8.5  
               350  850  -7.5  
               350  850  -6.5  
               350  850  -5.5  
               350  850  -4.5  
               350  850  -3.5  
               350  850  -2.5  
               350  850  -1.5  
               350  850  -0.5  
               250  950  -9.5  
               250  950  -8.5  
               250  950  -7.5  
               250  950  -6.5  
               250  950  -5.5  
               250  950  -4.5  
               250  950  -3.5  
               250  950  -2.5  
               250  950  -1.5  
               250  950  -0.5  
               150  1050  -9.5  
               150  1050  -8.5  
               150  1050  -7.5  
               150  1050  -6.5  
               150  1050  -5.5  
               150  1050  -4.5  
               150  1050  -3.5  
               150  1050  -2.5  
               150  1050  -1.5  
               150  1050  -0.5  
               1150  150  -9.5  
               1150  150  -8.5  
               1150  150  -7.5  
               1150  150  -6.5  
               1150  150  -5.5  
               1150  150  -4.5  
               1150  150  -3.5  
               1150  150  -2.5  
               1150  150  -1.5  
               1150  150  -0.5  
               1050  250  -9.41999  
               1050  250  -8.25998  
               1050  250  -7.09996  
               1050  250  -5.93995  
               1050  250  -4.77994  
               1050  250  -3.61992  
               1050  250  -2.45991  
               1050  250  -1.29989  
               1050  250  -0.139881  
               1050  250  1.02013  
               950  350  -9.41994  
               950  350  -8.25983  
               950  350  -7.09971  
               950  350  -5.9396  
               950  350  -4.77948  
               950  350  -3.61936  
               950  350  -2.45925  
               950  350  -1.29913  
               950  350  -0.139016  
               950  350  1.0211  
               850  450  -9.5  
               850  450  -8.5  
               850  450  -7.5  
               850  450  -6.5  
               850  450  -5.5  
               850  450  -4.5  
               850  450  -3.5  
               850  450  -2.5  
               850  450  -1.5  
               850  450  -0.5  
               750  550  -9.5  
               750  550  -8.5  
               750  550  -7.5  
               750  550  -6.5  
               750  550  -5.5  
               750  550  -4.5  
               750  550  -3.5  
               750  550  -2.5  
               750  550  -1.5  
               750  550  -0.5  
               650  650  -9.5  
               650  650  -8.5  
               650  650  -7.5  
               650  650  -6.5  
               650  650  -5.5  
               650  650  -4.5  
               650  650  -3.5  
               650  650  -2.5  
               650  650  -1.5  
               650  650  -0.5  
               550  750  -9.5  
               550  750  -8.5  
               550  750  -7.5  
               550  750  -6.5  
               550  750  -5.5  
               550  750  -4.5  
               550  750  -3.5  
               550  750  -2.5  
               550  750  -1.5  
               550  750  -0.5  
               450  850  -9.5  
               450  850  -8.5  
               450  850  -7.5  
               450  850  -6.5  
               450  850  -5.5  
               450  850  -4.5  
               450  850  -3.5  
               450  850  -2.5  
               450  850  -1.5  
               450  850  -0.5  
               350  950  -9.5  
               350  950  -8.5  
               350  950  -7.5  
               350  950  -6.5  
               350  950  -5.5  
               350  950  -4.5  
               350  950  -3.5  
               350  950  -2.5  
               350  950  -1.5  
               350  950  -0.5  
               250  1050  -9.5  
               250  1050  -8.5  
               250  1050  -7.5  
               250  1050  -6.5  
               250  1050  -5.5  
               250  1050  -4.5  
               250  1050  -3.5  
               250  1050  -2.5  
               250  1050  -1.5  
               250  1050  -0.5  
               1250  150  -9.5  
               1250  150  -8.5  
               1250  150  -7.5  
               1250  150  -6.5  
               1250  150  -5.5  
               1250  150  -4.5  
               1250  150  -3.5  
               1250  150  -2.5  
               1250  150  -1.5  
               1250  150  -0.5  
               1150  250  -9.42002  
               1150  250  -8.26007  
               1150  250  -7.10012  
               1150  250  -5.94016  
               1150  250  -4.78021  
               1150  250  -3.62025  
               1150  250  -2.4603  
               1150  250  -1.30035  
               1150  250  -0.140394  
               1150  250  1.01956  
               1050  350  -9.42001  
               1050  350  -8.26002  
               1050  350  -7.10003  
               1050  350  -5.94004  
               1050  350  -4.78006  
               1050  350  -3.62007  
               1050  350  -2.46008  
               1050  350  -1.3001  
               1050  350  -0.140108  
               1050  350  1.01988  
               950  450  -9.41997  
               950  450  -8.25991  
               950  450  -7.09985  
               950  450  -5.93979  
               950  450  -4.77973  
               950  450  -3.61967  
               950  450  -2.45961  
               950  450  -1.29955  
               950  450  -0.139494  
               950  450  1.02057  
               850  550  -9.5  
               850  550  -8.5  
               850  550  -7.5  
               850  550  -6.5  
               850  550  -5.5  
               850  550  -4.5  
               850  550  -3.5  
               850  550  -2.5  
               850  550  -1.5  
               850  550  -0.5  
               750  650  -9.5  
               750  650  -8.5  
               750  650  -7.5  
               750  650  -6.5  
               750  650  -5.5  
               750  650  -4.5  
               750  650  -3.5  
               750  650  -2.5  
               750  650  -1.5  
               750  650  -0.5  
               650  750  -9.5  
               650  750  -8.5  
               650  750  -7.5  
               650  750  -6.5  
               650  750  -5.5  
               650  750  -4.5  
               650  750  -3.5  
               650  750  -2.5  
               650  750  -1.5  
               650  750  -0.5  
               550  850  -9.5  
               550  850  -8.5  
               550  850  -7.5  
               550  850  -6.5  
               550  850  -5.5  
               550  850  -4.5  
               550  850  -3.5  
               550  850  -2.5  
               550  850  -1.5  
               550  850  -0.5  
               450  950  -9.5  
               450  950  -8.5  
               450  950  -7.5  
               450  950  -6.5  
               450  950  -5.5  
               450  950  -4.5  
               450  950  -3.5  
               450  950  -2.5  
               450  950  -1.5  
               450  950  -0.5  
               350  1050  -9.5  
               350  1050  -8.5  
               350  1050  -7.5  
               350  1050  -6.5  
               350  1050  -5.5  
               350  1050  -4.5  
               350  1050  -3.5  
               350  1050  -2.5  
               350  1050  -1.5  
               350  1050  -0.5  
               1350  150  -9.5  
               1350  150  -8.5  
               1350  150  -7.5  
               1350  150  -6.5  
               1350  150  -5.5  
               1350  150  -4.5  
               1350  150  -3.5  
               1350  150  -2.5  
               1350  150  -1.5  
               1350  150  -0.5  
               1250  250  -9.42002  
               1250  250  -8.26005  
               1250  250  -7.10009  
               1250  250  -5.94012  
               1250  250  -4.78016  
               1250  250  -3.6202  
               1250  250  -2.46023  
               1250  250  -1.30027  
               1250  250  -0.140301  
               1250  250  1.01966  
               1150  350  -9.42002  
               1150  350  -8.26007  
               1150  350  -7.10012  
               1150  350  -5.94017  
               1150  350  -4.78022  
               1150  350  -3.62027  
               1150  350  -2.46032  
               1150  350  -1.30037  
               1150  350  -0.140416  
               1150  350  1.01954  
               1050  450  -9.41999  
               1050  450  -8.25998  
               1050  450  -7.09996  
               1050  450  -5.93995  
               1050  450  -4.77994  
               1050  450  -3.61992  
               1050  450  -2.45991  
               1050  450  -1.29989  
               1050  450  -0.139881  
               1050  450  1.02013  
               950  550  -9.5  
               950  550  -8.5  
               950  550  -7.5  
               950  550  -6.5  
               950  550  -5.5  
               950  550  -4.5  
               950  550  -3.5  
               950  550  -2.5  
               950  550  -1.5  
               950  550  -0.5  
               850  650  -9.5  
               850  650  -8.5  
               850  650  -7.5  
               850  650  -6.5  
               850  650  -5.5  
               850  650  -4.5  
               850  650  -3.5  
               850  650  -2.5  
               850  650  -1.5  
               850  650  -0.5  
               750  750  -9.5  
               750  750  -8.5  
               750  750  -7.5  
               750  750  -6.5  
               750  750  -5.5  
               750  750  -4.5  
               750  750  -3.5  
               750  750  -2.5  
               750  750  -1.5  
               750  750  -0.5  
               650  850  -9.5  
               650  850  -8.5  
               650  850  -7.5  
               650  850  -6.5  
               650  850  -5.5  
               650  850  -4.5  
               650  850  -3.5  
               650  850  -2.5  
               650  850  -1.5  
               650  850  -0.5  
               550  950  -9.5  
               550  950  -8.5  
               550  950  -7.5  
               550  950  -6.5  
               550  950  -5.5  
               550  950  -4.5  
               550  950  -3.5  
               550  950  -2.5  
               550  950  -1.5  
               550  950  -0.5  
               450  1050  -9.5  
               450  1050  -8.5  
               450  1050  -7.5  
               450  1050  -6.5  
               450  1050  -5.5  
               450  1050  -4.5  
               450  1050  -3.5  
               450  1050  -2.5  
               450  1050  -1.5  
               450  1050  -0.5  
               1450  150  -9.5  
               1450  150  -8.5  
               1450  150  -7.5  
               1450  150  -6.5  
               1450  150  -5.5  
               1450  150  -4.5  
               1450  150  -3.5  
               1450  150  -2.5  
               1450  150  -1.5  
               1450  150  -0.5  
               1350  250  -9.5  
               1350  250  -8.5  
               1350  250  -7.5  
               1350  250  -6.5  
               1350  250  -5.5  
               1350  250  -4.5  
               1350  250  -3.5  
               1350  250  -2.5  
               1350  250  -1.5  
               1350  250  -0.5  
               1250  350  -9.42002  
               1250  350  -8.26006  
               1250  350  -7.10009  
               1250  350  -5.94013  
               1250  350  -4.78017  
               1250  350  -3.62021  
               1250  350  -2.46024  
               1250  350  -1.30028  
               1250  350  -0.14032  
               1250  350  1.01964  
               1150  450  -9.42002  
               1150  450  -8.26007  
               1150  450  -7.10012  
               1150  450  -5.94016  
               1150  450  -4.78021  
               1150  450  -3.62025  
               1150  450  -2.4603  
               1150  450  -1.30035  
               1150  450  -0.140394  
               1150  450  1.01956  
               1050  550  -9.5  
               1050  550  -8.5  
               1050  550  -7.5  
               1050  550  -6.5  
               1050  550  -5.5  
               1050  550  -4.5  
               1050  550  -3.5  
               1050  550  -2.5  
               1050  550  -1.5  
               1050  550  -0.5  
               950  650  -9.5  
               950  650  -8.5  
               950  650  -7.5  
               950  650  -6.5  
               950  650  -5.5  
               950  650  -4.5  
               950  650  -3.5  
               950  650  -2.5  
               950  650  -1.5  
               950  650  -0.500001  
               850  750  -9.5  
               850  750  -8.5  
               850  750  -7.5  
               850  750  -6.5  
               850  750  -5.5  
               850  750  -4.5  
               850  750  -3.5  
               850  750  -2.5  
               850  750  -1.5  
               850  750  -0.5  
               750  850  -9.5  
               750  850  -8.5  
               750  850  -7.5  
               750  850  -6.5  
               750  850  -5.5  
               750  850  -4.5  
               750  850  -3.5  
               750  850  -2.5  
               750  850  -1.5  
               750  850  -0.5  
               650  950  -9.5  
               650  950  -8.5  
               650  950  -7.5  
               650  950  -6.5  
               650  950  -5.5  
               650  950  -4.5  
               650  950  -3.5  
               650  950  -2.5  
               650  950  -1.5  
               650  950  -0.5  
               550  1050  -9.5  
               550  1050  -8.5  
               550  1050  -7.5  
               550  1050  -6.5  
               550  1050  -5.5  
               550  1050  -4.5  
               550  1050  -3.5  
               550  1050  -2.5  
               550  1050  -1.5  
               550  1050  -0.5  
               1550  150  -9.5  
               1550  150  -8.5  
               1550  150  -7.5  
               1550  150  -6.5  
               1550  150  -5.5  
               1550  150  -4.5  
               1550  150  -3.5  
               1550  150  -2.5  
               1550  150  -1.5  
               1550  150  -0.5  
               1450  250  -9.5  
               1450  250  -8.5  
               1450  250  -7.5  
               1450  250  -6.5  
               1450  250  -5.5  
               1450  250  -4.5  
               1450  250  -3.5  
               1450  250  -2.5  
               1450  250  -1.5  
               1450  250  -0.5  
               1350  350  -9.5  
               1350  350  -8.5  
               1350  350  -7.5  
               1350  350  -6.5  
               1350  350  -5.5  
               1350  350  -4.5  
               1350  350  -3.5  
               1350  350  -2.5  
               1350  350  -1.5  
               1350  350  -0.5  
               1250  450  -9.42002  
               1250  450  -8.26005  
               1250  450  -7.10009  
               1250  450  -5.94012  
               1250  450  -4.78016  
               1250  450  -3.6202  
               1250  450  -2.46023  
               1250  450  -1.30027  
               1250  450  -0.140302  
               1250  450  1.01966  
               1150  550  -9.5  
               1150  550  -8.5  
               1150  550  -7.5  
               1150  550  -6.5  
               1150  550  -5.5  
               1150  550  -4.5  
               1150  550  -3.5  
               1150  550  -2.5  
               1150  550  -1.5  
               1150  550  -0.500001  
               1050  650  -9.5  
               1050  650  -8.5  
               1050  650  -7.5  
               1050  650  -6.5  
               1050  650  -5.5  
               1050  650  -4.5  
               1050  650  -3.5  
               1050  650  -2.5  
               1050  650  -1.5  
               1050  650  -0.5  
               950  750  -9.5  
               950  750  -8.5  
               950  750  -7.5  
               950  750  -6.5  
               950  750  -5.5  
               950  750  -4.5  
               950  750  -3.5  
               950  750  -2.5  
               950  750  -1.5  
               950  750  -0.499999  
               850  850  -9.5  
               850  850  -8.5  
               850  850  -7.5  
               850  850  -6.5  
               850  850  -5.5  
               850  850  -4.5  
               850  850  -3.5  
               850  850  -2.5  
               850  850  -1.5  
               850  850  -0.5  
               750  950  -9.5  
               750  950  -8.5  
               750  950  -7.5  
               750  950  -6.5  
               750  950  -5.5  
               750  950  -4.5  
               750  950  -3.5  
               750  950  -2.5  
               750  950  -1.5  
               750  950  -0.5  
               650  1050  -9.5  
               650  1050  -8.5  
               650  1050  -7.5  
               650  1050  -6.5  
               650  1050  -5.5  
               650  1050  -4.5  
               650  1050  -3.5  
               650  1050  -2.5  
               650  1050  -1.5  
               650  1050  -0.5  
               1650  150  -9.5  
               1650  150  -8.5  
               1650  150  -7.5  
               1650  150  -6.5  
               1650  150  -5.5  
               1650  150  -4.5  
               1650  150  -3.5  
               1650  150  -2.5  
               1650  150  -1.5  
               1650  150  -0.5  
               1550  250  -9.5  
               1550  250  -8.5  
               1550  250  -7.5  
               1550  250  -6.5  
               1550  250  -5.5  
               1550  250  -4.5  
               1550  250  -3.5  
               1550  250  -2.5  
               1550  250  -1.5  
               1550  250  -0.5  
               1450  350  -9.5  
               1450  350  -8.5  
               1450  350  -7.5  
               1450  350  -6.5  
               1450  350  -5.5  
               1450  350  -4.5  
               1450  350  -3.5  
               1450  350  -2.5  
               1450  350  -1.5  
               1450  350  -0.5  
               1350  450  -9.5  
               1350  450  -8.5  
               1350  450  -7.5  
               1350  450  -6.5  
               1350  450  -5.5  
               1350  450  -4.5  
               1350  450  -3.5  
               1350  450  -2.5  
               1350  450  -1.5  
               1350  450  -0.5  
               1250  550  -9.5  
               1250  550  -8.5  
               1250  550  -7.5  
               1250  550  -6.5  
               1250  550  -5.5  
               1250  550  -4.5  
               1250  550  -3.5  
               1250  550  -2.5  
               1250  550  -1.5  
               1250  550  -0.500001  
               1150  650  -9.5  
               1150  650  -8.5  
               1150  650  -7.5  
               1150  650  -6.5  
               1150  650  -5.5  
               1150  650  -4.5  
               1150  650  -3.5  
               1150  650  -2.5  
               1150  650  -1.5  
               1150  650  -0.5  
               1050  750  -9.5  
               1050  750  -8.5  
               1050  750  -7.5  
               1050  750  -6.5  
               1050  750  -5.5  
               1050  750  -4.5  
               1050  750  -3.5  
               1050  750  -2.5  
               1050  750  -1.5  
               1050  750  -0.5  
               950  850  -9.5  
               950  850  -8.5  
               950  850  -7.5  
               950  850  -6.5  
               950  850  -5.5  
               950  850  -4.5  
               950  850  -3.5  
               950  850  -2.5  
               950  850  -1.5  
               950  850  -0.5  
               850  950  -9.5  
               850  950  -8.5  
               850  950  -7.5  
               850  950  -6.5  
               850  950  -5.5  
               850  950  -4.5  
               850  950  -3.5  
               850  950  -2.5  
               850  950  -1.5  
               850  950  -0.5  
               750  1050  -9.5  
               750  1050  -8.5  
               750  1050  -7.5  
               750  1050  -6.5  
               750  1050  -5.5  
               750  1050  -4.5  
               750  1050  -3.5  
               750  1050  -2.5  
               750  1050  -1.5  
               750  1050  -0.5  
               1750  150  -9.5  
               1750  150  -8.5  
               1750  150  -7.5  
               1750  150  -6.5  
               1750  150  -5.5  
               1750  150  -4.5  
               1750  150  -3.5  
               1750  150  -2.5  
               1750  150  -1.5  
               1750  150  -0.5  
               1650  250  -9.5  
               1650  250  -8.5  
               1650  250  -7.5  
               1650  250  -6.5  
               1650  250  -5.5  
               1650  250  -4.5  
               1650  250  -3.5  
               1650  250  -2.5  
               1650  250  -1.5  
               1650  250  -0.5  
               1550  350  -9.5  
               1550  350  -8.5  
               1550  350  -7.5  
               1550  350  -6.5  
               1550  350  -5.5  
               1550  350  -4.5  
               1550  350  -3.5  
               1550  350  -2.5  
               1550  350  -1.5  
               1550  350  -0.5  
               1450  450  -9.5  
               1450  450  -8.5  
               1450  450  -7.5  
               1450  450  -6.5  
               1450  450  -5.5  
               1450  450  -4.5  
               1450  450  -3.5  
               1450  450  -2.5  
               1450  450  -1.5  
               1450  450  -0.5  
               1350  550  -9.5  
               1350  550  -8.5  
               1350  550  -7.5  
               1350  550  -6.5  
               1350  550  -5.5  
               1350  550  -4.5  
               1350  550  -3.5  
               1350  550  -2.5  
               1350  550  -1.5  
               1350  550  -0.5  
               1250  650  -9.5  
               1250  650  -8.5  
               1250  650  -7.5  
               1250  650  -6.5  
               1250  650  -5.5  
               1250  650  -4.5  
               1250  650  -3.5  
               1250  650  -2.5  
               1250  650  -1.5  
               1250  650  -0.5  
               1150  750  -9.5  
               1150  750  -8.5  
               1150  750  -7.5  
               1150  750  -6.5  
               1150  750  -5.5  
               1150  750  -4.5  
               1150  750  -3.5  
               1150  750  -2.5  
               1150  750  -1.5  
               1150  750  -0.5  
               1050  850  -9.5  
               1050  850  -8.5  
               1050  850  -7.5  
               1050  850  -6.5  
               1050  850  -5.5  
               1050  850  -4.5  
               1050  850  -3.5  
               1050  850  -2.5  
               1050  850  -1.5  
               1050  850  -0.5  
               950  950  -9.5  
               950  950  -8.5  
               950  950  -7.5  
               950  950  -6.5  
               950  950  -5.5  
               950  950  -4.5  
               950  950  -3.5  
               950  950  -2.5  
               950  950  -1.5  
               950  950  -0.5  
               850  1050  -9.5  
               850  1050  -8.5  
               850  1050  -7.5  
               850  1050  -6.5  
               850  1050  -5.5  
               850  1050  -4.5  
               850  1050  -3.5  
               850  1050  -2.5  
               850  1050  -1.5  
               850  1050  -0.5  
               1850  150  -9.5  
               1850  150  -8.5  
               1850  150  -7.5  
               1850  150  -6.5  
               1850  150  -5.5  
               1850  150  -4.5  
               1850  150  -3.5  
               1850  150  -2.5  
               1850  150  -1.5  
               1850  150  -0.5  
               1750  250  -9.5  
               1750  250  -8.5  
               1750  250  -7.5  
               1750  250  -6.5  
               1750  250  -5.5  
               1750  250  -4.5  
               1750  250  -3.5  
               1750  250  -2.5  
               1750  250  -1.5  
               1750  250  -0.5  
               1650  350  -9.5  
               1650  350  -8.5  
               1650  350  -7.5  
               1650  350  -6.5  
               1650  350  -5.5  
               1650  350  -4.5  
               1650  350  -3.5  
               1650  350  -2.5  
               1650  350  -1.5  
               1650  350  -0.5  
               1550  450  -9.5  
               1550  450  -8.5  
               1550  450  -7.5  
               1550  450  -6.5  
               1550  450  -5.5  
               1550  450  -4.5  
               1550  450  -3.5  
               1550  450  -2.5  
               1550  450  -1.5  
               1550  450  -0.5  
               1450  550  -9.5  
               1450  550  -8.5  
               1450  550  -7.5  
               1450  550  -6.5  
               1450  550  -5.5  
               1450  550  -4.5  
               1450  550  -3.5  
               1450  550  -2.5  
               1450  550  -1.5  
               1450  550  -0.5  
               1350  650  -9.5  
               1350  650  -8.5  
               1350  650  -7.5  
               1350  650  -6.5  
               1350  650  -5.5  
               1350  650  -4.5  
               1350  650  -3.5  
               1350  650  -2.5  
               1350  650  -1.5  
               1350  650  -0.5  
               1250  750  -9.5  
               1250  750  -8.5  
               1250  750  -7.5  
               1250  750  -6.5  
               1250  750  -5.5  
               1250  750  -4.5  
               1250  750  -3.5  
               1250  750  -2.5  
               1250  750  -1.5  
               1250  750  -0.499999  
               1150  850  -9.5  
               1150  850  -8.5  
               1150  850  -7.5  
               1150  850  -6.5  
               1150  850  -5.5  
               1150  850  -4.5  
               1150  850  -3.5  
               1150  850  -2.5  
               1150  850  -1.5  
               1150  850  -0.5  
               1050  950  -9.5  
               1050  950  -8.5  
               1050  950  -7.5  
               1050  950  -6.5  
               1050  950  -5.5  
               1050  950  -4.5  
               1050  950  -3.5  
               1050  950  -2.5  
               1050  950  -1.5  
               1050  950  -0.5  
               950  1050  -9.5  
               950  1050  -8.5  
               950  1050  -7.5  
               950  1050  -6.5  
               950  1050  -5.5  
               950  1050  -4.5  
               950  1050  -3.5  
               950  1050  -2.5  
               950  1050  -1.5  
               950  1050  -0.5  
               1950  150  -9.5  
               1950  150  -8.5  
               1950  150  -7.5  
               1950  150  -6.5  
               1950  150  -5.5  
               1950  150  -4.5  
               1950  150  -3.5  
               1950  150  -2.5  
               1950  150  -1.5  
               1950  150  -0.5  
               1850  250  -9.5  
               1850  250  -8.5  
               1850  250  -7.5  
               1850  250  -6.5  
               1850  250  -5.5  
               1850  250  -4.5  
               1850  250  -3.5  
               1850  250  -2.5  
               1850  250  -1.5  
               1850  250  -0.5  
               1750  350  -9.5  
               1750  350  -8.5  
               1750  350  -7.5  
               1750  350  -6.5  
               1750  350  -5.5  
               1750  350  -4.5  
               1750  350  -3.5  
               1750  350  -2.5  
               1750  350  -1.5  
               1750  350  -0.5  
               1650  450  -9.5  
               1650  450  -8.5  
               1650  450  -7.5  
               1650  450  -6.5  
               1650  450  -5.5  
               1650  450  -4.5  
               1650  450  -3.5  
               1650  450  -2.5  
               1650  450  -1.5  
               1650  450  -0.5  
               1550  550  -9.5  
               1550  550  -8.5  
               1550  550  -7.5  
               1550  550  -6.5  
               1550  550  -5.5  
               1550  550  -4.5  
               1550  550  -3.5  
               1550  550  -2.5  
               1550  550  -1.5  
               1550  550  -0.5  
               1450  650  -9.5  
               1450  650  -8.5  
               1450  650  -7.5  
               1450  650  -6.5  
               1450  650  -5.5  
               1450  650  -4.5  
               1450  650  -3.5  
               1450  650  -2.5  
               1450  650  -1.5  
               1450  650  -0.5  
               1350  750  -9.5  
               1350  750  -8.5  
               1350  750  -7.5  
               1350  750  -6.5  
               1350  750  -5.5  
               1350  750  -4.5  
               1350  750  -3.5  
               1350  750  -2.5  
               1350  750  -1.5  
               1350  750  -0.5  
               1250  850  -9.5  
               1250  850  -8.5  
               1250  850  -7.5  
               1250  850  -6.5  
               1250  850  -5.5  
               1250  850  -4.5  
               1250  850  -3.5  
               1250  850  -2.5  
               1250  850  -1.5  
               1250  850  -0.5  
               1150  950  -9.5  
               1150  950  -8.5  
               1150  950  -7.5  
               1150  950  -6.5  
               1150  950  -5.5  
               1150  950  -4.5  
               1150  950  -3.5  
               1150  950  -2.5  
               1150  950  -1.5  
               1150  950  -0.5  
               1050  1050  -9.5  
               1050  1050  -8.5  
               1050  1050  -7.5  
               1050  1050  -6.5  
               1050  1050  -5.5  
               1050  1050  -4.5  
               1050  1050  -3.5  
               1050  1050  -2.5  
               1050  1050  -1.5  
               1050  1050  -0.5  
               1950  250  -9.5  
               1950  250  -8.5  
               1950  250  -7.5  
               1950  250  -6.5  
               1950  250  -5.5  
               1950  250  -4.5  
               1950  250  -3.5  
               1950  250  -2.5  
               1950  250  -1.5  
               1950  250  -0.5  
               1850  350  -9.5  
               1850  350  -8.5  
               1850  350  -7.5  
               1850  350  -6.5  
               1850  350  -5.5  
               1850  350  -4.5  
               1850  350  -3.5  
               1850  350  -2.5  
               1850  350  -1.5  
               1850  350  -0.5  
               1750  450  -9.5  
               1750  450  -8.5  
               1750  450  -7.5  
               1750  450  -6.5  
               1750  450  -5.5  
               1750  450  -4.5  
               1750  450  -3.5  
               1750  450  -2.5  
               1750  450  -1.5  
               1750  450  -0.5  
               1650  550  -9.5  
               1650  550  -8.5  
               1650  550  -7.5  
               1650  550  -6.5  
               1650  550  -5.5  
               1650  550  -4.5  
               1650  550  -3.5  
               1650  550  -2.5  
               1650  550  -1.5  
               1650  550  -0.5  
               1550  650  -9.5  
               1550  650  -8.5  
               1550  650  -7.5  
               1550  650  -6.5  
               1550  650  -5.5  
               1550  650  -4.5  
               1550  650  -3.5  
               1550  650  -2.5  
               1550  650  -1.5  
               1550  650  -0.5  
               1450  750  -9.5  
               1450  750  -8.5  
               1450  750  -7.5  
               1450  750  -6.5  
               1450  750  -5.5  
               1450  750  -4.5  
               1450  750  -3.5  
               1450  750  -2.5  
               1450  750  -1.5  
               1450  750  -0.5  
               1350  850  -9.58  
               1350  850  -8.74  
               1350  850  -7.9  
               1350  850  -7.06  
               1350  850  -6.22  
               1350  850  -5.38  
               1350  850  -4.54  
               1350  850  -3.7  
               1350  850  -2.86  
               1350  850  -2.02  
               1250  950  -9.5  
               1250  950  -8.5  
               1250  950  -7.5  
               1250  950  -6.5  
               1250  950  -5.5  
               1250  950  -4.5  
               1250  950  -3.5  
               1250  950  -2.5  
               1250  950  -1.5  
               1250  950  -0.5  
               1150  1050  -9.5  
               1150  1050  -8.5  
               1150  1050  -7.5  
               1150  1050  -6.5  
               1150  1050  -5.5  
               1150  1050  -4.5  
               1150  1050  -3.5  
               1150  1050  -2.5  
               1150  1050  -1.5  
               1150  1050  -0.5  
               1950  350  -9.5  
               1950  350  -8.5  
               1950  350  -7.5  
               1950  350  -6.5  
               1950  350  -5.5  
               1950  350  -4.5  
               1950  350  -3.5  
               1950  350  -2.5  
               1950  350  -1.5  
               1950  350  -0.5  
               1850  450  -9.5  
               1850  450  -8.5  
               1850  450  -7.5  
               1850  450  -6.5  
               1850  450  -5.5  
               1850  450  -4.5  
               1850  450  -3.5  
               1850  450  -2.5  
               1850  450  -1.5  
               1850  450  -0.5  
               1750  550  -9.5  
               1750  550  -8.5  
               1750  550  -7.5  
               1750  550  -6.5  
               1750  550  -5.5  
               1750  550  -4.5  
               1750  550  -3.5  
               1750  550  -2.5  
               1750  550  -1.5  
               1750  550  -0.5  
               1650  650  -9.5  
               1650  650  -8.5  
               1650  650  -7.5  
               1650  650  -6.5  
               1650  650  -5.5  
               1650  650  -4.5  
               1650  650  -3.5  
               1650  650  -2.5  
               1650  650  -1.5  
               1650  650  -0.5  
               1550  750  -9.5  
               1550  750  -8.5  
               1550  750  -7.5  
               1550  750  -6.5  
               1550  750  -5.5  
               1550  750  -4.5  
               1550  750  -3.5  
               1550  750  -2.5  
               1550  750  -1.5  
               1550  750  -0.5  
               1450  850  -9.58  
               1450  850  -8.74  
               1450  850  -7.9  
               1450  850  -7.06  
               1450  850  -6.22  
               1450  850  -5.38  
               1450  850  -4.54  
               1450  850  -3.7  
               1450  850  -2.86  
               1450  850  -2.02  
               1350  950  -9.58  
               1350  950  -8.74  
               1350  950  -7.9  
               1350  950  -7.06  
               1350  950  -6.22  
               1350  950  -5.38  
               1350  950  -4.54  
               1350  950  -3.7  
               1350  950  -2.86  
               1350  950  -2.02  
               1250  1050  -9.5  
               1250  1050  -8.5  
               1250  1050  -7.5  
               1250  1050  -6.5  
               1250  1050  -5.5  
               1250  1050  -4.5  
               1250  1050  -3.5  
               1250  1050  -2.5  
               1250  1050  -1.5  
               1250  1050  -0.5  
               1950  450  -9.5  
               1950  450  -8.5  
               1950  450  -7.5  
               1950  450  -6.5  
               1950  450  -5.5  
               1950  450  -4.5  
               1950  450  -3.5  
               1950  450  -2.5  
               1950  450  -1.5  
               1950  450  -0.5  
               1850  550  -9.5  
               1850  550  -8.5  
               1850  550  -7.5  
               1850  550  -6.5  
               1850  550  -5.5  
               1850  550  -4.5  
               1850  550  -3.5  
               1850  550  -2.5  
               1850  550  -1.5  
               1850  550  -0.5  
               1750  650  -9.5  
               1750  650  -8.5  
               1750  650  -7.5  
               1750  650  -6.5  
               1750  650  -5.5  
               1750  650  -4.5  
               1750  650  -3.5  
               1750  650  -2.5  
               1750  650  -1.5  
               1750  650  -0.5  
               1650  750  -9.5  
               1650  750  -8.5  
               1650  750  -7.5  
               1650  750  -6.5  
               1650  750  -5.5  
               1650  750  -4.5  
               1650  750  -3.5  
               1650  750  -2.5  
               1650  750  -1.5  
               1650  750  -0.5  
               1550  850  -9.58  
               1550  850  -8.74  
               1550  850  -7.9  
               1550  850  -7.06  
               1550  850  -6.22  
               1550  850  -5.38  
               1550  850  -4.54  
               1550  850  -3.7  
               1550  850  -2.86  
               1550  850  -2.02  
               1450  950  -9.58  
               1450  950  -8.74  
               1450  950  -7.9  
               1450  950  -7.06  
               1450  950  -6.22  
               1450  950  -5.38  
               1450  950  -4.54  
               1450  950  -3.7  
               1450  950  -2.86  
               1450  950  -2.02  
               1350  1050  -9.58  
               1350  1050  -8.74  
               1350  1050  -7.9  
               1350  1050  -7.06  
               1350  1050  -6.22  
               1350  1050  -5.38  
               1350  1050  -4.54  
               1350  1050  -3.7  
               1350  1050  -2.86  
               1350  1050  -2.02  
               1950  550  -9.5  
               1950  550  -8.5  
               1950  550  -7.5  
               1950  550  -6.5  
               1950  550  -5.5  
               1950  550  -4.5  
               1950  550  -3.5  
               1950  550  -2.5  
               1950  550  -1.5  
               1950  550  -0.5  
               1850  650  -9.5  
               1850  650  -8.5  
               1850  650  -7.5  
               1850  650  -6.5  
               1850  650  -5.5  
               1850  650  -4.5  
               1850  650  -3.5  
               1850  650  -2.5  
               1850  650  -1.5  
               1850  650  -0.5  
               1750  750  -9.5  
               1750  750  -8.5  
               1750  750  -7.5  
               1750  750  -6.5  
               1750  750  -5.5  
               1750  750  -4.5  
               1750  750  -3.5  
               1750  750  -2.5  
               1750  750  -1.5  
               1750  750  -0.5  
               1650  850  -9.58  
               1650  850  -8.74  
               1650  850  -7.9  
               1650  850  -7.06  
               1650  850  -6.22  
               1650  850  -5.38  
               1650  850  -4.54  
               1650  850  -3.7  
               1650  850  -2.86  
               1650  850  -2.02  
               1550  950  -9.58  
               1550  950  -8.74  
               1550  950  -7.9  
               1550  950  -7.06  
               1550  950  -6.22  
               1550  950  -5.38  
               1550  950  -4.54  
               1550  950  -3.7  
               1550  950  -2.86  
               1550  950  -2.02  
               1450  1050  -9.58  
               1450  1050  -8.74  
               1450  1050  -7.9  
               1450  1050  -7.06  
               1450  1050  -6.22  
               1450  1050  -5.38  
               1450  1050  -4.54  
               1450  1050  -3.7  
               1450  1050  -2.86  
               1450  1050  -2.02  
               1950  650  -9.5  
               1950  650  -8.5  
               1950  650  -7.5  
               1950  650  -6.5  
               1950  650  -5.5  
               1950  650  -4.5  
               1950  650  -3.5  
               1950  650  -2.5  
               1950  650  -1.5  
               1950  650  -0.5  
               1850  750  -9.5  
               1850  750  -8.5  
               1850  750  -7.5  
               1850  750  -6.5  
               1850  750  -5.5  
               1850  750  -4.5  
               1850  750  -3.5  
               1850  750  -2.5  
               1850  750  -1.5  
               1850  750  -0.5  
               1750  850  -9.5  
               1750  850  -8.5  
               1750  850  -7.5  
               1750  850  -6.5  
               1750  850  -5.5  
               1750  850  -4.5  
               1750  850  -3.5  
               1750  850  -2.5  
               1750  850  -1.5  
               1750  850  -0.5  
               1650  950  -9.58  
               1650  950  -8.74  
               1650  950  -7.9  
               1650  950  -7.06  
               1650  950  -6.22  
               1650  950  -5.38  
               1650  950  -4.54  
               1650  950  -3.7  
               1650  950  -2.86  
               1650  950  -2.02  
               1550  1050  -9.58  
               1550  1050  -8.74  
               1550  1050  -7.9  
               1550  1050  -7.06  
               1550  1050  -6.22  
               1550  1050  -5.38  
               1550  1050  -4.54  
               1550  1050  -3.7  
               1550  1050  -2.86  
               1550  1050  -2.02  
               1950  750  -9.5  
               1950  750  -8.5  
               1950  750  -7.5  
               1950  750  -6.5  
               1950  750  -5.5  
               1950  750  -4.5  
               1950  750  -3.5  
               1950  750  -2.5  
               1950  750  -1.5  
               1950  750  -0.5  
               1850  850  -9.5  
               1850  850  -8.5  
               1850  850  -7.5  
               1850  850  -6.5  
               1850  850  -5.5  
               1850  850  -4.5  
               1850  850  -3.5  
               1850  850  -2.5  
               1850  850  -1.5  
               1850  850  -0.5  
               1750  950  -9.5  
               1750  950  -8.5  
               1750  950  -7.5  
               1750  950  -6.5  
               1750  950  -5.5  
               1750  950  -4.5  
               1750  950  -3.5  
               1750  950  -2.5  
               1750  950  -1.5  
               1750  950  -0.5  
               1650  1050  -9.58  
               1650  1050  -8.74  
               1650  1050  -7.9  
               1650  1050  -7.06  
               1650  1050  -6.22  
               1650  1050  -5.38  
               1650  1050  -4.54  
               1650  1050  -3.7  
               1650  1050  -2.86  
               1650  1050  -2.02  
               1950  850  -9.5  
               1950  850  -8.5  
               1950  850  -7.5  
               1950  850  -6.5  
               1950  850  -5.5  
               1950  850  -4.5  
               1950  850  -3.5  
               1950  850  -2.5  
               1950  850  -1.5  
               1950  850  -0.5  
               1850  950  -9.5  
               1850  950  -8.5  
               1850  950  -7.5  
               1850  950  -6.5  
               1850  950  -5.5  
               1850  950  -4.5  
               1850  950  -3.5  
               1850  950  -2.5  
               1850  950  -1.5  
               1850  950  -0.5  
               1750  1050  -9.5  
               1750  1050  -8.5  
               1750  1050  -7.5  
               1750  1050  -6.5  
               1750  1050  -5.5  
               1750  1050  -4.5  
               1750  1050  -3.5  
               1750  1050  -2.5  
               1750  1050  -1.5  
               1750  1050  -0.5  
               1950  950  -9.5  
               1950  950  -8.5  
               1950  950  -7.5  
               1950  950  -6.5  
               1950  950  -5.5  
               1950  950  -4.5  
               1950  950  -3.5  
               1950  950  -2.5  
               1950  950  -1.5  
               1950  950  -0.5  
               1850  1050  -9.5  
               1850  1050  -8.5  
               1850  1050  -7.5  
               1850  1050  -6.5  
               1850  1050  -5.5  
               1850  1050  -4.5  
               1850  1050  -3.5  
               1850  1050  -2.5  
               1850  1050  -1.5  
               1850  1050  -0.5  
               1950  1050  -9.5  
               1950  1050  -8.5  
               1950  1050  -7.5  
               1950  1050  -6.5  
               1950  1050  -5.5  
               1950  1050  -4.5  
               1950  1050  -3.5  
               1950  1050  -2.5  
               1950  1050  -1.5  
               1950  1050  -0.5  
            </DataArray>
         </Points> 

         <Cells>
            <DataArray type="Int32" Name="connectivity" NumberOfComponents="1" format="ascii">
               
            </DataArray> 
            <DataArray type="Int32" Name="offsets" NumberOfComponents="1" format="ascii">
               
            </DataArray>
            <DataArray type="UInt8"  Name="types" NumberOfComponents="1" format="ascii">
               
            </DataArray>
         </Cells>
         <PointData Scalars="Rank sea_water_potential_density " Vectors="">
            <DataArray type="UInt32" Name="Rank" NumberOfComponents="1" format="ascii">
               0 0 0 0 0 0 0 0 0 0 0 0 0 0 0 0 0 0 0 0 0 0 0 0 0 0 0 0 0 0 0 0 0 0 0 0 0 0 0 0 0 0 0 0 0 0 0 0 0 0 0 0 0 0 0 0 0 0 0 0 0 0 0 0 0 0 0 0 0 0 0 0 0 0 0 0 0 0 0 0 0 0 0 0 0 0 0 0 0 0 0 0 0 0 0 0 0 0 0 0 0 0 0 0 0 0 0 0 0 0 0 0 0 0 0 0 0 0 0 0 0 0 0 0 0 0 0 0 0 0 0 0 0 0 0 0 0 0 0 0 0 0 0 0 0 0 0 0 0 0 0 0 0 0 0 0 0 0 0 0 0 0 0 0 0 0 0 0 0 0 0 0 0 0 0 0 0 0 0 0 0 0 0 0 0 0 0 0 0 0 0 0 0 0 0 0 0 0 0 0 0 0 0 0 0 0 0 0 0 0 0 0 0 0 0 0 0 0 0 0 0 0 0 0 0 0 0 0 0 0 0 0 0 0 0 0 0 0 0 0 0 0 0 0 0 0 0 0 0 0 0 0 0 0 0 0 0 0 0 0 0 0 0 0 0 0 0 0 0 0 0 0 0 0 0 0 0 0 0 0 0 0 0 0 0 0 0 0 0 0 0 0 0 0 0 0 0 0 0 0 0 0 0 0 0 0 0 0 0 0 0 0 0 0 0 0 0 0 0 0 0 0 0 0 0 0 0 0 0 0 0 0 0 0 0 0 0 0 0 0 0 0 0 0 0 0 0 0 0 0 0 0 0 0 0 0 0 0 0 0 0 0 0 0 0 0 0 0 0 0 0 0 0 0 0 0 0 0 0 0 0 0 0 0 0 0 0 0 0 0 0 0 0 0 0 0 0 0 0 0 0 0 0 0 0 0 0 0 0 0 0 0 0 0 0 0 0 0 0 0 0 0 0 0 0 0 0 0 0 0 0 0 0 0 0 0 0 0 0 0 0 0 0 0 0 0 0 0 0 0 0 0 0 0 0 0 0 0 0 0 0 0 0 0 0 0 0 0 0 0 0 0 0 0 0 0 0 0 0 0 0 0 0 0 0 0 0 0 0 0 0 0 0 0 0 0 0 0 0 0 0 0 0 0 0 0 0 0 0 0 0 0 0 0 0 0 0 0 0 0 0 0 0 0 0 0 0 0 0 0 0 0 0 0 0 0 0 0 0 0 0 0 0 0 0 0 0 0 0 0 0 0 0 0 0 0 0 0 0 0 0 0 0 0 0 0 0 0 0 0 0 0 0 0 0 0 0 0 0 0 0 0 0 0 0 0 0 0 0 0 0 0 0 0 0 0 0 0 0 0 0 0 0 0 0 0 0 0 0 0 0 0 0 0 0 0 0 0 0 0 0 0 0 0 0 0 0 0 0 0 0 0 0 0 0 0 0 0 0 0 0 0 0 0 0 0 0 0 0 0 0 0 0 0 0 0 0 0 0 0 0 0 0 0 0 0 0 0 0 0 0 0 0 0 0 0 0 0 0 0 0 0 0 0 0 0 0 0 0 0 0 0 0 0 0 0 0 0 0 0 0 0 0 0 0 0 0 0 0 0 0 0 0 0 0 0 0 0 0 0 0 0 0 0 0 0 0 0 0 0 0 0 0 0 0 0 0 0 0 0 0 0 0 0 0 0 0 0 0 0 0 0 0 0 0 0 0 0 0 0 0 0 0 0 0 0 0 0 0 0 0 0 0 0 0 0 0 0 0 0 0 0 0 0 0 0 0 0 0 0 0 0 0 0 0 0 0 0 0 0 0 0 0 0 0 0 0 0 0 0 0 0 0 0 0 0 0 0 0 0 0 0 0 0 0 0 0 0 0 0 0 0 0 0 0 0 0 0 0 0 0 0 0 0 0 0 0 0 0 0 0 0 0 0 0 0 0 0 0 0 0 0 0 0 0 0 0 0 0 0 0 0 0 0 0 0 0 0 0 0 0 0 0 0 0 0 0 0 0 0 0 0 0 0 0 0 0 0 0 0 0 0 0 0 0 0 0 0 0 0 0 0 0 0 0 0 0 0 0 0 0 0 0 0 0 0 0 0 0 0 0 0 0 0 0 0 0 0 0 0 0 0 0 0 0 0 0 0 0 0 0 0 0 0 0 0 0 0 0 0 0 0 0 0 0 0 0 0 0 0 0 0 0 0 0 0 0 0 0 0 0 0 0 0 0 0 0 0 0 0 0 0 0 0 0 0 0 0 0 0 0 0 0 0 0 0 0 0 0 0 0 0 0 0 0 0 0 0 0 0 0 0 0 0 0 0 0 0 0 0 0 0 0 0 0 0 0 0 0 0 0 0 0 0 0 0 0 0 0 0 0 0 0 0 0 0 0 0 0 0 0 0 0 0 0 0 0 0 0 0 0 0 0 0 0 0 0 0 0 0 0 0 0 0 0 0 0 0 0 0 0 0 0 0 0 0 0 0 0 0 0 0 0 0 0 0 0 0 0 0 0 0 0 0 0 0 0 0 0 0 0 0 0 0 0 0 0 0 0 0 0 0 0 0 0 0 0 0 0 0 0 0 0 0 0 0 0 0 0 0 0 0 0 0 0 0 0 0 0 0 0 0 0 0 0 0 0 0 0 0 0 0 0 0 0 0 0 0 0 0 0 0 0 0 0 0 0 0 0 0 0 0 0 0 0 0 0 0 0 0 0 0 0 0 0 0 0 0 0 0 0 0 0 0 0 0 0 0 0 0 0 0 0 0 0 0 0 0 0 0 0 0 0 0 0 0 0 0 0 0 0 0 0 0 0 0 0 0 0 0 0 0 0 0 0 0 0 0 0 0 0 0 0 0 0 0 0 0 0 0 0 0 0 0 0 0 0 0 0 0 0 0 0 0 0 0 0 0 0 0 0 0 0 0 0 0 0 0 0 0 0 0 0 0 0 0 0 0 0 0 0 0 0 0 0 0 0 0 0 0 0 0 0 0 0 0 0 0 0 0 0 0 0 0 0 0 0 0 0 0 0 0 0 0 0 0 0 0 0 0 0 0 0 0 0 0 0 0 0 0 0 0 0 0 0 0 0 0 0 0 0 0 0 0 0 0 0 0 0 0 0 0 0 0 0 0 0 0 0 0 0 0 0 0 0 0 0 0 0 0 0 0 0 0 0 0 0 0 0 0 0 0 0 0 0 0 0 0 0 0 0 0 0 0 0 0 0 0 0 0 0 0 0 0 0 0 0 0 0 0 0 0 0 0 0 0 0 0 0 0 0 0 0 0 0 0 0 0 0 0 0 0 0 0 0 0 0 0 0 0 0 0 0 0 0 0 0 0 0 0 0 0 0 0 0 0 0 0 0 0 0 0 0 0 0 0 0 0 0 0 0 0 0 0 0 0 0 0 0 0 0 0 0 0 0 0 0 0 0 0 0 0 0 0 0 0 0 0 0 0 0 0 0 0 0 0 0 0 0 0 0 0 0 0 0 0 0 0 0 0 0 0 0 0 0 0 0 0 0 0 0 0 0 0 0 0 0 0 0 0 0 0 0 0 0 0 0 0 0 0 0 0 0 0 0 0 0 0 0 0 0 0 0 0 0 0 0 0 0 0 0 0 0 0 0 0 0 0 0 0 0 0 0 0 0 0 0 0 0 0 0 0 0 0 0 0 0 0 0 0 0 0 0 0 0 0 0 0 0 0 0 0 0 0 0 0 0 0 0 0 0 0 0 0 0 0 0 0 0 0 0 0 0 0 0 0 0 0 0 0 0 0 0 0 0 0 0 0 0 0 0 0 0 0 0 0 0 0 0 0 0 0 0 0 0 0 0 0 0 0 0 0 0 0 0 0 0 0 0 0 0 0 0 0 0 0 0 0 0 0 0 0 0 0 0 0 0 0 0 0 0 0 0 0 0 0 0 0 0 0 0 0 0 0 0 0 0 0 0 0 0 0 0 0 0 0 0 0 0 0 0 0 0 0 0 0 0 0 0 0 0 0 0 0 0 0 0 0 0 0 0 0 0 0 0 0 0 0 0 0 0 0 0 0 0 0 0 0 0 0 0 0 0 0 0 0 0 0 0 0 0 0 0 0 0 0 0 0 0 0 0 0 0 0 0 0 0 0 0 0 0 0 0 0 0 0 0 0 0 0 0 0 0 0 0 0 0 0 0 0 0 0 0 0 0 0 0 0 0 0 0 0 0 0 0 0 0 0 0 0 0 0 0 0 0 0 0 0 0 0 0 0 0 0 0 0 0 0 0 0 0 0 0 0 0 0 0 0 0 0 0 0 0 0 0 0 0 0 0 0 0 0 0 0 0 0 0 0 0 0 0 0 0 0 0 0 0 0 0 0 0 0 0 0 0 0 0 0 0 0 0 0 0 0 0 0 0 0 0 0 0 0 0 0 0 0 0 0 0 0 0 0 0 0 0 0 0 0 0 0 0 0 0 0 0 0 0 0 0 0 0 0 0 0 0 0 0 0 0 0 0 0 0 0 0 0 0 0 0 0 
            </DataArray>
            <DataArray type="Float64" Name="sea_water_potential_density" NumberOfComponents="1" format="ascii">
               1000 1000 1000 1000 1000 1000 1000 1000 1000 1000 1000 1000 1000 1000 1000 1000 1000 1000 1000 1000 1000 1000 1000 1000 1000 1000 1000 1000 1000 1000 1000 1000 1000 1000 1000 1000 1000 1000 1000 1000 1000 1000 1000 1000 1000 1000 1000 1000 1000 1000 1000 1000 1000 1000 1000 1000 1000 1000 1000 1000 1000 1000 1000 1000 1000 1000 1000 1000 1000 1000 1000 1000 1000 1000 1000 1000 1000 1000 1000 1000 1000 1000 1000 1000 1000 1000 1000 1000 1000 1000 1000 1000 1000 1000 1000 1000 1000 1000 1000 1000 1000 1000 1000 1000 1000 1000 1000 1000 1000 1000 1000 1000 1000 1000 1000 1000 1000 1000 1000 1000 1000 1000 1000 1000 1000 1000 1000 1000 1000 1000 1000 1000 1000 1000 1000 1000 1000 1000 1000 1000 1000 1000 1000 1000 1000 1000 1000 1000 1000 1000 1000 1000 1000 1000 1000 1000 1000 1000 1000 1000 1000 1000 1000 1000 1000 1000 1000 1000 1000 1000 1000 1000 1000 1000 1000 1000 1000 1000 1000 1000 1000 1000 1000 1000 1000 1000 1000 1000 1000 1000 1000 1000 1000 1000 1000 1000 1000 1000 1000 1000 1000 1022.12 1022.12 1022.12 1022.12 1022.12 1022.12 1022.12 1022.12 1022.12 1022.12 1000 1022.12 1022.12 1022.12 1022.12 1022.12 1022.12 1022.12 1022.12 1022.12 1022.12 1000 1022.12 1022.12 1022.12 1022.12 1022.12 1022.12 1022.12 1022.12 1022.12 1022.12 1000 1022.12 1022.12 1022.12 1022.12 1022.12 1022.12 1022.12 1022.12 1022.12 1022.12 1000 1022.12 1022.12 1022.12 1022.12 1022.12 1022.12 1022.12 1022.12 1022.12 1022.12 1000 1022.12 1022.12 1022.12 1022.12 1022.12 1022.12 1022.12 1022.12 1022.12 1022.12 1000 1022.12 1022.12 1022.12 1022.12 1022.12 1022.12 1022.12 1022.12 1022.12 1022.12 1000 1022.12 1022.12 1022.12 1022.12 1022.12 1022.12 1022.12 1022.12 1022.12 1022.12 1000 1022.12 1022.12 1022.12 1022.12 1022.12 1022.12 1022.12 1022.12 1022.12 1022.12 1000 1022.12 1022.12 1022.12 1022.12 1022.12 1022.12 1022.12 1022.12 1022.12 1022.12 1000 1022.12 1022.12 1022.12 1022.12 1022.12 1022.12 1022.12 1022.12 1022.12 1022.12 1000 1022.12 1022.12 1022.12 1022.12 1022.12 1022.12 1022.12 1022.12 1022.12 1022.12 1000 1022.12 1022.12 1022.12 1022.12 1022.12 1022.12 1022.12 1022.12 1022.12 1022.12 1000 1022.12 1022.12 1022.12 1022.12 1022.12 1022.12 1022.12 1022.12 1022.12 1022.12 1000 1022.12 1022.12 1022.12 1022.12 1022.12 1022.12 1022.12 1022.12 1022.12 1022.12 1000 1022.12 1022.12 1022.12 1022.12 1022.12 1022.12 1022.12 1022.12 1022.12 1022.12 1000 1022.12 1022.12 1022.12 1022.12 1022.12 1022.12 1022.12 1022.12 1022.12 1022.12 1000 1022.12 1022.12 1022.12 1022.12 1022.12 1022.12 1022.12 1022.12 1022.12 1022.12 1000 1022.12 1022.12 1022.12 1022.12 1022.12 1022.12 1022.12 1022.12 1022.12 1022.12 1000 1022.12 1022.12 1022.12 1022.12 1022.12 1022.12 1022.12 1022.12 1022.12 1022.12 1000 1022.12 1022.12 1022.12 1022.12 1022.12 1022.12 1022.12 1022.12 1022.12 1022.12 1000 1022.12 1022.12 1022.12 1022.12 1022.12 1022.12 1022.12 1022.12 1022.12 1022.12 1000 1022.12 1022.12 1022.12 1022.12 1022.12 1022.12 1022.12 1022.12 1022.12 1022.12 1000 1022.12 1022.12 1022.12 1022.12 1022.12 1022.12 1022.12 1022.12 1022.12 1022.12 1000 1022.12 1022.12 1022.12 1022.12 1022.12 1022.12 1022.12 1022.12 1022.12 1022.12 1000 1022.12 1022.12 1022.12 1022.12 1022.12 1022.12 1022.12 1022.12 1022.12 1022.12 1000 1022.12 1022.12 1022.12 1022.12 1022.12 1022.12 1022.12 1022.12 1022.12 1022.12 1000 1022.12 1022.12 1022.12 1022.12 1022.12 1022.12 1022.12 1022.12 1022.12 1022.12 1000 1022.12 1022.12 1022.12 1022.12 1022.12 1022.12 1022.12 1022.12 1022.12 1022.12 1000 1022.12 1022.12 1022.12 1022.12 1022.12 1022.12 1022.12 1022.12 1022.12 1022.12 1000 1022.12 1022.12 1022.12 1022.12 1022.12 1022.12 1022.12 1022.12 1022.12 1022.12 1000 1022.12 1022.12 1022.12 1022.12 1022.12 1022.12 1022.12 1022.12 1022.12 1022.12 1000 1022.12 1022.12 1022.12 1022.12 1022.12 1022.12 1022.12 1022.12 1022.12 1022.12 1000 1022.12 1022.12 1022.12 1022.12 1022.12 1022.12 1022.12 1022.12 1022.12 1022.12 1000 1022.12 1022.12 1022.12 1022.12 1022.12 1022.12 1022.12 1022.12 1022.12 1022.12 1000 1022.12 1022.12 1022.12 1022.12 1022.12 1022.12 1022.12 1022.12 1022.12 1022.12 1000 1022.12 1022.12 1022.12 1022.12 1022.12 1022.12 1022.12 1022.12 1022.12 1022.12 1000 1022.12 1022.12 1022.12 1022.12 1022.12 1022.12 1022.12 1022.12 1022.12 1022.12 1000 1022.12 1022.12 1022.12 1022.12 1022.12 1022.12 1022.12 1022.12 1022.12 1022.12 1000 1022.12 1022.12 1022.12 1022.12 1022.12 1022.12 1022.12 1022.12 1022.12 1022.12 1000 1022.12 1022.12 1022.12 1022.12 1022.12 1022.12 1022.12 1022.12 1022.12 1022.12 1000 1022.12 1022.12 1022.12 1022.12 1022.12 1022.12 1022.12 1022.12 1022.12 1022.12 1000 1022.12 1022.12 1022.12 1022.12 1022.12 1022.12 1022.12 1022.12 1022.12 1022.12 1000 1022.12 1022.12 1022.12 1022.12 1022.12 1022.12 1022.12 1022.12 1022.12 1022.12 1000 1022.12 1022.12 1022.12 1022.12 1022.12 1022.12 1022.12 1022.12 1022.12 1022.12 1000 1022.12 1022.12 1022.12 1022.12 1022.12 1022.12 1022.12 1022.12 1022.12 1022.12 1000 1022.12 1022.12 1022.12 1022.12 1022.12 1022.12 1022.12 1022.12 1022.12 1022.12 1000 1022.12 1022.12 1022.12 1022.12 1022.12 1022.12 1022.12 1022.12 1022.12 1022.12 1000 1022.12 1022.12 1022.12 1022.12 1022.12 1022.12 1022.12 1022.12 1022.12 1022.12 1000 1022.12 1022.12 1022.12 1022.12 1022.12 1022.12 1022.12 1022.12 1022.12 1022.12 1000 1022.12 1022.12 1022.12 1022.12 1022.12 1022.12 1022.12 1022.12 1022.12 1022.12 1000 1022.12 1022.12 1022.12 1022.12 1022.12 1022.12 1022.12 1022.12 1022.12 1022.12 1000 1022.12 1022.12 1022.12 1022.12 1022.12 1022.12 1022.12 1022.12 1022.12 1022.12 1000 1022.12 1022.12 1022.12 1022.12 1022.12 1022.12 1022.12 1022.12 1022.12 1022.12 1000 1022.12 1022.12 1022.12 1022.12 1022.12 1022.12 1022.12 1022.12 1022.12 1022.12 1000 1022.12 1022.12 1022.12 1022.12 1022.12 1022.12 1022.12 1022.12 1022.12 1022.12 1000 1021.76 1021.46 1021.1 1020.81 1020.35 1020.11 1020.06 1020.06 1020.06 1020.06 1000 1022.12 1022.12 1022.12 1022.12 1022.12 1022.12 1022.12 1022.12 1022.12 1022.12 1000 1022.12 1022.12 1022.12 1022.12 1022.12 1022.12 1022.12 1022.12 1022.12 1022.12 1000 1022.12 1022.12 1022.12 1022.12 1022.12 1022.12 1022.12 1022.12 1022.12 1022.12 1000 1022.12 1022.12 1022.12 1022.12 1022.12 1022.12 1022.12 1022.12 1022.12 1022.12 1000 1022.12 1022.12 1022.12 1022.12 1022.12 1022.12 1022.12 1022.12 1022.12 1022.12 1000 1022.12 1022.12 1022.12 1022.12 1022.12 1022.12 1022.12 1022.12 1022.12 1022.12 1000 1022.12 1022.12 1022.12 1022.12 1022.12 1022.12 1022.12 1022.12 1022.12 1022.12 1000 1022.12 1022.12 1022.12 1022.12 1022.12 1022.12 1022.12 1022.12 1022.12 1022.12 1000 1022.12 1022.12 1022.12 1022.12 1022.12 1022.12 1022.12 1022.12 1022.12 1022.12 1000 1021.81 1021.52 1020.96 1020.66 1020.49 1020.27 1020.15 1020.12 1020.11 1020.11 1000 1021.78 1021.54 1021.26 1021.1 1019.88 1019.92 1019.95 1019.97 1019.98 1020 1000 1022.12 1022.12 1022.12 1022.12 1022.12 1022.12 1022.12 1022.12 1022.12 1022.12 1000 1022.12 1022.12 1022.12 1022.12 1022.12 1022.12 1022.12 1022.12 1022.12 1022.12 1000 1022.12 1022.12 1022.12 1022.12 1022.12 1022.12 1022.12 1022.12 1022.12 1022.12 1000 1022.12 1022.12 1022.12 1022.12 1022.12 1022.12 1022.12 1022.12 1022.12 1022.12 1000 1022.12 1022.12 1022.12 1022.12 1022.12 1022.12 1022.12 1022.12 1022.12 1022.12 1000 1022.12 1022.12 1022.12 1022.12 1022.12 1022.12 1022.12 1022.12 1022.12 1022.12 1000 1022.12 1022.12 1022.12 1022.12 1022.12 1022.12 1022.12 1022.12 1022.12 1022.12 1000 1022.12 1022.12 1022.12 1022.12 1022.12 1022.12 1022.12 1022.12 1022.12 1022.12 1000 1021.74 1021.22 1020.75 1020.63 1020.58 1020.52 1020.4 1020.29 1020.22 1020.18 1000 1021.81 1021.49 1021.01 1020.73 1020.51 1020.32 1020.23 1020.15 1020.1 1020.08 1000 1021.76 1021.46 1021.1 1020.81 1020.35 1020.11 1020.06 1020.06 1020.06 1020.06 1000 1022.12 1022.12 1022.12 1022.12 1022.12 1022.12 1022.12 1022.12 1022.12 1022.12 1000 1022.12 1022.12 1022.12 1022.12 1022.12 1022.12 1022.12 1022.12 1022.12 1022.12 1000 1022.12 1022.12 1022.12 1022.12 1022.12 1022.12 1022.12 1022.12 1022.12 1022.12 1000 1022.12 1022.12 1022.12 1022.12 1022.12 1022.12 1022.12 1022.12 1022.12 1022.12 1000 1022.12 1022.12 1022.12 1022.12 1022.12 1022.12 1022.12 1022.12 1022.12 1022.12 1000 1022.12 1022.12 1022.12 1022.12 1022.12 1022.12 1022.12 1022.12 1022.12 1022.12 1000 1022.12 1022.12 1022.12 1022.12 1022.12 1022.12 1022.12 1022.12 1022.12 1022.12 1000 1021.68 1021.1 1020.66 1020.55 1020.49 1020.44 1020.4 1020.36 1020.33 1020.31 1000 1021.74 1021.2 1020.73 1020.61 1020.57 1020.51 1020.44 1020.32 1020.23 1020.18 1000 1021.81 1021.52 1020.96 1020.66 1020.49 1020.27 1020.15 1020.12 1020.11 1020.11 1000 1022.12 1022.12 1022.12 1022.12 1022.12 1022.12 1022.12 1022.12 1022.12 1022.12 1000 1022.12 1022.12 1022.12 1022.12 1022.12 1022.12 1022.12 1022.12 1022.12 1022.12 1000 1022.12 1022.12 1022.12 1022.12 1022.12 1022.12 1022.12 1022.12 1022.12 1022.12 1000 1022.12 1022.12 1022.12 1022.12 1022.12 1022.12 1022.12 1022.12 1022.12 1022.12 1000 1022.12 1022.12 1022.12 1022.12 1022.12 1022.12 1022.12 1022.12 1022.12 1022.12 1000 1022.12 1022.12 1022.12 1022.12 1022.12 1022.12 1022.12 1022.12 1022.12 1022.12 1000 1022.12 1022.12 1022.12 1022.12 1022.12 1022.12 1022.12 1022.12 1022.12 1022.12 1000 1022.12 1022.12 1022.12 1022.12 1022.12 1022.12 1022.12 1022.12 1022.12 1022.12 1000 1021.66 1021.05 1020.64 1020.55 1020.49 1020.45 1020.41 1020.37 1020.34 1020.32 1000 1021.74 1021.22 1020.75 1020.63 1020.58 1020.52 1020.4 1020.29 1020.22 1020.18 1000 1022.12 1022.12 1022.12 1022.12 1022.12 1022.12 1022.12 1022.12 1022.12 1022.12 1000 1022.12 1022.12 1022.12 1022.12 1022.12 1022.12 1022.12 1022.12 1022.12 1022.12 1000 1022.12 1022.12 1022.12 1022.12 1022.12 1022.12 1022.12 1022.12 1022.12 1022.12 1000 1022.12 1022.12 1022.12 1022.12 1022.12 1022.12 1022.12 1022.12 1022.12 1022.12 1000 1022.12 1022.12 1022.12 1022.12 1022.12 1022.12 1022.12 1022.12 1022.12 1022.12 1000 1022.12 1022.12 1022.12 1022.12 1022.12 1022.12 1022.12 1022.12 1022.12 1022.12 1000 1022.12 1022.12 1022.12 1022.12 1022.12 1022.12 1022.12 1022.12 1022.12 1022.12 1000 1022.12 1022.12 1022.12 1022.12 1022.12 1022.12 1022.12 1022.12 1022.12 1022.12 1000 1022.12 1022.12 1022.12 1022.12 1022.12 1022.12 1022.12 1022.12 1022.12 1022.12 1000 1021.68 1021.1 1020.66 1020.55 1020.49 1020.44 1020.4 1020.36 1020.33 1020.31 1000 1022.12 1022.12 1022.12 1022.12 1022.12 1022.12 1022.12 1022.12 1022.12 1022.12 1000 1022.12 1022.12 1022.12 1022.12 1022.12 1022.12 1022.12 1022.12 1022.12 1022.12 1000 1022.12 1022.12 1022.12 1022.12 1022.12 1022.12 1022.12 1022.12 1022.12 1022.12 1000 1022.12 1022.12 1022.12 1022.12 1022.12 1022.12 1022.12 1022.12 1022.12 1022.12 1000 1022.12 1022.12 1022.12 1022.12 1022.12 1022.12 1022.12 1022.12 1022.12 1022.12 1000 1022.12 1022.12 1022.12 1022.12 1022.12 1022.12 1022.12 1022.12 1022.12 1022.12 1000 1022.12 1022.12 1022.12 1022.12 1022.12 1022.12 1022.12 1022.12 1022.12 1022.12 1000 1022.12 1022.12 1022.12 1022.12 1022.12 1022.12 1022.12 1022.12 1022.12 1022.12 1000 1022.12 1022.12 1022.12 1022.12 1022.12 1022.12 1022.12 1022.12 1022.12 1022.12 1000 1022.12 1022.12 1022.12 1022.12 1022.12 1022.12 1022.12 1022.12 1022.12 1022.12 1000 1022.12 1022.12 1022.12 1022.12 1022.12 1022.12 1022.12 1022.12 1022.12 1022.12 1000 1022.12 1022.12 1022.12 1022.12 1022.12 1022.12 1022.12 1022.12 1022.12 1022.12 1000 1022.12 1022.12 1022.12 1022.12 1022.12 1022.12 1022.12 1022.12 1022.12 1022.12 1000 1022.12 1022.12 1022.12 1022.12 1022.12 1022.12 1022.12 1022.12 1022.12 1022.12 1000 1022.12 1022.12 1022.12 1022.12 1022.12 1022.12 1022.12 1022.12 1022.12 1022.12 1000 1022.12 1022.12 1022.12 1022.12 1022.12 1022.12 1022.12 1022.12 1022.12 1022.12 1000 1022.12 1022.12 1022.12 1022.12 1022.12 1022.12 1022.12 1022.12 1022.12 1022.12 1000 1022.12 1022.12 1022.12 1022.12 1022.12 1022.12 1022.12 1022.12 1022.12 1022.12 1000 1022.12 1022.12 1022.12 1022.12 1022.12 1022.12 1022.12 1022.12 1022.12 1022.12 1000 1022.12 1022.12 1022.12 1022.12 1022.12 1022.12 1022.12 1022.12 1022.12 1022.12 1000 1022.12 1022.12 1022.12 1022.12 1022.12 1022.12 1022.12 1022.12 1022.12 1022.12 1000 1022.12 1022.12 1022.12 1022.12 1022.12 1022.12 1022.12 1022.12 1022.12 1022.12 1000 1022.12 1022.12 1022.12 1022.12 1022.12 1022.12 1022.12 1022.12 1022.12 1022.12 1000 1022.12 1022.12 1022.12 1022.12 1022.12 1022.12 1022.12 1022.12 1022.12 1022.12 1000 1022.12 1022.12 1022.12 1022.12 1022.12 1022.12 1022.12 1022.12 1022.12 1022.12 1000 1022.12 1022.12 1022.12 1022.12 1022.12 1022.12 1022.12 1022.12 1022.12 1022.12 1000 1022.12 1022.12 1022.12 1022.12 1022.12 1022.12 1022.12 1022.12 1022.12 1022.12 1000 1022.12 1022.12 1022.12 1022.12 1022.12 1022.12 1022.12 1022.12 1022.12 1022.12 1000 1022.12 1022.12 1022.12 1022.12 1022.12 1022.12 1022.12 1022.12 1022.12 1022.12 1000 1022.12 1022.12 1022.12 1022.12 1022.12 1022.12 1022.12 1022.12 1022.12 1022.12 1000 1022.12 1022.12 1022.12 1022.12 1022.12 1022.12 1022.12 1022.12 1022.12 1022.12 1000 1022.12 1022.12 1022.12 1022.12 1022.12 1022.12 1022.12 1022.12 1022.12 1022.12 1000 1022.12 1022.12 1022.12 1022.12 1022.12 1022.12 1022.12 1022.12 1022.12 1022.12 1000 1022.12 1022.12 1022.12 1022.12 1022.12 1022.12 1022.12 1022.12 1022.12 1022.12 1000 1022.12 1022.12 1022.12 1022.12 1022.12 1022.12 1022.12 1022.12 1022.12 1022.12 1000 1022.12 1022.12 1022.12 1022.12 1022.12 1022.12 1022.12 1022.12 1022.12 1022.12 1000 1022.12 1022.12 1022.12 1022.12 1022.12 1022.12 1022.12 1022.12 1022.12 1022.12 1000 1022.12 1022.12 1022.12 1022.12 1022.12 1022.12 1022.12 1022.12 1022.12 1022.12 1000 1022.12 1022.12 1022.12 1022.12 1022.12 1022.12 1022.12 1022.12 1022.12 1022.12 1000 1022.12 1022.12 1022.12 1022.12 1022.12 1022.12 1022.12 1022.12 1022.12 1022.12 1000 1022.12 1022.12 1022.12 1022.12 1022.12 1022.12 1022.12 1022.12 1022.12 1022.12 1000 1022.12 1022.12 1022.12 1022.12 1022.12 1022.12 1022.12 1022.12 1022.12 1022.12 1000 1022.12 1022.12 1022.12 1022.12 1022.12 1022.12 1022.12 1022.12 1022.12 1022.12 1000 1022.12 1022.12 1022.12 1022.12 1022.12 1022.12 1022.12 1022.12 1022.12 1022.12 1000 1022.12 1022.12 1022.12 1022.12 1022.12 1022.12 1022.12 1022.12 1022.12 1022.12 1000 1022.12 1022.12 1022.12 1022.12 1022.12 1022.12 1022.12 1022.12 1022.12 1022.12 1000 1022.12 1022.12 1022.12 1022.12 1022.12 1022.12 1022.12 1022.12 1022.12 1022.12 1000 1022.12 1022.12 1022.12 1022.12 1022.12 1022.12 1022.12 1022.12 1022.12 1022.12 1000 1022.12 1022.12 1022.12 1022.12 1022.12 1022.12 1022.12 1022.12 1022.12 1022.12 1000 1022.12 1022.12 1022.12 1022.12 1022.12 1022.12 1022.12 1022.12 1022.12 1022.12 1000 1022.12 1022.12 1022.12 1022.12 1022.12 1022.12 1022.12 1022.12 1022.12 1022.12 1000 1022.12 1022.12 1022.12 1022.12 1022.12 1022.12 1022.12 1022.12 1022.12 1022.12 1000 1022.12 1022.12 1022.12 1022.12 1022.12 1022.12 1022.12 1022.12 1022.12 1022.12 1000 1022.12 1022.12 1022.12 1022.12 1022.12 1022.12 1022.12 1022.12 1022.12 1022.12 1000 1022.12 1022.12 1022.12 1022.12 1022.12 1022.12 
            </DataArray>
         </PointData> 
      </Piece>
   </UnstructuredGrid> 
</VTKFile>
