<?xml version="1.0"?>
<VTKFile type="UnstructuredGrid" version="0.1" byte_order="LittleEndian">
   <UnstructuredGrid>
      <Piece NumberOfPoints="200" NumberOfCells="0" > 
         <Points> 
            <DataArray type="Float64" Name="Position" NumberOfComponents="3" format="ascii"> 
               50  150  0  
               150  150  0  
               50  250  0  
               250  150  0  
               150  250  0  
               50  350  0  
               350  150  0  
               250  250  0  
               150  350  0  
               50  450  0  
               450  150  0  
               350  250  0  
               250  350  0  
               150  450  0  
               50  550  0  
               550  150  0  
               450  250  0  
               350  350  0  
               250  450  0  
               150  550  0  
               50  650  0  
               650  150  0  
               550  250  0  
               450  350  0  
               350  450  0  
               250  550  0  
               150  650  0  
               50  750  0  
               750  150  0  
               650  250  0  
               550  350  0  
               450  450  0  
               350  550  0  
               250  650  0  
               150  750  0  
               50  850  0  
               850  150  0  
               750  250  0  
               650  350  0  
               550  450  0  
               450  550  0  
               350  650  0  
               250  750  0  
               150  850  0  
               50  950  0  
               950  150  0  
               850  250  0  
               750  350  0  
               650  450  0  
               550  550  0  
               450  650  0  
               350  750  0  
               250  850  0  
               150  950  0  
               50  1050  0  
               1050  150  0  
               950  250  0  
               850  350  0  
               750  450  0  
               650  550  0  
               550  650  0  
               450  750  0  
               350  850  0  
               250  950  0  
               150  1050  0  
               1150  150  0  
               1050  250  0  
               950  350  0  
               850  450  0  
               750  550  0  
               650  650  0  
               550  750  0  
               450  850  0  
               350  950  0  
               250  1050  0  
               1250  150  0  
               1150  250  0  
               1050  350  0  
               950  450  0  
               850  550  0  
               750  650  0  
               650  750  0  
               550  850  0  
               450  950  0  
               350  1050  0  
               1350  150  0  
               1250  250  0  
               1150  350  0  
               1050  450  0  
               950  550  0  
               850  650  0  
               750  750  0  
               650  850  0  
               550  950  0  
               450  1050  0  
               1450  150  0  
               1350  250  0  
               1250  350  0  
               1150  450  0  
               1050  550  0  
               950  650  0  
               850  750  0  
               750  850  0  
               650  950  0  
               550  1050  0  
               1550  150  0  
               1450  250  0  
               1350  350  0  
               1250  450  0  
               1150  550  0  
               1050  650  0  
               950  750  0  
               850  850  0  
               750  950  0  
               650  1050  0  
               1650  150  0  
               1550  250  0  
               1450  350  0  
               1350  450  0  
               1250  550  0  
               1150  650  0  
               1050  750  0  
               950  850  0  
               850  950  0  
               750  1050  0  
               1750  150  0  
               1650  250  0  
               1550  350  0  
               1450  450  0  
               1350  550  0  
               1250  650  0  
               1150  750  0  
               1050  850  0  
               950  950  0  
               850  1050  0  
               1850  150  0  
               1750  250  0  
               1650  350  0  
               1550  450  0  
               1450  550  0  
               1350  650  0  
               1250  750  0  
               1150  850  0  
               1050  950  0  
               950  1050  0  
               1950  150  0  
               1850  250  0  
               1750  350  0  
               1650  450  0  
               1550  550  0  
               1450  650  0  
               1350  750  0  
               1250  850  0  
               1150  950  0  
               1050  1050  0  
               1950  250  0  
               1850  350  0  
               1750  450  0  
               1650  550  0  
               1550  650  0  
               1450  750  0  
               1350  850  0  
               1250  950  0  
               1150  1050  0  
               1950  350  0  
               1850  450  0  
               1750  550  0  
               1650  650  0  
               1550  750  0  
               1450  850  0  
               1350  950  0  
               1250  1050  0  
               1950  450  0  
               1850  550  0  
               1750  650  0  
               1650  750  0  
               1550  850  0  
               1450  950  0  
               1350  1050  0  
               1950  550  0  
               1850  650  0  
               1750  750  0  
               1650  850  0  
               1550  950  0  
               1450  1050  0  
               1950  650  0  
               1850  750  0  
               1750  850  0  
               1650  950  0  
               1550  1050  0  
               1950  750  0  
               1850  850  0  
               1750  950  0  
               1650  1050  0  
               1950  850  0  
               1850  950  0  
               1750  1050  0  
               1950  950  0  
               1850  1050  0  
               1950  1050  0  
            </DataArray>
         </Points> 

         <Cells>
            <DataArray type="Int32" Name="connectivity" NumberOfComponents="1" format="ascii">
               
            </DataArray> 
            <DataArray type="Int32" Name="offsets" NumberOfComponents="1" format="ascii">
               
            </DataArray>
            <DataArray type="UInt8"  Name="types" NumberOfComponents="1" format="ascii">
               
            </DataArray>
         </Cells>
         <PointData Scalars="Rank sea_floor_depth_below_sea_surface sea_surface_height sea_floor_depth_below_geoid sources_sinks " Vectors="">
            <DataArray type="UInt32" Name="Rank" NumberOfComponents="1" format="ascii">
               0 0 0 0 0 0 0 0 0 0 0 0 0 0 0 0 0 0 0 0 0 0 0 0 0 0 0 0 0 0 0 0 0 0 0 0 0 0 0 0 0 0 0 0 0 0 0 0 0 0 0 0 0 0 0 0 0 0 0 0 0 0 0 0 0 0 0 0 0 0 0 0 0 0 0 0 0 0 0 0 0 0 0 0 0 0 0 0 0 0 0 0 0 0 0 0 0 0 0 0 0 0 0 0 0 0 0 0 0 0 0 0 0 0 0 0 0 0 0 0 0 0 0 0 0 0 0 0 0 0 0 0 0 0 0 0 0 0 0 0 0 0 0 0 0 0 0 0 0 0 0 0 0 0 0 0 0 0 0 0 0 0 0 0 0 0 0 0 0 0 0 0 0 0 0 0 0 0 0 0 0 0 0 0 0 0 0 0 0 0 0 0 0 0 0 0 0 0 0 0 
            </DataArray>
            <DataArray type="Float64" Name="sea_floor_depth_below_sea_surface" NumberOfComponents="1" format="ascii">
               0 0 0 0 0 0 0 0 0 0 0 0 0 0 0 0 0 0 0 0 0 0 0 0 0 0 0 0 0 0 0 0 0 0 0 0 0 0 0 0 0 0 0 0 0 0 0 0 0 0 0 0 0 0 0 0 0 0 0 0 0 0 0 0 0 0 0 0 0 0 0 0 0 0 0 0 0 0 0 0 0 0 0 0 0 0 0 0 0 0 0 0 0 0 0 0 0 0 0 0 0 0 0 0 0 0 0 0 0 0 0 0 0 0 0 0 0 0 0 0 0 0 0 0 0 0 0 0 0 0 0 0 0 0 0 0 0 0 0 0 0 0 0 0 0 0 0 0 0 0 0 0 0 0 0 0 0 0 0 0 0 0 0 0 0 0 0 0 0 0 0 0 0 0 0 0 0 0 0 0 0 0 0 0 0 0 0 0 0 0 0 0 0 0 0 0 0 0 0 0 
            </DataArray>
            <DataArray type="Float64" Name="sea_surface_height" NumberOfComponents="1" format="ascii">
               1.21246e-07 1.40592e-07 1.01883e-07 1.63044e-07 -1.40002 7.94134e-08 1.79277e-07 -1.40001 -1.4 4.5369e-08 1.97075e-07 -1.39999 -1.4 -1.4 4.17581e-08 2.0013e-07 -1.4 -1.4 -1.4 -4.23923e-08 1.23122e-07 2.40791e-07 2.4158e-07 -1.4 -1.4 1.27489e-08 2.01906e-07 1.42605e-07 2.64977e-07 1.89033e-07 2.06131e-07 -1.4 1.80152e-07 1.65048e-07 1.27589e-07 1.22407e-07 -2.75834e-08 1.75239e-07 3.74734e-07 2.55336e-07 2.69991e-07 4.52866e-08 1.16696e-07 1.20238e-07 1.13474e-07 -1.56039e-07 7.2268e-08 -2.98413e-07 1.48848e-07 1.79668e-07 -1.11893e-09 8.6372e-08 1.05904e-07 1.11671e-07 1.12277e-07 -1.27418e-07 0.70048 4.1622e-07 2.24226e-07 1.63489e-07 8.85549e-08 7.09526e-08 9.28073e-08 1.03822e-07 1.11364e-07 -1.25097e-07 0.700032 0.701176 1.93528e-07 1.69771e-07 1.02085e-07 6.27169e-08 7.84413e-08 9.28324e-08 1.03504e-07 -1.21451e-07 0.699582 0.699854 0.70048 9.25142e-08 4.97773e-08 6.50896e-08 7.23373e-08 8.36843e-08 9.39451e-08 -1.35714e-07 0.699732 0.699574 0.700032 4.01788e-07 -2.59382e-07 9.61149e-09 5.90589e-08 7.5199e-08 8.46536e-08 -1.68489e-07 -1.44915e-07 0.699745 0.699582 -1.7859e-07 -8.97222e-07 -5.24348e-08 4.2662e-08 6.8969e-08 7.76916e-08 -1.61504e-07 -1.6634e-07 -1.93638e-07 0.699732 -7.69719e-07 -2.20241e-07 2.14944e-07 7.92698e-08 7.32176e-08 7.39282e-08 -1.55499e-07 -1.50359e-07 -1.12389e-07 -1.87512e-07 -6.47415e-07 2.00286e-07 5.57315e-08 5.22352e-08 7.51184e-08 7.35772e-08 -1.54629e-07 -1.57764e-07 -1.62793e-07 -1.95432e-07 -2.83091e-07 -6.6496e-09 1.5873e-07 1.46792e-07 1.12048e-07 8.38656e-08 -1.53032e-07 -1.53788e-07 -1.52955e-07 -1.52808e-07 -1.67911e-07 -3.15899e-08 2.70323e-07 1.29903e-07 1.04661e-07 9.85514e-08 -1.52914e-07 -1.52981e-07 -1.54325e-07 -1.60003e-07 -1.6455e-07 -9.04903e-08 -2.55697e-08 1.48663e-07 2.15821e-07 1.35053e-07 -1.5275e-07 -1.51307e-07 -1.53069e-07 -1.61323e-07 -1.88085e-07 -1.00238e-07 -0.700001 1.12146e-07 1.11936e-07 -1.51326e-07 -1.50006e-07 -1.57821e-07 -1.95213e-07 -1.75714e-08 -0.700001 -0.700004 1.79848e-07 -1.48007e-07 -1.4371e-07 -1.41087e-07 -1.83994e-08 -0.699999 -0.700001 -0.700001 -1.41598e-07 -1.30089e-07 -9.62454e-08 -0.699999 -0.699998 -0.700001 -1.33868e-07 -1.2594e-07 -1.0952e-07 -0.699999 -0.699999 -1.24448e-07 -1.18726e-07 -1.25318e-07 -0.699999 -1.21255e-07 -1.19028e-07 -1.23216e-07 -1.19679e-07 -1.20906e-07 -1.19921e-07 
            </DataArray>
            <DataArray type="Float64" Name="sea_floor_depth_below_geoid" NumberOfComponents="1" format="ascii">
               10 10 10 10 10 10 10 10 10 10 10 10 10 10 10 10 10 10 10 10 10 10 10 10 10 10 10 10 10 10 10 10 10 10 10 10 10 10 10 10 10 10 10 10 10 10 10 10 10 10 10 10 10 10 10 10 10 10 10 10 10 10 10 10 10 10 10 10 10 10 10 10 10 10 10 10 10 10 10 10 10 10 10 10 10 10 10 10 10 10 10 10 10 10 10 10 10 10 10 10 10 10 10 10 10 10 10 10 10 10 10 10 10 10 10 10 10 10 10 10 10 10 10 10 10 10 10 10 10 10 10 10 10 10 10 10 10 10 10 10 10 10 10 10 10 10 10 10 10 10 10 10 10 10 10 10 10 10 10 10 10 10 10 10 10 10 10 10 10 10 10 10 10 10 10 10 10 10 10 10 10 10 10 10 10 10 10 10 10 10 10 10 10 10 10 10 10 10 10 10 
            </DataArray>
            <DataArray type="Float64" Name="sources_sinks" NumberOfComponents="1" format="ascii">
               0 0 0 0 0 0 0 0 0 0 0 0 0 0 0 0 0 0 0 0 0 0 0 0 0 0 0 0 0 0 0 0 0 0 0 0 0 0 0 0 0 0 0 0 0 0 0 0 0 0 0 0 0 0 0 0 0 0 0 0 0 0 0 0 0 0 0 0 0 0 0 0 0 0 0 0 0 0 0 0 0 0 0 0 0 0 0 0 0 0 0 0 0 0 0 0 0 0 0 0 0 0 0 0 0 0 0 0 0 0 0 0 0 0 0 0 0 0 0 0 0 0 0 0 0 0 0 0 0 0 0 0 0 0 0 0 0 0 0 0 0 0 0 0 0 0 0 0 0 0 0 0 0 0 0 0 0 0 0 0 0 0 0 0 0 0 0 0 0 0 0 0 0 0 0 0 0 0 0 0 0 0 0 0 0 0 0 0 0 0 0 0 0 0 0 0 0 0 0 0 
            </DataArray>
         </PointData> 
      </Piece>
   </UnstructuredGrid> 
</VTKFile>
