<?xml version="1.0"?>
<VTKFile type="UnstructuredGrid" version="0.1" byte_order="LittleEndian">
   <UnstructuredGrid>
      <Piece NumberOfPoints="200" NumberOfCells="0" > 
         <Points> 
            <DataArray type="Float64" Name="Position" NumberOfComponents="3" format="ascii"> 
               50  150  0  
               150  150  0  
               50  250  0  
               250  150  0  
               150  250  0  
               50  350  0  
               350  150  0  
               250  250  0  
               150  350  0  
               50  450  0  
               450  150  0  
               350  250  0  
               250  350  0  
               150  450  0  
               50  550  0  
               550  150  0  
               450  250  0  
               350  350  0  
               250  450  0  
               150  550  0  
               50  650  0  
               650  150  0  
               550  250  0  
               450  350  0  
               350  450  0  
               250  550  0  
               150  650  0  
               50  750  0  
               750  150  0  
               650  250  0  
               550  350  0  
               450  450  0  
               350  550  0  
               250  650  0  
               150  750  0  
               50  850  0  
               850  150  0  
               750  250  0  
               650  350  0  
               550  450  0  
               450  550  0  
               350  650  0  
               250  750  0  
               150  850  0  
               50  950  0  
               950  150  0  
               850  250  0  
               750  350  0  
               650  450  0  
               550  550  0  
               450  650  0  
               350  750  0  
               250  850  0  
               150  950  0  
               50  1050  0  
               1050  150  0  
               950  250  0  
               850  350  0  
               750  450  0  
               650  550  0  
               550  650  0  
               450  750  0  
               350  850  0  
               250  950  0  
               150  1050  0  
               1150  150  0  
               1050  250  0  
               950  350  0  
               850  450  0  
               750  550  0  
               650  650  0  
               550  750  0  
               450  850  0  
               350  950  0  
               250  1050  0  
               1250  150  0  
               1150  250  0  
               1050  350  0  
               950  450  0  
               850  550  0  
               750  650  0  
               650  750  0  
               550  850  0  
               450  950  0  
               350  1050  0  
               1350  150  0  
               1250  250  0  
               1150  350  0  
               1050  450  0  
               950  550  0  
               850  650  0  
               750  750  0  
               650  850  0  
               550  950  0  
               450  1050  0  
               1450  150  0  
               1350  250  0  
               1250  350  0  
               1150  450  0  
               1050  550  0  
               950  650  0  
               850  750  0  
               750  850  0  
               650  950  0  
               550  1050  0  
               1550  150  0  
               1450  250  0  
               1350  350  0  
               1250  450  0  
               1150  550  0  
               1050  650  0  
               950  750  0  
               850  850  0  
               750  950  0  
               650  1050  0  
               1650  150  0  
               1550  250  0  
               1450  350  0  
               1350  450  0  
               1250  550  0  
               1150  650  0  
               1050  750  0  
               950  850  0  
               850  950  0  
               750  1050  0  
               1750  150  0  
               1650  250  0  
               1550  350  0  
               1450  450  0  
               1350  550  0  
               1250  650  0  
               1150  750  0  
               1050  850  0  
               950  950  0  
               850  1050  0  
               1850  150  0  
               1750  250  0  
               1650  350  0  
               1550  450  0  
               1450  550  0  
               1350  650  0  
               1250  750  0  
               1150  850  0  
               1050  950  0  
               950  1050  0  
               1950  150  0  
               1850  250  0  
               1750  350  0  
               1650  450  0  
               1550  550  0  
               1450  650  0  
               1350  750  0  
               1250  850  0  
               1150  950  0  
               1050  1050  0  
               1950  250  0  
               1850  350  0  
               1750  450  0  
               1650  550  0  
               1550  650  0  
               1450  750  0  
               1350  850  0  
               1250  950  0  
               1150  1050  0  
               1950  350  0  
               1850  450  0  
               1750  550  0  
               1650  650  0  
               1550  750  0  
               1450  850  0  
               1350  950  0  
               1250  1050  0  
               1950  450  0  
               1850  550  0  
               1750  650  0  
               1650  750  0  
               1550  850  0  
               1450  950  0  
               1350  1050  0  
               1950  550  0  
               1850  650  0  
               1750  750  0  
               1650  850  0  
               1550  950  0  
               1450  1050  0  
               1950  650  0  
               1850  750  0  
               1750  850  0  
               1650  950  0  
               1550  1050  0  
               1950  750  0  
               1850  850  0  
               1750  950  0  
               1650  1050  0  
               1950  850  0  
               1850  950  0  
               1750  1050  0  
               1950  950  0  
               1850  1050  0  
               1950  1050  0  
            </DataArray>
         </Points> 

         <Cells>
            <DataArray type="Int32" Name="connectivity" NumberOfComponents="1" format="ascii">
               
            </DataArray> 
            <DataArray type="Int32" Name="offsets" NumberOfComponents="1" format="ascii">
               
            </DataArray>
            <DataArray type="UInt8"  Name="types" NumberOfComponents="1" format="ascii">
               
            </DataArray>
         </Cells>
         <PointData Scalars="Rank sea_floor_depth_below_sea_surface sea_surface_height sea_floor_depth_below_geoid sources_sinks " Vectors="">
            <DataArray type="UInt32" Name="Rank" NumberOfComponents="1" format="ascii">
               0 0 0 0 0 0 0 0 0 0 0 0 0 0 0 0 0 0 0 0 0 0 0 0 0 0 0 0 0 0 0 0 0 0 0 0 0 0 0 0 0 0 0 0 0 0 0 0 0 0 0 0 0 0 0 0 0 0 0 0 0 0 0 0 0 0 0 0 0 0 0 0 0 0 0 0 0 0 0 0 0 0 0 0 0 0 0 0 0 0 0 0 0 0 0 0 0 0 0 0 0 0 0 0 0 0 0 0 0 0 0 0 0 0 0 0 0 0 0 0 0 0 0 0 0 0 0 0 0 0 0 0 0 0 0 0 0 0 0 0 0 0 0 0 0 0 0 0 0 0 0 0 0 0 0 0 0 0 0 0 0 0 0 0 0 0 0 0 0 0 0 0 0 0 0 0 0 0 0 0 0 0 0 0 0 0 0 0 0 0 0 0 0 0 0 0 0 0 0 0 
            </DataArray>
            <DataArray type="Float64" Name="sea_floor_depth_below_sea_surface" NumberOfComponents="1" format="ascii">
               0 0 0 0 0 0 0 0 0 0 0 0 0 0 0 0 0 0 0 0 0 0 0 0 0 0 0 0 0 0 0 0 0 0 0 0 0 0 0 0 0 0 0 0 0 0 0 0 0 0 0 0 0 0 0 0 0 0 0 0 0 0 0 0 0 0 0 0 0 0 0 0 0 0 0 0 0 0 0 0 0 0 0 0 0 0 0 0 0 0 0 0 0 0 0 0 0 0 0 0 0 0 0 0 0 0 0 0 0 0 0 0 0 0 0 0 0 0 0 0 0 0 0 0 0 0 0 0 0 0 0 0 0 0 0 0 0 0 0 0 0 0 0 0 0 0 0 0 0 0 0 0 0 0 0 0 0 0 0 0 0 0 0 0 0 0 0 0 0 0 0 0 0 0 0 0 0 0 0 0 0 0 0 0 0 0 0 0 0 0 0 0 0 0 0 0 0 0 0 0 
            </DataArray>
            <DataArray type="Float64" Name="sea_surface_height" NumberOfComponents="1" format="ascii">
               1.48556e-07 1.69124e-07 1.2795e-07 1.952e-07 -2.40002 1.01848e-07 2.10227e-07 -2.40001 -2.4 6.28015e-08 2.35999e-07 -2.39999 -2.4 -2.4 6.17968e-08 2.19841e-07 -2.4 -2.4 -2.4 -4.09208e-08 1.56687e-07 2.52196e-07 2.78807e-07 -2.4 -2.4 1.67206e-08 2.50524e-07 1.84221e-07 2.88242e-07 2.02936e-07 2.20497e-07 -2.4 2.14001e-07 2.1155e-07 1.65105e-07 1.60476e-07 -3.87619e-08 1.54804e-07 4.10471e-07 2.81377e-07 3.31997e-07 6.48968e-08 1.523e-07 1.59912e-07 1.50915e-07 -2.03041e-07 8.05737e-08 -2.85196e-07 1.65132e-07 1.98049e-07 -1.11871e-09 1.17132e-07 1.42682e-07 1.50857e-07 1.51686e-07 -1.62071e-07 1.20037 3.94716e-07 2.08053e-07 1.64651e-07 1.07768e-07 1.0149e-07 1.30825e-07 1.43979e-07 1.5309e-07 -1.61261e-07 1.19997 1.20095 1.90624e-07 1.47044e-07 1.13525e-07 8.665e-08 1.15541e-07 1.33595e-07 1.44965e-07 -1.58166e-07 1.19961 1.19976 1.20037 -4.26458e-08 3.38452e-08 9.43295e-08 1.14058e-07 1.28501e-07 1.36615e-07 -1.76691e-07 1.19993 1.1996 1.19997 1.71929e-07 -3.57443e-07 3.29861e-08 1.04451e-07 1.24716e-07 1.29951e-07 -2.10161e-07 -1.8789e-07 1.19991 1.19961 -3.86683e-07 -1.10222e-06 3.92984e-08 1.09688e-07 1.2959e-07 1.29467e-07 -2.04098e-07 -2.01673e-07 -2.14496e-07 1.19993 -9.76786e-07 -3.80925e-07 4.62652e-07 1.96331e-07 1.58502e-07 1.37575e-07 -1.99636e-07 -1.94783e-07 -1.65965e-07 -2.44917e-07 -8.14762e-07 4.29333e-08 1.84133e-07 1.34497e-07 1.69764e-07 1.5114e-07 -2.00925e-07 -2.05453e-07 -2.12895e-07 -2.53434e-07 -4.26867e-07 -2.63768e-07 2.63791e-07 2.95332e-07 2.56432e-07 1.86928e-07 -1.99381e-07 -1.9957e-07 -1.99129e-07 -2.03555e-07 -2.43376e-07 -1.3576e-07 4.82948e-07 2.69935e-07 2.29968e-07 2.13127e-07 -2.00029e-07 -2.00353e-07 -2.02962e-07 -2.10145e-07 -2.14755e-07 -1.27718e-07 4.04281e-08 2.37196e-07 3.67654e-07 2.77742e-07 -2.00379e-07 -1.9825e-07 -2.00164e-07 -2.09994e-07 -2.41904e-07 -1.309e-07 -1.2 2.74156e-07 2.58347e-07 -1.99668e-07 -1.98293e-07 -2.07725e-07 -2.45966e-07 -5.09024e-08 -1.2 -1.2 3.31511e-07 -1.96143e-07 -1.90796e-07 -1.8752e-07 -5.67186e-08 -1.2 -1.2 -1.2 -1.8949e-07 -1.76975e-07 -1.40977e-07 -1.2 -1.2 -1.2 -1.81531e-07 -1.74833e-07 -1.57907e-07 -1.2 -1.2 -1.71685e-07 -1.67769e-07 -1.78272e-07 -1.2 -1.69237e-07 -1.6782e-07 -1.74525e-07 -1.68376e-07 -1.71011e-07 -1.68933e-07 
            </DataArray>
            <DataArray type="Float64" Name="sea_floor_depth_below_geoid" NumberOfComponents="1" format="ascii">
               10 10 10 10 10 10 10 10 10 10 10 10 10 10 10 10 10 10 10 10 10 10 10 10 10 10 10 10 10 10 10 10 10 10 10 10 10 10 10 10 10 10 10 10 10 10 10 10 10 10 10 10 10 10 10 10 10 10 10 10 10 10 10 10 10 10 10 10 10 10 10 10 10 10 10 10 10 10 10 10 10 10 10 10 10 10 10 10 10 10 10 10 10 10 10 10 10 10 10 10 10 10 10 10 10 10 10 10 10 10 10 10 10 10 10 10 10 10 10 10 10 10 10 10 10 10 10 10 10 10 10 10 10 10 10 10 10 10 10 10 10 10 10 10 10 10 10 10 10 10 10 10 10 10 10 10 10 10 10 10 10 10 10 10 10 10 10 10 10 10 10 10 10 10 10 10 10 10 10 10 10 10 10 10 10 10 10 10 10 10 10 10 10 10 10 10 10 10 10 10 
            </DataArray>
            <DataArray type="Float64" Name="sources_sinks" NumberOfComponents="1" format="ascii">
               0 0 0 0 0 0 0 0 0 0 0 0 0 0 0 0 0 0 0 0 0 0 0 0 0 0 0 0 0 0 0 0 0 0 0 0 0 0 0 0 0 0 0 0 0 0 0 0 0 0 0 0 0 0 0 0 0 0 0 0 0 0 0 0 0 0 0 0 0 0 0 0 0 0 0 0 0 0 0 0 0 0 0 0 0 0 0 0 0 0 0 0 0 0 0 0 0 0 0 0 0 0 0 0 0 0 0 0 0 0 0 0 0 0 0 0 0 0 0 0 0 0 0 0 0 0 0 0 0 0 0 0 0 0 0 0 0 0 0 0 0 0 0 0 0 0 0 0 0 0 0 0 0 0 0 0 0 0 0 0 0 0 0 0 0 0 0 0 0 0 0 0 0 0 0 0 0 0 0 0 0 0 0 0 0 0 0 0 0 0 0 0 0 0 0 0 0 0 0 0 
            </DataArray>
         </PointData> 
      </Piece>
   </UnstructuredGrid> 
</VTKFile>
